<svg id="Layer_1" xmlns="http://www.w3.org/2000/svg" xmlns:xlink="http://www.w3.org/1999/xlink" viewBox="0 0 7800 5800"><style>.st0,.st1{fill:none}.st1{stroke:#010101;stroke-width:7.4213;stroke-linejoin:round;stroke-miterlimit:10}.st2,.st3{clip-path:url(#SVGID_2_);fill:none;stroke:#4cb2c3;stroke-width:59.3392;stroke-miterlimit:8}.st3{clip-path:url(#SVGID_4_);stroke:#aaa}.st4{enable-background:new}.st5{fill:#010101}.st6{fill:#666}.st7{fill:#aaa}.st8{fill:#4cb2c3}.st10,.st9{fill:none;stroke:#4cb2c3;stroke-width:30;stroke-miterlimit:10}.st10{stroke:#aaa}</style><g id="II"><path class="st0" d="M-146.9 5841h8152.2"/><path class="st1" d="M806.3 4633.8H7742M806.3 4070H7742M806.3 3506.3H7742M806.3 2942.5H7742M806.3 2378.8H7742M806.3 1815H7742M806.3 1251.3H7742M806.3 687.5H7742M806.3 5197.6H7742M806.3 5197.6v51.9m519.3-51.9v51.9m511.8-51.9v51.9m519.2-51.9v51.9m519.3-51.9v51.9m511.8-51.9v51.9m519.3-51.9v51.9m519.2-51.9v51.9m511.8-51.9v51.9m519.3-51.9v51.9m519.2-51.9v51.9m511.8-51.9v51.9m519.3-51.9v51.9m519.2-51.9v51.9"/><defs><path id="SVGID_1_" d="M802.6 683.8h6943v4517.4h-6943z"/></defs><clipPath id="SVGID_2_"><use xlink:href="#SVGID_1_" overflow="visible"/></clipPath><path class="st2" d="M824.9 4044.1l44.5-29.7 44.5-81.6 44.5-29.7 37.1-59.3 44.5-29.7 44.5-29.6 44.5 7.4 44.5 59.3 37.1-14.8 44.5-14.8 44.5 14.8 44.5-59.4 44.5-14.8 44.5-22.3 37.1-74.1 44.5-66.8 44.5 51.9 44.5-51.9 44.5 29.7 37.1 14.8 44.5-29.7 44.5-37 44.5-52 44.5 22.3 37.1-7.4 44.6 59.3 44.5-29.6 44.5-7.5 44.5-66.7 37.1-14.9 44.5-14.8 44.5-37.1 44.5 29.7 44.5 14.8 37.1-51.9 44.5-51.9 44.5-29.7 44.5-81.6 44.5-37.1 44.5-51.9 37.1-22.3h44.5l44.5-29.6 44.5-59.4 44.5-37.1 37.1 37.1 44.5 81.6h44.5l44.5-81.6 44.5-51.9 37.1 89 44.5 7.4 44.5 66.8 44.6 44.5 44.4 29.7 37.1-89 44.6-74.2 44.5 192.8 44.5-14.8 44.5-14.8 37.1 170.6 44.5 304.1 44.5 111.3 44.5-44.5 44.5 89 44.5 126.1 37.1-59.4 44.5-111.2 44.5-96.5h44.5l44.5-133.5h37.1l44.5-74.2 44.5-14.8 44.5-81.6 44.5-59.3 37.1 66.7 44.5-37.1 44.5-66.7 44.5-37.1 44.5 133.5 37.1 14.9 44.5-133.6 44.5 22.3 44.6-118.7 44.5-74.2 37 44.5 44.5-89h44.5l44.6-66.8 44.5-44.5 44.5-81.6 37.1 14.9 44.5 14.8 44.5 44.5 44.5 37.1 44.5 133.5 37.1-178 44.5-7.4 44.5-44.5 44.5-52 44.5-66.7h37.1l44.5-14.8 44.5 118.6 44.5-103.8 44.5-74.2 37.1-22.2 44.5-37.1h44.5l44.5-7.4 44.5-14.9 37.1-163.2 44.5-37.1 44.5-126.1 44.5-81.6 44.5 89.1 44.6 37 37.1-126.1 44.5 118.7 44.5-111.2 44.5-141 44.5-22.2 37.1-59.4 44.5 81.6 44.5-96.4 44.5-74.2 44.5-103.8 37.1-59.4 44.5-103.8 44.5 111.2 44.5-163.1 44.5 133.5 37.1-66.8 44.5-22.2 44.5 74.1 44.5 74.2 44.5-74.2 37.1 66.8 44.5-66.8 44.5 74.2 44.5 141h44.5l44.6 126.1 37 89 44.5-237.4 44.6 89 44.5 59.4 44.5 37h37.1l44.5-252.2 44.5-74.1 44.5-44.5 44.5-163.2 37.1-66.8 44.5 37.1 44.5-74.2 44.5 111.3 44.5-7.4 37.1-148.4"/><defs><path id="SVGID_3_" d="M802.6 683.8h6943v4517.4h-6943z"/></defs><clipPath id="SVGID_4_"><use xlink:href="#SVGID_3_" overflow="visible"/></clipPath><path class="st3" d="M824.9 4058.9l44.5 7.4 44.5-59.3 44.5-14.8 37.1-59.4 44.5-22.2 44.5-22.3 44.5 22.3 44.5 22.2 37.1-22.2 44.5-22.3 44.5 44.5 44.5-7.4 44.5-14.8 44.5-14.9 37.1-59.3 44.5-44.5 44.5 37.1 44.5-29.7 44.5 22.3 37.1 29.6 44.5-44.5h44.5l44.5-51.9 44.5 14.8 37.1-14.8 44.6 22.2 44.5-51.9h44.5l44.5-37.1 37.1-7.4 44.5-14.8 44.5-22.3 44.5 44.5h44.5l37.1-14.8 44.5-37.1 44.5-37.1 44.5-51.9 44.5-29.7 44.5-22.2 37.1-29.7 44.5 37.1 44.5-22.3 44.5-74.1 44.5-66.8 37.1 37.1 44.5 51.9 44.5-22.2 44.5-66.8 44.5-29.7 37.1 74.2 44.5 14.8 44.5 103.9 44.6 59.3 44.4 7.5 37.1-81.6 44.6-22.3 44.5 148.3 44.5 14.9 44.5-22.3 37.1 141 44.5 244.8 44.5 81.6 44.5-7.5 44.5 89.1 44.5 111.2 37.1-81.6 44.5-96.4 44.5 111.3 44.5-170.6 44.5-89.1 37.1-44.5 44.5-51.9 44.5 29.7 44.5-81.6 44.5-29.7 37.1 51.9 44.5-44.5 44.5-81.6 44.5-22.2 44.5 118.7 37.1 74.1 44.5-96.4 44.5 66.8 44.6-118.7 44.5-59.4h37l44.5-103.8 44.5-37.1 44.6-59.3h44.5l44.5-52 37.1 22.3 44.5 29.7 44.5 37.1 44.5 89 44.5 111.2 37.1-163.2 44.5 7.5 44.5-22.3 44.5-74.2 44.5-74.2 37.1-59.3 44.5 7.4 44.5 118.7 44.5-74.2 44.5-29.6 37.1-37.1 44.5-52 44.5 37.1 44.5-14.8 44.5-14.8 37.1-103.9 44.5-22.2 44.5-81.6 44.5-37.1 44.5-51.9 44.6 29.6 37.1-118.7 44.5 74.2 44.5-74.2 44.5-103.8 44.5-81.6 37.1-59.3 44.5 89 44.5-111.3 44.5-22.3 44.5-22.2 37.1-59.4 44.5-59.3 44.5 37.1 44.5-111.3 44.5 44.5 37.1-66.7 44.5-81.6 44.5 7.4 44.5 89 44.5-163.2 37.1 44.5 44.5-22.2 44.5-44.5 44.5 59.3 44.5-59.3 44.6 185.4 37 66.8 44.5-237.4 44.6-7.4 44.5 81.6 44.5 148.3h37.1l44.5-185.4 44.5-44.5 44.5-59.4h44.5l37.1-118.6 44.5-7.5h44.5l44.5 59.4 44.5-118.7 37.1-66.8"/><path class="st4 st5" d="M506.1 5268.2v-15c-7.5-.9-13.6-2.6-18.3-5-4.7-2.4-8.7-6.3-12.2-11.7-3.4-5.4-5.4-12-6-19.7l15.1-2.8c1.2 8.1 3.2 14 6.2 17.7 4.2 5.3 9.3 8.3 15.2 8.9v-47.7c-6.2-1.2-12.5-3.6-18.9-7.2-4.8-2.7-8.5-6.4-11-11.1-2.6-4.7-3.9-10.1-3.9-16.1 0-10.7 3.8-19.3 11.3-25.9 5.1-4.4 12.6-7.2 22.5-8.2v-7.2h8.8v7.2c8.7.8 15.6 3.4 20.7 7.7 6.6 5.4 10.5 12.9 11.8 22.4l-15.5 2.3c-.9-5.9-2.7-10.4-5.5-13.5-2.8-3.1-6.7-5.2-11.5-6.2v43.2c7.6 1.9 12.5 3.4 15 4.4 4.7 2.1 8.5 4.6 11.4 7.5 2.9 2.9 5.2 6.4 6.8 10.5 1.6 4.1 2.4 8.4 2.4 13.2 0 10.4-3.3 19-9.9 26-6.6 6.9-15.2 10.7-25.7 11.2v15.2h-8.8zm0-131.3c-5.8.9-10.4 3.2-13.8 7-3.4 3.8-5 8.2-5 13.4 0 5.1 1.4 9.4 4.3 12.8 2.9 3.4 7.7 6.2 14.5 8.2v-41.4zm8.8 103.7c5.8-.7 10.6-3.2 14.5-7.6 3.8-4.3 5.7-9.7 5.7-16.1 0-5.4-1.3-9.8-4-13.1-2.7-3.3-8.1-6.3-16.1-8.9v45.7zM567.1 5190.4c0-14.4 1.5-26.1 4.5-34.9 3-8.8 7.4-15.6 13.2-20.4 5.9-4.8 13.2-7.2 22.1-7.2 6.6 0 12.3 1.3 17.2 4 4.9 2.6 9 6.4 12.2 11.4 3.2 5 5.7 11 7.6 18.2 1.8 7.1 2.7 16.8 2.7 28.9 0 14.3-1.5 25.9-4.4 34.7-2.9 8.8-7.3 15.6-13.2 20.4-5.9 4.8-13.3 7.2-22.2 7.2-11.8 0-21-4.2-27.7-12.7-8-10.1-12-26.7-12-49.6zm15.4 0c0 20 2.3 33.4 7 40 4.7 6.6 10.5 10 17.4 10 6.9 0 12.7-3.3 17.4-10 4.7-6.7 7-20 7-40 0-20.1-2.3-33.5-7-40.1-4.7-6.6-10.5-9.9-17.5-9.9-6.9 0-12.4 2.9-16.5 8.7-5.2 7.5-7.8 21.3-7.8 41.3zM169.3 4704.5v-15c-7.5-.9-13.6-2.6-18.3-5-4.7-2.4-8.7-6.3-12.2-11.7-3.4-5.4-5.4-12-6-19.7l15.1-2.8c1.2 8.1 3.2 14 6.2 17.7 4.2 5.3 9.3 8.3 15.2 8.9v-47.7c-6.2-1.2-12.5-3.6-18.9-7.2-4.8-2.7-8.5-6.4-11-11.1-2.6-4.7-3.9-10.1-3.9-16.1 0-10.7 3.8-19.3 11.3-25.9 5.1-4.4 12.6-7.2 22.5-8.2v-7.2h8.8v7.2c8.7.8 15.6 3.4 20.7 7.7 6.6 5.4 10.5 12.9 11.8 22.4l-15.5 2.3c-.9-5.9-2.7-10.4-5.5-13.5-2.8-3.1-6.7-5.2-11.5-6.2v43.2c7.6 1.9 12.5 3.4 15 4.4 4.7 2.1 8.5 4.6 11.4 7.5 2.9 2.9 5.2 6.4 6.8 10.5 1.6 4.1 2.4 8.4 2.4 13.2 0 10.4-3.3 19-9.9 26-6.6 6.9-15.2 10.7-25.7 11.2v15.2h-8.8zm0-131.3c-5.8.9-10.4 3.2-13.8 7-3.4 3.8-5 8.2-5 13.4 0 5.1 1.4 9.4 4.3 12.8 2.9 3.4 7.7 6.2 14.5 8.2v-41.4zm8.8 103.7c5.8-.7 10.6-3.2 14.5-7.6 3.8-4.3 5.7-9.7 5.7-16.1 0-5.4-1.3-9.8-4-13.1-2.7-3.3-8.1-6.3-16.1-8.9v45.7zM230.3 4654.9l15.7-1.3c1.2 7.7 3.9 13.4 8.1 17.3 4.2 3.9 9.4 5.8 15.4 5.8 7.2 0 13.3-2.7 18.3-8.2 5-5.4 7.5-12.7 7.5-21.7 0-8.6-2.4-15.3-7.2-20.2-4.8-4.9-11.1-7.4-18.9-7.4-4.8 0-9.2 1.1-13.1 3.3-3.9 2.2-6.9 5-9.2 8.5l-14.1-1.8 11.8-62.7h60.7v14.3h-48.7l-6.6 32.8c7.3-5.1 15-7.7 23.1-7.7 10.7 0 19.7 3.7 27 11.1s11 16.9 11 28.5c0 11.1-3.2 20.6-9.7 28.7-7.8 9.9-18.5 14.8-32.1 14.8-11.1 0-20.2-3.1-27.2-9.3-6.8-6.2-10.8-14.5-11.8-24.8zM334.8 4686.9v-17.1h17.1v17.1c0 6.3-1.1 11.3-3.3 15.2-2.2 3.9-5.7 6.8-10.6 9l-4.2-6.4c3.2-1.4 5.5-3.4 7-6.1 1.5-2.7 2.3-6.6 2.5-11.6h-8.5zM371.4 4626.7c0-14.4 1.5-26.1 4.5-34.9 3-8.8 7.4-15.6 13.2-20.4 5.9-4.8 13.2-7.2 22.1-7.2 6.6 0 12.3 1.3 17.2 4 4.9 2.6 9 6.4 12.2 11.4 3.2 5 5.7 11 7.6 18.2 1.8 7.1 2.7 16.8 2.7 28.9 0 14.3-1.5 25.9-4.4 34.7-2.9 8.8-7.3 15.6-13.2 20.4-5.9 4.8-13.3 7.2-22.2 7.2-11.8 0-21-4.2-27.7-12.7-8-10.1-12-26.7-12-49.6zm15.4 0c0 20 2.3 33.4 7 40 4.7 6.6 10.5 10 17.4 10 6.9 0 12.7-3.3 17.4-10 4.7-6.7 7-20 7-40 0-20.1-2.3-33.5-7-40.1-4.7-6.6-10.5-9.9-17.5-9.9-6.9 0-12.4 2.9-16.5 8.7-5.2 7.5-7.8 21.3-7.8 41.3zM467.8 4626.7c0-14.4 1.5-26.1 4.5-34.9 3-8.8 7.4-15.6 13.2-20.4 5.9-4.8 13.2-7.2 22.1-7.2 6.6 0 12.3 1.3 17.2 4 4.9 2.6 9 6.4 12.2 11.4 3.2 5 5.7 11 7.6 18.2 1.8 7.1 2.7 16.8 2.7 28.9 0 14.3-1.5 25.9-4.4 34.7-2.9 8.8-7.3 15.6-13.2 20.4-5.9 4.8-13.3 7.2-22.2 7.2-11.8 0-21-4.2-27.7-12.7-8-10.1-12-26.7-12-49.6zm15.4 0c0 20 2.3 33.4 7 40 4.7 6.6 10.5 10 17.4 10 6.9 0 12.7-3.3 17.4-10 4.7-6.7 7-20 7-40 0-20.1-2.3-33.5-7-40.1-4.7-6.6-10.5-9.9-17.5-9.9-6.9 0-12.4 2.9-16.5 8.7-5.2 7.5-7.8 21.3-7.8 41.3zM564.2 4626.7c0-14.4 1.5-26.1 4.5-34.9 3-8.8 7.4-15.6 13.2-20.4 5.9-4.8 13.2-7.2 22.1-7.2 6.6 0 12.3 1.3 17.2 4 4.9 2.6 9 6.4 12.2 11.4 3.2 5 5.7 11 7.6 18.2 1.8 7.1 2.7 16.8 2.7 28.9 0 14.3-1.5 25.9-4.4 34.7-2.9 8.8-7.3 15.6-13.2 20.4-5.9 4.8-13.3 7.2-22.2 7.2-11.8 0-21-4.2-27.7-12.7-8-10.1-12-26.7-12-49.6zm15.4 0c0 20 2.3 33.4 7 40 4.7 6.6 10.5 10 17.4 10 6.9 0 12.7-3.3 17.4-10 4.7-6.7 7-20 7-40 0-20.1-2.3-33.5-7-40.1-4.7-6.6-10.5-9.9-17.5-9.9-6.9 0-12.4 2.9-16.5 8.7-5.2 7.5-7.8 21.3-7.8 41.3zM72.9 4140.8v-15c-7.5-.9-13.6-2.6-18.3-5-4.7-2.4-8.7-6.3-12.2-11.7-3.4-5.4-5.4-12-6-19.7l15.1-2.8c1.2 8.1 3.2 14 6.2 17.7 4.2 5.3 9.3 8.3 15.2 8.9v-47.7c-6.2-1.2-12.5-3.6-18.9-7.2-4.8-2.7-8.5-6.4-11-11.1-2.6-4.7-3.9-10.1-3.9-16.1 0-10.7 3.8-19.3 11.3-25.9 5.1-4.4 12.6-7.2 22.5-8.2v-7.2h8.8v7.2c8.7.8 15.6 3.4 20.7 7.7 6.6 5.4 10.5 12.9 11.8 22.4l-15.5 2.3c-.9-5.9-2.7-10.4-5.5-13.5-2.8-3.1-6.7-5.2-11.5-6.2v43.2c7.6 1.9 12.5 3.4 15 4.4 4.7 2.1 8.5 4.6 11.4 7.5 2.9 2.9 5.2 6.4 6.8 10.5 1.6 4.1 2.4 8.4 2.4 13.2 0 10.4-3.3 19-9.9 26-6.6 6.9-15.2 10.7-25.7 11.2v15.2h-8.8zm0-131.3c-5.8.9-10.4 3.2-13.8 7-3.4 3.8-5 8.2-5 13.4 0 5.1 1.4 9.4 4.3 12.8 2.9 3.4 7.7 6.2 14.5 8.2v-41.4zm8.8 103.7c5.8-.7 10.6-3.2 14.5-7.6 3.8-4.3 5.7-9.7 5.7-16.1 0-5.4-1.3-9.8-4-13.1-2.7-3.3-8.1-6.3-16.1-8.9v45.7zM190.4 4123.3h-15v-95.6c-3.6 3.4-8.3 6.9-14.2 10.3s-11.1 6-15.8 7.7v-14.5c8.4-3.9 15.7-8.7 22-14.3 6.3-5.6 10.7-11.1 13.3-16.3h9.7v122.7zM230.3 4063c0-14.4 1.5-26.1 4.5-34.9 3-8.8 7.4-15.6 13.2-20.4 5.9-4.8 13.2-7.2 22.1-7.2 6.6 0 12.3 1.3 17.2 4 4.9 2.6 9 6.4 12.2 11.4 3.2 5 5.7 11 7.6 18.2 1.8 7.1 2.7 16.8 2.7 28.9 0 14.3-1.5 25.9-4.4 34.7-2.9 8.8-7.3 15.6-13.2 20.4-5.9 4.8-13.3 7.2-22.2 7.2-11.8 0-21-4.2-27.7-12.7-8-10.1-12-26.6-12-49.6zm15.4 0c0 20 2.3 33.4 7 40 4.7 6.6 10.5 10 17.4 10 6.9 0 12.7-3.3 17.4-10 4.7-6.7 7-20 7-40 0-20.1-2.3-33.5-7-40.1-4.7-6.6-10.5-9.9-17.5-9.9-6.9 0-12.4 2.9-16.5 8.7-5.2 7.5-7.8 21.3-7.8 41.3zM334.8 4123.3v-17.1h17.1v17.1c0 6.3-1.1 11.3-3.3 15.2-2.2 3.9-5.7 6.8-10.6 9l-4.2-6.4c3.2-1.4 5.5-3.4 7-6.1 1.5-2.7 2.3-6.6 2.5-11.6h-8.5zM371.4 4063c0-14.4 1.5-26.1 4.5-34.9 3-8.8 7.4-15.6 13.2-20.4 5.9-4.8 13.2-7.2 22.1-7.2 6.6 0 12.3 1.3 17.2 4 4.9 2.6 9 6.4 12.2 11.4 3.2 5 5.7 11 7.6 18.2 1.8 7.1 2.7 16.8 2.7 28.9 0 14.3-1.5 25.9-4.4 34.7-2.9 8.8-7.3 15.6-13.2 20.4-5.9 4.8-13.3 7.2-22.2 7.2-11.8 0-21-4.2-27.7-12.7-8-10.1-12-26.6-12-49.6zm15.4 0c0 20 2.3 33.4 7 40 4.7 6.6 10.5 10 17.4 10 6.9 0 12.7-3.3 17.4-10 4.7-6.7 7-20 7-40 0-20.1-2.3-33.5-7-40.1-4.7-6.6-10.5-9.9-17.5-9.9-6.9 0-12.4 2.9-16.5 8.7-5.2 7.5-7.8 21.3-7.8 41.3zM467.8 4063c0-14.4 1.5-26.1 4.5-34.9 3-8.8 7.4-15.6 13.2-20.4 5.9-4.8 13.2-7.2 22.1-7.2 6.6 0 12.3 1.3 17.2 4 4.9 2.6 9 6.4 12.2 11.4 3.2 5 5.7 11 7.6 18.2 1.8 7.1 2.7 16.8 2.7 28.9 0 14.3-1.5 25.9-4.4 34.7-2.9 8.8-7.3 15.6-13.2 20.4-5.9 4.8-13.3 7.2-22.2 7.2-11.8 0-21-4.2-27.7-12.7-8-10.1-12-26.6-12-49.6zm15.4 0c0 20 2.3 33.4 7 40 4.7 6.6 10.5 10 17.4 10 6.9 0 12.7-3.3 17.4-10 4.7-6.7 7-20 7-40 0-20.1-2.3-33.5-7-40.1-4.7-6.6-10.5-9.9-17.5-9.9-6.9 0-12.4 2.9-16.5 8.7-5.2 7.5-7.8 21.3-7.8 41.3zM564.2 4063c0-14.4 1.5-26.1 4.5-34.9 3-8.8 7.4-15.6 13.2-20.4 5.9-4.8 13.2-7.2 22.1-7.2 6.6 0 12.3 1.3 17.2 4 4.9 2.6 9 6.4 12.2 11.4 3.2 5 5.7 11 7.6 18.2 1.8 7.1 2.7 16.8 2.7 28.9 0 14.3-1.5 25.9-4.4 34.7-2.9 8.8-7.3 15.6-13.2 20.4-5.9 4.8-13.3 7.2-22.2 7.2-11.8 0-21-4.2-27.7-12.7-8-10.1-12-26.6-12-49.6zm15.4 0c0 20 2.3 33.4 7 40 4.7 6.6 10.5 10 17.4 10 6.9 0 12.7-3.3 17.4-10 4.7-6.7 7-20 7-40 0-20.1-2.3-33.5-7-40.1-4.7-6.6-10.5-9.9-17.5-9.9-6.9 0-12.4 2.9-16.5 8.7-5.2 7.5-7.8 21.3-7.8 41.3zM72.7 3577.1v-15c-7.5-.9-13.6-2.6-18.3-5-4.7-2.4-8.7-6.3-12.2-11.7-3.4-5.4-5.4-12-6-19.7l15.1-2.8c1.2 8.1 3.2 14 6.2 17.7 4.2 5.3 9.3 8.3 15.2 8.9v-47.7c-6.2-1.2-12.5-3.6-18.9-7.2-4.8-2.7-8.5-6.4-11-11.1-2.6-4.7-3.9-10.1-3.9-16.1 0-10.7 3.8-19.3 11.3-25.9 5.1-4.4 12.6-7.2 22.5-8.2v-7.2h8.8v7.2c8.7.8 15.6 3.4 20.7 7.7 6.6 5.4 10.5 12.9 11.8 22.4l-15.5 2.3c-.9-5.9-2.7-10.4-5.5-13.5-2.8-3.1-6.7-5.2-11.5-6.2v43.2c7.6 1.9 12.5 3.4 15 4.4 4.7 2.1 8.5 4.6 11.4 7.5 2.9 2.9 5.2 6.4 6.8 10.5 1.6 4.1 2.4 8.4 2.4 13.2 0 10.4-3.3 19-9.9 26-6.6 6.9-15.2 10.7-25.7 11.2v15.2h-8.8zm0-131.3c-5.8.9-10.4 3.2-13.8 7-3.4 3.8-5 8.2-5 13.4 0 5.1 1.4 9.4 4.3 12.8 2.9 3.4 7.7 6.2 14.5 8.2v-41.4zm8.9 103.7c5.8-.7 10.6-3.2 14.5-7.6 3.8-4.3 5.7-9.7 5.7-16.1 0-5.4-1.3-9.8-4-13.1-2.7-3.3-8.1-6.3-16.1-8.9v45.7zM190.2 3559.6h-15V3464c-3.6 3.4-8.3 6.9-14.2 10.3s-11.1 6-15.8 7.7v-14.5c8.4-3.9 15.7-8.7 22-14.3 6.3-5.6 10.7-11.1 13.3-16.3h9.7v122.7zM230.1 3527.6l15.7-1.3c1.2 7.7 3.9 13.4 8.1 17.3 4.2 3.9 9.4 5.8 15.4 5.8 7.2 0 13.3-2.7 18.3-8.2 5-5.4 7.5-12.7 7.5-21.7 0-8.6-2.4-15.3-7.2-20.2-4.8-4.9-11.1-7.4-18.9-7.4-4.8 0-9.2 1.1-13.1 3.3-3.9 2.2-6.9 5-9.2 8.5l-14.1-1.8 11.8-62.7h60.7v14.3h-48.7l-6.6 32.8c7.3-5.1 15-7.7 23.1-7.7 10.7 0 19.7 3.7 27 11.1 7.3 7.4 11 16.9 11 28.5 0 11.1-3.2 20.6-9.7 28.7-7.8 9.9-18.5 14.8-32.1 14.8-11.1 0-20.2-3.1-27.2-9.3-6.8-6.3-10.8-14.6-11.8-24.8zM334.6 3559.6v-17.1h17.1v17.1c0 6.3-1.1 11.3-3.3 15.2-2.2 3.9-5.7 6.8-10.6 9l-4.2-6.4c3.2-1.4 5.5-3.4 7-6.1 1.5-2.7 2.3-6.6 2.5-11.6h-8.5zM371.2 3499.3c0-14.4 1.5-26.1 4.5-34.9 3-8.8 7.4-15.6 13.2-20.4 5.9-4.8 13.2-7.2 22.1-7.2 6.6 0 12.3 1.3 17.2 4 4.9 2.6 9 6.4 12.2 11.4 3.2 5 5.7 11 7.6 18.2 1.8 7.1 2.7 16.8 2.7 28.9 0 14.3-1.5 25.9-4.4 34.7-2.9 8.8-7.3 15.6-13.2 20.4s-13.3 7.2-22.2 7.2c-11.8 0-21-4.2-27.7-12.7-8-10.1-12-26.6-12-49.6zm15.4 0c0 20 2.3 33.4 7 40 4.7 6.6 10.5 10 17.4 10 6.9 0 12.7-3.3 17.4-10 4.7-6.7 7-20 7-40 0-20.1-2.3-33.5-7-40.1-4.7-6.6-10.5-9.9-17.5-9.9-6.9 0-12.4 2.9-16.5 8.7-5.2 7.5-7.8 21.3-7.8 41.3zM467.6 3499.3c0-14.4 1.5-26.1 4.5-34.9 3-8.8 7.4-15.6 13.2-20.4 5.9-4.8 13.2-7.2 22.1-7.2 6.6 0 12.3 1.3 17.2 4 4.9 2.6 9 6.4 12.2 11.4 3.2 5 5.7 11 7.6 18.2 1.8 7.1 2.7 16.8 2.7 28.9 0 14.3-1.5 25.9-4.4 34.7-2.9 8.8-7.3 15.6-13.2 20.4s-13.3 7.2-22.2 7.2c-11.8 0-21-4.2-27.7-12.7-8-10.1-12-26.6-12-49.6zm15.4 0c0 20 2.3 33.4 7 40 4.7 6.6 10.5 10 17.4 10 6.9 0 12.7-3.3 17.4-10 4.7-6.7 7-20 7-40 0-20.1-2.3-33.5-7-40.1-4.7-6.6-10.5-9.9-17.5-9.9-6.9 0-12.4 2.9-16.5 8.7-5.2 7.5-7.8 21.3-7.8 41.3zM564 3499.3c0-14.4 1.5-26.1 4.5-34.9 3-8.8 7.4-15.6 13.2-20.4 5.9-4.8 13.2-7.2 22.1-7.2 6.6 0 12.3 1.3 17.2 4 4.9 2.6 9 6.4 12.2 11.4 3.2 5 5.7 11 7.6 18.2 1.8 7.1 2.7 16.8 2.7 28.9 0 14.3-1.5 25.9-4.4 34.7-2.9 8.8-7.3 15.6-13.2 20.4s-13.3 7.2-22.2 7.2c-11.8 0-21-4.2-27.7-12.7-8-10.1-12-26.6-12-49.6zm15.4 0c0 20 2.3 33.4 7 40 4.7 6.6 10.5 10 17.4 10 6.9 0 12.7-3.3 17.4-10 4.7-6.7 7-20 7-40 0-20.1-2.3-33.5-7-40.1-4.7-6.6-10.5-9.9-17.5-9.9-6.9 0-12.4 2.9-16.5 8.7-5.2 7.5-7.8 21.3-7.8 41.3zM72.6 3013.4v-15c-7.5-.9-13.6-2.6-18.3-5-4.7-2.4-8.7-6.3-12.2-11.7-3.4-5.4-5.4-12-6-19.7l15.1-2.8c1.2 8.1 3.2 14 6.2 17.7 4.2 5.3 9.3 8.3 15.2 8.9v-47.7c-6.2-1.2-12.5-3.6-18.9-7.2-4.8-2.7-8.5-6.4-11-11.1-2.6-4.7-3.9-10.1-3.9-16.1 0-10.7 3.8-19.3 11.3-25.9 5.1-4.4 12.6-7.2 22.5-8.2v-7.2h8.8v7.2c8.7.8 15.6 3.4 20.7 7.7 6.6 5.4 10.5 12.9 11.8 22.4l-15.5 2.3c-.9-5.9-2.7-10.4-5.5-13.5-2.8-3.1-6.7-5.2-11.5-6.2v43.2c7.6 1.9 12.5 3.4 15 4.4 4.7 2.1 8.5 4.6 11.4 7.5 2.9 2.9 5.2 6.4 6.8 10.5 1.6 4.1 2.4 8.4 2.4 13.2 0 10.4-3.3 19-9.9 26-6.6 6.9-15.2 10.7-25.7 11.2v15.2h-8.8zm0-131.2c-5.8.9-10.4 3.2-13.8 7-3.4 3.8-5 8.2-5 13.4 0 5.1 1.4 9.4 4.3 12.8 2.9 3.4 7.7 6.2 14.5 8.2v-41.4zm8.8 103.6c5.8-.7 10.6-3.2 14.5-7.6 3.8-4.3 5.7-9.7 5.7-16.1 0-5.4-1.3-9.8-4-13.1-2.7-3.3-8.1-6.3-16.1-8.9v45.7zM212.4 2981.5v14.4h-80.7c-.1-3.6.5-7.1 1.8-10.4 2.1-5.5 5.3-10.9 9.9-16.2 4.5-5.3 11.1-11.5 19.6-18.5 13.3-10.9 22.2-19.5 26.9-25.9 4.7-6.4 7-12.4 7-18 0-5.9-2.1-11-6.4-15-4.2-4.1-9.8-6.1-16.6-6.1-7.2 0-13 2.2-17.3 6.5s-6.5 10.3-6.6 18l-15.4-1.6c1.1-11.5 5-20.3 11.9-26.3s16.1-9 27.7-9c11.7 0 21 3.2 27.8 9.7 6.8 6.5 10.2 14.6 10.2 24.2 0 4.9-1 9.7-3 14.4-2 4.7-5.3 9.7-10 14.9-4.6 5.2-12.3 12.4-23.1 21.5-9 7.6-14.8 12.7-17.3 15.4-2.6 2.7-4.7 5.4-6.3 8.1h59.9zM230 2935.6c0-14.4 1.5-26.1 4.5-34.9 3-8.8 7.4-15.6 13.2-20.4 5.9-4.8 13.2-7.2 22.1-7.2 6.6 0 12.3 1.3 17.2 4 4.9 2.6 9 6.4 12.2 11.4 3.2 5 5.7 11 7.6 18.2 1.8 7.1 2.7 16.8 2.7 28.9 0 14.3-1.5 25.9-4.4 34.7-2.9 8.8-7.3 15.6-13.2 20.4s-13.3 7.2-22.2 7.2c-11.8 0-21-4.2-27.7-12.7-8-10.1-12-26.6-12-49.6zm15.4 0c0 20 2.3 33.4 7 40 4.7 6.6 10.5 10 17.4 10 6.9 0 12.7-3.3 17.4-10 4.7-6.7 7-20 7-40 0-20.1-2.3-33.5-7-40.1-4.7-6.6-10.5-9.9-17.5-9.9-6.9 0-12.4 2.9-16.5 8.7-5.3 7.5-7.8 21.3-7.8 41.3zM334.4 2995.9v-17.1h17.1v17.1c0 6.3-1.1 11.3-3.3 15.2-2.2 3.9-5.7 6.8-10.6 9l-4.2-6.4c3.2-1.4 5.5-3.4 7-6.1 1.5-2.7 2.3-6.6 2.5-11.6h-8.5zM371 2935.6c0-14.4 1.5-26.1 4.5-34.9 3-8.8 7.4-15.6 13.2-20.4 5.9-4.8 13.2-7.2 22.1-7.2 6.6 0 12.3 1.3 17.2 4 4.9 2.6 9 6.4 12.2 11.4 3.2 5 5.7 11 7.6 18.2 1.8 7.1 2.7 16.8 2.7 28.9 0 14.3-1.5 25.9-4.4 34.7-2.9 8.8-7.3 15.6-13.2 20.4s-13.3 7.2-22.2 7.2c-11.8 0-21-4.2-27.7-12.7-7.9-10.1-12-26.6-12-49.6zm15.5 0c0 20 2.3 33.4 7 40 4.7 6.6 10.5 10 17.4 10 6.9 0 12.7-3.3 17.4-10 4.7-6.7 7-20 7-40 0-20.1-2.3-33.5-7-40.1-4.7-6.6-10.5-9.9-17.5-9.9-6.9 0-12.4 2.9-16.5 8.7-5.3 7.5-7.8 21.3-7.8 41.3zM467.4 2935.6c0-14.4 1.5-26.1 4.5-34.9 3-8.8 7.4-15.6 13.2-20.4 5.9-4.8 13.2-7.2 22.1-7.2 6.6 0 12.3 1.3 17.2 4 4.9 2.6 9 6.4 12.2 11.4 3.2 5 5.7 11 7.6 18.2 1.8 7.1 2.7 16.8 2.7 28.9 0 14.3-1.5 25.9-4.4 34.7-2.9 8.8-7.3 15.6-13.2 20.4s-13.3 7.2-22.2 7.2c-11.8 0-21-4.2-27.7-12.7-7.9-10.1-12-26.6-12-49.6zm15.4 0c0 20 2.3 33.4 7 40 4.7 6.6 10.5 10 17.4 10 6.9 0 12.7-3.3 17.4-10 4.7-6.7 7-20 7-40 0-20.1-2.3-33.5-7-40.1-4.7-6.6-10.5-9.9-17.5-9.9-6.9 0-12.4 2.9-16.5 8.7-5.2 7.5-7.8 21.3-7.8 41.3zM563.8 2935.6c0-14.4 1.5-26.1 4.5-34.9 3-8.8 7.4-15.6 13.2-20.4 5.9-4.8 13.2-7.2 22.1-7.2 6.6 0 12.3 1.3 17.2 4 4.9 2.6 9 6.4 12.2 11.4 3.2 5 5.7 11 7.6 18.2 1.8 7.1 2.7 16.8 2.7 28.9 0 14.3-1.5 25.9-4.4 34.7-2.9 8.8-7.3 15.6-13.2 20.4s-13.3 7.2-22.2 7.2c-11.8 0-21-4.2-27.7-12.7-7.9-10.1-12-26.6-12-49.6zm15.4 0c0 20 2.3 33.4 7 40 4.7 6.6 10.5 10 17.4 10 6.9 0 12.7-3.3 17.4-10 4.7-6.7 7-20 7-40 0-20.1-2.3-33.5-7-40.1-4.7-6.6-10.5-9.9-17.5-9.9-6.9 0-12.4 2.9-16.5 8.7-5.2 7.5-7.8 21.3-7.8 41.3zM72.4 2449.8v-15c-7.5-.9-13.6-2.6-18.3-5-4.7-2.4-8.7-6.3-12.2-11.7-3.4-5.4-5.4-12-6-19.7l15.1-2.8c1.2 8.1 3.2 14 6.2 17.7 4.2 5.3 9.3 8.3 15.2 8.9v-47.7c-6.2-1.2-12.5-3.6-18.9-7.2-4.8-2.7-8.5-6.4-11-11.1-2.6-4.7-3.9-10.1-3.9-16.1 0-10.7 3.8-19.3 11.3-25.9 5.1-4.4 12.6-7.2 22.5-8.2v-7.2h8.8v7.2c8.7.8 15.6 3.4 20.7 7.7 6.6 5.4 10.5 12.9 11.8 22.4l-15.5 2.3c-.9-5.9-2.7-10.4-5.5-13.5-2.8-3.1-6.7-5.2-11.5-6.2v43.2c7.6 1.9 12.5 3.4 15 4.4 4.7 2.1 8.5 4.6 11.4 7.5 2.9 2.9 5.2 6.4 6.8 10.5 1.6 4.1 2.4 8.4 2.4 13.2 0 10.4-3.3 19-9.9 26-6.6 6.9-15.2 10.7-25.7 11.2v15.2h-8.8zm0-131.3c-5.8.9-10.4 3.2-13.8 7-3.4 3.8-5 8.2-5 13.4 0 5.1 1.4 9.4 4.3 12.8 2.9 3.4 7.7 6.2 14.5 8.2v-41.4zm8.8 103.6c5.8-.7 10.6-3.2 14.5-7.6 3.8-4.3 5.7-9.7 5.7-16.1 0-5.4-1.3-9.8-4-13.1-2.7-3.3-8.1-6.3-16.1-8.9v45.7zM212.2 2417.8v14.4h-80.7c-.1-3.6.5-7.1 1.8-10.4 2.1-5.5 5.3-10.9 9.9-16.2 4.5-5.3 11.1-11.5 19.6-18.5 13.3-10.9 22.2-19.5 26.9-25.9 4.7-6.4 7-12.4 7-18 0-5.9-2.1-11-6.4-15-4.2-4.1-9.8-6.1-16.6-6.1-7.2 0-13 2.2-17.3 6.5s-6.5 10.3-6.6 18l-15.4-1.6c1.1-11.5 5-20.3 11.9-26.3s16.1-9 27.7-9c11.7 0 21 3.2 27.8 9.7 6.8 6.5 10.2 14.6 10.2 24.2 0 4.9-1 9.7-3 14.4-2 4.7-5.3 9.7-10 14.9-4.6 5.2-12.3 12.4-23.1 21.5-9 7.6-14.8 12.7-17.3 15.4-2.6 2.7-4.7 5.4-6.3 8.1h59.9zM229.8 2400.2l15.7-1.3c1.2 7.7 3.9 13.4 8.1 17.3 4.2 3.9 9.4 5.8 15.4 5.8 7.2 0 13.3-2.7 18.3-8.2 5-5.4 7.5-12.7 7.5-21.7 0-8.6-2.4-15.3-7.2-20.2-4.8-4.9-11.1-7.4-18.9-7.4-4.8 0-9.2 1.1-13.1 3.3-3.9 2.2-6.9 5-9.2 8.5l-14.1-1.8 11.8-62.7H305v14.3h-48.7l-6.6 32.8c7.3-5.1 15-7.7 23.1-7.7 10.7 0 19.7 3.7 27 11.1 7.3 7.4 11 16.9 11 28.5 0 11.1-3.2 20.6-9.7 28.7-7.8 9.9-18.5 14.8-32.1 14.8-11.1 0-20.2-3.1-27.2-9.3-7-6.3-11-14.5-12-24.8zM334.3 2432.2v-17.1h17.1v17.1c0 6.3-1.1 11.3-3.3 15.2-2.2 3.9-5.7 6.8-10.6 9l-4.2-6.4c3.2-1.4 5.5-3.4 7-6.1 1.5-2.7 2.3-6.6 2.5-11.6h-8.5zM370.9 2371.9c0-14.4 1.5-26.1 4.5-34.9 3-8.8 7.4-15.6 13.2-20.4 5.9-4.8 13.2-7.2 22.1-7.2 6.6 0 12.3 1.3 17.2 4 4.9 2.6 9 6.4 12.2 11.4 3.2 5 5.7 11 7.6 18.2 1.8 7.1 2.7 16.8 2.7 28.9 0 14.3-1.5 25.9-4.4 34.7-2.9 8.8-7.3 15.6-13.2 20.4s-13.3 7.2-22.2 7.2c-11.8 0-21-4.2-27.7-12.7-8-10.1-12-26.6-12-49.6zm15.4 0c0 20 2.3 33.4 7 40 4.7 6.6 10.5 10 17.4 10 6.9 0 12.7-3.3 17.4-10 4.7-6.7 7-20 7-40 0-20.1-2.3-33.5-7-40.1-4.7-6.6-10.5-9.9-17.5-9.9-6.9 0-12.4 2.9-16.5 8.7-5.2 7.6-7.8 21.3-7.8 41.3zM467.3 2371.9c0-14.4 1.5-26.1 4.5-34.9 3-8.8 7.4-15.6 13.2-20.4 5.9-4.8 13.2-7.2 22.1-7.2 6.6 0 12.3 1.3 17.2 4 4.9 2.6 9 6.4 12.2 11.4 3.2 5 5.7 11 7.6 18.2 1.8 7.1 2.7 16.8 2.7 28.9 0 14.3-1.5 25.9-4.4 34.7-2.9 8.8-7.3 15.6-13.2 20.4s-13.3 7.2-22.2 7.2c-11.8 0-21-4.2-27.7-12.7-8-10.1-12-26.6-12-49.6zm15.4 0c0 20 2.3 33.4 7 40 4.7 6.6 10.5 10 17.4 10 6.9 0 12.7-3.3 17.4-10 4.7-6.7 7-20 7-40 0-20.1-2.3-33.5-7-40.1-4.7-6.6-10.5-9.9-17.5-9.9-6.9 0-12.4 2.9-16.5 8.7-5.2 7.6-7.8 21.3-7.8 41.3zM563.7 2371.9c0-14.4 1.5-26.1 4.5-34.9 3-8.8 7.4-15.6 13.2-20.4 5.9-4.8 13.2-7.2 22.1-7.2 6.6 0 12.3 1.3 17.2 4 4.9 2.6 9 6.4 12.2 11.4 3.2 5 5.7 11 7.6 18.2 1.8 7.1 2.7 16.8 2.7 28.9 0 14.3-1.5 25.9-4.4 34.7-2.9 8.8-7.3 15.6-13.2 20.4s-13.3 7.2-22.2 7.2c-11.8 0-21-4.2-27.7-12.7-8-10.1-12-26.6-12-49.6zm15.4 0c0 20 2.3 33.4 7 40 4.7 6.6 10.5 10 17.4 10 6.9 0 12.7-3.3 17.4-10 4.7-6.7 7-20 7-40 0-20.1-2.3-33.5-7-40.1-4.7-6.6-10.5-9.9-17.5-9.9-6.9 0-12.4 2.9-16.5 8.7-5.2 7.6-7.8 21.3-7.8 41.3zM72.2 1886.1v-15c-7.5-.9-13.6-2.6-18.3-5-4.7-2.4-8.7-6.3-12.2-11.7-3.4-5.4-5.4-12-6-19.7l15.1-2.8c1.2 8.1 3.2 14 6.2 17.7 4.2 5.3 9.3 8.3 15.2 8.9v-47.7c-6.2-1.2-12.5-3.6-18.9-7.2-4.8-2.7-8.5-6.4-11-11.1-2.6-4.7-3.9-10.1-3.9-16.1 0-10.7 3.8-19.3 11.3-25.9 5.1-4.4 12.6-7.2 22.5-8.2v-7.2H81v7.2c8.7.8 15.6 3.4 20.7 7.7 6.6 5.4 10.5 12.9 11.8 22.4l-15.5 2.3c-.9-5.9-2.7-10.4-5.5-13.5-2.8-3.1-6.7-5.2-11.5-6.2v43.2c7.6 1.9 12.5 3.4 15 4.4 4.7 2.1 8.5 4.6 11.4 7.5 2.9 2.9 5.2 6.4 6.8 10.5 1.6 4.1 2.4 8.4 2.4 13.2 0 10.4-3.3 19-9.9 26-6.6 6.9-15.2 10.7-25.7 11.2v15.2h-8.8zm0-131.3c-5.8.9-10.4 3.2-13.8 7-3.4 3.8-5 8.2-5 13.4 0 5.1 1.4 9.4 4.3 12.8 2.9 3.4 7.7 6.2 14.5 8.2v-41.4zm8.9 103.6c5.8-.7 10.6-3.2 14.5-7.6 3.8-4.3 5.7-9.7 5.7-16.1 0-5.4-1.3-9.8-4-13.1-2.7-3.3-8.1-6.3-16.1-8.9v45.7zM133.3 1836.2l15-2c1.7 8.5 4.7 14.6 8.8 18.4 4.1 3.7 9.2 5.6 15.1 5.6 7.1 0 13-2.4 17.9-7.3 4.9-4.9 7.3-10.9 7.3-18.2 0-6.9-2.2-12.6-6.7-17-4.5-4.5-10.2-6.7-17.2-6.7-2.8 0-6.4.6-10.6 1.7l1.7-13.2c1 .1 1.8.2 2.4.2 6.4 0 12.1-1.7 17.2-5s7.7-8.5 7.7-15.4c0-5.5-1.9-10.1-5.6-13.7-3.7-3.6-8.5-5.4-14.4-5.4-5.8 0-10.7 1.8-14.6 5.5-3.9 3.7-6.4 9.2-7.5 16.5l-15-2.7c1.8-10.1 6-17.8 12.5-23.4 6.5-5.5 14.6-8.3 24.2-8.3 6.7 0 12.8 1.4 18.4 4.3 5.6 2.9 9.9 6.8 12.9 11.7 3 4.9 4.5 10.2 4.5 15.7 0 5.3-1.4 10.1-4.2 14.4-2.8 4.3-7 7.8-12.6 10.3 7.2 1.7 12.8 5.1 16.8 10.4 4 5.2 6 11.8 6 19.7 0 10.7-3.9 19.7-11.7 27.1-7.8 7.4-17.6 11.1-29.5 11.1-10.7 0-19.6-3.2-26.7-9.6-7.1-6.2-11.1-14.5-12.1-24.7zM229.6 1808.3c0-14.4 1.5-26.1 4.5-34.9 3-8.8 7.4-15.6 13.2-20.4 5.9-4.8 13.2-7.2 22.1-7.2 6.6 0 12.3 1.3 17.2 4 4.9 2.6 9 6.4 12.2 11.4 3.2 5 5.7 11 7.6 18.2 1.8 7.1 2.7 16.8 2.7 28.9 0 14.3-1.5 25.9-4.4 34.7-2.9 8.8-7.3 15.6-13.2 20.4s-13.3 7.2-22.2 7.2c-11.8 0-21-4.2-27.7-12.7-8-10.2-12-26.7-12-49.6zm15.4 0c0 20 2.3 33.4 7 40 4.7 6.6 10.5 10 17.4 10 6.9 0 12.7-3.3 17.4-10 4.7-6.7 7-20 7-40 0-20.1-2.3-33.5-7-40.1-4.7-6.6-10.5-9.9-17.5-9.9-6.9 0-12.4 2.9-16.5 8.7-5.2 7.5-7.8 21.2-7.8 41.3zM334.1 1868.5v-17.1h17.1v17.1c0 6.3-1.1 11.3-3.3 15.2-2.2 3.9-5.7 6.8-10.6 9l-4.2-6.4c3.2-1.4 5.5-3.4 7-6.1 1.5-2.7 2.3-6.6 2.5-11.6h-8.5zM370.7 1808.3c0-14.4 1.5-26.1 4.5-34.9 3-8.8 7.4-15.6 13.2-20.4 5.9-4.8 13.2-7.2 22.1-7.2 6.6 0 12.3 1.3 17.2 4 4.9 2.6 9 6.4 12.2 11.4 3.2 5 5.7 11 7.6 18.2 1.8 7.1 2.7 16.8 2.7 28.9 0 14.3-1.5 25.9-4.4 34.7-2.9 8.8-7.3 15.6-13.2 20.4s-13.3 7.2-22.2 7.2c-11.8 0-21-4.2-27.7-12.7-8-10.2-12-26.7-12-49.6zm15.4 0c0 20 2.3 33.4 7 40 4.7 6.6 10.5 10 17.4 10 6.9 0 12.7-3.3 17.4-10 4.7-6.7 7-20 7-40 0-20.1-2.3-33.5-7-40.1-4.7-6.6-10.5-9.9-17.5-9.9-6.9 0-12.4 2.9-16.5 8.7-5.2 7.5-7.8 21.2-7.8 41.3zM467.1 1808.3c0-14.4 1.5-26.1 4.5-34.9 3-8.8 7.4-15.6 13.2-20.4 5.9-4.8 13.2-7.2 22.1-7.2 6.6 0 12.3 1.3 17.2 4 4.9 2.6 9 6.4 12.2 11.4 3.2 5 5.7 11 7.6 18.2 1.8 7.1 2.7 16.8 2.7 28.9 0 14.3-1.5 25.9-4.4 34.7-2.9 8.8-7.3 15.6-13.2 20.4s-13.3 7.2-22.2 7.2c-11.8 0-21-4.2-27.7-12.7-8-10.2-12-26.7-12-49.6zm15.4 0c0 20 2.3 33.4 7 40 4.7 6.6 10.5 10 17.4 10 6.9 0 12.7-3.3 17.4-10 4.7-6.7 7-20 7-40 0-20.1-2.3-33.5-7-40.1-4.7-6.6-10.5-9.9-17.5-9.9-6.9 0-12.4 2.9-16.5 8.7-5.2 7.5-7.8 21.2-7.8 41.3zM563.5 1808.3c0-14.4 1.5-26.1 4.5-34.9 3-8.8 7.4-15.6 13.2-20.4 5.9-4.8 13.2-7.2 22.1-7.2 6.6 0 12.3 1.3 17.2 4 4.9 2.6 9 6.4 12.2 11.4 3.2 5 5.7 11 7.6 18.2 1.8 7.1 2.7 16.8 2.7 28.9 0 14.3-1.5 25.9-4.4 34.7-2.9 8.8-7.3 15.6-13.2 20.4s-13.3 7.2-22.2 7.2c-11.8 0-21-4.2-27.7-12.7-8-10.2-12-26.7-12-49.6zm15.4 0c0 20 2.3 33.4 7 40 4.7 6.6 10.5 10 17.4 10 6.9 0 12.7-3.3 17.4-10 4.7-6.7 7-20 7-40 0-20.1-2.3-33.5-7-40.1-4.7-6.6-10.5-9.9-17.5-9.9-6.9 0-12.4 2.9-16.5 8.7-5.2 7.5-7.8 21.2-7.8 41.3zM72.1 1322.4v-15c-7.5-.9-13.6-2.6-18.3-5-4.7-2.4-8.7-6.3-12.2-11.7-3.4-5.4-5.4-12-6-19.7l15.1-2.8c1.2 8.1 3.2 14 6.2 17.7 4.2 5.3 9.3 8.3 15.2 8.9V1247c-6.2-1.2-12.5-3.6-18.9-7.2-4.8-2.7-8.5-6.4-11-11.1-2.6-4.7-3.9-10.1-3.9-16.1 0-10.7 3.8-19.3 11.3-25.9 5.1-4.4 12.6-7.2 22.5-8.2v-7.2h8.8v7.2c8.7.8 15.6 3.4 20.7 7.7 6.6 5.4 10.5 12.9 11.8 22.4L98 1211c-.9-5.9-2.7-10.4-5.5-13.5-2.8-3.1-6.7-5.2-11.5-6.2v43.2c7.6 1.9 12.5 3.4 15 4.4 4.7 2.1 8.5 4.6 11.4 7.5 2.9 2.9 5.2 6.4 6.8 10.5 1.6 4.1 2.4 8.4 2.4 13.2 0 10.4-3.3 19-9.9 26-6.6 6.9-15.2 10.7-25.7 11.2v15.2h-8.9zm0-131.3c-5.8.9-10.4 3.2-13.8 7-3.4 3.8-5 8.2-5 13.4 0 5.1 1.4 9.4 4.3 12.8 2.9 3.4 7.7 6.2 14.5 8.2v-41.4zm8.8 103.6c5.8-.7 10.6-3.2 14.5-7.6 3.8-4.3 5.7-9.7 5.7-16.1 0-5.4-1.3-9.8-4-13.1-2.7-3.3-8.1-6.3-16.1-8.9v45.7zM133.1 1272.6l15-2c1.7 8.5 4.7 14.6 8.8 18.4 4.1 3.7 9.2 5.6 15.1 5.6 7.1 0 13-2.4 17.9-7.3 4.9-4.9 7.3-10.9 7.3-18.2 0-6.9-2.2-12.6-6.7-17-4.5-4.5-10.2-6.7-17.2-6.7-2.8 0-6.4.6-10.6 1.7l1.7-13.2c1 .1 1.8.2 2.4.2 6.4 0 12.1-1.7 17.2-5s7.7-8.5 7.7-15.4c0-5.5-1.9-10.1-5.6-13.7-3.7-3.6-8.5-5.4-14.4-5.4-5.8 0-10.7 1.8-14.6 5.5-3.9 3.7-6.4 9.2-7.5 16.5l-15-2.7c1.8-10.1 6-17.8 12.5-23.4 6.5-5.5 14.6-8.3 24.2-8.3 6.7 0 12.8 1.4 18.4 4.3 5.6 2.9 9.9 6.8 12.9 11.7 3 4.9 4.5 10.2 4.5 15.7 0 5.3-1.4 10.1-4.2 14.4-2.8 4.3-7 7.8-12.6 10.3 7.2 1.7 12.8 5.1 16.8 10.4 4 5.2 6 11.8 6 19.7 0 10.7-3.9 19.7-11.7 27.1-7.8 7.4-17.6 11.1-29.5 11.1-10.7 0-19.6-3.2-26.7-9.6-7-6.3-11.1-14.6-12.1-24.7zM229.4 1272.8l15.7-1.3c1.2 7.7 3.9 13.4 8.1 17.3 4.2 3.9 9.4 5.8 15.4 5.8 7.2 0 13.3-2.7 18.3-8.2 5-5.4 7.5-12.7 7.5-21.7 0-8.6-2.4-15.3-7.2-20.2-4.8-4.9-11.1-7.4-18.9-7.4-4.8 0-9.2 1.1-13.1 3.3-3.9 2.2-6.9 5-9.2 8.5l-14.1-1.8 11.8-62.7h60.7v14.3h-48.7l-6.6 32.8c7.3-5.1 15-7.7 23.1-7.7 10.7 0 19.7 3.7 27 11.1 7.3 7.4 11 16.9 11 28.5 0 11.1-3.2 20.6-9.7 28.7-7.8 9.9-18.5 14.8-32.1 14.8-11.1 0-20.2-3.1-27.2-9.3-6.8-6.3-10.8-14.5-11.8-24.8zM333.9 1304.8v-17.1H351v17.1c0 6.3-1.1 11.3-3.3 15.2-2.2 3.9-5.7 6.8-10.6 9l-4.2-6.4c3.2-1.4 5.5-3.4 7-6.1 1.5-2.7 2.3-6.6 2.5-11.6h-8.5zM370.5 1244.6c0-14.4 1.5-26.1 4.5-34.9 3-8.8 7.4-15.6 13.2-20.4 5.9-4.8 13.2-7.2 22.1-7.2 6.6 0 12.3 1.3 17.2 4 4.9 2.6 9 6.4 12.2 11.4 3.2 5 5.7 11 7.6 18.2 1.8 7.1 2.7 16.8 2.7 28.9 0 14.3-1.5 25.9-4.4 34.7-2.9 8.8-7.3 15.6-13.2 20.4s-13.3 7.2-22.2 7.2c-11.8 0-21-4.2-27.7-12.7-7.9-10.2-12-26.7-12-49.6zm15.4 0c0 20 2.3 33.4 7 40 4.7 6.6 10.5 10 17.4 10 6.9 0 12.7-3.3 17.4-10 4.7-6.7 7-20 7-40 0-20.1-2.3-33.5-7-40.1-4.7-6.6-10.5-9.9-17.5-9.9-6.9 0-12.4 2.9-16.5 8.7-5.2 7.5-7.8 21.2-7.8 41.3zM466.9 1244.6c0-14.4 1.5-26.1 4.5-34.9 3-8.8 7.4-15.6 13.2-20.4 5.9-4.8 13.2-7.2 22.1-7.2 6.6 0 12.3 1.3 17.2 4 4.9 2.6 9 6.4 12.2 11.4 3.2 5 5.7 11 7.6 18.2 1.8 7.1 2.7 16.8 2.7 28.9 0 14.3-1.5 25.9-4.4 34.7-2.9 8.8-7.3 15.6-13.2 20.4s-13.3 7.2-22.2 7.2c-11.8 0-21-4.2-27.7-12.7-7.9-10.2-12-26.7-12-49.6zm15.4 0c0 20 2.3 33.4 7 40 4.7 6.6 10.5 10 17.4 10 6.9 0 12.7-3.3 17.4-10 4.7-6.7 7-20 7-40 0-20.1-2.3-33.5-7-40.1-4.7-6.6-10.5-9.9-17.5-9.9-6.9 0-12.4 2.9-16.5 8.7-5.2 7.5-7.8 21.2-7.8 41.3zM563.3 1244.6c0-14.4 1.5-26.1 4.5-34.9 3-8.8 7.4-15.6 13.2-20.4 5.9-4.8 13.2-7.2 22.1-7.2 6.6 0 12.3 1.3 17.2 4 4.9 2.6 9 6.4 12.2 11.4 3.2 5 5.7 11 7.6 18.2 1.8 7.1 2.7 16.8 2.7 28.9 0 14.3-1.5 25.9-4.4 34.7-2.9 8.8-7.3 15.6-13.2 20.4s-13.3 7.2-22.2 7.2c-11.8 0-21-4.2-27.7-12.7-8-10.2-12-26.7-12-49.6zm15.4 0c0 20 2.3 33.4 7 40 4.7 6.6 10.5 10 17.4 10 6.9 0 12.7-3.3 17.4-10 4.7-6.7 7-20 7-40 0-20.1-2.3-33.5-7-40.1-4.7-6.6-10.5-9.9-17.5-9.9-6.9 0-12.4 2.9-16.5 8.7-5.2 7.5-7.8 21.2-7.8 41.3zM71.9 758.7v-15c-7.5-.9-13.6-2.6-18.3-5-4.7-2.4-8.7-6.3-12.2-11.7-3.4-5.4-5.4-12-6-19.7l15.1-2.8c1.2 8.1 3.2 14 6.2 17.7 4.2 5.3 9.3 8.3 15.2 8.9v-47.7c-6.2-1.2-12.5-3.6-18.9-7.2-4.8-2.7-8.5-6.4-11-11.1-2.6-4.7-3.9-10.1-3.9-16.1 0-10.7 3.8-19.3 11.3-25.9 5.1-4.4 12.6-7.2 22.5-8.2v-7.2h8.8v7.2c8.7.8 15.6 3.4 20.7 7.7 6.6 5.4 10.5 12.9 11.8 22.4l-15.5 2.3c-.9-5.9-2.7-10.4-5.5-13.5-2.8-3.1-6.7-5.2-11.5-6.2v43.2c7.6 1.9 12.5 3.4 15 4.4 4.7 2.1 8.5 4.6 11.4 7.5 2.9 2.9 5.2 6.4 6.8 10.5 1.6 4.1 2.4 8.4 2.4 13.2 0 10.4-3.3 19-9.9 26-6.6 6.9-15.2 10.7-25.7 11.2v15.2h-8.8zm0-131.3c-5.8.9-10.4 3.2-13.8 7-3.4 3.8-5 8.2-5 13.4 0 5.1 1.4 9.4 4.3 12.8 2.9 3.4 7.7 6.2 14.5 8.2v-41.4zM80.7 731c5.8-.7 10.6-3.2 14.5-7.6 3.8-4.3 5.7-9.7 5.7-16.1 0-5.4-1.3-9.8-4-13.1-2.7-3.3-8.1-6.3-16.1-8.9V731zM180.9 741.1v-29.2h-53v-13.7l55.7-79.1h12.2v79.1h16.5v13.7h-16.5v29.2h-14.9zm0-43V643l-38.2 55.1h38.2zM229.3 680.9c0-14.4 1.5-26.1 4.5-34.9 3-8.8 7.4-15.6 13.2-20.4 5.9-4.8 13.2-7.2 22.1-7.2 6.6 0 12.3 1.3 17.2 4 4.9 2.6 9 6.4 12.2 11.4 3.2 5 5.7 11 7.6 18.2 1.8 7.1 2.7 16.8 2.7 28.9 0 14.3-1.5 25.9-4.4 34.7-2.9 8.8-7.3 15.6-13.2 20.4s-13.3 7.2-22.2 7.2c-11.8 0-21-4.2-27.7-12.7-8-10.1-12-26.7-12-49.6zm15.4 0c0 20 2.3 33.4 7 40 4.7 6.6 10.5 10 17.4 10 6.9 0 12.7-3.3 17.4-10 4.7-6.7 7-20 7-40 0-20.1-2.3-33.5-7-40.1-4.7-6.6-10.5-9.9-17.5-9.9-6.9 0-12.4 2.9-16.5 8.7-5.2 7.5-7.8 21.2-7.8 41.3zM333.7 741.1V724h17.1v17.1c0 6.3-1.1 11.3-3.3 15.2-2.2 3.9-5.7 6.8-10.6 9l-4.2-6.4c3.2-1.4 5.5-3.4 7-6.1 1.5-2.7 2.3-6.6 2.5-11.6h-8.5zM370.4 680.9c0-14.4 1.5-26.1 4.5-34.9 3-8.8 7.4-15.6 13.2-20.4 5.9-4.8 13.2-7.2 22.1-7.2 6.6 0 12.3 1.3 17.2 4 4.9 2.6 9 6.4 12.2 11.4 3.2 5 5.7 11 7.6 18.2 1.8 7.1 2.7 16.8 2.7 28.9 0 14.3-1.5 25.9-4.4 34.7-2.9 8.8-7.3 15.6-13.2 20.4s-13.3 7.2-22.2 7.2c-11.8 0-21-4.2-27.7-12.7-8-10.1-12-26.7-12-49.6zm15.4 0c0 20 2.3 33.4 7 40 4.7 6.6 10.5 10 17.4 10 6.9 0 12.7-3.3 17.4-10 4.7-6.7 7-20 7-40 0-20.1-2.3-33.5-7-40.1-4.7-6.6-10.5-9.9-17.5-9.9-6.9 0-12.4 2.9-16.5 8.7-5.2 7.5-7.8 21.2-7.8 41.3zM466.8 680.9c0-14.4 1.5-26.1 4.5-34.9 3-8.8 7.4-15.6 13.2-20.4 5.9-4.8 13.2-7.2 22.1-7.2 6.6 0 12.3 1.3 17.2 4 4.9 2.6 9 6.4 12.2 11.4 3.2 5 5.7 11 7.6 18.2 1.8 7.1 2.7 16.8 2.7 28.9 0 14.3-1.5 25.9-4.4 34.7-2.9 8.8-7.3 15.6-13.2 20.4s-13.3 7.2-22.2 7.2c-11.8 0-21-4.2-27.7-12.7-8-10.1-12-26.7-12-49.6zm15.4 0c0 20 2.3 33.4 7 40 4.7 6.6 10.5 10 17.4 10 6.9 0 12.7-3.3 17.4-10 4.7-6.7 7-20 7-40 0-20.1-2.3-33.5-7-40.1-4.7-6.6-10.5-9.9-17.5-9.9-6.9 0-12.4 2.9-16.5 8.7-5.3 7.5-7.8 21.2-7.8 41.3zM563.1 680.9c0-14.4 1.5-26.1 4.5-34.9 3-8.8 7.4-15.6 13.2-20.4 5.9-4.8 13.2-7.2 22.1-7.2 6.6 0 12.3 1.3 17.2 4 4.9 2.6 9 6.4 12.2 11.4 3.2 5 5.7 11 7.6 18.2 1.8 7.1 2.7 16.8 2.7 28.9 0 14.3-1.5 25.9-4.4 34.7-2.9 8.8-7.3 15.6-13.2 20.4s-13.3 7.2-22.2 7.2c-11.8 0-21-4.2-27.7-12.7-7.9-10.1-12-26.7-12-49.6zm15.5 0c0 20 2.3 33.4 7 40 4.7 6.6 10.5 10 17.4 10 6.9 0 12.7-3.3 17.4-10 4.7-6.7 7-20 7-40 0-20.1-2.3-33.5-7-40.1-4.7-6.6-10.5-9.9-17.5-9.9-6.9 0-12.4 2.9-16.5 8.7-5.3 7.5-7.8 21.2-7.8 41.3zM718.7 5442.8v14.4H638c-.1-3.6.5-7.1 1.8-10.4 2.1-5.5 5.3-10.9 9.9-16.2 4.5-5.3 11.1-11.5 19.6-18.5 13.3-10.9 22.2-19.5 26.9-25.9s7-12.4 7-18c0-5.9-2.1-11-6.4-15-4.2-4.1-9.8-6.1-16.6-6.1-7.2 0-13 2.2-17.3 6.5s-6.5 10.3-6.6 18l-15.4-1.6c1.1-11.5 5-20.3 11.9-26.3s16.1-9 27.7-9c11.7 0 21 3.2 27.8 9.7s10.2 14.6 10.2 24.2c0 4.9-1 9.7-3 14.4-2 4.7-5.3 9.7-10 14.9-4.6 5.2-12.3 12.4-23.1 21.5-9 7.6-14.8 12.7-17.3 15.4-2.6 2.7-4.7 5.4-6.3 8.1h59.9zM736.3 5397c0-14.4 1.5-26.1 4.5-34.9 3-8.8 7.4-15.6 13.2-20.4 5.9-4.8 13.2-7.2 22.1-7.2 6.6 0 12.3 1.3 17.2 4 4.9 2.6 9 6.4 12.2 11.4 3.2 5 5.7 11 7.6 18.2 1.8 7.1 2.7 16.8 2.7 28.9 0 14.3-1.5 25.9-4.4 34.7-2.9 8.8-7.3 15.6-13.2 20.4-5.9 4.8-13.3 7.2-22.2 7.2-11.8 0-21-4.2-27.7-12.7-8-10.1-12-26.6-12-49.6zm15.4 0c0 20 2.3 33.4 7 40 4.7 6.6 10.5 10 17.4 10 6.9 0 12.7-3.3 17.4-10 4.7-6.7 7-20 7-40 0-20.1-2.3-33.5-7-40.1-4.7-6.6-10.5-9.9-17.5-9.9-6.9 0-12.4 2.9-16.5 8.7-5.2 7.5-7.8 21.3-7.8 41.3zM832.7 5397c0-14.4 1.5-26.1 4.5-34.9 3-8.8 7.4-15.6 13.2-20.4 5.9-4.8 13.2-7.2 22.1-7.2 6.6 0 12.3 1.3 17.2 4 4.9 2.6 9 6.4 12.2 11.4 3.2 5 5.7 11 7.6 18.2 1.8 7.1 2.7 16.8 2.7 28.9 0 14.3-1.5 25.9-4.4 34.7-2.9 8.8-7.3 15.6-13.2 20.4-5.9 4.8-13.3 7.2-22.2 7.2-11.8 0-21-4.2-27.7-12.7-8-10.1-12-26.6-12-49.6zm15.4 0c0 20 2.3 33.4 7 40 4.7 6.6 10.5 10 17.4 10 6.9 0 12.7-3.3 17.4-10 4.7-6.7 7-20 7-40 0-20.1-2.3-33.5-7-40.1-4.7-6.6-10.5-9.9-17.5-9.9-6.9 0-12.4 2.9-16.5 8.7-5.2 7.5-7.8 21.3-7.8 41.3zM929.2 5425l15-2c1.7 8.5 4.7 14.6 8.8 18.4 4.1 3.7 9.2 5.6 15.1 5.6 7.1 0 13-2.4 17.9-7.3 4.9-4.9 7.3-10.9 7.3-18.2 0-6.9-2.2-12.6-6.7-17-4.5-4.5-10.2-6.7-17.2-6.7-2.8 0-6.4.6-10.6 1.7l1.7-13.2c1 .1 1.8.2 2.4.2 6.4 0 12.1-1.7 17.2-5s7.7-8.5 7.7-15.4c0-5.5-1.9-10.1-5.6-13.7-3.7-3.6-8.5-5.4-14.4-5.4-5.8 0-10.7 1.8-14.6 5.5-3.9 3.7-6.4 9.2-7.5 16.5l-15-2.7c1.8-10.1 6-17.8 12.5-23.4 6.5-5.5 14.6-8.3 24.2-8.3 6.7 0 12.8 1.4 18.4 4.3 5.6 2.9 9.9 6.8 12.9 11.7 3 4.9 4.5 10.2 4.5 15.7 0 5.3-1.4 10.1-4.2 14.4-2.8 4.3-7 7.8-12.6 10.3 7.2 1.7 12.8 5.1 16.8 10.4 4 5.2 6 11.8 6 19.7 0 10.7-3.9 19.7-11.7 27.1-7.8 7.4-17.6 11.1-29.5 11.1-10.7 0-19.6-3.2-26.7-9.6s-11.1-14.5-12.1-24.7zM1235.5 5442.8v14.4h-80.7c-.1-3.6.5-7.1 1.8-10.4 2.1-5.5 5.3-10.9 9.9-16.2 4.5-5.3 11.1-11.5 19.6-18.5 13.3-10.9 22.2-19.5 26.9-25.9s7-12.4 7-18c0-5.9-2.1-11-6.4-15-4.2-4.1-9.8-6.1-16.6-6.1-7.2 0-13 2.2-17.3 6.5s-6.5 10.3-6.6 18l-15.4-1.6c1.1-11.5 5-20.3 11.9-26.3s16.1-9 27.7-9c11.7 0 21 3.2 27.8 9.7s10.2 14.6 10.2 24.2c0 4.9-1 9.7-3 14.4-2 4.7-5.3 9.7-10 14.9-4.6 5.2-12.3 12.4-23.1 21.5-9 7.6-14.8 12.7-17.3 15.4-2.6 2.7-4.7 5.4-6.3 8.1h59.9zM1253.1 5397c0-14.4 1.5-26.1 4.5-34.9 3-8.8 7.4-15.6 13.2-20.4 5.9-4.8 13.2-7.2 22.1-7.2 6.6 0 12.3 1.3 17.2 4 4.9 2.6 9 6.4 12.2 11.4 3.2 5 5.7 11 7.6 18.2 1.8 7.1 2.7 16.8 2.7 28.9 0 14.3-1.5 25.9-4.4 34.7-2.9 8.8-7.3 15.6-13.2 20.4-5.9 4.8-13.3 7.2-22.2 7.2-11.8 0-21-4.2-27.7-12.7-8-10.1-12-26.6-12-49.6zm15.4 0c0 20 2.3 33.4 7 40 4.7 6.6 10.5 10 17.4 10 6.9 0 12.7-3.3 17.4-10 4.7-6.7 7-20 7-40 0-20.1-2.3-33.5-7-40.1-4.7-6.6-10.5-9.9-17.5-9.9-6.9 0-12.4 2.9-16.5 8.7-5.2 7.5-7.8 21.3-7.8 41.3zM1349.5 5397c0-14.4 1.5-26.1 4.5-34.9 3-8.8 7.4-15.6 13.2-20.4 5.9-4.8 13.2-7.2 22.1-7.2 6.6 0 12.3 1.3 17.2 4 4.9 2.6 9 6.4 12.2 11.4 3.2 5 5.7 11 7.6 18.2 1.8 7.1 2.7 16.8 2.7 28.9 0 14.3-1.5 25.9-4.4 34.7-2.9 8.8-7.3 15.6-13.2 20.4-5.9 4.8-13.3 7.2-22.2 7.2-11.8 0-21-4.2-27.7-12.7-8-10.1-12-26.6-12-49.6zm15.4 0c0 20 2.3 33.4 7 40 4.7 6.6 10.5 10 17.4 10 6.9 0 12.7-3.3 17.4-10 4.7-6.7 7-20 7-40 0-20.1-2.3-33.5-7-40.1-4.7-6.6-10.5-9.9-17.5-9.9-6.9 0-12.4 2.9-16.5 8.7-5.2 7.5-7.8 21.3-7.8 41.3zM1494 5457.2V5428h-53v-13.7l55.7-79.1h12.2v79.1h16.5v13.7h-16.5v29.2H1494zm0-42.9v-55.1l-38.2 55.1h38.2zM1752.4 5442.8v14.4h-80.7c-.1-3.6.5-7.1 1.8-10.4 2.1-5.5 5.3-10.9 9.9-16.2 4.5-5.3 11.1-11.5 19.6-18.5 13.3-10.9 22.2-19.5 26.9-25.9s7-12.4 7-18c0-5.9-2.1-11-6.4-15-4.2-4.1-9.8-6.1-16.6-6.1-7.2 0-13 2.2-17.3 6.5s-6.5 10.3-6.6 18l-15.4-1.6c1.1-11.5 5-20.3 11.9-26.3s16.1-9 27.7-9c11.7 0 21 3.2 27.8 9.7s10.2 14.6 10.2 24.2c0 4.9-1 9.7-3 14.4-2 4.7-5.3 9.7-10 14.9-4.6 5.2-12.3 12.4-23.1 21.5-9 7.6-14.8 12.7-17.3 15.4-2.6 2.7-4.7 5.4-6.3 8.1h59.9zM1770 5397c0-14.4 1.5-26.1 4.5-34.9 3-8.8 7.4-15.6 13.2-20.4 5.9-4.8 13.2-7.2 22.1-7.2 6.6 0 12.3 1.3 17.2 4 4.9 2.6 9 6.4 12.2 11.4 3.2 5 5.7 11 7.6 18.2 1.8 7.1 2.7 16.8 2.7 28.9 0 14.3-1.5 25.9-4.4 34.7-2.9 8.8-7.3 15.6-13.2 20.4-5.9 4.8-13.3 7.2-22.2 7.2-11.8 0-21-4.2-27.7-12.7-7.9-10.1-12-26.6-12-49.6zm15.5 0c0 20 2.3 33.4 7 40 4.7 6.6 10.5 10 17.4 10 6.9 0 12.7-3.3 17.4-10 4.7-6.7 7-20 7-40 0-20.1-2.3-33.5-7-40.1-4.7-6.6-10.5-9.9-17.5-9.9-6.9 0-12.4 2.9-16.5 8.7-5.3 7.5-7.8 21.3-7.8 41.3zM1866.4 5397c0-14.4 1.5-26.1 4.5-34.9 3-8.8 7.4-15.6 13.2-20.4 5.9-4.8 13.2-7.2 22.1-7.2 6.6 0 12.3 1.3 17.2 4 4.9 2.6 9 6.4 12.2 11.4 3.2 5 5.7 11 7.6 18.2 1.8 7.1 2.7 16.8 2.7 28.9 0 14.3-1.5 25.9-4.4 34.7-2.9 8.8-7.3 15.6-13.2 20.4-5.9 4.8-13.3 7.2-22.2 7.2-11.8 0-21-4.2-27.7-12.7-7.9-10.1-12-26.6-12-49.6zm15.4 0c0 20 2.3 33.4 7 40 4.7 6.6 10.5 10 17.4 10 6.9 0 12.7-3.3 17.4-10 4.7-6.7 7-20 7-40 0-20.1-2.3-33.5-7-40.1-4.7-6.6-10.5-9.9-17.5-9.9-6.9 0-12.4 2.9-16.5 8.7-5.2 7.5-7.8 21.3-7.8 41.3zM1962.8 5425.3l15.7-1.3c1.2 7.7 3.9 13.4 8.1 17.3 4.2 3.9 9.4 5.8 15.4 5.8 7.2 0 13.3-2.7 18.3-8.2 5-5.4 7.5-12.7 7.5-21.7 0-8.6-2.4-15.3-7.2-20.2-4.8-4.9-11.1-7.4-18.9-7.4-4.8 0-9.2 1.1-13.1 3.3-3.9 2.2-6.9 5-9.2 8.5l-14.1-1.8 11.8-62.7h60.7v14.3h-48.7l-6.6 32.8c7.3-5.1 15-7.7 23.1-7.7 10.7 0 19.7 3.7 27 11.1s11 16.9 11 28.5c0 11.1-3.2 20.6-9.7 28.7-7.8 9.9-18.5 14.8-32.1 14.8-11.1 0-20.2-3.1-27.2-9.3-6.8-6.3-10.8-14.6-11.8-24.8zM2269.4 5442.8v14.4h-80.7c-.1-3.6.5-7.1 1.8-10.4 2.1-5.5 5.3-10.9 9.9-16.2 4.5-5.3 11.1-11.5 19.6-18.5 13.3-10.9 22.2-19.5 26.9-25.9s7-12.4 7-18c0-5.9-2.1-11-6.4-15-4.2-4.1-9.8-6.1-16.6-6.1-7.2 0-13 2.2-17.3 6.5s-6.5 10.3-6.6 18l-15.4-1.6c1.1-11.5 5-20.3 11.9-26.3s16.1-9 27.7-9c11.7 0 21 3.2 27.8 9.7s10.2 14.6 10.2 24.2c0 4.9-1 9.7-3 14.4-2 4.7-5.3 9.7-10 14.9-4.6 5.2-12.3 12.4-23.1 21.5-9 7.6-14.8 12.7-17.3 15.4-2.6 2.7-4.7 5.4-6.3 8.1h59.9zM2287 5397c0-14.4 1.5-26.1 4.5-34.9 3-8.8 7.4-15.6 13.2-20.4 5.9-4.8 13.2-7.2 22.1-7.2 6.6 0 12.3 1.3 17.2 4 4.9 2.6 9 6.4 12.2 11.4 3.2 5 5.7 11 7.6 18.2 1.8 7.1 2.7 16.8 2.7 28.9 0 14.3-1.5 25.9-4.4 34.7-2.9 8.8-7.3 15.6-13.2 20.4-5.9 4.8-13.3 7.2-22.2 7.2-11.8 0-21-4.2-27.7-12.7-8-10.1-12-26.6-12-49.6zm15.4 0c0 20 2.3 33.4 7 40 4.7 6.6 10.5 10 17.4 10 6.9 0 12.7-3.3 17.4-10 4.7-6.7 7-20 7-40 0-20.1-2.3-33.5-7-40.1-4.7-6.6-10.5-9.9-17.5-9.9-6.9 0-12.4 2.9-16.5 8.7-5.2 7.5-7.8 21.3-7.8 41.3zM2383.4 5397c0-14.4 1.5-26.1 4.5-34.9 3-8.8 7.4-15.6 13.2-20.4 5.9-4.8 13.2-7.2 22.1-7.2 6.6 0 12.3 1.3 17.2 4 4.9 2.6 9 6.4 12.2 11.4 3.2 5 5.7 11 7.6 18.2 1.8 7.1 2.7 16.8 2.7 28.9 0 14.3-1.5 25.9-4.4 34.7-2.9 8.8-7.3 15.6-13.2 20.4-5.9 4.8-13.3 7.2-22.2 7.2-11.8 0-21-4.2-27.7-12.7-8-10.1-12-26.6-12-49.6zm15.4 0c0 20 2.3 33.4 7 40 4.7 6.6 10.5 10 17.4 10 6.9 0 12.7-3.3 17.4-10 4.7-6.7 7-20 7-40 0-20.1-2.3-33.5-7-40.1-4.7-6.6-10.5-9.9-17.5-9.9-6.9 0-12.4 2.9-16.5 8.7-5.2 7.5-7.8 21.3-7.8 41.3zM2557.6 5365l-14.9 1.2c-1.3-5.9-3.2-10.2-5.7-12.8-4.1-4.3-9.1-6.4-15-6.4-4.8 0-9 1.3-12.6 4-4.7 3.4-8.4 8.5-11.2 15.1-2.7 6.6-4.1 16-4.2 28.2 3.6-5.5 8-9.6 13.2-12.2 5.2-2.7 10.7-4 16.4-4 10 0 18.5 3.7 25.5 11 7 7.4 10.5 16.9 10.5 28.5 0 7.7-1.7 14.8-5 21.4-3.3 6.6-7.8 11.6-13.6 15.1s-12.3 5.2-19.7 5.2c-12.5 0-22.7-4.6-30.6-13.8-7.9-9.2-11.8-24.3-11.8-45.4 0-23.6 4.4-40.8 13.1-51.5 7.6-9.3 17.9-14 30.7-14 9.6 0 17.5 2.7 23.6 8.1 6.4 5.4 10.1 12.8 11.3 22.3zm-61.3 52.7c0 5.2 1.1 10.1 3.3 14.8 2.2 4.7 5.3 8.3 9.2 10.8s8.1 3.7 12.4 3.7c6.3 0 11.8-2.6 16.3-7.7s6.8-12.1 6.8-20.8c0-8.4-2.2-15.1-6.7-20s-10.2-7.3-17-7.3c-6.8 0-12.5 2.4-17.2 7.3-4.7 4.9-7.1 11.3-7.1 19.2zM2786.2 5442.8v14.4h-80.7c-.1-3.6.5-7.1 1.8-10.4 2.1-5.5 5.3-10.9 9.9-16.2 4.5-5.3 11.1-11.5 19.6-18.5 13.3-10.9 22.2-19.5 26.9-25.9s7-12.4 7-18c0-5.9-2.1-11-6.4-15-4.2-4.1-9.8-6.1-16.6-6.1-7.2 0-13 2.2-17.3 6.5s-6.5 10.3-6.6 18l-15.4-1.6c1.1-11.5 5-20.3 11.9-26.3s16.1-9 27.7-9c11.7 0 21 3.2 27.8 9.7s10.2 14.6 10.2 24.2c0 4.9-1 9.7-3 14.4-2 4.7-5.3 9.7-10 14.9-4.6 5.2-12.3 12.4-23.1 21.5-9 7.6-14.8 12.7-17.3 15.4-2.6 2.7-4.7 5.4-6.3 8.1h59.9zM2803.8 5397c0-14.4 1.5-26.1 4.5-34.9 3-8.8 7.4-15.6 13.2-20.4 5.9-4.8 13.2-7.2 22.1-7.2 6.6 0 12.3 1.3 17.2 4 4.9 2.6 9 6.4 12.2 11.4 3.2 5 5.7 11 7.6 18.2 1.8 7.1 2.7 16.8 2.7 28.9 0 14.3-1.5 25.9-4.4 34.7-2.9 8.8-7.3 15.6-13.2 20.4-5.9 4.8-13.3 7.2-22.2 7.2-11.8 0-21-4.2-27.7-12.7-8-10.1-12-26.6-12-49.6zm15.4 0c0 20 2.3 33.4 7 40 4.7 6.6 10.5 10 17.4 10 6.9 0 12.7-3.3 17.4-10 4.7-6.7 7-20 7-40 0-20.1-2.3-33.5-7-40.1-4.7-6.6-10.5-9.9-17.5-9.9-6.9 0-12.4 2.9-16.5 8.7-5.2 7.5-7.8 21.3-7.8 41.3zM2900.1 5397c0-14.4 1.5-26.1 4.5-34.9 3-8.8 7.4-15.6 13.2-20.4 5.9-4.8 13.2-7.2 22.1-7.2 6.6 0 12.3 1.3 17.2 4 4.9 2.6 9 6.4 12.2 11.4 3.2 5 5.7 11 7.6 18.2 1.8 7.1 2.7 16.8 2.7 28.9 0 14.3-1.5 25.9-4.4 34.7-2.9 8.8-7.3 15.6-13.2 20.4-5.9 4.8-13.3 7.2-22.2 7.2-11.8 0-21-4.2-27.7-12.7-7.9-10.1-12-26.6-12-49.6zm15.5 0c0 20 2.3 33.4 7 40 4.7 6.6 10.5 10 17.4 10 6.9 0 12.7-3.3 17.4-10 4.7-6.7 7-20 7-40 0-20.1-2.3-33.5-7-40.1-4.7-6.6-10.5-9.9-17.5-9.9-6.9 0-12.4 2.9-16.5 8.7-5.3 7.5-7.8 21.3-7.8 41.3zM2997.5 5351.1v-14.4h79.1v11.7c-7.8 8.3-15.5 19.3-23.1 33-7.6 13.7-13.5 27.8-17.7 42.3-3 10.2-4.9 21.4-5.7 33.6h-15.4c.2-9.6 2.1-21.2 5.7-34.8 3.6-13.6 8.8-26.7 15.5-39.4 6.7-12.6 13.9-23.3 21.5-31.9h-59.9zM3303.1 5442.8v14.4h-80.7c-.1-3.6.5-7.1 1.8-10.4 2.1-5.5 5.3-10.9 9.9-16.2 4.5-5.3 11.1-11.5 19.6-18.5 13.3-10.9 22.2-19.5 26.9-25.9s7-12.4 7-18c0-5.9-2.1-11-6.4-15-4.2-4.1-9.8-6.1-16.6-6.1-7.2 0-13 2.2-17.3 6.5s-6.5 10.3-6.6 18l-15.4-1.6c1.1-11.5 5-20.3 11.9-26.3s16.1-9 27.7-9c11.7 0 21 3.2 27.8 9.7s10.2 14.6 10.2 24.2c0 4.9-1 9.7-3 14.4-2 4.7-5.3 9.7-10 14.9-4.6 5.2-12.3 12.4-23.1 21.5-9 7.6-14.8 12.7-17.3 15.4-2.6 2.7-4.7 5.4-6.3 8.1h59.9zM3320.7 5397c0-14.4 1.5-26.1 4.5-34.9 3-8.8 7.4-15.6 13.2-20.4 5.9-4.8 13.2-7.2 22.1-7.2 6.6 0 12.3 1.3 17.2 4 4.9 2.6 9 6.4 12.2 11.4 3.2 5 5.7 11 7.6 18.2 1.8 7.1 2.7 16.8 2.7 28.9 0 14.3-1.5 25.9-4.4 34.7-2.9 8.8-7.3 15.6-13.2 20.4-5.9 4.8-13.3 7.2-22.2 7.2-11.8 0-21-4.2-27.7-12.7-8-10.1-12-26.6-12-49.6zm15.4 0c0 20 2.3 33.4 7 40 4.7 6.6 10.5 10 17.4 10 6.9 0 12.7-3.3 17.4-10 4.7-6.7 7-20 7-40 0-20.1-2.3-33.5-7-40.1-4.7-6.6-10.5-9.9-17.5-9.9-6.9 0-12.4 2.9-16.5 8.7-5.2 7.5-7.8 21.3-7.8 41.3zM3417.1 5397c0-14.4 1.5-26.1 4.5-34.9 3-8.8 7.4-15.6 13.2-20.4 5.9-4.8 13.2-7.2 22.1-7.2 6.6 0 12.3 1.3 17.2 4 4.9 2.6 9 6.4 12.2 11.4 3.2 5 5.7 11 7.6 18.2 1.8 7.1 2.7 16.8 2.7 28.9 0 14.3-1.5 25.9-4.4 34.7-2.9 8.8-7.3 15.6-13.2 20.4-5.9 4.8-13.3 7.2-22.2 7.2-11.8 0-21-4.2-27.7-12.7-8-10.1-12-26.6-12-49.6zm15.4 0c0 20 2.3 33.4 7 40 4.7 6.6 10.5 10 17.4 10 6.9 0 12.7-3.3 17.4-10 4.7-6.7 7-20 7-40 0-20.1-2.3-33.5-7-40.1-4.7-6.6-10.5-9.9-17.5-9.9-6.9 0-12.4 2.9-16.5 8.7-5.2 7.5-7.8 21.3-7.8 41.3zM3536.6 5391c-6.2-2.3-10.8-5.5-13.8-9.7s-4.5-9.3-4.5-15.2c0-8.9 3.2-16.4 9.6-22.4s14.9-9.1 25.5-9.1c10.7 0 19.2 3.1 25.7 9.3 6.5 6.2 9.7 13.7 9.7 22.6 0 5.7-1.5 10.6-4.5 14.8-3 4.2-7.5 7.4-13.5 9.7 7.5 2.4 13.2 6.4 17.1 11.8 3.9 5.4 5.9 11.9 5.9 19.5 0 10.4-3.7 19.2-11.1 26.3-7.4 7.1-17.1 10.7-29.2 10.7-12.1 0-21.8-3.6-29.2-10.7-7.4-7.1-11.1-16-11.1-26.7 0-7.9 2-14.6 6-20 4.2-5.3 9.9-8.9 17.4-10.9zm-7.9 31c0 4.3 1 8.4 3 12.4s5 7.1 9 9.3 8.3 3.3 12.9 3.3c7.2 0 13.1-2.3 17.7-6.9 4.7-4.6 7-10.5 7-17.6 0-7.2-2.4-13.2-7.2-17.9-4.8-4.7-10.8-7.1-18-7.1-7.1 0-12.9 2.3-17.5 7-4.5 4.7-6.9 10.5-6.9 17.5zm4.9-56.4c0 5.8 1.9 10.5 5.6 14.2 3.7 3.7 8.6 5.5 14.5 5.5 5.8 0 10.5-1.8 14.2-5.5 3.7-3.6 5.5-8.1 5.5-13.4 0-5.5-1.9-10.1-5.7-13.9-3.8-3.7-8.5-5.6-14.2-5.6-5.7 0-10.5 1.8-14.2 5.5-3.8 3.7-5.7 8.1-5.7 13.2zM3820.1 5442.8v14.4h-80.7c-.1-3.6.5-7.1 1.8-10.4 2.1-5.5 5.3-10.9 9.9-16.2 4.5-5.3 11.1-11.5 19.6-18.5 13.3-10.9 22.2-19.5 26.9-25.9s7-12.4 7-18c0-5.9-2.1-11-6.4-15-4.2-4.1-9.8-6.1-16.6-6.1-7.2 0-13 2.2-17.3 6.5s-6.5 10.3-6.6 18l-15.4-1.6c1.1-11.5 5-20.3 11.9-26.3s16.1-9 27.7-9c11.7 0 21 3.2 27.8 9.7s10.2 14.6 10.2 24.2c0 4.9-1 9.7-3 14.4-2 4.7-5.3 9.7-10 14.9-4.6 5.2-12.3 12.4-23.1 21.5-9 7.6-14.8 12.7-17.3 15.4-2.6 2.7-4.7 5.4-6.3 8.1h59.9zM3837.6 5397c0-14.4 1.5-26.1 4.5-34.9 3-8.8 7.4-15.6 13.2-20.4 5.9-4.8 13.2-7.2 22.1-7.2 6.6 0 12.3 1.3 17.2 4 4.9 2.6 9 6.4 12.2 11.4 3.2 5 5.7 11 7.6 18.2 1.8 7.1 2.7 16.8 2.7 28.9 0 14.3-1.5 25.9-4.4 34.7-2.9 8.8-7.3 15.6-13.2 20.4-5.9 4.8-13.3 7.2-22.2 7.2-11.8 0-21-4.2-27.7-12.7-7.9-10.1-12-26.6-12-49.6zm15.5 0c0 20 2.3 33.4 7 40 4.7 6.6 10.5 10 17.4 10 6.9 0 12.7-3.3 17.4-10 4.7-6.7 7-20 7-40 0-20.1-2.3-33.5-7-40.1-4.7-6.6-10.5-9.9-17.5-9.9-6.9 0-12.4 2.9-16.5 8.7-5.3 7.5-7.8 21.3-7.8 41.3zM3934 5397c0-14.4 1.5-26.1 4.5-34.9 3-8.8 7.4-15.6 13.2-20.4 5.9-4.8 13.2-7.2 22.1-7.2 6.6 0 12.3 1.3 17.2 4 4.9 2.6 9 6.4 12.2 11.4 3.2 5 5.7 11 7.6 18.2 1.8 7.1 2.7 16.8 2.7 28.9 0 14.3-1.5 25.9-4.4 34.7-2.9 8.8-7.3 15.6-13.2 20.4-5.9 4.8-13.3 7.2-22.2 7.2-11.8 0-21-4.2-27.7-12.7-7.9-10.1-12-26.6-12-49.6zm15.5 0c0 20 2.3 33.4 7 40 4.7 6.6 10.5 10 17.4 10 6.9 0 12.7-3.3 17.4-10 4.7-6.7 7-20 7-40 0-20.1-2.3-33.5-7-40.1-4.7-6.6-10.5-9.9-17.5-9.9-6.9 0-12.4 2.9-16.5 8.7-5.3 7.5-7.8 21.3-7.8 41.3zM4032.7 5429l14.4-1.3c1.2 6.8 3.6 11.7 7 14.7 3.4 3.1 7.9 4.6 13.2 4.6 4.6 0 8.6-1.1 12.1-3.2s6.3-4.9 8.5-8.5c2.2-3.5 4.1-8.3 5.6-14.3s2.2-12.1 2.2-18.3c0-.7 0-1.7-.1-3-3 4.8-7.1 8.7-12.3 11.6-5.2 3-10.8 4.5-16.9 4.5-10.1 0-18.7-3.7-25.7-11s-10.5-17-10.5-29c0-12.4 3.7-22.4 11-29.9 7.3-7.6 16.5-11.3 27.4-11.3 7.9 0 15.2 2.1 21.8 6.4 6.6 4.3 11.6 10.4 15 18.3 3.4 7.9 5.1 19.4 5.1 34.4 0 15.6-1.7 28-5.1 37.3-3.4 9.2-8.4 16.3-15.1 21.1s-14.5 7.2-23.5 7.2c-9.6 0-17.4-2.7-23.4-8-5.9-5.2-9.5-12.7-10.7-22.3zm61.4-53.9c0-8.6-2.3-15.4-6.9-20.5-4.6-5.1-10.1-7.6-16.5-7.6-6.7 0-12.5 2.7-17.4 8.2-4.9 5.4-7.4 12.5-7.4 21.2 0 7.8 2.3 14.1 7 19s10.5 7.3 17.4 7.3c6.9 0 12.6-2.4 17.1-7.3 4.4-5 6.7-11.7 6.7-20.3zM4337 5442.8v14.4h-80.7c-.1-3.6.5-7.1 1.8-10.4 2.1-5.5 5.3-10.9 9.9-16.2 4.5-5.3 11.1-11.5 19.6-18.5 13.3-10.9 22.2-19.5 26.9-25.9 4.7-6.4 7-12.4 7-18 0-5.9-2.1-11-6.4-15s-9.8-6.1-16.6-6.1c-7.2 0-13 2.2-17.3 6.5-4.3 4.3-6.5 10.3-6.6 18l-15.4-1.6c1.1-11.5 5-20.3 11.9-26.3s16.1-9 27.7-9c11.7 0 21 3.2 27.8 9.7s10.2 14.6 10.2 24.2c0 4.9-1 9.7-3 14.4-2 4.7-5.3 9.7-10 14.9s-12.3 12.4-23.1 21.5c-9 7.6-14.8 12.7-17.3 15.4-2.6 2.7-4.7 5.4-6.3 8.1h59.9zM4354.6 5397c0-14.4 1.5-26.1 4.5-34.9 3-8.8 7.4-15.6 13.2-20.4 5.9-4.8 13.2-7.2 22.1-7.2 6.6 0 12.3 1.3 17.2 4 4.9 2.6 9 6.4 12.2 11.4 3.2 5 5.7 11 7.6 18.2 1.8 7.1 2.7 16.8 2.7 28.9 0 14.3-1.5 25.9-4.4 34.7-2.9 8.8-7.3 15.6-13.2 20.4-5.9 4.8-13.3 7.2-22.2 7.2-11.8 0-21-4.2-27.7-12.7-8-10.1-12-26.6-12-49.6zm15.4 0c0 20 2.3 33.4 7 40 4.7 6.6 10.5 10 17.4 10 6.9 0 12.7-3.3 17.4-10 4.7-6.7 7-20 7-40 0-20.1-2.3-33.5-7-40.1-4.7-6.6-10.5-9.9-17.5-9.9-6.9 0-12.4 2.9-16.5 8.7-5.2 7.5-7.8 21.3-7.8 41.3zM4507.5 5457.2h-15v-95.6c-3.6 3.4-8.3 6.9-14.2 10.3-5.9 3.4-11.1 6-15.8 7.7v-14.5c8.4-3.9 15.7-8.7 22-14.3 6.3-5.6 10.7-11.1 13.3-16.3h9.7v122.7zM4547.4 5397c0-14.4 1.5-26.1 4.5-34.9 3-8.8 7.4-15.6 13.2-20.4 5.9-4.8 13.2-7.2 22.1-7.2 6.6 0 12.3 1.3 17.2 4 4.9 2.6 9 6.4 12.2 11.4 3.2 5 5.7 11 7.6 18.2 1.8 7.1 2.7 16.8 2.7 28.9 0 14.3-1.5 25.9-4.4 34.7-2.9 8.8-7.3 15.6-13.2 20.4-5.9 4.8-13.3 7.2-22.2 7.2-11.8 0-21-4.2-27.7-12.7-8-10.1-12-26.6-12-49.6zm15.4 0c0 20 2.3 33.4 7 40 4.7 6.6 10.5 10 17.4 10 6.9 0 12.7-3.3 17.4-10 4.7-6.7 7-20 7-40 0-20.1-2.3-33.5-7-40.1-4.7-6.6-10.5-9.9-17.5-9.9-6.9 0-12.4 2.9-16.5 8.7-5.2 7.5-7.8 21.3-7.8 41.3zM4853.8 5442.8v14.4h-80.7c-.1-3.6.5-7.1 1.8-10.4 2.1-5.5 5.3-10.9 9.9-16.2 4.5-5.3 11.1-11.5 19.6-18.5 13.3-10.9 22.2-19.5 26.9-25.9 4.7-6.4 7-12.4 7-18 0-5.9-2.1-11-6.4-15s-9.8-6.1-16.6-6.1c-7.2 0-13 2.2-17.3 6.5-4.3 4.3-6.5 10.3-6.6 18l-15.4-1.6c1.1-11.5 5-20.3 11.9-26.3s16.1-9 27.7-9c11.7 0 21 3.2 27.8 9.7s10.2 14.6 10.2 24.2c0 4.9-1 9.7-3 14.4-2 4.7-5.3 9.7-10 14.9s-12.3 12.4-23.1 21.5c-9 7.6-14.8 12.7-17.3 15.4-2.6 2.7-4.7 5.4-6.3 8.1h59.9zM4871.4 5397c0-14.4 1.5-26.1 4.5-34.9 3-8.8 7.4-15.6 13.2-20.4 5.9-4.8 13.2-7.2 22.1-7.2 6.6 0 12.3 1.3 17.2 4 4.9 2.6 9 6.4 12.2 11.4 3.2 5 5.7 11 7.6 18.2 1.8 7.1 2.7 16.8 2.7 28.9 0 14.3-1.5 25.9-4.4 34.7-2.9 8.8-7.3 15.6-13.2 20.4-5.9 4.8-13.3 7.2-22.2 7.2-11.8 0-21-4.2-27.7-12.7-8-10.1-12-26.6-12-49.6zm15.4 0c0 20 2.3 33.4 7 40 4.7 6.6 10.5 10 17.4 10 6.9 0 12.7-3.3 17.4-10 4.7-6.7 7-20 7-40 0-20.1-2.3-33.5-7-40.1-4.7-6.6-10.5-9.9-17.5-9.9-6.9 0-12.4 2.9-16.5 8.7-5.2 7.5-7.8 21.3-7.8 41.3zM5024.2 5457.2h-15v-95.6c-3.6 3.4-8.3 6.9-14.2 10.3-5.9 3.4-11.1 6-15.8 7.7v-14.5c8.4-3.9 15.7-8.7 22-14.3 6.3-5.6 10.7-11.1 13.3-16.3h9.7v122.7zM5120.6 5457.2h-15v-95.6c-3.6 3.4-8.3 6.9-14.2 10.3-5.9 3.4-11.1 6-15.8 7.7v-14.5c8.4-3.9 15.7-8.7 22-14.3 6.3-5.6 10.7-11.1 13.3-16.3h9.7v122.7zM5370.7 5442.8v14.4H5290c-.1-3.6.5-7.1 1.8-10.4 2.1-5.5 5.3-10.9 9.9-16.2 4.5-5.3 11.1-11.5 19.6-18.5 13.3-10.9 22.2-19.5 26.9-25.9 4.7-6.4 7-12.4 7-18 0-5.9-2.1-11-6.4-15s-9.8-6.1-16.6-6.1c-7.2 0-13 2.2-17.3 6.5-4.3 4.3-6.5 10.3-6.6 18l-15.4-1.6c1.1-11.5 5-20.3 11.9-26.3s16.1-9 27.7-9c11.7 0 21 3.2 27.8 9.7s10.2 14.6 10.2 24.2c0 4.9-1 9.7-3 14.4-2 4.7-5.3 9.7-10 14.9s-12.3 12.4-23.1 21.5c-9 7.6-14.8 12.7-17.3 15.4-2.6 2.7-4.7 5.4-6.3 8.1h59.9zM5388.3 5397c0-14.4 1.5-26.1 4.5-34.9 3-8.8 7.4-15.6 13.2-20.4 5.9-4.8 13.2-7.2 22.1-7.2 6.6 0 12.3 1.3 17.2 4 4.9 2.6 9 6.4 12.2 11.4 3.2 5 5.7 11 7.6 18.2 1.8 7.1 2.7 16.8 2.7 28.9 0 14.3-1.5 25.9-4.4 34.7-2.9 8.8-7.3 15.6-13.2 20.4-5.9 4.8-13.3 7.2-22.2 7.2-11.8 0-21-4.2-27.7-12.7-8-10.1-12-26.6-12-49.6zm15.4 0c0 20 2.3 33.4 7 40 4.7 6.6 10.5 10 17.4 10 6.9 0 12.7-3.3 17.4-10 4.7-6.7 7-20 7-40 0-20.1-2.3-33.5-7-40.1-4.7-6.6-10.5-9.9-17.5-9.9-6.9 0-12.4 2.9-16.5 8.7-5.2 7.5-7.8 21.3-7.8 41.3zM5541.2 5457.2h-15v-95.6c-3.6 3.4-8.3 6.9-14.2 10.3-5.9 3.4-11.1 6-15.8 7.7v-14.5c8.4-3.9 15.7-8.7 22-14.3 6.3-5.6 10.7-11.1 13.3-16.3h9.7v122.7zM5659.9 5442.8v14.4h-80.7c-.1-3.6.5-7.1 1.8-10.4 2.1-5.5 5.3-10.9 9.9-16.2 4.5-5.3 11.1-11.5 19.6-18.5 13.3-10.9 22.2-19.5 26.9-25.9 4.7-6.4 7-12.4 7-18 0-5.9-2.1-11-6.4-15s-9.8-6.1-16.6-6.1c-7.2 0-13 2.2-17.3 6.5-4.3 4.3-6.5 10.3-6.6 18l-15.4-1.6c1.1-11.5 5-20.3 11.9-26.3s16.1-9 27.7-9c11.7 0 21 3.2 27.8 9.7s10.2 14.6 10.2 24.2c0 4.9-1 9.7-3 14.4-2 4.7-5.3 9.7-10 14.9s-12.3 12.4-23.1 21.5c-9 7.6-14.8 12.7-17.3 15.4-2.6 2.7-4.7 5.4-6.3 8.1h59.9zM5887.7 5442.8v14.4H5807c-.1-3.6.5-7.1 1.8-10.4 2.1-5.5 5.3-10.9 9.9-16.2 4.5-5.3 11.1-11.5 19.6-18.5 13.3-10.9 22.2-19.5 26.9-25.9 4.7-6.4 7-12.4 7-18 0-5.9-2.1-11-6.4-15s-9.8-6.1-16.6-6.1c-7.2 0-13 2.2-17.3 6.5-4.3 4.3-6.5 10.3-6.6 18l-15.4-1.6c1.1-11.5 5-20.3 11.9-26.3s16.1-9 27.7-9c11.7 0 21 3.2 27.8 9.7s10.2 14.6 10.2 24.2c0 4.9-1 9.7-3 14.4-2 4.7-5.3 9.7-10 14.9s-12.3 12.4-23.1 21.5c-9 7.6-14.8 12.7-17.3 15.4-2.6 2.7-4.7 5.4-6.3 8.1h59.9zM5905.2 5397c0-14.4 1.5-26.1 4.5-34.9 3-8.8 7.4-15.6 13.2-20.4 5.9-4.8 13.2-7.2 22.1-7.2 6.6 0 12.3 1.3 17.2 4 4.9 2.6 9 6.4 12.2 11.4 3.2 5 5.7 11 7.6 18.2 1.8 7.1 2.7 16.8 2.7 28.9 0 14.3-1.5 25.9-4.4 34.7-2.9 8.8-7.3 15.6-13.2 20.4-5.9 4.8-13.3 7.2-22.2 7.2-11.8 0-21-4.2-27.7-12.7-7.9-10.1-12-26.6-12-49.6zm15.5 0c0 20 2.3 33.4 7 40 4.7 6.6 10.5 10 17.4 10 6.9 0 12.7-3.3 17.4-10 4.7-6.7 7-20 7-40 0-20.1-2.3-33.5-7-40.1-4.7-6.6-10.5-9.9-17.5-9.9-6.9 0-12.4 2.9-16.5 8.7-5.3 7.5-7.8 21.3-7.8 41.3zM6058.1 5457.2h-15v-95.6c-3.6 3.4-8.3 6.9-14.2 10.3-5.9 3.4-11.1 6-15.8 7.7v-14.5c8.4-3.9 15.7-8.7 22-14.3 6.3-5.6 10.7-11.1 13.3-16.3h9.7v122.7zM6098.1 5425l15-2c1.7 8.5 4.7 14.6 8.8 18.4 4.1 3.7 9.2 5.6 15.1 5.6 7.1 0 13-2.4 17.9-7.3 4.9-4.9 7.3-10.9 7.3-18.2 0-6.9-2.2-12.6-6.7-17-4.5-4.5-10.2-6.7-17.2-6.7-2.8 0-6.4.6-10.6 1.7l1.7-13.2c1 .1 1.8.2 2.4.2 6.4 0 12.1-1.7 17.2-5s7.7-8.5 7.7-15.4c0-5.5-1.9-10.1-5.6-13.7-3.7-3.6-8.5-5.4-14.4-5.4-5.8 0-10.7 1.8-14.6 5.5-3.9 3.7-6.4 9.2-7.5 16.5l-15-2.7c1.8-10.1 6-17.8 12.5-23.4s14.6-8.3 24.2-8.3c6.7 0 12.8 1.4 18.4 4.3 5.6 2.9 9.9 6.8 12.9 11.7 3 4.9 4.5 10.2 4.5 15.7 0 5.3-1.4 10.1-4.2 14.4s-7 7.8-12.6 10.3c7.2 1.7 12.8 5.1 16.8 10.4 4 5.2 6 11.8 6 19.7 0 10.7-3.9 19.7-11.7 27.1-7.8 7.4-17.6 11.1-29.5 11.1-10.7 0-19.6-3.2-26.7-9.6s-11.1-14.5-12.1-24.7zM6404.4 5442.8v14.4h-80.7c-.1-3.6.5-7.1 1.8-10.4 2.1-5.5 5.3-10.9 9.9-16.2 4.5-5.3 11.1-11.5 19.6-18.5 13.3-10.9 22.2-19.5 26.9-25.9 4.7-6.4 7-12.4 7-18 0-5.9-2.1-11-6.4-15s-9.8-6.1-16.6-6.1c-7.2 0-13 2.2-17.3 6.5-4.3 4.3-6.5 10.3-6.6 18l-15.4-1.6c1.1-11.5 5-20.3 11.9-26.3s16.1-9 27.7-9c11.7 0 21 3.2 27.8 9.7s10.2 14.6 10.2 24.2c0 4.9-1 9.7-3 14.4-2 4.7-5.3 9.7-10 14.9s-12.3 12.4-23.1 21.5c-9 7.6-14.8 12.7-17.3 15.4-2.6 2.7-4.7 5.4-6.3 8.1h59.9zM6422 5397c0-14.4 1.5-26.1 4.5-34.9 3-8.8 7.4-15.6 13.2-20.4 5.9-4.8 13.2-7.2 22.1-7.2 6.6 0 12.3 1.3 17.2 4 4.9 2.6 9 6.4 12.2 11.4 3.2 5 5.7 11 7.6 18.2 1.8 7.1 2.7 16.8 2.7 28.9 0 14.3-1.5 25.9-4.4 34.7-2.9 8.8-7.3 15.6-13.2 20.4-5.9 4.8-13.3 7.2-22.2 7.2-11.8 0-21-4.2-27.7-12.7-7.9-10.1-12-26.6-12-49.6zm15.4 0c0 20 2.3 33.4 7 40 4.7 6.6 10.5 10 17.4 10 6.9 0 12.7-3.3 17.4-10 4.7-6.7 7-20 7-40 0-20.1-2.3-33.5-7-40.1-4.7-6.6-10.5-9.9-17.5-9.9-6.9 0-12.4 2.9-16.5 8.7-5.2 7.5-7.8 21.3-7.8 41.3zM6574.9 5457.2h-15v-95.6c-3.6 3.4-8.3 6.9-14.2 10.3-5.9 3.4-11.1 6-15.8 7.7v-14.5c8.4-3.9 15.7-8.7 22-14.3 6.3-5.6 10.7-11.1 13.3-16.3h9.7v122.7zM6662.9 5457.2V5428h-53v-13.7l55.7-79.1h12.2v79.1h16.5v13.7h-16.5v29.2h-14.9zm0-42.9v-55.1l-38.2 55.1h38.2zM6921.4 5442.8v14.4h-80.7c-.1-3.6.5-7.1 1.8-10.4 2.1-5.5 5.3-10.9 9.9-16.2 4.5-5.3 11.1-11.5 19.6-18.5 13.3-10.9 22.2-19.5 26.9-25.9 4.7-6.4 7-12.4 7-18 0-5.9-2.1-11-6.4-15s-9.8-6.1-16.6-6.1c-7.2 0-13 2.2-17.3 6.5-4.3 4.3-6.5 10.3-6.6 18l-15.4-1.6c1.1-11.5 5-20.3 11.9-26.3s16.1-9 27.7-9c11.7 0 21 3.2 27.8 9.7s10.2 14.6 10.2 24.2c0 4.9-1 9.7-3 14.4-2 4.7-5.3 9.7-10 14.9s-12.3 12.4-23.1 21.5c-9 7.6-14.8 12.7-17.3 15.4-2.6 2.7-4.7 5.4-6.3 8.1h59.9zM6939 5397c0-14.4 1.5-26.1 4.5-34.9 3-8.8 7.4-15.6 13.2-20.4 5.9-4.8 13.2-7.2 22.1-7.2 6.6 0 12.3 1.3 17.2 4 4.9 2.6 9 6.4 12.2 11.4 3.2 5 5.7 11 7.6 18.2 1.8 7.1 2.7 16.8 2.7 28.9 0 14.3-1.5 25.9-4.4 34.7-2.9 8.8-7.3 15.6-13.2 20.4-5.9 4.8-13.3 7.2-22.2 7.2-11.8 0-21-4.2-27.7-12.7-8-10.1-12-26.6-12-49.6zm15.4 0c0 20 2.3 33.4 7 40 4.7 6.6 10.5 10 17.4 10 6.9 0 12.7-3.3 17.4-10 4.7-6.7 7-20 7-40 0-20.1-2.3-33.5-7-40.1-4.7-6.6-10.5-9.9-17.5-9.9-6.9 0-12.4 2.9-16.5 8.7-5.2 7.5-7.8 21.3-7.8 41.3zM7091.8 5457.2h-15v-95.6c-3.6 3.4-8.3 6.9-14.2 10.3-5.9 3.4-11.1 6-15.8 7.7v-14.5c8.4-3.9 15.7-8.7 22-14.3 6.3-5.6 10.7-11.1 13.3-16.3h9.7v122.7zM7131.8 5425.3l15.7-1.3c1.2 7.7 3.9 13.4 8.1 17.3 4.2 3.9 9.4 5.8 15.4 5.8 7.2 0 13.3-2.7 18.3-8.2 5-5.4 7.5-12.7 7.5-21.7 0-8.6-2.4-15.3-7.2-20.2-4.8-4.9-11.1-7.4-18.9-7.4-4.8 0-9.2 1.1-13.1 3.3-3.9 2.2-6.9 5-9.2 8.5l-14.1-1.8 11.8-62.7h60.7v14.3h-48.7l-6.6 32.8c7.3-5.1 15-7.7 23.1-7.7 10.7 0 19.7 3.7 27 11.1 7.3 7.4 11 16.9 11 28.5 0 11.1-3.2 20.6-9.7 28.7-7.8 9.9-18.5 14.8-32.1 14.8-11.1 0-20.2-3.1-27.2-9.3-6.8-6.3-10.8-14.6-11.8-24.8z"/><g class="st4"><path class="st5" d="M7438.3 5442.8v14.4h-80.7c-.1-3.6.5-7.1 1.8-10.4 2.1-5.5 5.3-10.9 9.9-16.2 4.5-5.3 11.1-11.5 19.6-18.5 13.3-10.9 22.2-19.5 26.9-25.9 4.7-6.4 7-12.4 7-18 0-5.9-2.1-11-6.4-15s-9.8-6.1-16.6-6.1c-7.2 0-13 2.2-17.3 6.5-4.3 4.3-6.5 10.3-6.6 18l-15.4-1.6c1.1-11.5 5-20.3 11.9-26.3s16.1-9 27.7-9c11.7 0 21 3.2 27.8 9.7s10.2 14.6 10.2 24.2c0 4.9-1 9.7-3 14.4-2 4.7-5.3 9.7-10 14.9s-12.3 12.4-23.1 21.5c-9 7.6-14.8 12.7-17.3 15.4-2.6 2.7-4.7 5.4-6.3 8.1h59.9z"/></g><g class="st4"><path class="st5" d="M7455.9 5397c0-14.4 1.5-26.1 4.5-34.9 3-8.8 7.4-15.6 13.2-20.4 5.9-4.8 13.2-7.2 22.1-7.2 6.6 0 12.3 1.3 17.2 4 4.9 2.6 9 6.4 12.2 11.4 3.2 5 5.7 11 7.6 18.2 1.8 7.1 2.7 16.8 2.7 28.9 0 14.3-1.5 25.9-4.4 34.7-2.9 8.8-7.3 15.6-13.2 20.4-5.9 4.8-13.3 7.2-22.2 7.2-11.8 0-21-4.2-27.7-12.7-8-10.1-12-26.6-12-49.6zm15.4 0c0 20 2.3 33.4 7 40 4.7 6.6 10.5 10 17.4 10 6.9 0 12.7-3.3 17.4-10 4.7-6.7 7-20 7-40 0-20.1-2.3-33.5-7-40.1-4.7-6.6-10.5-9.9-17.5-9.9-6.9 0-12.4 2.9-16.5 8.7-5.2 7.5-7.8 21.3-7.8 41.3z"/></g><g class="st4"><path class="st5" d="M7608.8 5457.2h-15v-95.6c-3.6 3.4-8.3 6.9-14.2 10.3-5.9 3.4-11.1 6-15.8 7.7v-14.5c8.4-3.9 15.7-8.7 22-14.3 6.3-5.6 10.7-11.1 13.3-16.3h9.7v122.7z"/></g><g class="st4"><path class="st5" d="M7726.5 5365l-14.9 1.2c-1.3-5.9-3.2-10.2-5.7-12.8-4.1-4.3-9.1-6.4-15-6.4-4.8 0-9 1.3-12.6 4-4.7 3.4-8.4 8.5-11.2 15.1-2.7 6.6-4.1 16-4.2 28.2 3.6-5.5 8-9.6 13.2-12.2 5.2-2.7 10.7-4 16.4-4 10 0 18.5 3.7 25.5 11 7 7.4 10.5 16.9 10.5 28.5 0 7.7-1.7 14.8-5 21.4-3.3 6.6-7.8 11.6-13.6 15.1s-12.3 5.2-19.7 5.2c-12.5 0-22.7-4.6-30.6-13.8-7.9-9.2-11.8-24.3-11.8-45.4 0-23.6 4.4-40.8 13.1-51.5 7.6-9.3 17.9-14 30.7-14 9.6 0 17.5 2.7 23.6 8.1 6.4 5.4 10.1 12.8 11.3 22.3zm-61.2 52.7c0 5.2 1.1 10.1 3.3 14.8 2.2 4.7 5.3 8.3 9.2 10.8 3.9 2.5 8.1 3.7 12.4 3.7 6.3 0 11.8-2.6 16.3-7.7s6.8-12.1 6.8-20.8c0-8.4-2.2-15.1-6.7-20s-10.2-7.3-17-7.3c-6.8 0-12.5 2.4-17.2 7.3-4.8 4.9-7.1 11.3-7.1 19.2z"/></g><g class="st4"><path class="st6" d="M6212.2 5681.7l.9-17.2-14.6 9.3-3.3-5.9 15.3-7.8-15.3-7.8 3.3-6 14.6 9.4-.9-17.2h6.9l-.9 17.2 14.4-9.4 3.5 6-15.3 7.8 15.3 7.8-3.5 5.9-14.4-9.3.9 17.2h-6.9zM6311.6 5740l-25.3-39.7h-20.1v39.7h-12.4v-100h40.2c18.3 0 31.5 11.7 31.5 30.1 0 18-12.4 27.9-26.1 29.1l27 40.8h-14.8zm.9-69.9c0-11.4-8.2-19-20.1-19h-26.2v38.2h26.2c11.9 0 20.1-7.9 20.1-19.2zM6336.8 5703.7c0-21 15-37.9 35.7-37.9 21.9 0 34.8 17.1 34.8 38.8v2.8h-58.5c.9 13.6 10.3 25 25.9 25 8.4 0 16.6-3.3 22.5-9.3l5.4 7.3c-7.3 7.2-17.1 11.2-28.8 11.2-21.5.2-37-15.2-37-37.9zm35.6-28.6c-15.4 0-23.1 13-23.7 24h47.5c-.1-10.7-7.3-24-23.8-24zM6428.6 5724.9v-47.4h-12v-9.9h12v-19.8h11.4v19.8h14.7v9.9H6440v45c0 5.4 2.4 9.3 7.2 9.3 3.3 0 6.1-1.5 7.6-3.1l3.3 8.5c-2.8 2.7-6.9 4.6-13.3 4.6-10.8 0-16.2-6.1-16.2-16.9zM6520.3 5740v-10.2c-5.5 6.3-15 12-25.8 12-15.1 0-23.1-7.5-23.1-23.1v-51.1h11.2v47.7c0 12.7 6.4 16.5 16.3 16.5 8.7 0 17.1-5.1 21.3-10.9v-53.2h11.2v72.4h-11.1zM6554.9 5740v-72.4h11.2v11.5c5.8-7.5 14.2-13.2 24.1-13.2v11.5c-1.3-.1-2.7-.3-4.3-.3-7 0-16.5 5.7-19.8 11.5v51.3h-11.2zM6599.2 5730.4l5.7-8.1c4.8 5.5 13.9 10.3 23.8 10.3 11.1 0 17.2-5.2 17.2-12.4 0-17.5-44.8-6.8-44.8-33.6 0-11.4 9.6-20.8 26.8-20.8 12.5 0 21.1 4.6 26.8 10.5l-5.2 7.8c-4.3-5.2-12.1-9.2-21.6-9.2-9.9 0-16 5-16 11.4 0 15.8 44.8 5.4 44.8 33.6 0 12.2-9.7 21.9-28.3 21.9-12 0-21.9-3.7-29.2-11.4zM6761 5740v-8.2c-5.9 6.6-14.2 10-24 10-12.2 0-25.2-8.2-25.2-24 0-16.3 12.9-23.8 25.2-23.8 9.9 0 18.1 3.1 24 9.7v-13c0-9.6-7.8-15.1-18.3-15.1-8.7 0-15.7 3-22.2 10l-5.2-7.8c7.8-8.1 17.1-12 28.9-12 15.4 0 28 6.9 28 24.4v49.8H6761zm0-15.3v-13.8c-4.4-5.8-12-8.8-19.8-8.8-10.6 0-18 6.6-18 15.7 0 9.3 7.4 15.9 18 15.9 7.8 0 15.4-3 19.8-9zM6789.7 5730.4l5.7-8.1c4.8 5.5 13.9 10.3 23.8 10.3 11.1 0 17.2-5.2 17.2-12.4 0-17.5-44.8-6.8-44.8-33.6 0-11.4 9.6-20.8 26.8-20.8 12.4 0 21.2 4.6 26.8 10.5l-5.2 7.8c-4.3-5.2-12.1-9.2-21.6-9.2-9.9 0-16 5-16 11.4 0 15.8 44.8 5.4 44.8 33.6 0 12.2-9.7 21.9-28.3 21.9-12 0-21.9-3.7-29.2-11.4zM6902 5703.7c0-21 13.8-37.9 35.8-37.9s35.8 16.9 35.8 37.9-13.8 38.1-35.8 38.1-35.8-17.1-35.8-38.1zm59.8 0c0-14.7-8.5-27.9-24-27.9s-24 13.2-24 27.9c0 14.8 8.6 28 24 28s24-13.1 24-28zM6996 5740v-62.5h-12v-9.9h12v-5.5c0-14.8 8.2-23.5 21-23.5 5.8 0 10.8 1.3 15.3 5.5l-4.7 7.2c-2.4-2.1-5.2-3.4-8.8-3.4-7.5 0-11.5 4.9-11.5 14.2v5.5h14.7v9.9h-14.7v62.5H6996zM7091.6 5740v-83.7l-16 17.1-7.5-7.6 25-25.8h10.9v100h-12.4zM7124.7 5740v-10c36-28.2 55.6-44.8 55.6-62.1 0-12.9-10.7-18.3-21-18.3-12 0-21.3 5.1-27.1 12.6l-7.7-8c7.7-10.2 20.7-15.7 34.8-15.7 16.7 0 33.6 9.4 33.6 29.4 0 20.4-20.7 39-48.6 61h49v11.1h-68.6zM7205.7 5743l35.5-106h8.8l-35.5 106h-8.8zM7255.4 5725.3l7.3-7.8c5.8 7.8 16.1 13.2 27.9 13.2 14.5 0 23.4-7.3 23.4-18.7 0-12.4-10.2-17.7-24.9-17.7-4.2 0-8.8 0-10.3.2V5683c1.6.2 6.3.2 10.3.2 12.6 0 23.2-5 23.2-16.5 0-11.1-10.2-17.1-22.3-17.1-10.9 0-19 4.2-26.4 12.1l-6.9-7.8c7.2-8.8 18.7-15.4 34.3-15.4 19.2 0 33.7 9.8 33.7 26.5 0 14.5-12.1 21.7-21.4 23.2 9 .9 23.1 8.5 23.1 24.7 0 16.6-13.5 28.8-35.5 28.8-16.9.1-29.4-7.4-35.5-16.4zM7362.2 5740v-83.7l-16.1 17.1-7.5-7.6 25.1-25.8h10.9v100h-12.4zM7387.2 5743l35.5-106h8.8l-35.5 106h-8.8zM7440.6 5740v-10c36-28.2 55.6-44.8 55.6-62.1 0-12.9-10.6-18.3-21-18.3-12 0-21.3 5.1-27.1 12.6l-7.7-8c7.7-10.2 20.7-15.7 34.8-15.7 16.6 0 33.6 9.4 33.6 29.4 0 20.4-20.7 39-48.6 61h49v11.1h-68.6zM7529.3 5690.1c0-24.4 10.8-51.6 38.2-51.6 27.3 0 38.2 27.1 38.2 51.6 0 24.3-10.9 51.7-38.2 51.7-27.4 0-38.2-27.4-38.2-51.7zm63.7 0c0-19.9-6.4-40.5-25.5-40.5s-25.5 20.5-25.5 40.5 6.4 40.6 25.5 40.6 25.5-20.7 25.5-40.6zM7641 5740v-83.7l-16 17.1-7.5-7.6 25-25.8h10.9v100H7641zM7673.7 5690.1c0-27 12.6-51.6 40.8-51.6 12.8 0 21.4 4.8 27.6 12l-6.3 9.3c-5.1-6-10.9-10.2-21.3-10.2-19.5 0-28.2 19.6-28.2 39.3v3.9c4.3-6.9 15.4-15.6 28.3-15.6 18 0 32.7 10.6 32.7 31.9 0 17.2-13.2 32.7-34.9 32.7-28 0-38.7-24.4-38.7-51.7zm61.1 19.5c0-14.7-10.2-21.6-22.9-21.6-10.1 0-19.7 6.1-25 14.8 1 12.4 7.6 27.9 25 27.9 15.4 0 22.9-11.7 22.9-21.1z"/></g></g><g id="Layer_3"><g class="st4"><path class="st7" d="M5722.8 501.9l16.5-22.8c11.2 12.2 29.5 23.2 52.8 23.2 24 0 33.2-11.8 33.2-23 0-35-97-13.2-97-74.5 0-27.8 24-49 60.8-49 25.8 0 47 8.5 62.2 23.5l-16.5 21.8c-13.2-13.2-31-19.2-48.5-19.2-17 0-28 8.5-28 20.8 0 31.2 97 12 97 74 0 27.8-19.8 51.8-64.5 51.8-30.7-.1-53-11.1-68-26.6zM5988.8 525.4c-4-3.8-9.2-8.8-14.8-14.5-12.5 10.5-27.8 17.5-46.8 17.5-29.5 0-53.5-16-53.5-47.5 0-25.8 17-39 36.2-48.8-7-12.5-11.8-25.2-11.8-36.8 0-22.2 19.2-39.2 45.2-39.2 22.5 0 41 12.2 41 34 0 25.2-20.8 36.2-41.5 46.2 5.8 8 11.8 15.2 16.5 20.8 5.5 6.8 11 13.2 16.5 19.2 8-12 13.5-25.2 16.5-35l21.2 9.8c-5.8 13.5-13.2 28.2-23 41.5 10 10.5 20.5 21.2 32.5 32.8h-34.2zm-29.2-29.8c-8.5-9-16.2-17.8-20.5-23.2-6.2-7.2-12.8-15.5-18.5-23.8-11 7.2-19 16-19 30 0 18.2 13.8 28.8 29.2 28.8 10.8 0 20.3-4.8 28.8-11.8zm-26.8-74.5c15.8-7.5 28.5-15.5 28.5-29.5 0-10.2-7.2-16.2-16.8-16.2-11 0-20 8.5-20 20.8.1 7.4 3.3 16.2 8.3 24.9zM6047.3 525.4V358.6h73.5c35 0 54.2 23.8 54.2 52.2 0 28.2-19.5 52-54.2 52h-44.2v62.5h-29.3zm97.8-114.5c0-16-11.8-26.5-28.2-26.5h-40.2v52.8h40.2c16.4-.1 28.2-10.6 28.2-26.3zM6264.6 502.6l16.8-20.2c11 13 26.2 20 44.8 20 21.2 0 34.2-13 34.2-29.5 0-17.8-13-29.5-33.5-29.5-14 0-25.8 4.2-36.5 14.2l-20.8-6v-93h109.2v25.8h-80v48c8.2-7.8 21.8-14.2 37.8-14.2 28.2 0 53.5 19.5 53.5 53.8 0 34.5-26.5 56.5-63.8 56.5-28.5-.1-48.2-10.1-61.7-25.9zM6412.8 442.1c0-42 19.8-86 66.8-86 46.8 0 66.5 44 66.5 86 0 41.8-19.8 86.2-66.5 86.2-47 .1-66.8-44.4-66.8-86.2zm103.5 0c0-32-9.5-60-36.8-60s-37 28-37 60c0 31.8 9.8 60.2 37 60.2 27.1.1 36.8-28.4 36.8-60.2zM6569.1 442.1c0-42 19.8-86 66.8-86 46.8 0 66.5 44 66.5 86 0 41.8-19.8 86.2-66.5 86.2-47.1.1-66.8-44.4-66.8-86.2zm103.5 0c0-32-9.5-60-36.8-60s-37 28-37 60c0 31.8 9.8 60.2 37 60.2 27 .1 36.8-28.4 36.8-60.2z"/></g><g class="st4"><path class="st8" d="M4886.4 190.4V23.6h29.2v166.8h-29.2zM5034.1 190.4v-75.5c0-19-9.8-25-24.5-25-13.2 0-24.8 8-31 16v84.5h-26.2V69.6h26.2v16.2c8-9.5 23.8-19.2 42.8-19.2 26 0 39 14 39 38.8v85h-26.3zM5089.1 129.9c0-36.5 25.8-63.2 62.2-63.2 23.8 0 37.8 10 46.2 21.5l-17.2 15.8c-6.8-9.5-16-14-27.8-14-21.8 0-36.5 16.5-36.5 40s14.8 40.2 36.5 40.2c11.8 0 21-5 27.8-14.5l17.2 16.2c-8.5 11.2-22.5 21.5-46.2 21.5-36.4 0-62.2-27-62.2-63.5zM5215.6 129.9c0-34.8 23.5-63.2 62-63.2s62 28.5 62 63.2c0 34.5-23.5 63.5-62 63.5s-62-29-62-63.5zm96.8 0c0-21.2-12.2-40-34.8-40-22.2 0-34.8 18.8-34.8 40 0 21.5 12.5 40.2 34.8 40.2 22.5 0 34.8-18.7 34.8-40.2zM5516.6 190.4v-78.8c0-13-5.8-21.8-20-21.8-11.8 0-22.8 8-28 16v84.5h-26.2v-78.8c0-13-5.5-21.8-19.8-21.8-11.8 0-22.5 8.2-28 16v84.5h-26.2V69.6h26.2v16.2c5.2-7.2 21-19.2 39.5-19.2 18 0 29 9 33 22 6.8-10.8 22.8-22 41-22 22 0 34.8 12 34.8 36.5v87.2h-26.3zM5571.6 129.9c0-35 25.5-63.2 61.2-63.2 36.2 0 59.2 27.5 59.2 65.5v6.5h-93c2 18 15.5 33.2 38.2 33.2 12 0 25.8-4.8 34.5-13.5l12 17.2c-12.2 11.5-30 17.8-49 17.8-36.3 0-63.1-25.3-63.1-63.5zm61-41.8c-22.2 0-32.8 17.2-33.8 31.8h68c-.7-14.3-10.4-31.8-34.2-31.8zM5787.4 190.4V23.6h29.2v166.8h-29.2zM5935.1 190.4v-75.5c0-19-9.8-25-24.5-25-13.2 0-24.8 8-31 16v84.5h-26.2V69.6h26.2v16.2c8-9.5 23.8-19.2 42.8-19.2 26 0 39 14 39 38.8v85h-26.3zM6029.1 190.4l-49.2-120.8h28.2l35.2 90.5 35.2-90.5h28l-49.2 120.8h-28.2zM6117.9 129.9c0-35 25.5-63.2 61.2-63.2 36.2 0 59.2 27.5 59.2 65.5v6.5h-93c2 18 15.5 33.2 38.2 33.2 12 0 25.8-4.8 34.5-13.5l12 17.2c-12.2 11.5-30 17.8-49 17.8-36.4 0-63.1-25.3-63.1-63.5zm61-41.8c-22.2 0-32.8 17.2-33.8 31.8h68c-.7-14.3-10.5-31.8-34.2-31.8zM6256.1 174.4l12-18.8c8.5 8.8 25.2 16.8 40.8 16.8 15.8 0 24-6.5 24-16 0-23.8-73-6.8-73-53.2 0-19.8 17-36.5 47.5-36.5 20.5 0 36 7.2 46.8 16.8l-11 18.5c-7.2-8-20.5-14.5-35.8-14.5-13.8 0-22.2 6.5-22.2 15 0 21.2 73 5.2 73 53.2 0 21.5-17.8 37.8-50.2 37.8-20.9-.1-39.4-6.9-51.9-19.1zM6391.9 162.1V92.4h-20V69.6h20v-33h26.2v33h24.5v22.8h-24.5v63.2c0 8.2 4 14.5 11.5 14.5 5 0 9.5-2.2 11.5-4.5l6.2 20c-4.8 4.2-12.5 7.8-24.5 7.8-20.4 0-30.9-11-30.9-31.3zM6460.9 129.9c0-34.8 23.5-63.2 62-63.2s62 28.5 62 63.2c0 34.5-23.5 63.5-62 63.5s-62-29-62-63.5zm96.7 0c0-21.2-12.2-40-34.8-40-22.2 0-34.8 18.8-34.8 40 0 21.5 12.5 40.2 34.8 40.2 22.6 0 34.8-18.7 34.8-40.2zM6613.6 190.4V69.6h26.2v17.5c9.2-11.5 23.8-20.5 39.2-20.5v26c-2.2-.5-4.8-.8-8-.8-11.2 0-26 7.5-31.2 16.2v82.2h-26.2z"/></g><path class="st9" d="M6963.8 121.3h792"/><path class="st10" d="M6963.8 456.3h792"/></g></svg>