<svg id="Layer_1" xmlns="http://www.w3.org/2000/svg" xmlns:xlink="http://www.w3.org/1999/xlink" viewBox="0 0 8244 5940"><style>.st0{fill:none;stroke:#010101;stroke-width:7.8526;stroke-linejoin:round;stroke-miterlimit:10}.st1,.st2{clip-path:url(#SVGID_2_);fill:none;stroke:#d19e26;stroke-width:62.7875;stroke-miterlimit:8}.st2{clip-path:url(#SVGID_4_);stroke:#aaa}.st3{enable-background:new}.st4{fill:#010101}.st5{fill:#666}.st6{fill:#aaa}.st7{fill:#d19e26}.st8,.st9{fill:none;stroke:#d19e26;stroke-width:30;stroke-miterlimit:10}.st9{stroke:#aaa}</style><g id="IV"><path class="st0" d="M857.5 4905.2h7338.7M857.5 4426.4h7338.7M857.5 3947.6h7338.7M857.5 3476.7h7338.7M857.5 2997.9h7338.7M857.5 2519.2h7338.7M857.5 2040.4h7338.7M857.5 1561.6h7338.7M857.5 1090.7h7338.7M857.5 611.9h7338.7M857.5 5384h7338.7M857.5 5384v54.9m588.7-54.9v54.9m588.6-54.9v54.9m596.5-54.9v54.9M3220 5384v54.9m588.7-54.9v54.9m596.5-54.9v54.9m588.6-54.9v54.9m588.7-54.9v54.9M6179 5384v54.9m588.7-54.9v54.9m588.6-54.9v54.9M7945 5384v54.9"/><defs><path id="SVGID_1_" d="M853.6 608h7346.5v4779.9H853.6z"/></defs><clipPath id="SVGID_2_"><use xlink:href="#SVGID_1_" overflow="visible"/></clipPath><path class="st1" d="M877.1 4320.5l55-55 47-7.8 47.1-78.5 55-94.2 47.1 23.5 47.1-47.1 47.1 15.7 54.9 39.3 47.1-55 47.1-39.2 47.1-47.1 54.9 31.4 47.1 7.8 47.1 31.4 55-94.1h47.1l47-47.1h47.1l55-31.4 47.1-7.9 47.1 39.3 54.9-7.9 47.1 31.4 47.1-70.6 47.1-70.7 54.9-78.4 47.1-47.1 47.1-23.6 47.1-31.4 55 31.4 47-15.7 47.1-70.6 55-102.1 47.1 31.4 47.1 117.8 47.1 15.7 54.9-23.6 47.1-39.2 47.1 78.5 47.1 15.7 54.9 54.9 47.1 94.2 47.1 23.5 54.9-70.6 47.1-39.2 47.1 133.4 47.1-23.6 55-78.5 47.1 133.5 47.1 266.8 54.9 125.6 47.1-47.1 47.1 86.4 47.1 117.7 54.9-86.4 47.1-149.1 47.1-23.5 47.1-15.7 54.9-94.2 47.1-62.8 47.1-62.8 55 39.3 47.1-94.2 47.1-47.1 47 39.2 55-23.5 47.1-86.4 47.1-15.7 47.1 157 54.9 70.7 47.1-86.4 47.1 70.7 54.9-141.3 47.1-23.6 47.1-7.8 47.1-94.2 55-62.8 47-70.6 47.1-15.7 47.1-62.8 55 7.8 47.1 15.7 47.1 47.1 54.9 78.5 47.1 94.2 47.1-133.4 47.1-7.9 54.9-31.4 47.1-70.6 47.1-70.7 55-86.3 47 23.5 47.1 94.2 47.1-86.3 55-7.9 47.1-62.7 47.1-62.8 47 23.5 55-23.5 47.1-23.6 47.1-149.1 54.9-47.1 47.1-94.2 47.1-62.8 47.1-78.5 55 31.4 47-109.9 47.1 94.2 47.1-102 55-102 47.1-125.6 47-94.2 55 133.4 47.1-149.1 47.1-7.9 47.1 7.9 54.9-62.8 47.1-70.6 47.1 70.6 54.9-133.4 47.1 23.5 47.1-109.9 47.1-94.1 55 7.8 47.1 94.2 47-211.9 47.1-7.9 55 23.6 47.1-94.2h47.1l54.9-157 47.1 180.5 47.1 70.7 47.1-274.7 54.9-70.7 47.1 78.5 47.1 235.5 47.1-39.3 55-243.3 47 7.9 47.1-62.8 55 86.3 47.1-141.3 47.1-54.9 47.1-31.4 54.9 94.2 47.1-172.7 47.1-94.2"/><defs><path id="SVGID_3_" d="M853.6 608h7346.5v4779.9H853.6z"/></defs><clipPath id="SVGID_4_"><use xlink:href="#SVGID_3_" overflow="visible"/></clipPath><path class="st2" d="M877.1 4406.8l55-7.9 47-15.7 47.1-39.2 55-39.2 47.1 23.5 47.1-15.7 47.1 15.7 54.9 15.7 47.1-31.4h47.1l47.1-39.2 54.9 7.8 47.1-7.8 47.1 23.5 55-47.1h47.1l47-31.4h47.1l55-15.7 47.1-15.7 47.1 39.3 54.9-7.9 47.1-7.8 47.1-23.6 47.1-31.4 54.9-39.2 47.1-23.6 47.1-15.7 47.1-23.5 55 23.5 47-15.7 47.1-54.9 55-47.1 47.1 23.5 47.1 39.3 47.1-15.7 54.9-54.9 47.1-23.6 47.1 62.8 47.1 7.9 54.9 86.3 47.1 39.2 47.1 7.9 54.9-62.8 47.1-15.7 47.1 109.9 47.1 15.7 55-23.6 47.1 109.9 47.1 188.4 54.9 70.6 47.1-15.7 47.1 78.5 47.1 86.4 54.9-62.8 47.1-78.5 47.1 86.3 47.1-133.4 54.9-70.7 47.1-31.4 47.1-39.2 55 23.5 47.1-62.7 47.1-23.6 47 39.3 55-31.4 47.1-62.8 47.1-23.6 47.1 94.2 54.9 55 47.1-70.7 47.1 54.9 54.9-94.1 47.1-47.1h47.1l47.1-78.5 55-31.4 47-39.3 47.1-7.8 47.1-39.2 55 15.6 47.1 23.6 47.1 31.4 54.9 70.6 47.1 86.4 47.1-125.6h47.1l54.9-7.9 47.1-62.8 47.1-54.9 55-47.1 47 7.9 47.1 86.3 47.1-54.9 55-23.6 47.1-31.4 47.1-39.2 47 31.4 55-7.9 47.1-15.7 47.1-78.5 54.9-15.7 47.1-62.8 47.1-31.4 47.1-39.2 55 23.5 47-86.3 47.1 47.1 47.1-54.9 55-78.5 47.1-55 47-54.9 55 70.6 47.1-86.3 47.1-15.7 47.1-15.7 54.9-47.1 47.1-47.1 47.1 31.4 54.9-86.3 47.1 31.4 47.1-47.1 47.1-62.8 55 7.8 47.1 62.8 47-125.6 47.1 39.3 55-23.6 47.1-31.4 47.1 47.1 54.9-47.1 47.1 141.3 47.1 55 47.1-180.6 54.9-7.8 47.1 86.3 47.1 109.9 47.1 7.9 55-149.2 47-54.9 47.1-47.1h55l47.1-94.2h94.2l54.9 39.3 47.1-86.4 47.1-47.1"/><path class="st3 st4" d="M539.8 5458.7v-15.9c-7.9-1-14.4-2.8-19.3-5.3-5-2.6-9.3-6.7-12.9-12.4s-5.7-12.7-6.3-20.9l16-3c1.2 8.5 3.4 14.8 6.5 18.8 4.5 5.6 9.8 8.8 16 9.4V5379c-6.5-1.2-13.2-3.8-20-7.6-5.1-2.8-8.9-6.7-11.7-11.7-2.7-5-4.1-10.7-4.1-17 0-11.3 4-20.4 12-27.4 5.3-4.7 13.3-7.6 23.8-8.6v-7.6h9.3v7.6c9.2.9 16.5 3.6 21.9 8.1 6.9 5.8 11.1 13.7 12.5 23.7l-16.4 2.5c-.9-6.2-2.9-11-5.9-14.3-3-3.3-7-5.5-12.2-6.6v45.7c8 2 13.3 3.6 15.9 4.7 4.9 2.2 9 4.8 12.1 7.9 3.1 3.1 5.5 6.8 7.2 11.1s2.5 8.9 2.5 13.9c0 11-3.5 20.2-10.5 27.5-7 7.3-16 11.3-27.1 11.8v16h-9.3zm0-138.9c-6.2.9-11 3.4-14.6 7.4-3.6 4-5.3 8.7-5.3 14.2 0 5.4 1.5 9.9 4.5 13.6 3 3.6 8.2 6.6 15.4 8.7v-43.9zm9.4 109.7c6.2-.8 11.3-3.4 15.3-8s6-10.3 6-17c0-5.8-1.4-10.4-4.3-13.9s-8.5-6.6-17.1-9.4v48.3zM604.4 5376.4c0-15.3 1.6-27.6 4.7-36.9 3.1-9.3 7.8-16.5 14-21.6 6.2-5.1 14-7.6 23.4-7.6 6.9 0 13 1.4 18.2 4.2 5.2 2.8 9.5 6.8 13 12.1 3.4 5.3 6.1 11.7 8 19.2 1.9 7.6 2.9 17.7 2.9 30.5 0 15.2-1.6 27.4-4.7 36.7-3.1 9.3-7.8 16.5-14 21.6-6.2 5.1-14 7.6-23.5 7.6-12.5 0-22.2-4.5-29.4-13.4-8.4-10.6-12.6-28.1-12.6-52.4zm16.3 0c0 21.2 2.5 35.3 7.4 42.4 5 7 11.1 10.5 18.4 10.5 7.3 0 13.4-3.5 18.4-10.6 5-7.1 7.4-21.2 7.4-42.3 0-21.3-2.5-35.4-7.4-42.4-5-7-11.2-10.5-18.6-10.5-7.3 0-13.1 3.1-17.5 9.3-5.4 7.9-8.1 22.4-8.1 43.6zM183.5 4981.6v-15.9c-7.9-1-14.4-2.8-19.3-5.3-5-2.6-9.3-6.7-12.9-12.4-3.6-5.7-5.7-12.7-6.3-20.9l16-3c1.2 8.5 3.4 14.8 6.5 18.8 4.5 5.6 9.8 8.8 16 9.4v-50.5c-6.5-1.2-13.2-3.8-20-7.6-5.1-2.8-8.9-6.7-11.7-11.7-2.7-5-4.1-10.7-4.1-17 0-11.3 4-20.4 12-27.4 5.3-4.7 13.3-7.6 23.8-8.6v-7.6h9.3v7.6c9.2.9 16.5 3.6 21.9 8.1 6.9 5.8 11.1 13.7 12.5 23.7l-16.4 2.5c-.9-6.2-2.9-11-5.9-14.3-3-3.3-7-5.5-12.2-6.6v45.7c8 2 13.3 3.6 15.9 4.7 4.9 2.2 9 4.8 12.1 7.9 3.1 3.1 5.5 6.8 7.2 11.1s2.5 8.9 2.5 13.9c0 11-3.5 20.2-10.5 27.5s-16 11.3-27.1 11.8v16h-9.3zm0-138.9c-6.2.9-11 3.4-14.6 7.4-3.6 4-5.3 8.7-5.3 14.2 0 5.4 1.5 9.9 4.5 13.6 3 3.6 8.2 6.6 15.4 8.7v-43.9zm9.3 109.6c6.2-.8 11.3-3.4 15.3-8s6-10.3 6-17c0-5.8-1.4-10.4-4.3-13.9s-8.5-6.6-17.1-9.4v48.3zM248 4929.2l16.7-1.4c1.2 8.1 4.1 14.2 8.6 18.3 4.5 4.1 9.9 6.1 16.3 6.1 7.6 0 14.1-2.9 19.4-8.6 5.3-5.8 7.9-13.4 7.9-22.9 0-9-2.5-16.2-7.6-21.4-5.1-5.2-11.7-7.8-20-7.8-5.1 0-9.7 1.2-13.8 3.5-4.1 2.3-7.3 5.3-9.7 9l-14.9-1.9 12.5-66.4h64.3v15.2H276l-7 34.7c7.8-5.4 15.9-8.1 24.4-8.1 11.3 0 20.8 3.9 28.6 11.7 7.8 7.8 11.6 17.9 11.6 30.1 0 11.7-3.4 21.8-10.2 30.3-8.3 10.5-19.6 15.7-33.9 15.7-11.8 0-21.3-3.3-28.8-9.9-7.4-6.6-11.6-15.4-12.7-26.2zM358.5 4963v-18.1h18.1v18.1c0 6.6-1.2 12-3.5 16.1-2.4 4.1-6.1 7.2-11.2 9.5l-4.4-6.8c3.3-1.5 5.8-3.6 7.4-6.5 1.6-2.8 2.5-6.9 2.6-12.3h-9zM397.3 4899.3c0-15.3 1.6-27.6 4.7-36.9 3.1-9.3 7.8-16.5 14-21.6 6.2-5.1 14-7.6 23.4-7.6 6.9 0 13 1.4 18.2 4.2 5.2 2.8 9.5 6.8 13 12.1 3.4 5.3 6.1 11.7 8 19.2 1.9 7.6 2.9 17.7 2.9 30.5 0 15.2-1.6 27.4-4.7 36.7-3.1 9.3-7.8 16.5-14 21.6-6.2 5.1-14 7.6-23.5 7.6-12.5 0-22.2-4.5-29.4-13.4-8.3-10.6-12.6-28.1-12.6-52.4zm16.3 0c0 21.2 2.5 35.3 7.4 42.4 5 7 11.1 10.5 18.4 10.5 7.3 0 13.4-3.5 18.4-10.6 5-7.1 7.4-21.2 7.4-42.3 0-21.3-2.5-35.4-7.4-42.4-5-7-11.2-10.5-18.6-10.5-7.3 0-13.1 3.1-17.5 9.3-5.4 7.8-8.1 22.4-8.1 43.6zM499.3 4899.3c0-15.3 1.6-27.6 4.7-36.9 3.1-9.3 7.8-16.5 14-21.6 6.2-5.1 14-7.6 23.4-7.6 6.9 0 13 1.4 18.2 4.2 5.2 2.8 9.5 6.8 13 12.1 3.4 5.3 6.1 11.7 8 19.2 1.9 7.6 2.9 17.7 2.9 30.5 0 15.2-1.6 27.4-4.7 36.7-3.1 9.3-7.8 16.5-14 21.6-6.2 5.1-14 7.6-23.5 7.6-12.5 0-22.2-4.5-29.4-13.4-8.4-10.6-12.6-28.1-12.6-52.4zm16.3 0c0 21.2 2.5 35.3 7.4 42.4s11.1 10.5 18.4 10.5c7.3 0 13.4-3.5 18.4-10.6 5-7.1 7.4-21.2 7.4-42.3 0-21.3-2.5-35.4-7.4-42.4-5-7-11.2-10.5-18.6-10.5-7.3 0-13.1 3.1-17.5 9.3-5.4 7.8-8.1 22.4-8.1 43.6zM601.3 4899.3c0-15.3 1.6-27.6 4.7-36.9 3.1-9.3 7.8-16.5 14-21.6 6.2-5.1 14-7.6 23.4-7.6 6.9 0 13 1.4 18.2 4.2 5.2 2.8 9.5 6.8 13 12.1 3.4 5.3 6.1 11.7 8 19.2 1.9 7.6 2.9 17.7 2.9 30.5 0 15.2-1.6 27.4-4.7 36.7-3.1 9.3-7.8 16.5-14 21.6-6.2 5.1-14 7.6-23.5 7.6-12.5 0-22.2-4.5-29.4-13.4-8.4-10.6-12.6-28.1-12.6-52.4zm16.3 0c0 21.2 2.5 35.3 7.4 42.4s11.1 10.5 18.4 10.5c7.3 0 13.4-3.5 18.4-10.6 5-7.1 7.4-21.2 7.4-42.3 0-21.3-2.5-35.4-7.4-42.4-5-7-11.2-10.5-18.6-10.5-7.3 0-13.1 3.1-17.5 9.3-5.4 7.8-8.1 22.4-8.1 43.6zM81.5 4504.5v-15.9c-7.9-1-14.4-2.8-19.3-5.3-5-2.6-9.3-6.7-12.9-12.4-3.6-5.7-5.7-12.7-6.3-20.9l16-3c1.2 8.5 3.4 14.8 6.5 18.8 4.5 5.6 9.8 8.8 16 9.4v-50.5c-6.5-1.2-13.2-3.8-20-7.6-5.1-2.8-8.9-6.7-11.7-11.7-2.7-5-4.1-10.7-4.1-17 0-11.3 4-20.4 12-27.4 5.3-4.7 13.3-7.6 23.8-8.6v-7.6h9.3v7.6c9.2.9 16.5 3.6 21.9 8.1 6.9 5.8 11.1 13.7 12.5 23.7l-16.4 2.5c-.9-6.2-2.9-11-5.9-14.3-3-3.3-7-5.5-12.2-6.6v45.7c8 2 13.3 3.6 15.9 4.7 4.9 2.2 9 4.8 12.1 7.9 3.1 3.1 5.5 6.8 7.2 11.1s2.5 8.9 2.5 13.9c0 11-3.5 20.2-10.5 27.5s-16 11.3-27.1 11.8v16h-9.3zm0-138.9c-6.2.9-11 3.4-14.6 7.4-3.6 4-5.3 8.7-5.3 14.2 0 5.4 1.5 9.9 4.5 13.6 3 3.6 8.2 6.6 15.4 8.7v-43.9zm9.3 109.6c6.2-.8 11.3-3.4 15.3-8s6-10.3 6-17c0-5.8-1.4-10.4-4.3-13.9s-8.5-6.6-17.1-9.4v48.3zM205.8 4485.9h-15.9v-101.1c-3.8 3.6-8.8 7.3-15 10.9-6.2 3.6-11.8 6.4-16.7 8.2v-15.3c8.9-4.2 16.6-9.2 23.3-15.2 6.6-5.9 11.3-11.7 14.1-17.3h10.2v129.8zM248 4422.2c0-15.3 1.6-27.6 4.7-36.9 3.1-9.3 7.8-16.5 14-21.6 6.2-5.1 14-7.6 23.4-7.6 6.9 0 13 1.4 18.2 4.2 5.2 2.8 9.5 6.8 13 12.1 3.4 5.3 6.1 11.7 8 19.2 1.9 7.6 2.9 17.7 2.9 30.5 0 15.2-1.6 27.4-4.7 36.7-3.1 9.3-7.8 16.5-14 21.6-6.2 5.1-14 7.6-23.5 7.6-12.5 0-22.2-4.5-29.4-13.4-8.3-10.6-12.6-28.2-12.6-52.4zm16.3 0c0 21.2 2.5 35.3 7.4 42.4 5 7 11.1 10.5 18.4 10.5 7.3 0 13.4-3.5 18.4-10.6 5-7.1 7.4-21.2 7.4-42.3 0-21.3-2.5-35.4-7.4-42.4-5-7-11.2-10.5-18.6-10.5-7.3 0-13.1 3.1-17.5 9.3-5.4 7.8-8.1 22.4-8.1 43.6zM358.5 4485.9v-18.1h18.1v18.1c0 6.6-1.2 12-3.5 16.1-2.4 4.1-6.1 7.2-11.2 9.5l-4.4-6.8c3.3-1.5 5.8-3.6 7.4-6.5 1.6-2.8 2.5-6.9 2.6-12.3h-9zM397.3 4422.2c0-15.3 1.6-27.6 4.7-36.9 3.1-9.3 7.8-16.5 14-21.6 6.2-5.1 14-7.6 23.4-7.6 6.9 0 13 1.4 18.2 4.2 5.2 2.8 9.5 6.8 13 12.1 3.4 5.3 6.1 11.7 8 19.2 1.9 7.6 2.9 17.7 2.9 30.5 0 15.2-1.6 27.4-4.7 36.7-3.1 9.3-7.8 16.5-14 21.6-6.2 5.1-14 7.6-23.5 7.6-12.5 0-22.2-4.5-29.4-13.4-8.3-10.6-12.6-28.2-12.6-52.4zm16.3 0c0 21.2 2.5 35.3 7.4 42.4 5 7 11.1 10.5 18.4 10.5 7.3 0 13.4-3.5 18.4-10.6 5-7.1 7.4-21.2 7.4-42.3 0-21.3-2.5-35.4-7.4-42.4-5-7-11.2-10.5-18.6-10.5-7.3 0-13.1 3.1-17.5 9.3-5.4 7.8-8.1 22.4-8.1 43.6zM499.3 4422.2c0-15.3 1.6-27.6 4.7-36.9 3.1-9.3 7.8-16.5 14-21.6 6.2-5.1 14-7.6 23.4-7.6 6.9 0 13 1.4 18.2 4.2 5.2 2.8 9.5 6.8 13 12.1 3.4 5.3 6.1 11.7 8 19.2 1.9 7.6 2.9 17.7 2.9 30.5 0 15.2-1.6 27.4-4.7 36.7-3.1 9.3-7.8 16.5-14 21.6-6.2 5.1-14 7.6-23.5 7.6-12.5 0-22.2-4.5-29.4-13.4-8.4-10.6-12.6-28.2-12.6-52.4zm16.3 0c0 21.2 2.5 35.3 7.4 42.4s11.1 10.5 18.4 10.5c7.3 0 13.4-3.5 18.4-10.6 5-7.1 7.4-21.2 7.4-42.3 0-21.3-2.5-35.4-7.4-42.4-5-7-11.2-10.5-18.6-10.5-7.3 0-13.1 3.1-17.5 9.3-5.4 7.8-8.1 22.4-8.1 43.6zM601.3 4422.2c0-15.3 1.6-27.6 4.7-36.9 3.1-9.3 7.8-16.5 14-21.6 6.2-5.1 14-7.6 23.4-7.6 6.9 0 13 1.4 18.2 4.2 5.2 2.8 9.5 6.8 13 12.1 3.4 5.3 6.1 11.7 8 19.2 1.9 7.6 2.9 17.7 2.9 30.5 0 15.2-1.6 27.4-4.7 36.7-3.1 9.3-7.8 16.5-14 21.6-6.2 5.1-14 7.6-23.5 7.6-12.5 0-22.2-4.5-29.4-13.4-8.4-10.6-12.6-28.2-12.6-52.4zm16.3 0c0 21.2 2.5 35.3 7.4 42.4s11.1 10.5 18.4 10.5c7.3 0 13.4-3.5 18.4-10.6 5-7.1 7.4-21.2 7.4-42.3 0-21.3-2.5-35.4-7.4-42.4-5-7-11.2-10.5-18.6-10.5-7.3 0-13.1 3.1-17.5 9.3-5.4 7.8-8.1 22.4-8.1 43.6zM81.3 4027.4v-15.9c-7.9-1-14.4-2.8-19.3-5.3-5-2.6-9.3-6.7-12.9-12.4-3.6-5.7-5.7-12.7-6.3-20.9l16-3c1.2 8.5 3.4 14.8 6.5 18.8 4.5 5.6 9.8 8.8 16 9.4v-50.5c-6.5-1.2-13.2-3.8-20-7.6-5.1-2.8-8.9-6.7-11.7-11.7-2.7-5-4.1-10.7-4.1-17 0-11.3 4-20.4 12-27.4 5.3-4.7 13.3-7.6 23.8-8.6v-7.6h9.3v7.6c9.2.9 16.5 3.6 21.9 8.1 6.9 5.8 11.1 13.7 12.5 23.7l-16.4 2.5c-.9-6.2-2.9-11-5.9-14.3-3-3.3-7-5.5-12.2-6.6v45.7c8 2 13.3 3.6 15.9 4.7 4.9 2.2 9 4.8 12.1 7.9 3.1 3.1 5.5 6.8 7.2 11.1 1.7 4.3 2.5 8.9 2.5 13.9 0 11-3.5 20.2-10.5 27.5s-16 11.3-27.1 11.8v16h-9.3zm0-138.9c-6.2.9-11 3.4-14.6 7.4-3.6 4-5.3 8.7-5.3 14.2 0 5.4 1.5 9.9 4.5 13.6 3 3.6 8.2 6.6 15.4 8.7v-43.9zm9.3 109.6c6.2-.8 11.3-3.4 15.3-8s6-10.3 6-17c0-5.8-1.4-10.4-4.3-13.9s-8.5-6.6-17.1-9.4v48.3zM205.6 4008.8h-15.9v-101.1c-3.8 3.6-8.8 7.3-15 10.9-6.2 3.6-11.8 6.4-16.7 8.2v-15.3c8.9-4.2 16.6-9.2 23.3-15.2 6.6-5.9 11.3-11.7 14.1-17.3h10.2v129.8zM247.8 3974.9l16.7-1.4c1.2 8.1 4.1 14.2 8.6 18.3 4.5 4.1 9.9 6.1 16.3 6.1 7.6 0 14.1-2.9 19.4-8.6 5.3-5.8 7.9-13.4 7.9-22.9 0-9-2.5-16.2-7.6-21.4-5.1-5.2-11.7-7.8-20-7.8-5.1 0-9.7 1.2-13.8 3.5-4.1 2.3-7.3 5.3-9.7 9l-14.9-1.9 12.5-66.4h64.3v15.2h-51.6l-7 34.7c7.8-5.4 15.9-8.1 24.4-8.1 11.3 0 20.8 3.9 28.6 11.7s11.6 17.9 11.6 30.1c0 11.7-3.4 21.8-10.2 30.3-8.3 10.5-19.6 15.7-33.9 15.7-11.8 0-21.3-3.3-28.8-9.9-7.5-6.6-11.7-15.3-12.8-26.2zM358.4 4008.8v-18.1h18.1v18.1c0 6.6-1.2 12-3.5 16.1-2.4 4.1-6.1 7.2-11.2 9.5l-4.4-6.8c3.3-1.5 5.8-3.6 7.4-6.5 1.6-2.9 2.5-6.9 2.6-12.3h-9zM397.1 3945c0-15.3 1.6-27.6 4.7-36.9 3.1-9.3 7.8-16.5 14-21.6 6.2-5.1 14-7.6 23.4-7.6 6.9 0 13 1.4 18.2 4.2 5.2 2.8 9.5 6.8 13 12.1 3.4 5.3 6.1 11.7 8 19.2 1.9 7.6 2.9 17.7 2.9 30.5 0 15.2-1.6 27.4-4.7 36.7-3.1 9.3-7.8 16.5-14 21.6-6.2 5.1-14 7.6-23.5 7.6-12.5 0-22.2-4.5-29.4-13.4-8.3-10.6-12.6-28.1-12.6-52.4zm16.3 0c0 21.2 2.5 35.3 7.4 42.4 5 7 11.1 10.5 18.4 10.5 7.3 0 13.4-3.5 18.4-10.6 5-7.1 7.4-21.2 7.4-42.3 0-21.3-2.5-35.4-7.4-42.4-5-7-11.2-10.5-18.6-10.5-7.3 0-13.1 3.1-17.5 9.3-5.4 7.9-8.1 22.4-8.1 43.6zM499.1 3945c0-15.3 1.6-27.6 4.7-36.9 3.1-9.3 7.8-16.5 14-21.6 6.2-5.1 14-7.6 23.4-7.6 6.9 0 13 1.4 18.2 4.2 5.2 2.8 9.5 6.8 13 12.1 3.4 5.3 6.1 11.7 8 19.2 1.9 7.6 2.9 17.7 2.9 30.5 0 15.2-1.6 27.4-4.7 36.7-3.1 9.3-7.8 16.5-14 21.6-6.2 5.1-14 7.6-23.5 7.6-12.5 0-22.2-4.5-29.4-13.4-8.3-10.6-12.6-28.1-12.6-52.4zm16.3 0c0 21.2 2.5 35.3 7.4 42.4 5 7 11.1 10.5 18.4 10.5 7.3 0 13.4-3.5 18.4-10.6 5-7.1 7.4-21.2 7.4-42.3 0-21.3-2.5-35.4-7.4-42.4-5-7-11.2-10.5-18.6-10.5-7.3 0-13.1 3.1-17.5 9.3-5.4 7.9-8.1 22.4-8.1 43.6zM601.1 3945c0-15.3 1.6-27.6 4.7-36.9 3.1-9.3 7.8-16.5 14-21.6 6.2-5.1 14-7.6 23.4-7.6 6.9 0 13 1.4 18.2 4.2 5.2 2.8 9.5 6.8 13 12.1 3.4 5.3 6.1 11.7 8 19.2 1.9 7.6 2.9 17.7 2.9 30.5 0 15.2-1.6 27.4-4.7 36.7-3.1 9.3-7.8 16.5-14 21.6-6.2 5.1-14 7.6-23.5 7.6-12.5 0-22.2-4.5-29.4-13.4-8.3-10.6-12.6-28.1-12.6-52.4zm16.3 0c0 21.2 2.5 35.3 7.4 42.4 5 7 11.1 10.5 18.4 10.5 7.3 0 13.4-3.5 18.4-10.6 5-7.1 7.4-21.2 7.4-42.3 0-21.3-2.5-35.4-7.4-42.4-5-7-11.2-10.5-18.6-10.5-7.3 0-13.1 3.1-17.5 9.3-5.4 7.9-8.1 22.4-8.1 43.6zM81.1 3550.2v-15.9c-7.9-1-14.4-2.8-19.3-5.3-5-2.6-9.3-6.7-12.9-12.4-3.6-5.7-5.7-12.7-6.3-20.9l16-3c1.2 8.5 3.4 14.8 6.5 18.8 4.5 5.6 9.8 8.8 16 9.4v-50.5c-6.5-1.2-13.2-3.8-20-7.6-5.1-2.8-8.9-6.7-11.7-11.7-2.7-5-4.1-10.7-4.1-17 0-11.3 4-20.4 12-27.4 5.3-4.7 13.3-7.6 23.8-8.6v-7.6h9.3v7.6c9.2.9 16.5 3.6 21.9 8.1 6.9 5.8 11.1 13.7 12.5 23.7l-16.4 2.5c-.9-6.2-2.9-11-5.9-14.3-3-3.3-7-5.5-12.2-6.6v45.7c8 2 13.3 3.6 15.9 4.7 4.9 2.2 9 4.8 12.1 7.9 3.1 3.1 5.5 6.8 7.2 11.1 1.7 4.3 2.5 8.9 2.5 13.9 0 11-3.5 20.2-10.5 27.5-7 7.3-16 11.3-27.1 11.8v16h-9.3zm0-138.9c-6.2.9-11 3.4-14.6 7.4-3.6 4-5.3 8.7-5.3 14.2 0 5.4 1.5 9.9 4.5 13.6 3 3.6 8.2 6.6 15.4 8.7v-43.9zm9.4 109.7c6.2-.8 11.3-3.4 15.3-8s6-10.3 6-17c0-5.8-1.4-10.4-4.3-13.9s-8.5-6.6-17.1-9.4v48.3zM229 3516.4v15.2h-85.4c-.1-3.8.5-7.5 1.9-11 2.2-5.8 5.7-11.5 10.4-17.2 4.8-5.6 11.7-12.2 20.8-19.6 14-11.5 23.5-20.6 28.5-27.4 4.9-6.7 7.4-13.1 7.4-19.1 0-6.3-2.2-11.6-6.7-15.9-4.5-4.3-10.4-6.5-17.6-6.5-7.6 0-13.8 2.3-18.3 6.9-4.6 4.6-6.9 10.9-7 19l-16.3-1.7c1.1-12.2 5.3-21.4 12.6-27.8 7.3-6.4 17.1-9.6 29.4-9.6 12.4 0 22.2 3.4 29.4 10.3 7.2 6.9 10.8 15.4 10.8 25.6 0 5.2-1.1 10.3-3.2 15.2-2.1 5-5.6 10.3-10.5 15.8s-13.1 13.1-24.5 22.7c-9.5 8-15.6 13.4-18.3 16.3-2.7 2.9-4.9 5.7-6.7 8.6H229zM247.6 3467.9c0-15.3 1.6-27.6 4.7-36.9 3.1-9.3 7.8-16.5 14-21.6 6.2-5.1 14-7.6 23.4-7.6 6.9 0 13 1.4 18.2 4.2 5.2 2.8 9.5 6.8 13 12.1 3.4 5.3 6.1 11.7 8 19.2 1.9 7.6 2.9 17.7 2.9 30.5 0 15.2-1.6 27.4-4.7 36.7-3.1 9.3-7.8 16.5-14 21.6-6.2 5.1-14 7.6-23.5 7.6-12.5 0-22.2-4.5-29.4-13.4-8.3-10.6-12.6-28.1-12.6-52.4zm16.3 0c0 21.2 2.5 35.3 7.4 42.4 5 7 11.1 10.5 18.4 10.5 7.3 0 13.4-3.5 18.4-10.6 5-7.1 7.4-21.2 7.4-42.3 0-21.3-2.5-35.4-7.4-42.4-5-7-11.2-10.5-18.6-10.5-7.3 0-13.1 3.1-17.5 9.3-5.3 7.9-8.1 22.4-8.1 43.6zM358.2 3531.7v-18.1h18.1v18.1c0 6.6-1.2 12-3.5 16.1-2.4 4.1-6.1 7.2-11.2 9.5l-4.4-6.8c3.3-1.5 5.8-3.6 7.4-6.5 1.6-2.9 2.5-6.9 2.6-12.3h-9zM396.9 3467.9c0-15.3 1.6-27.6 4.7-36.9 3.1-9.3 7.8-16.5 14-21.6 6.2-5.1 14-7.6 23.4-7.6 6.9 0 13 1.4 18.2 4.2 5.2 2.8 9.5 6.8 13 12.1 3.4 5.3 6.1 11.7 8 19.2 1.9 7.6 2.9 17.7 2.9 30.5 0 15.2-1.6 27.4-4.7 36.7-3.1 9.3-7.8 16.5-14 21.6-6.2 5.1-14 7.6-23.5 7.6-12.5 0-22.2-4.5-29.4-13.4-8.3-10.6-12.6-28.1-12.6-52.4zm16.3 0c0 21.2 2.5 35.3 7.4 42.4 5 7 11.1 10.5 18.4 10.5 7.3 0 13.4-3.5 18.4-10.6 5-7.1 7.4-21.2 7.4-42.3 0-21.3-2.5-35.4-7.4-42.4-5-7-11.2-10.5-18.6-10.5-7.3 0-13.1 3.1-17.5 9.3-5.3 7.9-8.1 22.4-8.1 43.6zM498.9 3467.9c0-15.3 1.6-27.6 4.7-36.9 3.1-9.3 7.8-16.5 14-21.6 6.2-5.1 14-7.6 23.4-7.6 6.9 0 13 1.4 18.2 4.2 5.2 2.8 9.5 6.8 13 12.1 3.4 5.3 6.1 11.7 8 19.2 1.9 7.6 2.9 17.7 2.9 30.5 0 15.2-1.6 27.4-4.7 36.7-3.1 9.3-7.8 16.5-14 21.6-6.2 5.1-14 7.6-23.5 7.6-12.5 0-22.2-4.5-29.4-13.4-8.3-10.6-12.6-28.1-12.6-52.4zm16.3 0c0 21.2 2.5 35.3 7.4 42.4 5 7 11.1 10.5 18.4 10.5 7.3 0 13.4-3.5 18.4-10.6 5-7.1 7.4-21.2 7.4-42.3 0-21.3-2.5-35.4-7.4-42.4-5-7-11.2-10.5-18.6-10.5-7.3 0-13.1 3.1-17.5 9.3-5.3 7.9-8.1 22.4-8.1 43.6zM600.9 3467.9c0-15.3 1.6-27.6 4.7-36.9 3.1-9.3 7.8-16.5 14-21.6 6.2-5.1 14-7.6 23.4-7.6 6.9 0 13 1.4 18.2 4.2 5.2 2.8 9.5 6.8 13 12.1 3.4 5.3 6.1 11.7 8 19.2 1.9 7.6 2.9 17.7 2.9 30.5 0 15.2-1.6 27.4-4.7 36.7-3.1 9.3-7.8 16.5-14 21.6-6.2 5.1-14 7.6-23.5 7.6-12.5 0-22.2-4.5-29.4-13.4-8.3-10.6-12.6-28.1-12.6-52.4zm16.3 0c0 21.2 2.5 35.3 7.4 42.4 5 7 11.1 10.5 18.4 10.5 7.3 0 13.4-3.5 18.4-10.6 5-7.1 7.4-21.2 7.4-42.3 0-21.3-2.5-35.4-7.4-42.4-5-7-11.2-10.5-18.6-10.5-7.3 0-13.1 3.1-17.5 9.3-5.3 7.9-8.1 22.4-8.1 43.6zM80.9 3073.1v-15.9c-7.9-1-14.4-2.8-19.3-5.3-5-2.6-9.3-6.7-12.9-12.4-3.6-5.7-5.7-12.7-6.3-20.9l16-3c1.2 8.5 3.4 14.8 6.5 18.8 4.5 5.6 9.8 8.8 16 9.4v-50.5c-6.5-1.2-13.2-3.8-20-7.6-5.1-2.8-8.9-6.7-11.7-11.7-2.7-5-4.1-10.7-4.1-17 0-11.3 4-20.4 12-27.4 5.3-4.7 13.3-7.6 23.8-8.6v-7.6h9.3v7.6c9.2.9 16.5 3.6 21.9 8.1 6.9 5.8 11.1 13.7 12.5 23.7l-16.4 2.5c-.9-6.2-2.9-11-5.9-14.3-3-3.3-7-5.5-12.2-6.6v45.7c8 2 13.3 3.6 15.9 4.7 4.9 2.2 9 4.8 12.1 7.9 3.1 3.1 5.5 6.8 7.2 11.1 1.7 4.3 2.5 8.9 2.5 13.9 0 11-3.5 20.2-10.5 27.5-7 7.3-16 11.3-27.1 11.8v16h-9.3zm0-138.9c-6.2.9-11 3.4-14.6 7.4-3.6 4-5.3 8.7-5.3 14.2 0 5.4 1.5 9.9 4.5 13.6 3 3.6 8.2 6.6 15.4 8.7v-43.9zm9.4 109.7c6.2-.8 11.3-3.4 15.3-8s6-10.3 6-17c0-5.8-1.4-10.4-4.3-13.9s-8.5-6.6-17.1-9.4v48.3zM228.8 3039.3v15.2h-85.4c-.1-3.8.5-7.5 1.9-11 2.2-5.8 5.7-11.5 10.4-17.2 4.8-5.6 11.7-12.2 20.8-19.6 14-11.5 23.5-20.6 28.5-27.4 4.9-6.7 7.4-13.1 7.4-19.1 0-6.3-2.2-11.6-6.7-15.9-4.5-4.3-10.4-6.5-17.6-6.5-7.6 0-13.8 2.3-18.3 6.9-4.6 4.6-6.9 10.9-7 19l-16.3-1.7c1.1-12.2 5.3-21.4 12.6-27.8 7.3-6.4 17.1-9.6 29.4-9.6 12.4 0 22.2 3.4 29.4 10.3 7.2 6.9 10.8 15.4 10.8 25.6 0 5.2-1.1 10.3-3.2 15.2-2.1 5-5.6 10.3-10.5 15.8s-13.1 13.1-24.5 22.7c-9.5 8-15.6 13.4-18.3 16.3-2.7 2.9-4.9 5.7-6.7 8.6h63.3zM247.5 3020.7l16.7-1.4c1.2 8.1 4.1 14.2 8.6 18.3 4.5 4.1 9.9 6.1 16.3 6.1 7.6 0 14.1-2.9 19.4-8.6 5.3-5.8 7.9-13.4 7.9-22.9 0-9-2.5-16.2-7.6-21.4-5.1-5.2-11.7-7.8-20-7.8-5.1 0-9.7 1.2-13.8 3.5-4.1 2.3-7.3 5.3-9.7 9l-14.9-1.9 12.5-66.4H327v15.2h-51.6l-7 34.7c7.8-5.4 15.9-8.1 24.4-8.1 11.3 0 20.8 3.9 28.6 11.7s11.6 17.9 11.6 30.1c0 11.7-3.4 21.8-10.2 30.3-8.3 10.5-19.6 15.7-33.9 15.7-11.8 0-21.3-3.3-28.8-9.9-7.3-6.6-11.6-15.3-12.6-26.2zM358 3054.5v-18.1h18.1v18.1c0 6.6-1.2 12-3.5 16.1-2.4 4.1-6.1 7.2-11.2 9.5l-4.4-6.8c3.3-1.5 5.8-3.6 7.4-6.5 1.6-2.9 2.5-6.9 2.6-12.3h-9zM396.7 2990.8c0-15.3 1.6-27.6 4.7-36.9 3.1-9.3 7.8-16.5 14-21.6 6.2-5.1 14-7.6 23.4-7.6 6.9 0 13 1.4 18.2 4.2 5.2 2.8 9.5 6.8 13 12.1 3.4 5.3 6.1 11.7 8 19.2 1.9 7.6 2.9 17.7 2.9 30.5 0 15.2-1.6 27.4-4.7 36.7-3.1 9.3-7.8 16.5-14 21.6-6.2 5.1-14 7.6-23.5 7.6-12.5 0-22.2-4.5-29.4-13.4-8.3-10.6-12.6-28.1-12.6-52.4zm16.4 0c0 21.2 2.5 35.3 7.4 42.4 5 7 11.1 10.5 18.4 10.5 7.3 0 13.4-3.5 18.4-10.6 5-7.1 7.4-21.2 7.4-42.3 0-21.3-2.5-35.4-7.4-42.4-5-7-11.2-10.5-18.6-10.5-7.3 0-13.1 3.1-17.5 9.3-5.4 7.8-8.1 22.4-8.1 43.6zM498.7 2990.8c0-15.3 1.6-27.6 4.7-36.9 3.1-9.3 7.8-16.5 14-21.6 6.2-5.1 14-7.6 23.4-7.6 6.9 0 13 1.4 18.2 4.2 5.2 2.8 9.5 6.8 13 12.1 3.4 5.3 6.1 11.7 8 19.2 1.9 7.6 2.9 17.7 2.9 30.5 0 15.2-1.6 27.4-4.7 36.7-3.1 9.3-7.8 16.5-14 21.6-6.2 5.1-14 7.6-23.5 7.6-12.5 0-22.2-4.5-29.4-13.4-8.3-10.6-12.6-28.1-12.6-52.4zm16.4 0c0 21.2 2.5 35.3 7.4 42.4 5 7 11.1 10.5 18.4 10.5 7.3 0 13.4-3.5 18.4-10.6 5-7.1 7.4-21.2 7.4-42.3 0-21.3-2.5-35.4-7.4-42.4-5-7-11.2-10.5-18.6-10.5-7.3 0-13.1 3.1-17.5 9.3-5.4 7.8-8.1 22.4-8.1 43.6zM600.7 2990.8c0-15.3 1.6-27.6 4.7-36.9 3.1-9.3 7.8-16.5 14-21.6 6.2-5.1 14-7.6 23.4-7.6 6.9 0 13 1.4 18.2 4.2 5.2 2.8 9.5 6.8 13 12.1 3.4 5.3 6.1 11.7 8 19.2 1.9 7.6 2.9 17.7 2.9 30.5 0 15.2-1.6 27.4-4.7 36.7-3.1 9.3-7.8 16.5-14 21.6-6.2 5.1-14 7.6-23.5 7.6-12.5 0-22.2-4.5-29.4-13.4-8.3-10.6-12.6-28.1-12.6-52.4zm16.4 0c0 21.2 2.5 35.3 7.4 42.4 5 7 11.1 10.5 18.4 10.5 7.3 0 13.4-3.5 18.4-10.6 5-7.1 7.4-21.2 7.4-42.3 0-21.3-2.5-35.4-7.4-42.4-5-7-11.2-10.5-18.6-10.5-7.3 0-13.1 3.1-17.5 9.3-5.4 7.8-8.1 22.4-8.1 43.6zM80.8 2596v-15.9c-7.9-1-14.4-2.8-19.3-5.3-5-2.6-9.3-6.7-12.9-12.4-3.6-5.7-5.7-12.7-6.3-20.9l16-3c1.2 8.5 3.4 14.8 6.5 18.8 4.5 5.6 9.8 8.8 16 9.4v-50.5c-6.5-1.2-13.2-3.8-20-7.6-5.1-2.8-8.9-6.7-11.7-11.7-2.7-5-4.1-10.7-4.1-17 0-11.3 4-20.4 12-27.4 5.3-4.7 13.3-7.6 23.8-8.6v-7.6h9.3v7.6c9.2.9 16.5 3.6 21.9 8.1 6.9 5.8 11.1 13.7 12.5 23.7l-16.4 2.5c-.9-6.2-2.9-11-5.9-14.3-3-3.3-7-5.5-12.2-6.6v45.7c8 2 13.3 3.6 15.9 4.7 4.9 2.2 9 4.8 12.1 7.9 3.1 3.1 5.5 6.8 7.2 11.1 1.7 4.3 2.5 8.9 2.5 13.9 0 11-3.5 20.2-10.5 27.5-7 7.3-16 11.3-27.1 11.8v16h-9.3zm0-138.9c-6.2.9-11 3.4-14.6 7.4-3.6 4-5.3 8.7-5.3 14.2 0 5.4 1.5 9.9 4.5 13.6 3 3.6 8.2 6.6 15.4 8.7v-43.9zm9.3 109.6c6.2-.8 11.3-3.4 15.3-8s6-10.3 6-17c0-5.8-1.4-10.4-4.3-13.9s-8.5-6.6-17.1-9.4v48.3zM145.4 2543.3l15.9-2.1c1.8 9 4.9 15.5 9.3 19.4 4.4 4 9.7 6 16 6 7.5 0 13.8-2.6 18.9-7.8 5.1-5.2 7.7-11.6 7.7-19.2 0-7.3-2.4-13.3-7.1-18-4.8-4.7-10.8-7.1-18.2-7.1-3 0-6.7.6-11.2 1.8l1.8-13.9c1.1.1 1.9.2 2.6.2 6.8 0 12.8-1.8 18.2-5.3 5.4-3.5 8.1-9 8.1-16.3 0-5.8-2-10.6-5.9-14.5-3.9-3.8-9-5.7-15.2-5.7-6.2 0-11.3 1.9-15.4 5.8s-6.8 9.7-7.9 17.5l-15.9-2.8c1.9-10.6 6.3-18.9 13.2-24.7 6.9-5.8 15.4-8.8 25.7-8.8 7.1 0 13.5 1.5 19.5 4.5 5.9 3 10.5 7.2 13.6 12.4 3.1 5.2 4.7 10.8 4.7 16.7 0 5.6-1.5 10.7-4.5 15.2s-7.4 8.2-13.3 10.9c7.6 1.8 13.6 5.4 17.8 11 4.2 5.6 6.3 12.5 6.3 20.8 0 11.3-4.1 20.8-12.3 28.7-8.2 7.8-18.6 11.8-31.2 11.8-11.3 0-20.8-3.4-28.3-10.1-7.6-6.9-11.9-15.7-12.9-26.4zM247.3 2513.7c0-15.3 1.6-27.6 4.7-36.9 3.1-9.3 7.8-16.5 14-21.6 6.2-5.1 14-7.6 23.4-7.6 6.9 0 13 1.4 18.2 4.2 5.2 2.8 9.5 6.8 13 12.1 3.4 5.3 6.1 11.7 8 19.2 1.9 7.6 2.9 17.7 2.9 30.5 0 15.2-1.6 27.4-4.7 36.7-3.1 9.3-7.8 16.5-14 21.6-6.2 5.1-14 7.6-23.5 7.6-12.5 0-22.2-4.5-29.4-13.4-8.4-10.6-12.6-28.2-12.6-52.4zm16.3 0c0 21.2 2.5 35.3 7.4 42.4 5 7 11.1 10.5 18.4 10.5 7.3 0 13.4-3.5 18.4-10.6 5-7.1 7.4-21.2 7.4-42.3 0-21.3-2.5-35.4-7.4-42.4-5-7-11.2-10.5-18.6-10.5-7.3 0-13.1 3.1-17.5 9.3-5.4 7.8-8.1 22.4-8.1 43.6zM357.8 2577.4v-18.1h18.1v18.1c0 6.6-1.2 12-3.5 16.1-2.4 4.1-6.1 7.2-11.2 9.5l-4.4-6.8c3.3-1.5 5.8-3.6 7.4-6.5 1.6-2.9 2.5-6.9 2.6-12.3h-9zM396.6 2513.7c0-15.3 1.6-27.6 4.7-36.9 3.1-9.3 7.8-16.5 14-21.6 6.2-5.1 14-7.6 23.4-7.6 6.9 0 13 1.4 18.2 4.2 5.2 2.8 9.5 6.8 13 12.1 3.4 5.3 6.1 11.7 8 19.2 1.9 7.6 2.9 17.7 2.9 30.5 0 15.2-1.6 27.4-4.7 36.7-3.1 9.3-7.8 16.5-14 21.6-6.2 5.1-14 7.6-23.5 7.6-12.5 0-22.2-4.5-29.4-13.4-8.4-10.6-12.6-28.2-12.6-52.4zm16.3 0c0 21.2 2.5 35.3 7.4 42.4 5 7 11.1 10.5 18.4 10.5 7.3 0 13.4-3.5 18.4-10.6 5-7.1 7.4-21.2 7.4-42.3 0-21.3-2.5-35.4-7.4-42.4-5-7-11.2-10.5-18.6-10.5-7.3 0-13.1 3.1-17.5 9.3-5.4 7.8-8.1 22.4-8.1 43.6zM498.6 2513.7c0-15.3 1.6-27.6 4.7-36.9 3.1-9.3 7.8-16.5 14-21.6 6.2-5.1 14-7.6 23.4-7.6 6.9 0 13 1.4 18.2 4.2 5.2 2.8 9.5 6.8 13 12.1 3.4 5.3 6.1 11.7 8 19.2 1.9 7.6 2.9 17.7 2.9 30.5 0 15.2-1.6 27.4-4.7 36.7-3.1 9.3-7.8 16.5-14 21.6-6.2 5.1-14 7.6-23.5 7.6-12.5 0-22.2-4.5-29.4-13.4-8.4-10.6-12.6-28.2-12.6-52.4zm16.3 0c0 21.2 2.5 35.3 7.4 42.4 5 7 11.1 10.5 18.4 10.5 7.3 0 13.4-3.5 18.4-10.6 5-7.1 7.4-21.2 7.4-42.3 0-21.3-2.5-35.4-7.4-42.4-5-7-11.2-10.5-18.6-10.5-7.3 0-13.1 3.1-17.5 9.3-5.4 7.8-8.1 22.4-8.1 43.6zM600.6 2513.7c0-15.3 1.6-27.6 4.7-36.9 3.1-9.3 7.8-16.5 14-21.6 6.2-5.1 14-7.6 23.4-7.6 6.9 0 13 1.4 18.2 4.2 5.2 2.8 9.5 6.8 13 12.1 3.4 5.3 6.1 11.7 8 19.2 1.9 7.6 2.9 17.7 2.9 30.5 0 15.2-1.6 27.4-4.7 36.7-3.1 9.3-7.8 16.5-14 21.6-6.2 5.1-14 7.6-23.5 7.6-12.5 0-22.2-4.5-29.4-13.4-8.4-10.6-12.6-28.2-12.6-52.4zm16.3 0c0 21.2 2.5 35.3 7.4 42.4 5 7 11.1 10.5 18.4 10.5 7.3 0 13.4-3.5 18.4-10.6 5-7.1 7.4-21.2 7.4-42.3 0-21.3-2.5-35.4-7.4-42.4-5-7-11.2-10.5-18.6-10.5-7.3 0-13.1 3.1-17.5 9.3-5.4 7.8-8.1 22.4-8.1 43.6zM80.6 2118.9V2103c-7.9-1-14.4-2.8-19.3-5.3-5-2.6-9.3-6.7-12.9-12.4-3.6-5.7-5.7-12.7-6.3-20.9l16-3c1.2 8.5 3.4 14.8 6.5 18.8 4.5 5.6 9.8 8.8 16 9.4v-50.5c-6.5-1.2-13.2-3.8-20-7.6-5.1-2.8-8.9-6.7-11.7-11.7-2.7-5-4.1-10.7-4.1-17 0-11.3 4-20.4 12-27.4 5.3-4.7 13.3-7.6 23.8-8.6v-7.6h9.3v7.6c9.2.9 16.5 3.6 21.9 8.1 6.9 5.8 11.1 13.7 12.5 23.7L108 2001c-.9-6.2-2.9-11-5.9-14.3-3-3.3-7-5.5-12.2-6.6v45.7c8 2 13.3 3.6 15.9 4.7 4.9 2.2 9 4.8 12.1 7.9 3.1 3.1 5.5 6.8 7.2 11.1 1.7 4.3 2.5 8.9 2.5 13.9 0 11-3.5 20.2-10.5 27.5-7 7.3-16 11.3-27.1 11.8v16h-9.4zm0-138.9c-6.2.9-11 3.4-14.6 7.4-3.6 4-5.3 8.7-5.3 14.2 0 5.4 1.5 9.9 4.5 13.6 3 3.6 8.2 6.6 15.4 8.7V1980zm9.3 109.6c6.2-.8 11.3-3.4 15.3-8s6-10.3 6-17c0-5.8-1.4-10.4-4.3-13.9s-8.5-6.6-17.1-9.4v48.3zM145.2 2066.2l15.9-2.1c1.8 9 4.9 15.5 9.3 19.4 4.4 4 9.7 6 16 6 7.5 0 13.8-2.6 18.9-7.8 5.1-5.2 7.7-11.6 7.7-19.2 0-7.3-2.4-13.3-7.1-18-4.8-4.7-10.8-7.1-18.2-7.1-3 0-6.7.6-11.2 1.8l1.8-13.9c1.1.1 1.9.2 2.6.2 6.8 0 12.8-1.8 18.2-5.3 5.4-3.5 8.1-9 8.1-16.3 0-5.8-2-10.6-5.9-14.5-3.9-3.8-9-5.7-15.2-5.7-6.2 0-11.3 1.9-15.4 5.8s-6.8 9.7-7.9 17.5l-15.9-2.8c1.9-10.6 6.3-18.9 13.2-24.7 6.9-5.8 15.4-8.8 25.7-8.8 7.1 0 13.5 1.5 19.5 4.5 5.9 3 10.5 7.2 13.6 12.4 3.1 5.2 4.7 10.8 4.7 16.7 0 5.6-1.5 10.7-4.5 15.2s-7.4 8.2-13.3 10.9c7.6 1.8 13.6 5.4 17.8 11 4.2 5.6 6.3 12.5 6.3 20.8 0 11.3-4.1 20.8-12.3 28.7-8.2 7.8-18.6 11.8-31.2 11.8-11.3 0-20.8-3.4-28.3-10.1-7.6-6.9-11.8-15.7-12.9-26.4zM247.1 2066.4l16.7-1.4c1.2 8.1 4.1 14.2 8.6 18.3 4.5 4.1 9.9 6.1 16.3 6.1 7.6 0 14.1-2.9 19.4-8.6 5.3-5.8 7.9-13.4 7.9-22.9 0-9-2.5-16.2-7.6-21.4-5.1-5.2-11.7-7.8-20-7.8-5.1 0-9.7 1.2-13.8 3.5-4.1 2.3-7.3 5.3-9.7 9l-14.9-1.9 12.5-66.4h64.3v15.2h-51.6l-7 34.7c7.8-5.4 15.9-8.1 24.4-8.1 11.3 0 20.8 3.9 28.6 11.7s11.6 17.9 11.6 30.1c0 11.7-3.4 21.8-10.2 30.3-8.3 10.5-19.6 15.7-33.9 15.7-11.8 0-21.3-3.3-28.8-9.9-7.5-6.6-11.7-15.3-12.8-26.2zM357.6 2100.3v-18.1h18.1v18.1c0 6.6-1.2 12-3.5 16.1-2.4 4.1-6.1 7.2-11.2 9.5l-4.4-6.8c3.3-1.5 5.8-3.6 7.4-6.5 1.6-2.9 2.5-6.9 2.6-12.3h-9zM396.4 2036.6c0-15.3 1.6-27.6 4.7-36.9 3.1-9.3 7.8-16.5 14-21.6 6.2-5.1 14-7.6 23.4-7.6 6.9 0 13 1.4 18.2 4.2 5.2 2.8 9.5 6.8 13 12.1 3.4 5.3 6.1 11.7 8 19.2 1.9 7.6 2.9 17.7 2.9 30.5 0 15.2-1.6 27.4-4.7 36.7-3.1 9.3-7.8 16.5-14 21.6-6.2 5.1-14 7.6-23.5 7.6-12.5 0-22.2-4.5-29.4-13.4-8.3-10.7-12.6-28.2-12.6-52.4zm16.3 0c0 21.2 2.5 35.3 7.4 42.4 5 7 11.1 10.5 18.4 10.5 7.3 0 13.4-3.5 18.4-10.6 5-7.1 7.4-21.2 7.4-42.3 0-21.3-2.5-35.4-7.4-42.4-5-7-11.2-10.5-18.6-10.5-7.3 0-13.1 3.1-17.5 9.3-5.4 7.8-8.1 22.3-8.1 43.6zM498.4 2036.6c0-15.3 1.6-27.6 4.7-36.9 3.1-9.3 7.8-16.5 14-21.6 6.2-5.1 14-7.6 23.4-7.6 6.9 0 13 1.4 18.2 4.2 5.2 2.8 9.5 6.8 13 12.1 3.4 5.3 6.1 11.7 8 19.2 1.9 7.6 2.9 17.7 2.9 30.5 0 15.2-1.6 27.4-4.7 36.7-3.1 9.3-7.8 16.5-14 21.6-6.2 5.1-14 7.6-23.5 7.6-12.5 0-22.2-4.5-29.4-13.4-8.4-10.7-12.6-28.2-12.6-52.4zm16.3 0c0 21.2 2.5 35.3 7.4 42.4 5 7 11.1 10.5 18.4 10.5 7.3 0 13.4-3.5 18.4-10.6 5-7.1 7.4-21.2 7.4-42.3 0-21.3-2.5-35.4-7.4-42.4-5-7-11.2-10.5-18.6-10.5-7.3 0-13.1 3.1-17.5 9.3-5.4 7.8-8.1 22.3-8.1 43.6zM600.4 2036.6c0-15.3 1.6-27.6 4.7-36.9 3.1-9.3 7.8-16.5 14-21.6 6.2-5.1 14-7.6 23.4-7.6 6.9 0 13 1.4 18.2 4.2 5.2 2.8 9.5 6.8 13 12.1 3.4 5.3 6.1 11.7 8 19.2 1.9 7.6 2.9 17.7 2.9 30.5 0 15.2-1.6 27.4-4.7 36.7-3.1 9.3-7.8 16.5-14 21.6-6.2 5.1-14 7.6-23.5 7.6-12.5 0-22.2-4.5-29.4-13.4-8.4-10.7-12.6-28.2-12.6-52.4zm16.3 0c0 21.2 2.5 35.3 7.4 42.4 5 7 11.1 10.5 18.4 10.5 7.3 0 13.4-3.5 18.4-10.6 5-7.1 7.4-21.2 7.4-42.3 0-21.3-2.5-35.4-7.4-42.4-5-7-11.2-10.5-18.6-10.5-7.3 0-13.1 3.1-17.5 9.3-5.4 7.8-8.1 22.3-8.1 43.6zM80.4 1641.8v-15.9c-7.9-1-14.4-2.8-19.3-5.3-5-2.6-9.3-6.7-12.9-12.4-3.6-5.7-5.7-12.7-6.3-20.9l16-3c1.2 8.5 3.4 14.8 6.5 18.8 4.5 5.6 9.8 8.8 16 9.4V1562c-6.5-1.2-13.2-3.8-20-7.6-5.1-2.8-8.9-6.7-11.7-11.7-2.7-5-4.1-10.7-4.1-17 0-11.3 4-20.4 12-27.4 5.3-4.7 13.3-7.6 23.8-8.6v-7.6h9.3v7.6c9.2.9 16.5 3.6 21.9 8.1 6.9 5.8 11.1 13.7 12.5 23.7l-16.4 2.5c-.9-6.2-2.9-11-5.9-14.3-3-3.3-7-5.5-12.2-6.6v45.7c8 2 13.3 3.6 15.9 4.7 4.9 2.2 9 4.8 12.1 7.9 3.1 3.1 5.5 6.8 7.2 11.1 1.7 4.3 2.5 8.9 2.5 13.9 0 11-3.5 20.2-10.5 27.5s-16 11.3-27.1 11.8v16h-9.3zm0-139c-6.2.9-11 3.4-14.6 7.4-3.6 4-5.3 8.7-5.3 14.2 0 5.4 1.5 9.9 4.5 13.6 3 3.6 8.2 6.6 15.4 8.7v-43.9zm9.3 109.7c6.2-.8 11.3-3.4 15.3-8s6-10.3 6-17c0-5.8-1.4-10.4-4.3-13.9s-8.5-6.6-17.1-9.4v48.3zM195.8 1623.2v-30.9h-56.1v-14.5l59-83.7h13v83.7h17.5v14.5h-17.5v30.9h-15.9zm0-45.5v-58.3l-40.5 58.3h40.5zM246.9 1559.4c0-15.3 1.6-27.6 4.7-36.9 3.1-9.3 7.8-16.5 14-21.6 6.2-5.1 14-7.6 23.4-7.6 6.9 0 13 1.4 18.2 4.2 5.2 2.8 9.5 6.8 13 12.1 3.4 5.3 6.1 11.7 8 19.2 1.9 7.6 2.9 17.7 2.9 30.5 0 15.2-1.6 27.4-4.7 36.7-3.1 9.3-7.8 16.5-14 21.6-6.2 5.1-14 7.6-23.5 7.6-12.5 0-22.2-4.5-29.4-13.4-8.3-10.6-12.6-28.1-12.6-52.4zm16.3 0c0 21.2 2.5 35.3 7.4 42.4 5 7 11.1 10.5 18.4 10.5 7.3 0 13.4-3.5 18.4-10.6 5-7.1 7.4-21.2 7.4-42.3 0-21.3-2.5-35.4-7.4-42.4-5-7-11.2-10.5-18.6-10.5-7.3 0-13.1 3.1-17.5 9.3-5.3 7.9-8.1 22.4-8.1 43.6zM357.5 1623.2v-18.1h18.1v18.1c0 6.6-1.2 12-3.5 16.1-2.4 4.1-6.1 7.2-11.2 9.5l-4.4-6.8c3.3-1.5 5.8-3.6 7.4-6.5 1.6-2.9 2.5-6.9 2.6-12.3h-9zM396.2 1559.4c0-15.3 1.6-27.6 4.7-36.9 3.1-9.3 7.8-16.5 14-21.6 6.2-5.1 14-7.6 23.4-7.6 6.9 0 13 1.4 18.2 4.2 5.2 2.8 9.5 6.8 13 12.1 3.4 5.3 6.1 11.7 8 19.2 1.9 7.6 2.9 17.7 2.9 30.5 0 15.2-1.6 27.4-4.7 36.7-3.1 9.3-7.8 16.5-14 21.6-6.2 5.1-14 7.6-23.5 7.6-12.5 0-22.2-4.5-29.4-13.4-8.3-10.6-12.6-28.1-12.6-52.4zm16.3 0c0 21.2 2.5 35.3 7.4 42.4 5 7 11.1 10.5 18.4 10.5 7.3 0 13.4-3.5 18.4-10.6 5-7.1 7.4-21.2 7.4-42.3 0-21.3-2.5-35.4-7.4-42.4-5-7-11.2-10.5-18.6-10.5-7.3 0-13.1 3.1-17.5 9.3-5.4 7.9-8.1 22.4-8.1 43.6zM498.2 1559.4c0-15.3 1.6-27.6 4.7-36.9 3.1-9.3 7.8-16.5 14-21.6 6.2-5.1 14-7.6 23.4-7.6 6.9 0 13 1.4 18.2 4.2 5.2 2.8 9.5 6.8 13 12.1 3.4 5.3 6.1 11.7 8 19.2 1.9 7.6 2.9 17.7 2.9 30.5 0 15.2-1.6 27.4-4.7 36.7-3.1 9.3-7.8 16.5-14 21.6-6.2 5.1-14 7.6-23.5 7.6-12.5 0-22.2-4.5-29.4-13.4-8.3-10.6-12.6-28.1-12.6-52.4zm16.3 0c0 21.2 2.5 35.3 7.4 42.4 5 7 11.1 10.5 18.4 10.5 7.3 0 13.4-3.5 18.4-10.6 5-7.1 7.4-21.2 7.4-42.3 0-21.3-2.5-35.4-7.4-42.4-5-7-11.2-10.5-18.6-10.5-7.3 0-13.1 3.1-17.5 9.3-5.4 7.9-8.1 22.4-8.1 43.6zM600.2 1559.4c0-15.3 1.6-27.6 4.7-36.9 3.1-9.3 7.8-16.5 14-21.6 6.2-5.1 14-7.6 23.4-7.6 6.9 0 13 1.4 18.2 4.2 5.2 2.8 9.5 6.8 13 12.1 3.4 5.3 6.1 11.7 8 19.2 1.9 7.6 2.9 17.7 2.9 30.5 0 15.2-1.6 27.4-4.7 36.7-3.1 9.3-7.8 16.5-14 21.6-6.2 5.1-14 7.6-23.5 7.6-12.5 0-22.2-4.5-29.4-13.4-8.3-10.6-12.6-28.1-12.6-52.4zm16.3 0c0 21.2 2.5 35.3 7.4 42.4 5 7 11.1 10.5 18.4 10.5 7.3 0 13.4-3.5 18.4-10.6 5-7.1 7.4-21.2 7.4-42.3 0-21.3-2.5-35.4-7.4-42.4-5-7-11.2-10.5-18.6-10.5-7.3 0-13.1 3.1-17.5 9.3-5.4 7.9-8.1 22.4-8.1 43.6zM80.2 1164.6v-15.9c-7.9-1-14.4-2.8-19.3-5.3-5-2.6-9.3-6.7-12.9-12.4-3.6-5.7-5.7-12.7-6.3-20.9l16-3c1.2 8.5 3.4 14.8 6.5 18.8 4.5 5.6 9.8 8.8 16 9.4v-50.5c-6.5-1.2-13.2-3.8-20-7.6-5.1-2.8-8.9-6.7-11.7-11.7-2.7-5-4.1-10.7-4.1-17 0-11.3 4-20.4 12-27.4 5.3-4.7 13.3-7.6 23.8-8.6v-7.6h9.3v7.6c9.2.9 16.5 3.6 21.9 8.1 6.9 5.8 11.1 13.7 12.5 23.7l-16.4 2.5c-.9-6.2-2.9-11-5.9-14.3-3-3.3-7-5.5-12.2-6.6v45.7c8 2 13.3 3.6 15.9 4.7 4.9 2.2 9 4.8 12.1 7.9 3.1 3.1 5.5 6.8 7.2 11.1 1.7 4.3 2.5 8.9 2.5 13.9 0 11-3.5 20.2-10.5 27.5s-16 11.3-27.1 11.8v16h-9.3zm0-138.9c-6.2.9-11 3.4-14.6 7.4-3.6 4-5.3 8.7-5.3 14.2 0 5.4 1.5 9.9 4.5 13.6 3 3.6 8.2 6.6 15.4 8.7v-43.9zm9.3 109.7c6.2-.8 11.3-3.4 15.3-8s6-10.3 6-17c0-5.8-1.4-10.4-4.3-13.9s-8.5-6.6-17.1-9.4v48.3zM195.6 1146v-30.9h-56.1v-14.5l59-83.7h13v83.7H229v14.5h-17.5v30.9h-15.9zm0-45.4v-58.3l-40.5 58.3h40.5zM246.7 1112.2l16.7-1.4c1.2 8.1 4.1 14.2 8.6 18.3 4.5 4.1 9.9 6.1 16.3 6.1 7.6 0 14.1-2.9 19.4-8.6 5.3-5.8 7.9-13.4 7.9-22.9 0-9-2.5-16.2-7.6-21.4-5.1-5.2-11.7-7.8-20-7.8-5.1 0-9.7 1.2-13.8 3.5-4.1 2.3-7.3 5.3-9.7 9l-14.9-1.9 12.5-66.4h64.3v15.2h-51.6l-7 34.7c7.8-5.4 15.9-8.1 24.4-8.1 11.3 0 20.8 3.9 28.6 11.7s11.6 17.9 11.6 30.1c0 11.7-3.4 21.8-10.2 30.3-8.3 10.5-19.6 15.7-33.9 15.7-11.8 0-21.3-3.3-28.8-9.9-7.5-6.6-11.7-15.3-12.8-26.2zM357.3 1146v-18h18.1v18.1c0 6.6-1.2 12-3.5 16.1-2.4 4.1-6.1 7.2-11.2 9.5l-4.4-6.8c3.3-1.5 5.8-3.6 7.4-6.5 1.6-2.9 2.5-6.9 2.6-12.3h-9zM396 1082.3c0-15.3 1.6-27.6 4.7-36.9 3.1-9.3 7.8-16.5 14-21.6 6.2-5.1 14-7.6 23.4-7.6 6.9 0 13 1.4 18.2 4.2 5.2 2.8 9.5 6.8 13 12.1 3.4 5.3 6.1 11.7 8 19.2 1.9 7.6 2.9 17.7 2.9 30.5 0 15.2-1.6 27.4-4.7 36.7-3.1 9.3-7.8 16.5-14 21.6-6.2 5.1-14 7.6-23.5 7.6-12.5 0-22.2-4.5-29.4-13.4-8.3-10.6-12.6-28.1-12.6-52.4zm16.3 0c0 21.2 2.5 35.3 7.4 42.4 5 7 11.1 10.5 18.4 10.5 7.3 0 13.4-3.5 18.4-10.6 5-7.1 7.4-21.2 7.4-42.3 0-21.3-2.5-35.4-7.4-42.4-5-7-11.2-10.5-18.6-10.5-7.3 0-13.1 3.1-17.5 9.3-5.3 7.9-8.1 22.4-8.1 43.6zM498 1082.3c0-15.3 1.6-27.6 4.7-36.9 3.1-9.3 7.8-16.5 14-21.6 6.2-5.1 14-7.6 23.4-7.6 6.9 0 13 1.4 18.2 4.2 5.2 2.8 9.5 6.8 13 12.1 3.4 5.3 6.1 11.7 8 19.2 1.9 7.6 2.9 17.7 2.9 30.5 0 15.2-1.6 27.4-4.7 36.7-3.1 9.3-7.8 16.5-14 21.6-6.2 5.1-14 7.6-23.5 7.6-12.5 0-22.2-4.5-29.4-13.4-8.3-10.6-12.6-28.1-12.6-52.4zm16.3 0c0 21.2 2.5 35.3 7.4 42.4 5 7 11.1 10.5 18.4 10.5 7.3 0 13.4-3.5 18.4-10.6 5-7.1 7.4-21.2 7.4-42.3 0-21.3-2.5-35.4-7.4-42.4-5-7-11.2-10.5-18.6-10.5-7.3 0-13.1 3.1-17.5 9.3-5.3 7.9-8.1 22.4-8.1 43.6zM600 1082.3c0-15.3 1.6-27.6 4.7-36.9 3.1-9.3 7.8-16.5 14-21.6 6.2-5.1 14-7.6 23.4-7.6 6.9 0 13 1.4 18.2 4.2 5.2 2.8 9.5 6.8 13 12.1 3.4 5.3 6.1 11.7 8 19.2 1.9 7.6 2.9 17.7 2.9 30.5 0 15.2-1.6 27.4-4.7 36.7-3.1 9.3-7.8 16.5-14 21.6-6.2 5.1-14 7.6-23.5 7.6-12.5 0-22.2-4.5-29.4-13.4-8.3-10.6-12.6-28.1-12.6-52.4zm16.3 0c0 21.2 2.5 35.3 7.4 42.4 5 7 11.1 10.5 18.4 10.5 7.3 0 13.4-3.5 18.4-10.6 5-7.1 7.4-21.2 7.4-42.3 0-21.3-2.5-35.4-7.4-42.4-5-7-11.2-10.5-18.6-10.5-7.3 0-13.1 3.1-17.5 9.3-5.3 7.9-8.1 22.4-8.1 43.6zM80 687.5v-15.9c-7.9-1-14.4-2.8-19.3-5.3-5-2.6-9.3-6.7-12.9-12.4-3.6-5.7-5.7-12.7-6.3-20.9l16-3c1.2 8.5 3.4 14.8 6.5 18.8 4.5 5.6 9.8 8.8 16 9.4v-50.5c-6.5-1.2-13.2-3.8-20-7.6-5.1-2.8-8.9-6.7-11.7-11.7-2.7-5-4.1-10.7-4.1-17 0-11.3 4-20.4 12-27.4 5.3-4.7 13.3-7.6 23.8-8.6v-7.6h9.3v7.6c9.2.9 16.5 3.6 21.9 8.1 6.9 5.8 11.1 13.7 12.5 23.7l-16.4 2.5c-.9-6.2-2.9-11-5.9-14.3-3-3.3-7-5.5-12.2-6.6v45.7c8 2 13.3 3.6 15.9 4.7 4.9 2.2 9 4.8 12.1 7.9 3.1 3.1 5.5 6.8 7.2 11.1 1.7 4.3 2.5 8.9 2.5 13.9 0 11-3.5 20.2-10.5 27.5s-16 11.3-27.1 11.8v16H80zm0-138.9c-6.2.9-11 3.4-14.6 7.4-3.6 4-5.3 8.7-5.3 14.2 0 5.4 1.5 9.9 4.5 13.6 3 3.6 8.2 6.6 15.4 8.7v-43.9zm9.4 109.6c6.2-.8 11.3-3.4 15.3-8s6-10.3 6-17c0-5.8-1.4-10.4-4.3-13.9s-8.5-6.6-17.1-9.4v48.3zM144.6 635.1l16.7-1.4c1.2 8.1 4.1 14.2 8.6 18.3 4.5 4.1 9.9 6.1 16.3 6.1 7.6 0 14.1-2.9 19.4-8.6 5.3-5.8 7.9-13.4 7.9-22.9 0-9-2.5-16.2-7.6-21.4-5.1-5.2-11.7-7.8-20-7.8-5.1 0-9.7 1.2-13.8 3.5-4.1 2.3-7.3 5.3-9.7 9l-14.9-1.9 12.5-66.4h64.3v15.2h-51.6l-7 34.7c7.8-5.4 15.9-8.1 24.4-8.1 11.3 0 20.8 3.9 28.6 11.7s11.6 17.9 11.6 30.1c0 11.7-3.4 21.8-10.2 30.3-8.3 10.5-19.6 15.7-33.9 15.7-11.8 0-21.3-3.3-28.8-9.9-7.5-6.6-11.8-15.4-12.8-26.2zM246.6 605.2c0-15.3 1.6-27.6 4.7-36.9 3.1-9.3 7.8-16.5 14-21.6 6.2-5.1 14-7.6 23.4-7.6 6.9 0 13 1.4 18.2 4.2 5.2 2.8 9.5 6.8 13 12.1 3.4 5.3 6.1 11.7 8 19.2 1.9 7.6 2.9 17.7 2.9 30.5 0 15.2-1.6 27.4-4.7 36.7-3.1 9.3-7.8 16.5-14 21.6-6.2 5.1-14 7.6-23.5 7.6-12.5 0-22.2-4.5-29.4-13.4-8.4-10.6-12.6-28.2-12.6-52.4zm16.3 0c0 21.2 2.5 35.3 7.4 42.4 5 7 11.1 10.5 18.4 10.5 7.3 0 13.4-3.5 18.4-10.6 5-7.1 7.4-21.2 7.4-42.3 0-21.3-2.5-35.4-7.4-42.4-5-7-11.2-10.5-18.6-10.5-7.3 0-13.1 3.1-17.5 9.3-5.4 7.8-8.1 22.4-8.1 43.6zM357.1 668.9v-18.1h18.1v18.1c0 6.6-1.2 12-3.5 16.1-2.4 4.1-6.1 7.2-11.2 9.5l-4.4-6.8c3.3-1.5 5.8-3.6 7.4-6.5 1.6-2.9 2.5-6.9 2.6-12.3h-9zM395.8 605.2c0-15.3 1.6-27.6 4.7-36.9 3.1-9.3 7.8-16.5 14-21.6 6.2-5.1 14-7.6 23.4-7.6 6.9 0 13 1.4 18.2 4.2 5.2 2.8 9.5 6.8 13 12.1 3.4 5.3 6.1 11.7 8 19.2 1.9 7.6 2.9 17.7 2.9 30.5 0 15.2-1.6 27.4-4.7 36.7-3.1 9.3-7.8 16.5-14 21.6-6.2 5.1-14 7.6-23.5 7.6-12.5 0-22.2-4.5-29.4-13.4-8.3-10.6-12.6-28.2-12.6-52.4zm16.4 0c0 21.2 2.5 35.3 7.4 42.4 5 7 11.1 10.5 18.4 10.5 7.3 0 13.4-3.5 18.4-10.6 5-7.1 7.4-21.2 7.4-42.3 0-21.3-2.5-35.4-7.4-42.4-5-7-11.2-10.5-18.6-10.5-7.3 0-13.1 3.1-17.5 9.3-5.4 7.8-8.1 22.4-8.1 43.6zM497.8 605.2c0-15.3 1.6-27.6 4.7-36.9 3.1-9.3 7.8-16.5 14-21.6 6.2-5.1 14-7.6 23.4-7.6 6.9 0 13 1.4 18.2 4.2 5.2 2.8 9.5 6.8 13 12.1 3.4 5.3 6.1 11.7 8 19.2 1.9 7.6 2.9 17.7 2.9 30.5 0 15.2-1.6 27.4-4.7 36.7-3.1 9.3-7.8 16.5-14 21.6-6.2 5.1-14 7.6-23.5 7.6-12.5 0-22.2-4.5-29.4-13.4-8.3-10.6-12.6-28.2-12.6-52.4zm16.4 0c0 21.2 2.5 35.3 7.4 42.4 5 7 11.1 10.5 18.4 10.5 7.3 0 13.4-3.5 18.4-10.6 5-7.1 7.4-21.2 7.4-42.3 0-21.3-2.5-35.4-7.4-42.4-5-7-11.2-10.5-18.6-10.5-7.3 0-13.1 3.1-17.5 9.3-5.4 7.8-8.1 22.4-8.1 43.6zM599.8 605.2c0-15.3 1.6-27.6 4.7-36.9 3.1-9.3 7.8-16.5 14-21.6 6.2-5.1 14-7.6 23.4-7.6 6.9 0 13 1.4 18.2 4.2 5.2 2.8 9.5 6.8 13 12.1 3.4 5.3 6.1 11.7 8 19.2 1.9 7.6 2.9 17.7 2.9 30.5 0 15.2-1.6 27.4-4.7 36.7-3.1 9.3-7.8 16.5-14 21.6-6.2 5.1-14 7.6-23.5 7.6-12.5 0-22.2-4.5-29.4-13.4-8.3-10.6-12.6-28.2-12.6-52.4zm16.3 0c0 21.2 2.5 35.3 7.4 42.4 5 7 11.1 10.5 18.4 10.5 7.3 0 13.4-3.5 18.4-10.6 5-7.1 7.4-21.2 7.4-42.3 0-21.3-2.5-35.4-7.4-42.4-5-7-11.2-10.5-18.6-10.5-7.3 0-13.1 3.1-17.5 9.3-5.3 7.8-8.1 22.4-8.1 43.6zM766.3 5643.9v15.2h-85.4c-.1-3.8.5-7.5 1.9-11 2.2-5.8 5.7-11.5 10.4-17.2 4.8-5.6 11.7-12.2 20.8-19.6 14-11.5 23.5-20.6 28.5-27.4s7.4-13.1 7.4-19.1c0-6.3-2.2-11.6-6.7-15.9-4.5-4.3-10.4-6.5-17.6-6.5-7.6 0-13.8 2.3-18.3 6.9-4.6 4.6-6.9 10.9-7 19l-16.3-1.7c1.1-12.2 5.3-21.4 12.6-27.8 7.3-6.4 17.1-9.6 29.4-9.6 12.4 0 22.2 3.4 29.4 10.3 7.2 6.9 10.8 15.4 10.8 25.6 0 5.2-1.1 10.3-3.2 15.2-2.1 5-5.6 10.3-10.5 15.8s-13.1 13.1-24.5 22.7c-9.5 8-15.6 13.4-18.3 16.3-2.7 2.9-4.9 5.7-6.7 8.6h63.3zM784.9 5595.4c0-15.3 1.6-27.6 4.7-36.9 3.1-9.3 7.8-16.5 14-21.6 6.2-5.1 14-7.6 23.4-7.6 6.9 0 13 1.4 18.2 4.2 5.2 2.8 9.5 6.8 13 12.1 3.4 5.3 6.1 11.7 8 19.2 1.9 7.6 2.9 17.7 2.9 30.5 0 15.2-1.6 27.4-4.7 36.7-3.1 9.3-7.8 16.5-14 21.6-6.2 5.1-14 7.6-23.5 7.6-12.5 0-22.2-4.5-29.4-13.4-8.4-10.6-12.6-28.1-12.6-52.4zm16.3 0c0 21.2 2.5 35.3 7.4 42.4 5 7 11.1 10.5 18.4 10.5 7.3 0 13.4-3.5 18.4-10.6 5-7.1 7.4-21.2 7.4-42.3 0-21.3-2.5-35.4-7.4-42.4-5-7-11.2-10.5-18.6-10.5-7.3 0-13.1 3.1-17.5 9.3-5.4 7.8-8.1 22.4-8.1 43.6zM886.9 5595.4c0-15.3 1.6-27.6 4.7-36.9 3.1-9.3 7.8-16.5 14-21.6 6.2-5.1 14-7.6 23.4-7.6 6.9 0 13 1.4 18.2 4.2 5.2 2.8 9.5 6.8 13 12.1 3.4 5.3 6.1 11.7 8 19.2 1.9 7.6 2.9 17.7 2.9 30.5 0 15.2-1.6 27.4-4.7 36.7-3.1 9.3-7.8 16.5-14 21.6-6.2 5.1-14 7.6-23.5 7.6-12.5 0-22.2-4.5-29.4-13.4-8.4-10.6-12.6-28.1-12.6-52.4zm16.3 0c0 21.2 2.5 35.3 7.4 42.4s11.1 10.5 18.4 10.5c7.3 0 13.4-3.5 18.4-10.6 5-7.1 7.4-21.2 7.4-42.3 0-21.3-2.5-35.4-7.4-42.4-5-7-11.2-10.5-18.6-10.5-7.3 0-13.1 3.1-17.5 9.3-5.4 7.8-8.1 22.4-8.1 43.6zM1039.7 5659.1v-30.9h-56.1v-14.5l59-83.7h13v83.7h17.5v14.5h-17.5v30.9h-15.9zm0-45.5v-58.3l-40.5 58.3h40.5zM1357.3 5643.9v15.2h-85.4c-.1-3.8.5-7.5 1.9-11 2.2-5.8 5.7-11.5 10.4-17.2 4.8-5.6 11.7-12.2 20.8-19.6 14-11.5 23.5-20.6 28.5-27.4s7.4-13.1 7.4-19.1c0-6.3-2.2-11.6-6.7-15.9-4.5-4.3-10.4-6.5-17.6-6.5-7.6 0-13.8 2.3-18.3 6.9-4.6 4.6-6.9 10.9-7 19l-16.3-1.7c1.1-12.2 5.3-21.4 12.6-27.8 7.3-6.4 17.1-9.6 29.4-9.6 12.4 0 22.2 3.4 29.4 10.3 7.2 6.9 10.8 15.4 10.8 25.6 0 5.2-1.1 10.3-3.2 15.2-2.1 5-5.6 10.3-10.5 15.8s-13.1 13.1-24.5 22.7c-9.5 8-15.6 13.4-18.3 16.3-2.7 2.9-4.9 5.7-6.7 8.6h63.3zM1375.9 5595.4c0-15.3 1.6-27.6 4.7-36.9 3.1-9.3 7.8-16.5 14-21.6 6.2-5.1 14-7.6 23.4-7.6 6.9 0 13 1.4 18.2 4.2 5.2 2.8 9.5 6.8 13 12.1 3.4 5.3 6.1 11.7 8 19.2 1.9 7.6 2.9 17.7 2.9 30.5 0 15.2-1.6 27.4-4.7 36.7-3.1 9.3-7.8 16.5-14 21.6-6.2 5.1-14 7.6-23.5 7.6-12.5 0-22.2-4.5-29.4-13.4-8.3-10.6-12.6-28.1-12.6-52.4zm16.3 0c0 21.2 2.5 35.3 7.4 42.4 5 7 11.1 10.5 18.4 10.5 7.3 0 13.4-3.5 18.4-10.6 5-7.1 7.4-21.2 7.4-42.3 0-21.3-2.5-35.4-7.4-42.4-5-7-11.2-10.5-18.6-10.5-7.3 0-13.1 3.1-17.5 9.3-5.4 7.8-8.1 22.4-8.1 43.6zM1477.9 5595.4c0-15.3 1.6-27.6 4.7-36.9 3.1-9.3 7.8-16.5 14-21.6 6.2-5.1 14-7.6 23.4-7.6 6.9 0 13 1.4 18.2 4.2 5.2 2.8 9.5 6.8 13 12.1 3.4 5.3 6.1 11.7 8 19.2 1.9 7.6 2.9 17.7 2.9 30.5 0 15.2-1.6 27.4-4.7 36.7-3.1 9.3-7.8 16.5-14 21.6-6.2 5.1-14 7.6-23.5 7.6-12.5 0-22.2-4.5-29.4-13.4-8.3-10.6-12.6-28.1-12.6-52.4zm16.3 0c0 21.2 2.5 35.3 7.4 42.4 5 7 11.1 10.5 18.4 10.5 7.3 0 13.4-3.5 18.4-10.6 5-7.1 7.4-21.2 7.4-42.3 0-21.3-2.5-35.4-7.4-42.4-5-7-11.2-10.5-18.6-10.5-7.3 0-13.1 3.1-17.5 9.3-5.4 7.8-8.1 22.4-8.1 43.6zM1579.9 5625.3l16.7-1.4c1.2 8.1 4.1 14.2 8.6 18.3 4.5 4.1 9.9 6.1 16.3 6.1 7.6 0 14.1-2.9 19.4-8.6 5.3-5.8 7.9-13.4 7.9-22.9 0-9-2.5-16.2-7.6-21.4-5.1-5.2-11.7-7.8-20-7.8-5.1 0-9.7 1.2-13.8 3.5-4.1 2.3-7.3 5.3-9.7 9l-14.9-1.9 12.5-66.4h64.3v15.2H1608l-7 34.7c7.8-5.4 15.9-8.1 24.4-8.1 11.3 0 20.8 3.9 28.6 11.7 7.8 7.8 11.6 17.9 11.6 30.1 0 11.7-3.4 21.8-10.2 30.3-8.3 10.5-19.6 15.7-33.9 15.7-11.8 0-21.3-3.3-28.8-9.9-7.5-6.6-11.7-15.4-12.8-26.2zM1948.1 5643.9v15.2h-85.4c-.1-3.8.5-7.5 1.9-11 2.2-5.8 5.7-11.5 10.4-17.2 4.8-5.6 11.7-12.2 20.8-19.6 14-11.5 23.5-20.6 28.5-27.4 4.9-6.7 7.4-13.1 7.4-19.1 0-6.3-2.2-11.6-6.7-15.9-4.5-4.3-10.4-6.5-17.6-6.5-7.6 0-13.8 2.3-18.3 6.9s-6.9 10.9-7 19l-16.3-1.7c1.1-12.2 5.3-21.4 12.6-27.8 7.3-6.4 17.1-9.6 29.4-9.6 12.4 0 22.2 3.4 29.4 10.3 7.2 6.9 10.8 15.4 10.8 25.6 0 5.2-1.1 10.3-3.2 15.2-2.1 5-5.6 10.3-10.5 15.8s-13.1 13.1-24.5 22.7c-9.5 8-15.6 13.4-18.3 16.3-2.7 2.9-4.9 5.7-6.7 8.6h63.3zM1966.8 5595.4c0-15.3 1.6-27.6 4.7-36.9 3.1-9.3 7.8-16.5 14-21.6 6.2-5.1 14-7.6 23.4-7.6 6.9 0 13 1.4 18.2 4.2 5.2 2.8 9.5 6.8 13 12.1 3.4 5.3 6.1 11.7 8 19.2 1.9 7.6 2.9 17.7 2.9 30.5 0 15.2-1.6 27.4-4.7 36.7-3.1 9.3-7.8 16.5-14 21.6-6.2 5.1-14 7.6-23.5 7.6-12.5 0-22.2-4.5-29.4-13.4-8.4-10.6-12.6-28.1-12.6-52.4zm16.3 0c0 21.2 2.5 35.3 7.4 42.4 5 7 11.1 10.5 18.4 10.5 7.3 0 13.4-3.5 18.4-10.6 5-7.1 7.4-21.2 7.4-42.3 0-21.3-2.5-35.4-7.4-42.4-5-7-11.2-10.5-18.6-10.5-7.3 0-13.1 3.1-17.5 9.3-5.4 7.8-8.1 22.4-8.1 43.6zM2068.8 5595.4c0-15.3 1.6-27.6 4.7-36.9 3.1-9.3 7.8-16.5 14-21.6 6.2-5.1 14-7.6 23.4-7.6 6.9 0 13 1.4 18.2 4.2 5.2 2.8 9.5 6.8 13 12.1 3.4 5.3 6.1 11.7 8 19.2 1.9 7.6 2.9 17.7 2.9 30.5 0 15.2-1.6 27.4-4.7 36.7-3.1 9.3-7.8 16.5-14 21.6-6.2 5.1-14 7.6-23.5 7.6-12.5 0-22.2-4.5-29.4-13.4-8.4-10.6-12.6-28.1-12.6-52.4zm16.3 0c0 21.2 2.5 35.3 7.4 42.4 5 7 11.1 10.5 18.4 10.5 7.3 0 13.4-3.5 18.4-10.6 5-7.1 7.4-21.2 7.4-42.3 0-21.3-2.5-35.4-7.4-42.4-5-7-11.2-10.5-18.6-10.5-7.3 0-13.1 3.1-17.5 9.3-5.4 7.8-8.1 22.4-8.1 43.6zM2253.1 5561.5l-15.8 1.2c-1.4-6.2-3.4-10.8-6-13.6-4.3-4.5-9.6-6.8-15.9-6.8-5.1 0-9.5 1.4-13.3 4.2-5 3.6-8.9 9-11.8 16-2.9 7-4.4 17-4.5 29.9 3.8-5.8 8.5-10.1 14-13 5.5-2.8 11.3-4.2 17.4-4.2 10.6 0 19.6 3.9 27 11.7 7.4 7.8 11.2 17.8 11.2 30.2 0 8.1-1.7 15.6-5.2 22.6-3.5 7-8.3 12.3-14.4 16-6.1 3.7-13 5.6-20.8 5.6-13.2 0-24-4.9-32.3-14.6-8.3-9.7-12.5-25.8-12.5-48.1 0-25 4.6-43.1 13.8-54.5 8-9.9 18.9-14.8 32.5-14.8 10.2 0 18.5 2.9 25 8.6 6.4 5.7 10.3 13.6 11.6 23.6zm-64.8 55.7c0 5.5 1.2 10.7 3.5 15.7s5.6 8.8 9.7 11.4c4.2 2.6 8.6 3.9 13.1 3.9 6.7 0 12.5-2.7 17.3-8.1 4.8-5.4 7.2-12.8 7.2-22 0-8.9-2.4-16-7.1-21.1-4.8-5.1-10.8-7.7-18-7.7-7.2 0-13.3 2.6-18.2 7.7-5 5.2-7.5 11.9-7.5 20.2zM2539.2 5643.9v15.2h-85.4c-.1-3.8.5-7.5 1.9-11 2.2-5.8 5.7-11.5 10.4-17.2 4.8-5.6 11.7-12.2 20.8-19.6 14-11.5 23.5-20.6 28.5-27.4s7.4-13.1 7.4-19.1c0-6.3-2.2-11.6-6.7-15.9-4.5-4.3-10.4-6.5-17.6-6.5-7.6 0-13.8 2.3-18.3 6.9-4.6 4.6-6.9 10.9-7 19l-16.3-1.7c1.1-12.2 5.3-21.4 12.6-27.8 7.3-6.4 17.1-9.6 29.4-9.6 12.4 0 22.2 3.4 29.4 10.3 7.2 6.9 10.8 15.4 10.8 25.6 0 5.2-1.1 10.3-3.2 15.2-2.1 5-5.6 10.3-10.5 15.8s-13.1 13.1-24.5 22.7c-9.5 8-15.6 13.4-18.3 16.3-2.7 2.9-4.9 5.7-6.7 8.6h63.3zM2557.8 5595.4c0-15.3 1.6-27.6 4.7-36.9 3.1-9.3 7.8-16.5 14-21.6 6.2-5.1 14-7.6 23.4-7.6 6.9 0 13 1.4 18.2 4.2 5.2 2.8 9.5 6.8 13 12.1 3.4 5.3 6.1 11.7 8 19.2 1.9 7.6 2.9 17.7 2.9 30.5 0 15.2-1.6 27.4-4.7 36.7-3.1 9.3-7.8 16.5-14 21.6-6.2 5.1-14 7.6-23.5 7.6-12.5 0-22.2-4.5-29.4-13.4-8.3-10.6-12.6-28.1-12.6-52.4zm16.3 0c0 21.2 2.5 35.3 7.4 42.4s11.1 10.5 18.4 10.5c7.3 0 13.4-3.5 18.4-10.6 5-7.1 7.4-21.2 7.4-42.3 0-21.3-2.5-35.4-7.4-42.4-5-7-11.2-10.5-18.6-10.5-7.3 0-13.1 3.1-17.5 9.3-5.4 7.8-8.1 22.4-8.1 43.6zM2659.8 5595.4c0-15.3 1.6-27.6 4.7-36.9 3.1-9.3 7.8-16.5 14-21.6 6.2-5.1 14-7.6 23.4-7.6 6.9 0 13 1.4 18.2 4.2 5.2 2.8 9.5 6.8 13 12.1 3.4 5.3 6.1 11.7 8 19.2 1.9 7.6 2.9 17.7 2.9 30.5 0 15.2-1.6 27.4-4.7 36.7-3.1 9.3-7.8 16.5-14 21.6-6.2 5.1-14 7.6-23.5 7.6-12.5 0-22.2-4.5-29.4-13.4-8.4-10.6-12.6-28.1-12.6-52.4zm16.3 0c0 21.2 2.5 35.3 7.4 42.4s11.1 10.5 18.4 10.5c7.3 0 13.4-3.5 18.4-10.6 5-7.1 7.4-21.2 7.4-42.3 0-21.3-2.5-35.4-7.4-42.4-5-7-11.2-10.5-18.6-10.5-7.3 0-13.1 3.1-17.5 9.3-5.4 7.8-8.1 22.4-8.1 43.6zM2762.8 5546.8v-15.2h83.7v12.3c-8.2 8.8-16.4 20.4-24.5 34.9-8.1 14.5-14.3 29.4-18.7 44.8-3.2 10.8-5.2 22.7-6.1 35.5h-16.3c.2-10.2 2.2-22.4 6-36.8 3.8-14.4 9.3-28.3 16.4-41.6s14.7-24.6 22.8-33.8h-63.3zM3130.2 5643.9v15.2h-85.4c-.1-3.8.5-7.5 1.9-11 2.2-5.8 5.7-11.5 10.4-17.2 4.8-5.6 11.7-12.2 20.8-19.6 14-11.5 23.5-20.6 28.5-27.4s7.4-13.1 7.4-19.1c0-6.3-2.2-11.6-6.7-15.9-4.5-4.3-10.4-6.5-17.6-6.5-7.6 0-13.8 2.3-18.3 6.9-4.6 4.6-6.9 10.9-7 19l-16.3-1.7c1.1-12.2 5.3-21.4 12.6-27.8 7.3-6.4 17.1-9.6 29.4-9.6 12.4 0 22.2 3.4 29.4 10.3 7.2 6.9 10.8 15.4 10.8 25.6 0 5.2-1.1 10.3-3.2 15.2-2.1 5-5.6 10.3-10.5 15.8s-13.1 13.1-24.5 22.7c-9.5 8-15.6 13.4-18.3 16.3-2.7 2.9-4.9 5.7-6.7 8.6h63.3zM3148.8 5595.4c0-15.3 1.6-27.6 4.7-36.9 3.1-9.3 7.8-16.5 14-21.6 6.2-5.1 14-7.6 23.4-7.6 6.9 0 13 1.4 18.2 4.2 5.2 2.8 9.5 6.8 13 12.1 3.4 5.3 6.1 11.7 8 19.2 1.9 7.6 2.9 17.7 2.9 30.5 0 15.2-1.6 27.4-4.7 36.7-3.1 9.3-7.8 16.5-14 21.6-6.2 5.1-14 7.6-23.5 7.6-12.5 0-22.2-4.5-29.4-13.4-8.3-10.6-12.6-28.1-12.6-52.4zm16.3 0c0 21.2 2.5 35.3 7.4 42.4s11.1 10.5 18.4 10.5c7.3 0 13.4-3.5 18.4-10.6 5-7.1 7.4-21.2 7.4-42.3 0-21.3-2.5-35.4-7.4-42.4-5-7-11.2-10.5-18.6-10.5-7.3 0-13.1 3.1-17.5 9.3-5.3 7.8-8.1 22.4-8.1 43.6zM3250.8 5595.4c0-15.3 1.6-27.6 4.7-36.9 3.1-9.3 7.8-16.5 14-21.6 6.2-5.1 14-7.6 23.4-7.6 6.9 0 13 1.4 18.2 4.2 5.2 2.8 9.5 6.8 13 12.1 3.4 5.3 6.1 11.7 8 19.2 1.9 7.6 2.9 17.7 2.9 30.5 0 15.2-1.6 27.4-4.7 36.7-3.1 9.3-7.8 16.5-14 21.6-6.2 5.1-14 7.6-23.5 7.6-12.5 0-22.2-4.5-29.4-13.4-8.3-10.6-12.6-28.1-12.6-52.4zm16.3 0c0 21.2 2.5 35.3 7.4 42.4 5 7 11.1 10.5 18.4 10.5 7.3 0 13.4-3.5 18.4-10.6 5-7.1 7.4-21.2 7.4-42.3 0-21.3-2.5-35.4-7.4-42.4-5-7-11.2-10.5-18.6-10.5-7.3 0-13.1 3.1-17.5 9.3-5.3 7.8-8.1 22.4-8.1 43.6zM3377.2 5589c-6.6-2.4-11.5-5.8-14.6-10.3-3.2-4.5-4.8-9.8-4.8-16 0-9.4 3.4-17.3 10.1-23.7 6.8-6.4 15.7-9.6 27-9.6s20.4 3.3 27.2 9.8c6.9 6.6 10.3 14.5 10.3 23.9 0 6-1.6 11.2-4.7 15.6s-7.9 7.9-14.3 10.3c7.9 2.6 14 6.8 18.1 12.5 4.1 5.8 6.2 12.6 6.2 20.6 0 11-3.9 20.3-11.7 27.9-7.8 7.5-18.1 11.3-30.9 11.3-12.8 0-23-3.8-30.9-11.3-7.8-7.6-11.7-17-11.7-28.3 0-8.4 2.1-15.4 6.4-21.1 4.4-5.6 10.5-9.5 18.3-11.6zm-8.3 32.8c0 4.5 1.1 8.9 3.2 13.1 2.1 4.2 5.3 7.5 9.6 9.8 4.2 2.3 8.8 3.5 13.7 3.5 7.6 0 13.8-2.4 18.8-7.3 4.9-4.9 7.4-11.1 7.4-18.6 0-7.6-2.5-14-7.6-19s-11.4-7.5-19.1-7.5c-7.5 0-13.6 2.5-18.6 7.4-4.9 5.1-7.4 11.2-7.4 18.6zm5.2-59.6c0 6.1 2 11.1 5.9 15 3.9 3.9 9 5.8 15.3 5.8 6.1 0 11.1-1.9 15-5.8 3.9-3.8 5.9-8.6 5.9-14.1 0-5.8-2-10.7-6-14.7s-9-5.9-15-5.9c-6.1 0-11.1 1.9-15.1 5.8s-6 8.4-6 13.9zM3721.3 5643.9v15.2h-85.4c-.1-3.8.5-7.5 1.9-11 2.2-5.8 5.7-11.5 10.4-17.2 4.8-5.6 11.7-12.2 20.8-19.6 14-11.5 23.5-20.6 28.5-27.4 4.9-6.7 7.4-13.1 7.4-19.1 0-6.3-2.2-11.6-6.7-15.9-4.5-4.3-10.4-6.5-17.6-6.5-7.6 0-13.8 2.3-18.3 6.9s-6.9 10.9-7 19l-16.3-1.7c1.1-12.2 5.3-21.4 12.6-27.8 7.3-6.4 17.1-9.6 29.4-9.6 12.4 0 22.2 3.4 29.4 10.3 7.2 6.9 10.8 15.4 10.8 25.6 0 5.2-1.1 10.3-3.2 15.2-2.1 5-5.6 10.3-10.5 15.8s-13.1 13.1-24.5 22.7c-9.5 8-15.6 13.4-18.3 16.3-2.7 2.9-4.9 5.7-6.7 8.6h63.3zM3739.9 5595.4c0-15.3 1.6-27.6 4.7-36.9 3.1-9.3 7.8-16.5 14-21.6 6.2-5.1 14-7.6 23.4-7.6 6.9 0 13 1.4 18.2 4.2 5.2 2.8 9.5 6.8 13 12.1 3.4 5.3 6.1 11.7 8 19.2 1.9 7.6 2.9 17.7 2.9 30.5 0 15.2-1.6 27.4-4.7 36.7-3.1 9.3-7.8 16.5-14 21.6-6.2 5.1-14 7.6-23.5 7.6-12.5 0-22.2-4.5-29.4-13.4-8.4-10.6-12.6-28.1-12.6-52.4zm16.3 0c0 21.2 2.5 35.3 7.4 42.4s11.1 10.5 18.4 10.5c7.3 0 13.4-3.5 18.4-10.6 5-7.1 7.4-21.2 7.4-42.3 0-21.3-2.5-35.4-7.4-42.4-5-7-11.2-10.5-18.6-10.5-7.3 0-13.1 3.1-17.5 9.3-5.4 7.8-8.1 22.4-8.1 43.6zM3841.8 5595.4c0-15.3 1.6-27.6 4.7-36.9 3.1-9.3 7.8-16.5 14-21.6 6.2-5.1 14-7.6 23.4-7.6 6.9 0 13 1.4 18.2 4.2 5.2 2.8 9.5 6.8 13 12.1 3.4 5.3 6.1 11.7 8 19.2 1.9 7.6 2.9 17.7 2.9 30.5 0 15.2-1.6 27.4-4.7 36.7-3.1 9.3-7.8 16.5-14 21.6-6.2 5.1-14 7.6-23.5 7.6-12.5 0-22.2-4.5-29.4-13.4-8.3-10.6-12.6-28.1-12.6-52.4zm16.4 0c0 21.2 2.5 35.3 7.4 42.4s11.1 10.5 18.4 10.5c7.3 0 13.4-3.5 18.4-10.6 5-7.1 7.4-21.2 7.4-42.3 0-21.3-2.5-35.4-7.4-42.4-5-7-11.2-10.5-18.6-10.5-7.3 0-13.1 3.1-17.5 9.3-5.4 7.8-8.1 22.4-8.1 43.6zM3946.2 5629.2l15.2-1.4c1.3 7.2 3.8 12.4 7.4 15.6 3.6 3.2 8.3 4.8 14 4.8 4.9 0 9.2-1.1 12.8-3.3 3.7-2.2 6.7-5.2 9-8.9s4.3-8.8 5.9-15.1c1.6-6.3 2.4-12.8 2.4-19.4 0-.7 0-1.8-.1-3.2-3.2 5.1-7.5 9.2-13 12.3-5.5 3.1-11.4 4.7-17.8 4.7-10.7 0-19.7-3.9-27.1-11.6-7.4-7.8-11.1-18-11.1-30.7 0-13.1 3.9-23.7 11.6-31.6 7.7-8 17.4-12 29-12 8.4 0 16.1 2.3 23 6.8 7 4.5 12.3 11 15.9 19.3 3.6 8.4 5.4 20.5 5.4 36.4 0 16.5-1.8 29.7-5.4 39.4-3.6 9.8-8.9 17.2-16 22.3-7.1 5.1-15.4 7.7-24.9 7.7-10.1 0-18.4-2.8-24.8-8.4-6.2-5.6-10.1-13.5-11.4-23.7zm65-57c0-9.1-2.4-16.3-7.3-21.7-4.8-5.3-10.7-8-17.5-8-7.1 0-13.2 2.9-18.4 8.6-5.2 5.8-7.8 13.2-7.8 22.4 0 8.2 2.5 14.9 7.4 20.1 5 5.1 11.1 7.7 18.4 7.7 7.3 0 13.4-2.6 18.1-7.7 4.7-5.2 7.1-12.3 7.1-21.4zM4312.1 5643.9v15.2h-85.4c-.1-3.8.5-7.5 1.9-11 2.2-5.8 5.7-11.5 10.4-17.2 4.8-5.6 11.7-12.2 20.8-19.6 14-11.5 23.5-20.6 28.5-27.4s7.4-13.1 7.4-19.1c0-6.3-2.2-11.6-6.7-15.9-4.5-4.3-10.4-6.5-17.6-6.5-7.6 0-13.8 2.3-18.3 6.9s-6.9 10.9-7 19l-16.3-1.7c1.1-12.2 5.3-21.4 12.6-27.8 7.3-6.4 17.1-9.6 29.4-9.6 12.4 0 22.2 3.4 29.4 10.3 7.2 6.9 10.8 15.4 10.8 25.6 0 5.2-1.1 10.3-3.2 15.2-2.1 5-5.6 10.3-10.5 15.8s-13.1 13.1-24.5 22.7c-9.5 8-15.6 13.4-18.3 16.3-2.7 2.9-4.9 5.7-6.7 8.6h63.3zM4330.7 5595.4c0-15.3 1.6-27.6 4.7-36.9 3.1-9.3 7.8-16.5 14-21.6 6.2-5.1 14-7.6 23.4-7.6 6.9 0 13 1.4 18.2 4.2s9.5 6.8 13 12.1c3.4 5.3 6.1 11.7 8 19.2 1.9 7.6 2.9 17.7 2.9 30.5 0 15.2-1.6 27.4-4.7 36.7-3.1 9.3-7.8 16.5-14 21.6-6.2 5.1-14 7.6-23.5 7.6-12.5 0-22.2-4.5-29.4-13.4-8.3-10.6-12.6-28.1-12.6-52.4zm16.3 0c0 21.2 2.5 35.3 7.4 42.4s11.1 10.5 18.4 10.5c7.3 0 13.4-3.5 18.4-10.6 5-7.1 7.4-21.2 7.4-42.3 0-21.3-2.5-35.4-7.4-42.4-5-7-11.2-10.5-18.6-10.5-7.3 0-13.1 3.1-17.5 9.3-5.4 7.8-8.1 22.4-8.1 43.6zM4492.5 5659.1h-15.9V5558c-3.8 3.6-8.8 7.3-15 10.9-6.2 3.6-11.8 6.4-16.7 8.2v-15.3c8.9-4.2 16.6-9.2 23.3-15.2s11.3-11.7 14.1-17.3h10.2v129.8zM4534.7 5595.4c0-15.3 1.6-27.6 4.7-36.9 3.1-9.3 7.8-16.5 14-21.6 6.2-5.1 14-7.6 23.4-7.6 6.9 0 13 1.4 18.2 4.2s9.5 6.8 13 12.1c3.4 5.3 6.1 11.7 8 19.2 1.9 7.6 2.9 17.7 2.9 30.5 0 15.2-1.6 27.4-4.7 36.7-3.1 9.3-7.8 16.5-14 21.6-6.2 5.1-14 7.6-23.5 7.6-12.5 0-22.2-4.5-29.4-13.4-8.3-10.6-12.6-28.1-12.6-52.4zm16.3 0c0 21.2 2.5 35.3 7.4 42.4s11.1 10.5 18.4 10.5c7.3 0 13.4-3.5 18.4-10.6 5-7.1 7.4-21.2 7.4-42.3 0-21.3-2.5-35.4-7.4-42.4-5-7-11.2-10.5-18.6-10.5-7.3 0-13.1 3.1-17.5 9.3-5.4 7.8-8.1 22.4-8.1 43.6zM4903.1 5643.9v15.2h-85.4c-.1-3.8.5-7.5 1.9-11 2.2-5.8 5.7-11.5 10.4-17.2 4.8-5.6 11.7-12.2 20.8-19.6 14-11.5 23.5-20.6 28.5-27.4s7.4-13.1 7.4-19.1c0-6.3-2.2-11.6-6.7-15.9-4.5-4.3-10.4-6.5-17.6-6.5-7.6 0-13.8 2.3-18.3 6.9s-6.9 10.9-7 19l-16.3-1.7c1.1-12.2 5.3-21.4 12.6-27.8 7.3-6.4 17.1-9.6 29.4-9.6 12.4 0 22.2 3.4 29.4 10.3 7.2 6.9 10.8 15.4 10.8 25.6 0 5.2-1.1 10.3-3.2 15.2-2.1 5-5.6 10.3-10.5 15.8s-13.1 13.1-24.5 22.7c-9.5 8-15.6 13.4-18.3 16.3-2.7 2.9-4.9 5.7-6.7 8.6h63.3zM4921.7 5595.4c0-15.3 1.6-27.6 4.7-36.9 3.1-9.3 7.8-16.5 14-21.6 6.2-5.1 14-7.6 23.4-7.6 6.9 0 13 1.4 18.2 4.2 5.2 2.8 9.5 6.8 13 12.1 3.4 5.3 6.1 11.7 8 19.2 1.9 7.6 2.9 17.7 2.9 30.5 0 15.2-1.6 27.4-4.7 36.7-3.1 9.3-7.8 16.5-14 21.6-6.2 5.1-14 7.6-23.5 7.6-12.5 0-22.2-4.5-29.4-13.4-8.3-10.6-12.6-28.1-12.6-52.4zm16.4 0c0 21.2 2.5 35.3 7.4 42.4 5 7 11.1 10.5 18.4 10.5 7.3 0 13.4-3.5 18.4-10.6 5-7.1 7.4-21.2 7.4-42.3 0-21.3-2.5-35.4-7.4-42.4-5-7-11.2-10.5-18.6-10.5-7.3 0-13.1 3.1-17.5 9.3-5.4 7.8-8.1 22.4-8.1 43.6zM5083.5 5659.1h-15.9V5558c-3.8 3.6-8.8 7.3-15 10.9-6.2 3.6-11.8 6.4-16.7 8.2v-15.3c8.9-4.2 16.6-9.2 23.3-15.2 6.6-5.9 11.3-11.7 14.1-17.3h10.2v129.8zM5185.5 5659.1h-15.9V5558c-3.8 3.6-8.8 7.3-15 10.9-6.2 3.6-11.8 6.4-16.7 8.2v-15.3c8.9-4.2 16.6-9.2 23.3-15.2 6.6-5.9 11.3-11.7 14.1-17.3h10.2v129.8zM5494 5643.9v15.2h-85.4c-.1-3.8.5-7.5 1.9-11 2.2-5.8 5.7-11.5 10.4-17.2s11.7-12.2 20.8-19.6c14-11.5 23.5-20.6 28.5-27.4 4.9-6.7 7.4-13.1 7.4-19.1 0-6.3-2.2-11.6-6.7-15.9-4.5-4.3-10.4-6.5-17.6-6.5-7.6 0-13.8 2.3-18.3 6.9-4.6 4.6-6.9 10.9-7 19l-16.3-1.7c1.1-12.2 5.3-21.4 12.6-27.8 7.3-6.4 17.1-9.6 29.4-9.6 12.4 0 22.2 3.4 29.4 10.3 7.2 6.9 10.8 15.4 10.8 25.6 0 5.2-1.1 10.3-3.2 15.2-2.1 5-5.6 10.3-10.5 15.8s-13.1 13.1-24.5 22.7c-9.5 8-15.6 13.4-18.3 16.3-2.7 2.9-4.9 5.7-6.7 8.6h63.3zM5512.6 5595.4c0-15.3 1.6-27.6 4.7-36.9 3.1-9.3 7.8-16.5 14-21.6 6.2-5.1 14-7.6 23.4-7.6 6.9 0 13 1.4 18.2 4.2 5.2 2.8 9.5 6.8 13 12.1 3.4 5.3 6.1 11.7 8 19.2 1.9 7.6 2.9 17.7 2.9 30.5 0 15.2-1.6 27.4-4.7 36.7-3.1 9.3-7.8 16.5-14 21.6-6.2 5.1-14 7.6-23.5 7.6-12.5 0-22.2-4.5-29.4-13.4-8.3-10.6-12.6-28.1-12.6-52.4zm16.3 0c0 21.2 2.5 35.3 7.4 42.4 5 7 11.1 10.5 18.4 10.5 7.3 0 13.4-3.5 18.4-10.6 5-7.1 7.4-21.2 7.4-42.3 0-21.3-2.5-35.4-7.4-42.4-5-7-11.2-10.5-18.6-10.5-7.3 0-13.1 3.1-17.5 9.3-5.4 7.8-8.1 22.4-8.1 43.6zM5674.3 5659.1h-15.9V5558c-3.8 3.6-8.8 7.3-15 10.9-6.2 3.6-11.8 6.4-16.7 8.2v-15.3c8.9-4.2 16.6-9.2 23.3-15.2s11.3-11.7 14.1-17.3h10.2v129.8zM5800 5643.9v15.2h-85.4c-.1-3.8.5-7.5 1.9-11 2.2-5.8 5.7-11.5 10.4-17.2s11.7-12.2 20.8-19.6c14-11.5 23.5-20.6 28.5-27.4 4.9-6.7 7.4-13.1 7.4-19.1 0-6.3-2.2-11.6-6.7-15.9-4.5-4.3-10.4-6.5-17.6-6.5-7.6 0-13.8 2.3-18.3 6.9-4.6 4.6-6.9 10.9-7 19l-16.3-1.7c1.1-12.2 5.3-21.4 12.6-27.8 7.3-6.4 17.1-9.6 29.4-9.6 12.4 0 22.2 3.4 29.4 10.3 7.2 6.9 10.8 15.4 10.8 25.6 0 5.2-1.1 10.3-3.2 15.2-2.1 5-5.6 10.3-10.5 15.8s-13.1 13.1-24.5 22.7c-9.5 8-15.6 13.4-18.3 16.3-2.7 2.9-4.9 5.7-6.7 8.6h63.3zM6085 5643.9v15.2h-85.4c-.1-3.8.5-7.5 1.9-11 2.2-5.8 5.7-11.5 10.4-17.2s11.7-12.2 20.8-19.6c14-11.5 23.5-20.6 28.5-27.4 4.9-6.7 7.4-13.1 7.4-19.1 0-6.3-2.2-11.6-6.7-15.9-4.5-4.3-10.4-6.5-17.6-6.5-7.6 0-13.8 2.3-18.3 6.9-4.6 4.6-6.9 10.9-7 19l-16.3-1.7c1.1-12.2 5.3-21.4 12.6-27.8 7.3-6.4 17.1-9.6 29.4-9.6 12.4 0 22.2 3.4 29.4 10.3 7.2 6.9 10.8 15.4 10.8 25.6 0 5.2-1.1 10.3-3.2 15.2-2.1 5-5.6 10.3-10.5 15.8s-13.1 13.1-24.5 22.7c-9.5 8-15.6 13.4-18.3 16.3-2.7 2.9-4.9 5.7-6.7 8.6h63.3zM6103.6 5595.4c0-15.3 1.6-27.6 4.7-36.9 3.1-9.3 7.8-16.5 14-21.6 6.2-5.1 14-7.6 23.4-7.6 6.9 0 13 1.4 18.2 4.2s9.5 6.8 13 12.1c3.4 5.3 6.1 11.7 8 19.2 1.9 7.6 2.9 17.7 2.9 30.5 0 15.2-1.6 27.4-4.7 36.7-3.1 9.3-7.8 16.5-14 21.6-6.2 5.1-14 7.6-23.5 7.6-12.5 0-22.2-4.5-29.4-13.4-8.3-10.6-12.6-28.1-12.6-52.4zm16.3 0c0 21.2 2.5 35.3 7.4 42.4s11.1 10.5 18.4 10.5c7.3 0 13.4-3.5 18.4-10.6 5-7.1 7.4-21.2 7.4-42.3 0-21.3-2.5-35.4-7.4-42.4-5-7-11.2-10.5-18.6-10.5-7.3 0-13.1 3.1-17.5 9.3-5.3 7.8-8.1 22.4-8.1 43.6zM6265.4 5659.1h-15.9V5558c-3.8 3.6-8.8 7.3-15 10.9-6.2 3.6-11.8 6.4-16.7 8.2v-15.3c8.9-4.2 16.6-9.2 23.3-15.2s11.3-11.7 14.1-17.3h10.2v129.8zM6307.7 5625l15.9-2.1c1.8 9 4.9 15.5 9.3 19.4 4.4 4 9.7 6 16 6 7.5 0 13.8-2.6 18.9-7.8 5.1-5.2 7.7-11.6 7.7-19.2 0-7.3-2.4-13.3-7.1-18-4.8-4.7-10.8-7.1-18.2-7.1-3 0-6.7.6-11.2 1.8l1.8-13.9c1.1.1 1.9.2 2.6.2 6.8 0 12.8-1.8 18.2-5.3s8.1-9 8.1-16.3c0-5.8-2-10.6-5.9-14.5-3.9-3.8-9-5.7-15.2-5.7-6.2 0-11.3 1.9-15.4 5.8s-6.8 9.7-7.9 17.5l-15.9-2.8c1.9-10.6 6.3-18.9 13.2-24.7 6.9-5.8 15.4-8.8 25.7-8.8 7.1 0 13.5 1.5 19.5 4.5 5.9 3 10.5 7.2 13.6 12.4 3.1 5.2 4.7 10.8 4.7 16.7 0 5.6-1.5 10.7-4.5 15.2-3 4.6-7.4 8.2-13.3 10.9 7.6 1.8 13.6 5.4 17.8 11 4.2 5.6 6.3 12.5 6.3 20.8 0 11.3-4.1 20.8-12.3 28.7-8.2 7.8-18.6 11.8-31.2 11.8-11.3 0-20.8-3.4-28.2-10.1-7.7-6.9-11.9-15.6-13-26.4zM6676 5643.9v15.2h-85.4c-.1-3.8.5-7.5 1.9-11 2.2-5.8 5.7-11.5 10.4-17.2 4.8-5.6 11.7-12.2 20.8-19.6 14-11.5 23.5-20.6 28.5-27.4s7.4-13.1 7.4-19.1c0-6.3-2.2-11.6-6.7-15.9-4.5-4.3-10.4-6.5-17.6-6.5-7.6 0-13.8 2.3-18.3 6.9s-6.9 10.9-7 19l-16.3-1.7c1.1-12.2 5.3-21.4 12.6-27.8 7.3-6.4 17.1-9.6 29.4-9.6 12.4 0 22.2 3.4 29.4 10.3 7.2 6.9 10.8 15.4 10.8 25.6 0 5.2-1.1 10.3-3.2 15.2-2.1 5-5.6 10.3-10.5 15.8s-13.1 13.1-24.5 22.7c-9.5 8-15.6 13.4-18.3 16.3-2.7 2.9-4.9 5.7-6.7 8.6h63.3zM6694.7 5595.4c0-15.3 1.6-27.6 4.7-36.9 3.1-9.3 7.8-16.5 14-21.6 6.2-5.1 14-7.6 23.4-7.6 6.9 0 13 1.4 18.2 4.2s9.5 6.8 13 12.1c3.4 5.3 6.1 11.7 8 19.2 1.9 7.6 2.9 17.7 2.9 30.5 0 15.2-1.6 27.4-4.7 36.7-3.1 9.3-7.8 16.5-14 21.6-6.2 5.1-14 7.6-23.5 7.6-12.5 0-22.2-4.5-29.4-13.4-8.4-10.6-12.6-28.1-12.6-52.4zm16.3 0c0 21.2 2.5 35.3 7.4 42.4s11.1 10.5 18.4 10.5c7.3 0 13.4-3.5 18.4-10.6 5-7.1 7.4-21.2 7.4-42.3 0-21.3-2.5-35.4-7.4-42.4-5-7-11.2-10.5-18.6-10.5-7.3 0-13.1 3.1-17.5 9.3-5.4 7.8-8.1 22.4-8.1 43.6zM6856.4 5659.1h-15.9V5558c-3.8 3.6-8.8 7.3-15 10.9-6.2 3.6-11.8 6.4-16.7 8.2v-15.3c8.9-4.2 16.6-9.2 23.3-15.2 6.6-5.9 11.3-11.7 14.1-17.3h10.2v129.8zM6949.5 5659.1v-30.9h-56.1v-14.5l59-83.7h13v83.7h17.5v14.5h-17.5v30.9h-15.9zm0-45.5v-58.3l-40.5 58.3h40.5zM7267.1 5643.9v15.2h-85.4c-.1-3.8.5-7.5 1.9-11 2.2-5.8 5.7-11.5 10.4-17.2s11.7-12.2 20.8-19.6c14-11.5 23.5-20.6 28.5-27.4 4.9-6.7 7.4-13.1 7.4-19.1 0-6.3-2.2-11.6-6.7-15.9-4.5-4.3-10.4-6.5-17.6-6.5-7.6 0-13.8 2.3-18.3 6.9-4.6 4.6-6.9 10.9-7 19l-16.3-1.7c1.1-12.2 5.3-21.4 12.6-27.8 7.3-6.4 17.1-9.6 29.4-9.6 12.4 0 22.2 3.4 29.4 10.3 7.2 6.9 10.8 15.4 10.8 25.6 0 5.2-1.1 10.3-3.2 15.2-2.1 5-5.6 10.3-10.5 15.8s-13.1 13.1-24.5 22.7c-9.5 8-15.6 13.4-18.3 16.3-2.7 2.9-4.9 5.7-6.7 8.6h63.3zM7285.7 5595.4c0-15.3 1.6-27.6 4.7-36.9 3.1-9.3 7.8-16.5 14-21.6 6.2-5.1 14-7.6 23.4-7.6 6.9 0 13 1.4 18.2 4.2s9.5 6.8 13 12.1c3.4 5.3 6.1 11.7 8 19.2 1.9 7.6 2.9 17.7 2.9 30.5 0 15.2-1.6 27.4-4.7 36.7-3.1 9.3-7.8 16.5-14 21.6-6.2 5.1-14 7.6-23.5 7.6-12.5 0-22.2-4.5-29.4-13.4-8.4-10.6-12.6-28.1-12.6-52.4zm16.3 0c0 21.2 2.5 35.3 7.4 42.4s11.1 10.5 18.4 10.5c7.3 0 13.4-3.5 18.4-10.6 5-7.1 7.4-21.2 7.4-42.3 0-21.3-2.5-35.4-7.4-42.4-5-7-11.2-10.5-18.6-10.5-7.3 0-13.1 3.1-17.5 9.3-5.4 7.8-8.1 22.4-8.1 43.6zM7447.4 5659.1h-15.9V5558c-3.8 3.6-8.8 7.3-15 10.9-6.2 3.6-11.8 6.4-16.7 8.2v-15.3c8.9-4.2 16.6-9.2 23.3-15.2s11.3-11.7 14.1-17.3h10.2v129.8zM7489.7 5625.3l16.7-1.4c1.2 8.1 4.1 14.2 8.6 18.3 4.5 4.1 9.9 6.1 16.3 6.1 7.6 0 14.1-2.9 19.4-8.6 5.3-5.8 7.9-13.4 7.9-22.9 0-9-2.5-16.2-7.6-21.4-5.1-5.2-11.7-7.8-20-7.8-5.1 0-9.7 1.2-13.8 3.5-4.1 2.3-7.3 5.3-9.7 9l-14.9-1.9 12.5-66.4h64.3v15.2h-51.6l-7 34.7c7.8-5.4 15.9-8.1 24.4-8.1 11.3 0 20.8 3.9 28.6 11.7 7.8 7.8 11.6 17.9 11.6 30.1 0 11.7-3.4 21.8-10.2 30.3-8.3 10.5-19.6 15.7-33.9 15.7-11.8 0-21.3-3.3-28.8-9.9-7.5-6.6-11.8-15.4-12.8-26.2z"/><g class="st3"><path class="st4" d="M7857.9 5643.9v15.2h-85.4c-.1-3.8.5-7.5 1.9-11 2.2-5.8 5.7-11.5 10.4-17.2s11.7-12.2 20.8-19.6c14-11.5 23.5-20.6 28.5-27.4 4.9-6.7 7.4-13.1 7.4-19.1 0-6.3-2.2-11.6-6.7-15.9-4.5-4.3-10.4-6.5-17.6-6.5-7.6 0-13.8 2.3-18.3 6.9-4.6 4.6-6.9 10.9-7 19l-16.3-1.7c1.1-12.2 5.3-21.4 12.6-27.8 7.3-6.4 17.1-9.6 29.4-9.6 12.4 0 22.2 3.4 29.4 10.3 7.2 6.9 10.8 15.4 10.8 25.6 0 5.2-1.1 10.3-3.2 15.2-2.1 5-5.6 10.3-10.5 15.8s-13.1 13.1-24.5 22.7c-9.5 8-15.6 13.4-18.3 16.3-2.7 2.9-4.9 5.7-6.7 8.6h63.3z"/></g><g class="st3"><path class="st4" d="M7876.5 5595.4c0-15.3 1.6-27.6 4.7-36.9 3.1-9.3 7.8-16.5 14-21.6 6.2-5.1 14-7.6 23.4-7.6 6.9 0 13 1.4 18.2 4.2 5.2 2.8 9.5 6.8 13 12.1 3.4 5.3 6.1 11.7 8 19.2 1.9 7.6 2.9 17.7 2.9 30.5 0 15.2-1.6 27.4-4.7 36.7-3.1 9.3-7.8 16.5-14 21.6-6.2 5.1-14 7.6-23.5 7.6-12.5 0-22.2-4.5-29.4-13.4-8.3-10.6-12.6-28.1-12.6-52.4zm16.4 0c0 21.2 2.5 35.3 7.4 42.4 5 7 11.1 10.5 18.4 10.5 7.3 0 13.4-3.5 18.4-10.6 5-7.1 7.4-21.2 7.4-42.3 0-21.3-2.5-35.4-7.4-42.4-5-7-11.2-10.5-18.6-10.5-7.3 0-13.1 3.1-17.5 9.3-5.4 7.8-8.1 22.4-8.1 43.6z"/></g><g class="st3"><path class="st4" d="M8038.3 5659.1h-15.9V5558c-3.8 3.6-8.8 7.3-15 10.9-6.2 3.6-11.8 6.4-16.7 8.2v-15.3c8.9-4.2 16.6-9.2 23.3-15.2 6.6-5.9 11.3-11.7 14.1-17.3h10.2v129.8z"/></g><g class="st3"><path class="st4" d="M8162.9 5561.5l-15.8 1.2c-1.4-6.2-3.4-10.8-6-13.6-4.3-4.5-9.6-6.8-15.9-6.8-5.1 0-9.5 1.4-13.3 4.2-5 3.6-8.9 9-11.8 16-2.9 7-4.4 17-4.5 29.9 3.8-5.8 8.5-10.1 14-13 5.5-2.8 11.3-4.2 17.4-4.2 10.6 0 19.6 3.9 27 11.7 7.4 7.8 11.2 17.8 11.2 30.2 0 8.1-1.8 15.6-5.2 22.6-3.5 7-8.3 12.3-14.4 16-6.1 3.7-13 5.6-20.8 5.6-13.2 0-24-4.9-32.3-14.6-8.3-9.7-12.5-25.8-12.5-48.1 0-25 4.6-43.1 13.8-54.5 8-9.9 18.9-14.8 32.5-14.8 10.2 0 18.5 2.9 25 8.6 6.4 5.7 10.3 13.6 11.6 23.6zm-64.8 55.7c0 5.5 1.2 10.7 3.5 15.7s5.6 8.8 9.7 11.4c4.2 2.6 8.5 3.9 13.1 3.9 6.7 0 12.5-2.7 17.3-8.1 4.8-5.4 7.2-12.8 7.2-22 0-8.9-2.4-16-7.1-21.1-4.8-5.1-10.8-7.7-18-7.7-7.2 0-13.3 2.6-18.2 7.7-5 5.2-7.5 11.9-7.5 20.2z"/></g><g class="st3"><path class="st5" d="M6615.7 5829.8l.9-17.2-14.6 9.3-3.3-5.9 15.3-7.8-15.3-7.8 3.3-6 14.6 9.4-.9-17.2h6.9l-.9 17.2 14.4-9.4 3.5 6-15.3 7.8 15.3 7.8-3.5 5.9-14.4-9.3.9 17.2h-6.9zM6715.1 5888.1l-25.3-39.7h-20.1v39.7h-12.4v-100h40.2c18.3 0 31.5 11.7 31.5 30.1 0 18-12.4 27.9-26.1 29.1l27 40.8h-14.8zm.9-69.9c0-11.4-8.2-19-20.1-19h-26.2v38.2h26.2c11.9 0 20.1-7.9 20.1-19.2zM6740.3 5851.8c0-21 15-37.9 35.7-37.9 21.9 0 34.8 17.1 34.8 38.8v2.8h-58.5c.9 13.6 10.3 25 25.9 25 8.4 0 16.6-3.3 22.5-9.3l5.4 7.3c-7.3 7.2-17.1 11.2-28.8 11.2-21.5.2-37-15.2-37-37.9zm35.6-28.6c-15.4 0-23.1 13-23.7 24h47.5c-.1-10.7-7.3-24-23.8-24zM6832.1 5873v-47.4h-12v-9.9h12v-19.8h11.4v19.8h14.7v9.9h-14.7v45c0 5.4 2.4 9.3 7.2 9.3 3.3 0 6.1-1.5 7.6-3.1l3.3 8.5c-2.8 2.7-6.9 4.6-13.3 4.6-10.8 0-16.2-6.1-16.2-16.9zM6923.8 5888.1v-10.2c-5.5 6.3-15 12-25.8 12-15.1 0-23.1-7.5-23.1-23.1v-51.1h11.2v47.7c0 12.7 6.4 16.5 16.3 16.5 8.7 0 17.1-5.1 21.3-10.9v-53.2h11.2v72.4h-11.1zM6958.4 5888.1v-72.4h11.2v11.5c5.8-7.5 14.2-13.2 24.1-13.2v11.5c-1.3-.1-2.7-.3-4.3-.3-7 0-16.5 5.7-19.8 11.5v51.3h-11.2zM7002.7 5878.5l5.7-8.1c4.8 5.5 13.9 10.3 23.8 10.3 11.1 0 17.2-5.2 17.2-12.4 0-17.5-44.8-6.8-44.8-33.6 0-11.4 9.6-20.8 26.8-20.8 12.5 0 21.1 4.6 26.8 10.5l-5.2 7.8c-4.3-5.2-12.1-9.2-21.6-9.2-9.9 0-16 5-16 11.4 0 15.8 44.8 5.4 44.8 33.6 0 12.2-9.7 21.9-28.3 21.9-12 0-21.9-3.7-29.2-11.4zM7164.5 5888.1v-8.2c-5.9 6.6-14.2 10-24 10-12.2 0-25.2-8.2-25.2-24 0-16.3 12.9-23.8 25.2-23.8 9.9 0 18.1 3.1 24 9.7v-13c0-9.6-7.8-15.1-18.3-15.1-8.7 0-15.7 3-22.2 10l-5.2-7.8c7.8-8.1 17.1-12 28.9-12 15.4 0 28 6.9 28 24.4v49.8h-11.2zm0-15.3V5859c-4.4-5.8-12-8.8-19.8-8.8-10.6 0-18 6.6-18 15.7 0 9.3 7.4 15.9 18 15.9 7.8 0 15.5-3 19.8-9zM7193.2 5878.5l5.7-8.1c4.8 5.5 13.9 10.3 23.8 10.3 11.1 0 17.2-5.2 17.2-12.4 0-17.5-44.8-6.8-44.8-33.6 0-11.4 9.6-20.8 26.8-20.8 12.4 0 21.2 4.6 26.8 10.5l-5.2 7.8c-4.3-5.2-12.1-9.2-21.6-9.2-9.9 0-16 5-16 11.4 0 15.8 44.8 5.4 44.8 33.6 0 12.2-9.7 21.9-28.3 21.9-12 0-21.9-3.7-29.2-11.4zM7305.5 5851.8c0-21 13.8-37.9 35.8-37.9s35.8 16.9 35.8 37.9-13.8 38.1-35.8 38.1-35.8-17.1-35.8-38.1zm59.9 0c0-14.7-8.5-27.9-24-27.9s-24 13.2-24 27.9c0 14.8 8.6 28 24 28s24-13.1 24-28zM7399.6 5888.1v-62.5h-12v-9.9h12v-5.5c0-14.8 8.2-23.5 21-23.5 5.8 0 10.8 1.3 15.3 5.5l-4.7 7.2c-2.4-2.1-5.2-3.4-8.8-3.4-7.5 0-11.5 4.9-11.5 14.2v5.5h14.7v9.9h-14.7v62.5h-11.3zM7495.1 5888.1v-83.7l-16 17.1-7.5-7.6 25-25.8h10.9v100h-12.4zM7528.3 5888.1v-10c36-28.2 55.6-44.8 55.6-62.1 0-12.9-10.7-18.3-21-18.3-12 0-21.3 5.1-27.1 12.6l-7.7-8c7.7-10.2 20.7-15.7 34.8-15.7 16.7 0 33.6 9.4 33.6 29.4 0 20.4-20.7 39-48.6 61h49v11.1h-68.6zM7609.3 5891.1l35.5-106h8.8l-35.5 106h-8.8zM7658.9 5873.4l7.3-7.8c5.8 7.8 16.1 13.2 27.9 13.2 14.5 0 23.4-7.3 23.4-18.7 0-12.4-10.2-17.7-24.9-17.7-4.2 0-8.8 0-10.3.2v-11.4c1.6.2 6.3.2 10.3.2 12.6 0 23.2-5 23.2-16.5 0-11.1-10.2-17.1-22.3-17.1-10.9 0-19 4.2-26.4 12.1l-6.9-7.8c7.2-8.8 18.7-15.4 34.3-15.4 19.2 0 33.7 9.8 33.7 26.5 0 14.5-12.1 21.7-21.4 23.2 9 .9 23.1 8.5 23.1 24.7 0 16.6-13.5 28.8-35.5 28.8-16.9 0-29.3-7.5-35.5-16.5zM7765.7 5888.1v-83.7l-16.1 17.1-7.5-7.6 25.1-25.8h10.9v100h-12.4zM7790.8 5891.1l35.5-106h8.8l-35.5 106h-8.8zM7844.2 5888.1v-10c36-28.2 55.6-44.8 55.6-62.1 0-12.9-10.6-18.3-21-18.3-12 0-21.3 5.1-27.1 12.6l-7.7-8c7.7-10.2 20.7-15.7 34.8-15.7 16.6 0 33.6 9.4 33.6 29.4 0 20.4-20.7 39-48.6 61h49v11.1h-68.6zM7932.8 5838.2c0-24.4 10.8-51.6 38.2-51.6 27.3 0 38.2 27.1 38.2 51.6 0 24.3-10.9 51.7-38.2 51.7-27.4 0-38.2-27.4-38.2-51.7zm63.8 0c0-19.9-6.4-40.5-25.5-40.5s-25.5 20.5-25.5 40.5 6.4 40.6 25.5 40.6c19 0 25.5-20.7 25.5-40.6zM8044.6 5888.1v-83.7l-16 17.1-7.5-7.6 25-25.8h10.9v100h-12.4zM8077.3 5838.2c0-27 12.6-51.6 40.8-51.6 12.8 0 21.4 4.8 27.6 12l-6.3 9.3c-5.1-6-10.9-10.2-21.3-10.2-19.5 0-28.2 19.6-28.2 39.3v3.9c4.3-6.9 15.4-15.6 28.3-15.6 18 0 32.7 10.6 32.7 31.9 0 17.2-13.2 32.7-34.9 32.7-28.1 0-38.7-24.4-38.7-51.7zm61 19.5c0-14.7-10.2-21.6-22.9-21.6-10.1 0-19.7 6.1-25 14.8 1 12.4 7.6 27.9 25 27.9 15.4 0 22.9-11.7 22.9-21.1z"/></g></g><g id="Layer_3"><g class="st3"><path class="st6" d="M6162.4 499.9l16.5-22.8c11.2 12.2 29.5 23.2 52.8 23.2 24 0 33.2-11.8 33.2-23 0-35-97-13.2-97-74.5 0-27.8 24-49 60.8-49 25.8 0 47 8.5 62.2 23.5l-16.5 21.8c-13.2-13.2-31-19.2-48.5-19.2-17 0-28 8.5-28 20.8 0 31.2 97 12 97 74 0 27.8-19.8 51.8-64.5 51.8-30.8-.1-53-11.1-68-26.6zM6428.4 523.4c-4-3.8-9.2-8.8-14.8-14.5-12.5 10.5-27.8 17.5-46.8 17.5-29.5 0-53.5-16-53.5-47.5 0-25.8 17-39 36.2-48.8-7-12.5-11.8-25.2-11.8-36.8 0-22.2 19.2-39.2 45.2-39.2 22.5 0 41 12.2 41 34 0 25.2-20.8 36.2-41.5 46.2 5.8 8 11.8 15.2 16.5 20.8 5.5 6.8 11 13.2 16.5 19.2 8-12 13.5-25.2 16.5-35l21.2 9.8c-5.8 13.5-13.2 28.2-23 41.5 10 10.5 20.5 21.2 32.5 32.8h-34.2zm-29.3-29.8c-8.5-9-16.2-17.8-20.5-23.2-6.2-7.2-12.8-15.5-18.5-23.8-11 7.2-19 16-19 30 0 18.2 13.8 28.8 29.2 28.8 10.8 0 20.3-4.8 28.8-11.8zm-26.7-74.5c15.8-7.5 28.5-15.5 28.5-29.5 0-10.2-7.2-16.2-16.8-16.2-11 0-20 8.5-20 20.8 0 7.4 3.3 16.2 8.3 24.9zM6486.9 523.4V356.6h73.5c35 0 54.2 23.8 54.2 52.2 0 28.2-19.5 52-54.2 52h-44.2v62.5h-29.3zm97.7-114.5c0-16-11.8-26.5-28.2-26.5h-40.2v52.8h40.2c16.5-.1 28.2-10.6 28.2-26.3zM6704.1 500.6l16.8-20.2c11 13 26.2 20 44.8 20 21.2 0 34.2-13 34.2-29.5 0-17.8-13-29.5-33.5-29.5-14 0-25.8 4.2-36.5 14.2l-20.8-6v-93h109.2v25.8h-80v48c8.2-7.8 21.8-14.2 37.8-14.2 28.2 0 53.5 19.5 53.5 53.8 0 34.5-26.5 56.5-63.8 56.5-28.4-.1-48.2-10.1-61.7-25.9zM6852.4 440.1c0-42 19.8-86 66.8-86 46.8 0 66.5 44 66.5 86 0 41.8-19.8 86.2-66.5 86.2-47.1.1-66.8-44.4-66.8-86.2zm103.5 0c0-32-9.5-60-36.8-60s-37 28-37 60c0 31.8 9.8 60.2 37 60.2 27 .1 36.8-28.4 36.8-60.2zM7008.6 440.1c0-42 19.8-86 66.8-86 46.8 0 66.5 44 66.5 86 0 41.8-19.8 86.2-66.5 86.2-47 .1-66.8-44.4-66.8-86.2zm103.5 0c0-32-9.5-60-36.8-60s-37 28-37 60c0 31.8 9.8 60.2 37 60.2 27.1.1 36.8-28.4 36.8-60.2z"/></g><g class="st3"><path class="st7" d="M5813 188.4V21.6h29.2v166.8H5813zM5960.7 188.4v-75.5c0-19-9.8-25-24.5-25-13.2 0-24.8 8-31 16v84.5H5879V67.6h26.2v16.2c8-9.5 23.8-19.2 42.8-19.2 26 0 39 14 39 38.8v85h-26.3zM6012.7 172.4l12-18.8c8.5 8.8 25.2 16.8 40.8 16.8 15.8 0 24-6.5 24-16 0-23.8-73-6.8-73-53.2 0-19.8 17-36.5 47.5-36.5 20.5 0 36 7.2 46.8 16.8l-11 18.5c-7.2-8-20.5-14.5-35.8-14.5-13.8 0-22.2 6.5-22.2 15 0 21.2 73 5.2 73 53.2 0 21.5-17.8 37.8-50.2 37.8-20.9-.1-39.4-6.9-51.9-19.1zM6140 36.6c0-9 7.2-16.2 16.2-16.2s16.2 7.2 16.2 16.2-7.2 16.2-16.2 16.2-16.2-7.2-16.2-16.2zm3 151.8V67.6h26.2v120.8H6143zM6290.2 188.4v-16.5c-9.2 12-23 19.5-38.8 19.5-30.8 0-53.5-23.5-53.5-63.5 0-39 22.5-63.2 53.5-63.2 15.2 0 29.2 6.8 38.8 19.8V21.6h26.2v166.8h-26.2zm0-36.5v-47.8c-5.8-9-18.8-16.2-31-16.2-21 0-34.2 16.8-34.2 40 0 23.5 13.2 40.2 34.2 40.2 12.3 0 25.3-7.2 31-16.2zM6345.2 127.9c0-35 25.5-63.2 61.2-63.2 36.2 0 59.2 27.5 59.2 65.5v6.5h-93c2 18 15.5 33.2 38.2 33.2 12 0 25.8-4.8 34.5-13.5l12 17.2c-12.2 11.5-30 17.8-49 17.8-36.3 0-63.1-25.3-63.1-63.5zm61-41.8c-22.2 0-32.8 17.2-33.8 31.8h68c-.7-14.3-10.4-31.8-34.2-31.8zM6609.2 188.4l-65.5-166.8h33.2l50.5 134.8L6678 21.6h33.2l-65.5 166.8h-36.5zM6788.2 188.4v-13.2c-9 10.5-23.2 16.2-39.2 16.2-19.5 0-41.8-13.5-41.8-40 0-28 22-39.5 41.8-39.5 16.5 0 30.2 5.2 39.2 15.5v-18c0-14-11.8-22.5-28.2-22.5-13.5 0-25.5 5-35.8 15.5l-11-18.2c14-13.5 31.5-19.5 50.8-19.5 27 0 50.5 11.2 50.5 43.5v80.2h-26.3zm0-27.5v-18.5c-6.2-8.2-17.5-12.5-28.8-12.5-14.8 0-26 8.8-26 21.8 0 13.2 11.2 21.8 26 21.8 11.3-.1 22.6-4.4 28.8-12.6zM6850.5 188.4V21.6h26.2v166.8h-26.2zM6994.2 188.4v-16c-8.5 9.5-23.5 19-42.5 19-26 0-39-13.8-39-38.2V67.6h26.2v75.8c0 18.8 9.5 24.8 24.5 24.8 13.2 0 24.8-7.8 30.8-15.8V67.6h26.2v120.8h-26.2zM7049.2 127.9c0-35 25.5-63.2 61.2-63.2 36.2 0 59.2 27.5 59.2 65.5v6.5h-93c2 18 15.5 33.2 38.2 33.2 12 0 25.8-4.8 34.5-13.5l12 17.2c-12.2 11.5-30 17.8-49 17.8-36.3 0-63.1-25.3-63.1-63.5zm61-41.8c-22.2 0-32.8 17.2-33.8 31.8h68c-.7-14.3-10.4-31.8-34.2-31.8z"/></g><path class="st8" d="M7403.4 119.3h792"/><path class="st9" d="M7403.4 454.3h792"/></g></svg>