<svg id="Layer_1" xmlns="http://www.w3.org/2000/svg" viewBox="0 0 9344 6132.1"><style>.st0{enable-background:new}.st1{fill:#231f20}.st2,.st3,.st4,.st5,.st6{fill:none;stroke:#231f20;stroke-width:36.2522;stroke-miterlimit:10}.st3,.st4,.st5,.st6{stroke-width:6.042}.st4,.st5,.st6{stroke-width:11.7194}.st5,.st6{stroke:#aaa;stroke-width:58.5972}.st6{stroke:#f16f25;stroke-width:60.6461}.st7{fill:#aaa}.st8{fill:#f16f25}.st10,.st9{fill:none;stroke:#f16f25;stroke-width:30;stroke-miterlimit:10}.st10{stroke:#aaa}.st11{fill:#666}</style><g id="RB"><g class="st0"><path class="st1" d="M340.3 908.7c-23.5-1.4-41.4-11.2-53-24.4l11.6-14.9c8.8 10.5 23 19.8 41.4 21.9v-56.5c-23.7-6.5-48.2-14.4-48.2-43 0-24 20.2-40.9 48.2-43v-21.2h14.2V749c19.3 1.6 34.7 9.5 46.1 21.4l-11.6 14c-9.3-10.2-21.4-16.1-34.4-17.9v50.7c24 6.7 49.6 15.6 49.6 46.1 0 20.9-13.5 42.8-49.6 45.4v20.7h-14.2v-20.7zm0-95.2V766c-16.5 1.2-28.2 10.9-28.2 24.4.1 12.9 12.4 18.5 28.2 23.1zm14.2 24.9v53c22.1-2.3 29.5-15.6 29.5-26.8.1-15-13.2-21.3-29.5-26.2zM496.5 906.1v-39.3h-73.8v-16.1l66.5-99.8h26.5v98.9h21.9v17h-21.9v39.3h-19.2zm0-137.3l-54.4 81h54.4v-81zM560.4 884l11.9-13c10.2 13.3 24 20.7 42.8 20.7 21.2 0 35.8-14.4 35.8-33.3 0-20.5-14.7-33.5-35.6-33.5-13.5 0-25.4 4.4-35.8 14.4l-14.2-4.9v-83.5h94.9v17.2h-75.6v54c7.7-7.4 20.7-14 36.3-14 26.1 0 49.6 17.4 49.6 49.6 0 31.4-24.2 51.2-55.4 51.2-26.1 0-43-9.5-54.7-24.9zM704.4 935.7l-8.8-7.2c7.4-4.9 14.2-14 15.1-21.6-.5.2-2.1.5-3.3.5-6.3 0-11.2-5.1-11.2-11.9s5.4-12.6 12.3-12.6c7.9 0 14.7 6.5 14.7 17.7.1 14.1-8.1 27.4-18.8 35.1zM740.5 828.6c0-37.9 16.8-80 59.3-80 42.3 0 59.3 42.1 59.3 80 0 37.7-17 80.3-59.3 80.3-42.5 0-59.3-42.6-59.3-80.3zm98.9 0c0-30.9-10-62.8-39.6-62.8-29.5 0-39.6 31.9-39.6 62.8s10 63 39.6 63c29.6.1 39.6-32 39.6-63zM882.9 828.6c0-37.9 16.8-80 59.3-80 42.3 0 59.3 42.1 59.3 80 0 37.7-17 80.3-59.3 80.3-42.6 0-59.3-42.6-59.3-80.3zm98.9 0c0-30.9-10-62.8-39.6-62.8s-39.6 31.9-39.6 62.8 10 63 39.6 63 39.6-32 39.6-63zM1025.3 828.6c0-37.9 16.8-80 59.3-80 42.3 0 59.3 42.1 59.3 80 0 37.7-17 80.3-59.3 80.3-42.6 0-59.3-42.6-59.3-80.3zm98.8 0c0-30.9-10-62.8-39.6-62.8-29.5 0-39.6 31.9-39.6 62.8s10 63 39.6 63c29.6.1 39.6-32 39.6-63z"/></g><g class="st0"><path class="st1" d="M335.2 1477.1c-23.5-1.4-41.4-11.2-53-24.4l11.6-14.9c8.8 10.5 23 19.8 41.4 21.9v-56.5c-23.7-6.5-48.2-14.4-48.2-43 0-24 20.2-40.9 48.2-43V1296h14.2v21.4c19.3 1.6 34.7 9.5 46.1 21.4l-11.6 14.2c-9.3-10.2-21.4-16.1-34.4-17.9v50.7c24 6.7 49.6 15.6 49.6 46.1 0 20.9-13.5 42.8-49.6 45.4v20.7h-14.2v-20.9zm0-95.2v-47.5c-16.5 1.2-28.2 10.9-28.2 24.4.1 12.9 12.4 18.5 28.2 23.1zm14.2 24.9v53c22.1-2.3 29.5-15.6 29.5-26.8.1-15-13.2-21.3-29.5-26.2zM491.4 1474.5v-39.3h-73.8v-16.1l66.5-99.8h26.5v98.9h21.9v17h-21.9v39.3h-19.2zm0-137.3l-54.4 81h54.4v-81zM551.8 1397c0-37.9 16.8-80 59.3-80 42.3 0 59.3 42.1 59.3 80 0 37.7-17 80.3-59.3 80.3-42.5 0-59.3-42.6-59.3-80.3zm98.9 0c0-30.9-10-62.8-39.6-62.8-29.5 0-39.6 31.9-39.6 62.8s10 63 39.6 63c29.6.1 39.6-32 39.6-63zM697.2 1504.1l-8.8-7.2c7.4-4.9 14.2-14 15.1-21.6-.5.2-2.1.5-3.3.5-6.3 0-11.2-5.1-11.2-11.9s5.4-12.6 12.3-12.6c7.9 0 14.7 6.5 14.7 17.7.1 14.1-8 27.4-18.8 35.1zM733.3 1397c0-37.9 16.8-80 59.3-80 42.3 0 59.3 42.1 59.3 80 0 37.7-17 80.3-59.3 80.3-42.5 0-59.3-42.6-59.3-80.3zm98.9 0c0-30.9-10-62.8-39.6-62.8-29.5 0-39.6 31.9-39.6 62.8s10 63 39.6 63c29.6.1 39.6-32 39.6-63zM875.7 1397c0-37.9 16.8-80 59.3-80 42.3 0 59.3 42.1 59.3 80 0 37.7-17 80.3-59.3 80.3-42.6 0-59.3-42.6-59.3-80.3zm98.9 0c0-30.9-10-62.8-39.6-62.8s-39.6 31.9-39.6 62.8 10 63 39.6 63 39.6-32 39.6-63zM1018.1 1397c0-37.9 16.8-80 59.3-80 42.3 0 59.3 42.1 59.3 80 0 37.7-17 80.3-59.3 80.3-42.6 0-59.3-42.6-59.3-80.3zm98.9 0c0-30.9-10-62.8-39.6-62.8-29.5 0-39.6 31.9-39.6 62.8s10 63 39.6 63c29.5.1 39.6-32 39.6-63z"/></g><g class="st0"><path class="st1" d="M340.5 2045.5c-23.5-1.4-41.4-11.2-53-24.4l11.6-14.9c8.8 10.5 23 19.8 41.4 21.9v-56.5c-23.7-6.5-48.2-14.4-48.2-43 0-24 20.2-40.9 48.2-43v-21.2h14.2v21.4c19.3 1.6 34.7 9.5 46.1 21.4l-11.6 14.2c-9.3-10.2-21.4-16.1-34.4-17.9v50.7c24 6.7 49.6 15.6 49.6 46.1 0 20.9-13.5 42.8-49.6 45.4v20.7h-14.2v-20.9zm0-95.2v-47.5c-16.5 1.2-28.2 10.9-28.2 24.4.1 12.9 12.4 18.5 28.2 23.1zm14.2 24.9v53c22.1-2.3 29.5-15.6 29.5-26.8.1-15-13.2-21.3-29.5-26.2zM422.2 2020.1l11.4-12.1c9.1 12.1 24.9 20.5 43.3 20.5 22.6 0 36.3-11.4 36.3-29.1 0-19.3-15.8-27.5-38.6-27.5-6.5 0-13.7 0-16.1.2v-17.7c2.6.2 9.8.2 16.1.2 19.5 0 36.1-7.7 36.1-25.6 0-17.2-15.8-26.5-34.7-26.5-17 0-29.5 6.5-40.9 18.8l-10.7-12.1c11.2-13.7 29.1-24 53.3-24 29.8 0 52.3 15.1 52.3 41.2 0 22.6-18.8 33.7-33.3 36.1 14 1.4 35.8 13.3 35.8 38.4 0 25.8-20.9 44.7-55.1 44.7-26.3.1-45.7-11.5-55.2-25.5zM560.4 2020.8l11.9-13c10.2 13.3 24 20.7 42.8 20.7 21.2 0 35.8-14.4 35.8-33.3 0-20.5-14.7-33.5-35.6-33.5-13.5 0-25.4 4.4-35.8 14.4l-14.2-4.9v-83.5h94.9v17.2h-75.6v54c7.7-7.4 20.7-14 36.3-14 26.1 0 49.6 17.4 49.6 49.6 0 31.4-24.2 51.2-55.4 51.2-26.1 0-43.1-9.5-54.7-24.9zM704.4 2072.5l-8.8-7.2c7.4-4.9 14.2-14 15.1-21.6-.5.2-2.1.5-3.3.5-6.3 0-11.2-5.1-11.2-11.9s5.4-12.6 12.3-12.6c7.9 0 14.7 6.5 14.7 17.7 0 14.1-8.1 27.4-18.8 35.1zM740.5 1965.4c0-37.9 16.8-80 59.3-80 42.3 0 59.3 42.1 59.3 80 0 37.7-17 80.3-59.3 80.3-42.6 0-59.3-42.6-59.3-80.3zm98.8 0c0-30.9-10-62.8-39.6-62.8s-39.6 31.9-39.6 62.8 10 63 39.6 63 39.6-32 39.6-63zM882.8 1965.4c0-37.9 16.8-80 59.3-80 42.3 0 59.3 42.1 59.3 80 0 37.7-17 80.3-59.3 80.3-42.5 0-59.3-42.6-59.3-80.3zm98.9 0c0-30.9-10-62.8-39.6-62.8s-39.6 31.9-39.6 62.8 10 63 39.6 63 39.6-32 39.6-63zM1025.2 1965.4c0-37.9 16.8-80 59.3-80 42.3 0 59.3 42.1 59.3 80 0 37.7-17 80.3-59.3 80.3-42.5 0-59.3-42.6-59.3-80.3zm98.9 0c0-30.9-10-62.8-39.6-62.8-29.5 0-39.6 31.9-39.6 62.8s10 63 39.6 63c29.6.1 39.6-32 39.6-63z"/></g><g class="st0"><path class="st1" d="M335.4 2613.9c-23.5-1.4-41.4-11.2-53-24.4l11.6-14.9c8.8 10.5 23 19.8 41.4 21.9V2540c-23.7-6.5-48.2-14.4-48.2-43 0-24 20.2-40.9 48.2-43v-21.2h14.2v21.4c19.3 1.6 34.7 9.5 46.1 21.4l-11.6 14.2c-9.3-10.2-21.4-16.1-34.4-17.9v50.7c24 6.7 49.6 15.6 49.6 46.1 0 20.9-13.5 42.8-49.6 45.4v20.7h-14.2v-20.9zm0-95.2v-47.5c-16.5 1.2-28.2 10.9-28.2 24.4.1 12.9 12.4 18.5 28.2 23.1zm14.2 24.9v53c22.1-2.3 29.5-15.6 29.5-26.8.1-15-13.2-21.3-29.5-26.2zM417.1 2588.5l11.4-12.1c9.1 12.1 24.9 20.5 43.3 20.5 22.6 0 36.3-11.4 36.3-29.1 0-19.3-15.8-27.5-38.6-27.5-6.5 0-13.7 0-16.1.2v-17.7c2.6.2 9.8.2 16.1.2 19.5 0 36.1-7.7 36.1-25.6 0-17.2-15.8-26.5-34.7-26.5-17 0-29.5 6.5-40.9 18.8l-10.7-12.1c11.2-13.7 29.1-24 53.3-24 29.8 0 52.3 15.1 52.3 41.2 0 22.6-18.8 33.7-33.3 36.1 14 1.4 35.8 13.3 35.8 38.4 0 25.8-20.9 44.7-55.1 44.7-26.3.1-45.7-11.5-55.2-25.5zM551.8 2533.8c0-37.9 16.8-80 59.3-80 42.3 0 59.3 42.1 59.3 80 0 37.7-17 80.3-59.3 80.3-42.5 0-59.3-42.6-59.3-80.3zm98.9 0c0-30.9-10-62.8-39.6-62.8s-39.6 31.9-39.6 62.8 10 63 39.6 63 39.6-32 39.6-63zM697.2 2640.9l-8.8-7.2c7.4-4.9 14.2-14 15.1-21.6-.5.2-2.1.5-3.3.5-6.3 0-11.2-5.1-11.2-11.9s5.4-12.6 12.3-12.6c7.9 0 14.7 6.5 14.7 17.7.1 14.1-8.1 27.4-18.8 35.1zM733.3 2533.8c0-37.9 16.8-80 59.3-80 42.3 0 59.3 42.1 59.3 80 0 37.7-17 80.3-59.3 80.3-42.6 0-59.3-42.6-59.3-80.3zm98.9 0c0-30.9-10-62.8-39.6-62.8-29.5 0-39.5 31.9-39.5 62.8s10 63 39.5 63c29.5.1 39.6-32 39.6-63zM875.7 2533.8c0-37.9 16.8-80 59.3-80 42.3 0 59.3 42.1 59.3 80 0 37.7-17 80.3-59.3 80.3-42.6 0-59.3-42.6-59.3-80.3zm98.8 0c0-30.9-10-62.8-39.6-62.8s-39.6 31.9-39.6 62.8 10 63 39.6 63 39.6-32 39.6-63zM1018 2533.8c0-37.9 16.8-80 59.3-80 42.3 0 59.3 42.1 59.3 80 0 37.7-17 80.3-59.3 80.3-42.5 0-59.3-42.6-59.3-80.3zm98.9 0c0-30.9-10-62.8-39.6-62.8-29.5 0-39.6 31.9-39.6 62.8s10 63 39.6 63c29.6.1 39.6-32 39.6-63z"/></g><g class="st0"><path class="st1" d="M333.3 3182.3c-23.5-1.4-41.4-11.2-53-24.4l11.6-14.9c8.8 10.5 23 19.8 41.4 21.9v-56.5c-23.7-6.5-48.2-14.4-48.2-43 0-24 20.2-40.9 48.2-43V3001h14.2v21.4c19.3 1.6 34.7 9.5 46.1 21.4L382 3058c-9.3-10.2-21.4-16.1-34.4-17.9v50.7c24 6.7 49.6 15.6 49.6 46.1 0 20.9-13.5 42.8-49.6 45.4v20.7h-14.2v-20.7zm0-95.2v-47.5c-16.5 1.2-28.2 10.9-28.2 24.4.1 12.9 12.4 18.5 28.2 23.1zm14.2 24.9v53c22.1-2.3 29.5-15.6 29.5-26.8.1-15-13.2-21.3-29.5-26.2zM420.8 3179.7v-15.6c55.8-43.7 86.3-69.6 86.3-96.3 0-20-16.5-28.4-32.6-28.4-18.6 0-33 7.9-42.1 19.5l-11.9-12.3c11.9-15.8 32.1-24.4 54-24.4 25.8 0 52.1 14.7 52.1 45.6 0 31.6-32.1 60.5-75.4 94.7h76.1v17.2H420.8zM560.4 3157.6l11.9-13c10.2 13.3 24 20.7 42.8 20.7 21.2 0 35.8-14.4 35.8-33.3 0-20.5-14.7-33.5-35.6-33.5-13.5 0-25.4 4.4-35.8 14.4l-14.2-4.9v-83.5h94.9v17.2h-75.6v54c7.7-7.4 20.7-14 36.3-14 26.1 0 49.6 17.4 49.6 49.6 0 31.4-24.2 51.2-55.4 51.2-26.1 0-43.1-9.5-54.7-24.9zM704.4 3209.3l-8.8-7.2c7.4-4.9 14.2-14 15.1-21.6-.5.2-2.1.5-3.3.5-6.3 0-11.2-5.1-11.2-11.9 0-6.7 5.4-12.6 12.3-12.6 7.9 0 14.7 6.5 14.7 17.7.1 14.1-8.1 27.4-18.8 35.1zM740.5 3102.2c0-37.9 16.8-80 59.3-80 42.3 0 59.3 42.1 59.3 80 0 37.7-17 80.3-59.3 80.3-42.6 0-59.3-42.6-59.3-80.3zm98.9 0c0-30.9-10-62.8-39.6-62.8-29.5 0-39.6 31.9-39.6 62.8s10 63 39.6 63c29.6.1 39.6-32 39.6-63zM882.9 3102.2c0-37.9 16.8-80 59.3-80 42.3 0 59.3 42.1 59.3 80 0 37.7-17 80.3-59.3 80.3-42.6 0-59.3-42.6-59.3-80.3zm98.8 0c0-30.9-10-62.8-39.6-62.8-29.5 0-39.6 31.9-39.6 62.8s10 63 39.6 63c29.6.1 39.6-32 39.6-63zM1025.2 3102.2c0-37.9 16.8-80 59.3-80 42.3 0 59.3 42.1 59.3 80 0 37.7-17 80.3-59.3 80.3-42.5 0-59.3-42.6-59.3-80.3zm98.9 0c0-30.9-10-62.8-39.6-62.8-29.5 0-39.6 31.9-39.6 62.8s10 63 39.6 63c29.6.1 39.6-32 39.6-63z"/></g><g class="st0"><path class="st1" d="M328.2 3750.7c-23.5-1.4-41.4-11.2-53-24.4l11.6-14.9c8.8 10.5 23 19.8 41.4 21.9v-56.5c-23.7-6.5-48.2-14.4-48.2-43 0-24 20.2-40.9 48.2-43v-21.2h14.2v21.4c19.3 1.6 34.7 9.5 46.1 21.4l-11.6 14.2c-9.3-10.2-21.4-16.1-34.4-17.9v50.7c24 6.7 49.6 15.6 49.6 46.1 0 20.9-13.5 42.8-49.6 45.4v20.7h-14.2v-20.9zm0-95.2V3608c-16.5 1.2-28.2 10.9-28.2 24.4.1 12.9 12.4 18.5 28.2 23.1zm14.2 24.9v53c22.1-2.3 29.5-15.6 29.5-26.8.1-15-13.2-21.3-29.5-26.2zM415.7 3748.1v-15.6c55.8-43.7 86.3-69.6 86.3-96.3 0-20-16.5-28.4-32.6-28.4-18.6 0-33 7.9-42.1 19.5l-11.9-12.3c11.9-15.8 32.1-24.4 54-24.4 25.8 0 52.1 14.7 52.1 45.6 0 31.6-32.1 60.5-75.4 94.7h76.1v17.2H415.7zM551.8 3670.6c0-37.9 16.8-80 59.3-80 42.3 0 59.3 42.1 59.3 80 0 37.7-17 80.3-59.3 80.3-42.5 0-59.3-42.6-59.3-80.3zm98.9 0c0-30.9-10-62.8-39.6-62.8-29.5 0-39.6 31.9-39.6 62.8s10 63 39.6 63c29.6.1 39.6-32 39.6-63zM697.2 3777.7l-8.8-7.2c7.4-4.9 14.2-14 15.1-21.6-.5.2-2.1.5-3.3.5-6.3 0-11.2-5.1-11.2-11.9s5.4-12.6 12.3-12.6c7.9 0 14.7 6.5 14.7 17.7.1 14.1-8.1 27.4-18.8 35.1zM733.3 3670.6c0-37.9 16.8-80 59.3-80 42.3 0 59.3 42.1 59.3 80 0 37.7-17 80.3-59.3 80.3-42.6 0-59.3-42.6-59.3-80.3zm98.9 0c0-30.9-10-62.8-39.6-62.8-29.5 0-39.6 31.9-39.6 62.8s10 63 39.6 63c29.6.1 39.6-32 39.6-63zM875.7 3670.6c0-37.9 16.8-80 59.3-80 42.3 0 59.3 42.1 59.3 80 0 37.7-17 80.3-59.3 80.3-42.6 0-59.3-42.6-59.3-80.3zm98.8 0c0-30.9-10-62.8-39.6-62.8-29.5 0-39.6 31.9-39.6 62.8s10 63 39.6 63c29.6.1 39.6-32 39.6-63zM1018.1 3670.6c0-37.9 16.8-80 59.3-80 42.3 0 59.3 42.1 59.3 80 0 37.7-17 80.3-59.3 80.3-42.6 0-59.3-42.6-59.3-80.3zm98.8 0c0-30.9-10-62.8-39.6-62.8-29.5 0-39.6 31.9-39.6 62.8s10 63 39.6 63c29.6.1 39.6-32 39.6-63z"/></g><g class="st0"><path class="st1" d="M333.3 4319.1c-23.5-1.4-41.4-11.2-53-24.4l11.6-14.9c8.8 10.5 23 19.8 41.4 21.9v-56.5c-23.7-6.5-48.2-14.4-48.2-43 0-24 20.2-40.9 48.2-43V4138h14.2v21.4c19.3 1.6 34.7 9.5 46.1 21.4L382 4195c-9.3-10.2-21.4-16.1-34.4-17.9v50.7c24 6.7 49.6 15.6 49.6 46.1 0 20.9-13.5 42.8-49.6 45.4v20.7h-14.2v-20.9zm0-95.2v-47.5c-16.5 1.2-28.2 10.9-28.2 24.4.1 12.9 12.4 18.5 28.2 23.1zm14.2 24.9v53c22.1-2.3 29.5-15.6 29.5-26.8.1-15-13.2-21.3-29.5-26.2zM420.8 4316.5v-15.6c55.8-43.7 86.3-69.6 86.3-96.3 0-20-16.5-28.4-32.6-28.4-18.6 0-33 7.9-42.1 19.5l-11.9-12.3c11.9-15.8 32.1-24.4 54-24.4 25.8 0 52.1 14.7 52.1 45.6 0 31.6-32.1 60.5-75.4 94.7h76.1v17.2H420.8zM560.4 4294.4l11.9-13c10.2 13.3 24 20.7 42.8 20.7 21.2 0 35.8-14.4 35.8-33.3 0-20.5-14.7-33.5-35.6-33.5-13.5 0-25.4 4.4-35.8 14.4l-14.2-4.9v-83.5h94.9v17.2h-75.6v54c7.7-7.4 20.7-14 36.3-14 26.1 0 49.6 17.4 49.6 49.6 0 31.4-24.2 51.2-55.4 51.2-26.1 0-43.1-9.5-54.7-24.9zM704.4 4346.1l-8.8-7.2c7.4-4.9 14.2-14 15.1-21.6-.5.2-2.1.5-3.3.5-6.3 0-11.2-5.1-11.2-11.9 0-6.7 5.4-12.6 12.3-12.6 7.9 0 14.7 6.5 14.7 17.7.1 14.1-8.1 27.4-18.8 35.1zM740.5 4239c0-37.9 16.8-80 59.3-80 42.3 0 59.3 42.1 59.3 80 0 37.7-17 80.3-59.3 80.3-42.6 0-59.3-42.6-59.3-80.3zm98.9 0c0-30.9-10-62.8-39.6-62.8-29.5 0-39.6 31.9-39.6 62.8s10 63 39.6 63c29.6.1 39.6-32 39.6-63zM882.9 4239c0-37.9 16.8-80 59.3-80 42.3 0 59.3 42.1 59.3 80 0 37.7-17 80.3-59.3 80.3-42.6 0-59.3-42.6-59.3-80.3zm98.8 0c0-30.9-10-62.8-39.6-62.8-29.5 0-39.6 31.9-39.6 62.8s10 63 39.6 63c29.6.1 39.6-32 39.6-63zM1025.2 4239c0-37.9 16.8-80 59.3-80 42.3 0 59.3 42.1 59.3 80 0 37.7-17 80.3-59.3 80.3-42.5 0-59.3-42.6-59.3-80.3zm98.9 0c0-30.9-10-62.8-39.6-62.8-29.5 0-39.6 31.9-39.6 62.8s10 63 39.6 63c29.6.1 39.6-32 39.6-63z"/></g><g class="st0"><path class="st1" d="M386.1 4887.5c-23.5-1.4-41.4-11.2-53-24.4l11.6-14.9c8.8 10.5 23 19.8 41.4 21.9v-56.5c-23.7-6.5-48.2-14.4-48.2-43 0-24 20.2-40.9 48.2-43v-21.2h14.2v21.4c19.3 1.6 34.7 9.5 46.1 21.4l-11.6 14.2c-9.3-10.2-21.4-16.1-34.4-17.9v50.7c24 6.7 49.6 15.6 49.6 46.1 0 20.9-13.5 42.8-49.6 45.4v20.7h-14.2v-20.9zm0-95.2v-47.5c-16.5 1.2-28.2 10.9-28.2 24.4.1 12.9 12.4 18.5 28.2 23.1zm14.2 24.9v53c22.1-2.3 29.5-15.6 29.5-26.8.1-15-13.2-21.3-29.5-26.2zM502.5 4884.9v-129.8l-24.9 26.5-11.6-11.9 38.9-40h17v155.2h-19.4zM551.8 4807.4c0-37.9 16.8-80 59.3-80 42.3 0 59.3 42.1 59.3 80 0 37.7-17 80.3-59.3 80.3-42.6 0-59.3-42.6-59.3-80.3zm98.9 0c0-30.9-10-62.8-39.6-62.8-29.5 0-39.6 31.9-39.6 62.8s10 63 39.6 63c29.6.1 39.6-32 39.6-63zM697.2 4914.5l-8.8-7.2c7.4-4.9 14.2-14 15.1-21.6-.5.2-2.1.5-3.3.5-6.3 0-11.2-5.1-11.2-11.9s5.4-12.6 12.3-12.6c7.9 0 14.7 6.5 14.7 17.7 0 14.1-8.1 27.4-18.8 35.1zM733.3 4807.4c0-37.9 16.8-80 59.3-80 42.3 0 59.3 42.1 59.3 80 0 37.7-17 80.3-59.3 80.3-42.6 0-59.3-42.6-59.3-80.3zm98.8 0c0-30.9-10-62.8-39.6-62.8-29.5 0-39.6 31.9-39.6 62.8s10 63 39.6 63c29.6.1 39.6-32 39.6-63zM875.6 4807.4c0-37.9 16.8-80 59.3-80 42.3 0 59.3 42.1 59.3 80 0 37.7-17 80.3-59.3 80.3-42.5 0-59.3-42.6-59.3-80.3zm98.9 0c0-30.9-10-62.8-39.6-62.8-29.5 0-39.6 31.9-39.6 62.8s10 63 39.6 63c29.6.1 39.6-32 39.6-63zM1018 4807.4c0-37.9 16.8-80 59.3-80 42.3 0 59.3 42.1 59.3 80 0 37.7-17 80.3-59.3 80.3-42.5 0-59.3-42.6-59.3-80.3zm98.9 0c0-30.9-10-62.8-39.6-62.8-29.5 0-39.6 31.9-39.6 62.8s10 63 39.6 63c29.6.1 39.6-32 39.6-63z"/></g><g class="st0"><path class="st1" d="M471 5455.8c-23.5-1.4-41.4-11.2-53-24.4l11.6-14.9c8.8 10.5 23 19.8 41.4 21.9v-56.5c-23.7-6.5-48.2-14.4-48.2-43 0-24 20.2-40.9 48.2-43v-21.2h14.2v21.4c19.3 1.6 34.7 9.5 46.1 21.4l-11.6 14.2c-9.3-10.2-21.4-16.1-34.4-17.9v50.7c24 6.7 49.6 15.6 49.6 46.1 0 20.9-13.5 42.8-49.6 45.4v20.7H471v-20.9zm0-95.2v-47.5c-16.5 1.2-28.2 10.9-28.2 24.4.1 12.9 12.4 18.5 28.2 23.1zm14.2 24.9v53c22.1-2.3 29.5-15.6 29.5-26.8.1-15-13.2-21.3-29.5-26.2zM561.3 5431.1l11.9-13c10.2 13.3 24 20.7 42.8 20.7 21.2 0 35.8-14.4 35.8-33.3 0-20.5-14.7-33.5-35.6-33.5-13.5 0-25.4 4.4-35.8 14.4l-14.2-4.9V5298h94.9v17.2h-75.6v54c7.7-7.4 20.7-14 36.3-14 26.1 0 49.6 17.4 49.6 49.6 0 31.4-24.2 51.2-55.4 51.2-26.1 0-43.1-9.5-54.7-24.9zM705.3 5482.8l-8.8-7.2c7.4-4.9 14.2-14 15.1-21.6-.5.2-2.1.5-3.3.5-6.3 0-11.2-5.1-11.2-11.9 0-6.7 5.4-12.6 12.3-12.6 7.9 0 14.7 6.5 14.7 17.7.1 14.1-8.1 27.4-18.8 35.1zM741.4 5375.7c0-37.9 16.8-80 59.3-80 42.3 0 59.3 42.1 59.3 80 0 37.7-17 80.3-59.3 80.3-42.6 0-59.3-42.6-59.3-80.3zm98.9 0c0-30.9-10-62.8-39.6-62.8s-39.6 31.9-39.6 62.8 10 63 39.6 63 39.6-32 39.6-63zM883.8 5375.7c0-37.9 16.8-80 59.3-80 42.3 0 59.3 42.1 59.3 80 0 37.7-17 80.3-59.3 80.3-42.6 0-59.3-42.6-59.3-80.3zm98.8 0c0-30.9-10-62.8-39.6-62.8s-39.6 31.9-39.6 62.8 10 63 39.6 63 39.6-32 39.6-63zM1026.1 5375.7c0-37.9 16.8-80 59.3-80 42.3 0 59.3 42.1 59.3 80 0 37.7-17 80.3-59.3 80.3-42.5 0-59.3-42.6-59.3-80.3zm98.9 0c0-30.9-10-62.8-39.6-62.8-29.5 0-39.6 31.9-39.6 62.8s10 63 39.6 63c29.6.1 39.6-32 39.6-63z"/></g><g class="st0"><path class="st1" d="M1051.2 5764.7V5754c38.3-30 59.2-47.7 59.2-66.1 0-13.7-11.3-19.5-22.3-19.5-12.8 0-22.7 5.4-28.9 13.4l-8.1-8.5c8.1-10.9 22-16.8 37-16.8 17.7 0 35.8 10.1 35.8 31.3 0 21.7-22 41.5-51.7 65h52.2v11.8h-73.2zM1144.5 5711.6c0-26 11.5-54.9 40.7-54.9 29.1 0 40.7 28.9 40.7 54.9 0 25.9-11.7 55.1-40.7 55.1-29.2-.1-40.7-29.3-40.7-55.1zm67.9 0c0-21.2-6.9-43.1-27.1-43.1s-27.1 21.9-27.1 43.1 6.9 43.3 27.1 43.3 27.1-22.1 27.1-43.3zM1242.2 5711.6c0-26 11.5-54.9 40.7-54.9 29.1 0 40.7 28.9 40.7 54.9 0 25.9-11.7 55.1-40.7 55.1-29.2-.1-40.7-29.3-40.7-55.1zm67.9 0c0-21.2-6.9-43.1-27.1-43.1s-27.1 21.9-27.1 43.1 6.9 43.3 27.1 43.3 27.1-22.1 27.1-43.3zM1387.5 5764.7v-27h-50.6v-11l45.7-68.5h18.2v67.8h15v11.7h-15v27h-13.3zm0-94.2l-37.4 55.6h37.4v-55.6z"/></g><g class="st0"><path class="st1" d="M5835.2 5764.7V5754c38.3-30 59.2-47.7 59.2-66.1 0-13.7-11.3-19.5-22.3-19.5-12.8 0-22.7 5.4-28.9 13.4l-8.1-8.5c8.1-10.9 22-16.8 37-16.8 17.7 0 35.8 10.1 35.8 31.3 0 21.7-22 41.5-51.7 65h52.2v11.8h-73.2zM5928.6 5711.6c0-26 11.5-54.9 40.7-54.9 29.1 0 40.7 28.9 40.7 54.9 0 25.9-11.7 55.1-40.7 55.1-29.2-.1-40.7-29.3-40.7-55.1zm67.9 0c0-21.2-6.9-43.1-27.1-43.1s-27.1 21.9-27.1 43.1 6.9 43.3 27.1 43.3 27.1-22.1 27.1-43.3zM6046.6 5764.7v-89.1l-17.1 18.2-8-8.1 26.7-27.5h11.7v106.5h-13.3zM6080.9 5764.7V5754c38.3-30 59.2-47.7 59.2-66.1 0-13.7-11.3-19.5-22.3-19.5-12.8 0-22.7 5.4-28.9 13.4l-8.1-8.5c8.1-10.9 22-16.8 37-16.8 17.7 0 35.8 10.1 35.8 31.3 0 21.7-22 41.5-51.7 65h52.2v11.8h-73.2z"/></g><g class="st0"><path class="st1" d="M6433.6 5764.7V5754c38.3-30 59.2-47.7 59.2-66.1 0-13.7-11.3-19.5-22.3-19.5-12.8 0-22.7 5.4-28.9 13.4l-8.1-8.5c8.1-10.9 22-16.8 37-16.8 17.7 0 35.8 10.1 35.8 31.3 0 21.7-22 41.5-51.7 65h52.2v11.8h-73.2zM6527 5711.6c0-26 11.5-54.9 40.7-54.9 29.1 0 40.7 28.9 40.7 54.9 0 25.9-11.7 55.1-40.7 55.1-29.2-.1-40.7-29.3-40.7-55.1zm67.8 0c0-21.2-6.9-43.1-27.1-43.1-20.3 0-27.1 21.9-27.1 43.1s6.9 43.3 27.1 43.3c20.3-.1 27.1-22.1 27.1-43.3zM6644.9 5764.7v-89.1l-17.1 18.2-8-8.1 26.7-27.5h11.7v106.5h-13.3zM6675.3 5749.1l7.8-8.3c6.2 8.3 17.1 14 29.7 14 15.5 0 24.9-7.8 24.9-20 0-13.2-10.9-18.8-26.5-18.8-4.5 0-9.4 0-11 .2v-12.1c1.8.2 6.7.2 11 .2 13.4 0 24.7-5.3 24.7-17.6 0-11.8-10.9-18.2-23.8-18.2-11.7 0-20.3 4.5-28.1 12.9l-7.3-8.3c7.7-9.4 20-16.4 36.6-16.4 20.4 0 35.9 10.4 35.9 28.3 0 15.5-12.9 23.1-22.8 24.7 9.6 1 24.6 9.1 24.6 26.3 0 17.7-14.4 30.7-37.8 30.7-18.1-.1-31.4-8-37.9-17.6z"/></g><g class="st0"><path class="st1" d="M7029.2 5764.7V5754c38.3-30 59.2-47.7 59.2-66.1 0-13.7-11.3-19.5-22.3-19.5-12.8 0-22.7 5.4-28.9 13.4l-8.1-8.5c8.1-10.9 22-16.8 37-16.8 17.7 0 35.8 10.1 35.8 31.3 0 21.7-22 41.5-51.7 65h52.2v11.8h-73.2zM7122.6 5711.6c0-26 11.5-54.9 40.7-54.9 29.1 0 40.7 28.9 40.7 54.9 0 25.9-11.7 55.1-40.7 55.1-29.2-.1-40.7-29.3-40.7-55.1zm67.9 0c0-21.2-6.9-43.1-27.1-43.1s-27.1 21.9-27.1 43.1 6.9 43.3 27.1 43.3 27.1-22.1 27.1-43.3zM7240.6 5764.7v-89.1l-17.1 18.2-8-8.1 26.7-27.5h11.7v106.5h-13.3zM7322 5764.7v-27h-50.6v-11l45.7-68.5h18.2v67.8h15v11.7h-15v27H7322zm0-94.2l-37.4 55.6h37.4v-55.6z"/></g><g class="st0"><path class="st1" d="M7621.7 5764.7V5754c38.3-30 59.2-47.7 59.2-66.1 0-13.7-11.3-19.5-22.3-19.5-12.8 0-22.7 5.4-28.9 13.4l-8.1-8.5c8.1-10.9 22-16.8 37-16.8 17.7 0 35.8 10.1 35.8 31.3 0 21.7-22 41.5-51.7 65h52.2v11.8h-73.2zM7715.1 5711.6c0-26 11.5-54.9 40.7-54.9 29.1 0 40.7 28.9 40.7 54.9 0 25.9-11.7 55.1-40.7 55.1-29.2-.1-40.7-29.3-40.7-55.1zm67.8 0c0-21.2-6.9-43.1-27.1-43.1-20.3 0-27.1 21.9-27.1 43.1s6.9 43.3 27.1 43.3c20.3-.1 27.1-22.1 27.1-43.3zM7833 5764.7v-89.1l-17.1 18.2-8-8.1 26.7-27.5h11.7v106.5H7833zM7869.3 5749.6l8.1-8.9c7 9.1 16.4 14.2 29.4 14.2 14.5 0 24.6-9.9 24.6-22.8 0-14-10.1-23-24.4-23-9.3 0-17.4 3-24.6 9.9l-9.7-3.4v-57.3h65.1v11.8h-51.9v37c5.3-5.1 14.2-9.6 24.9-9.6 17.9 0 34 12 34 34 0 21.6-16.6 35.1-38 35.1-17.9 0-29.5-6.5-37.5-17z"/></g><g class="st0"><path class="st1" d="M8217.1 5764.7V5754c38.3-30 59.2-47.7 59.2-66.1 0-13.7-11.3-19.5-22.3-19.5-12.8 0-22.7 5.4-28.9 13.4l-8.1-8.5c8.1-10.9 22-16.8 37-16.8 17.7 0 35.8 10.1 35.8 31.3 0 21.7-22 41.5-51.7 65h52.2v11.8h-73.2zM8310.5 5711.6c0-26 11.5-54.9 40.7-54.9 29.1 0 40.7 28.9 40.7 54.9 0 25.9-11.7 55.1-40.7 55.1-29.2-.1-40.7-29.3-40.7-55.1zm67.8 0c0-21.2-6.9-43.1-27.1-43.1-20.3 0-27.1 21.9-27.1 43.1s6.9 43.3 27.1 43.3c20.3-.1 27.1-22.1 27.1-43.3zM8428.5 5764.7v-89.1l-17.1 18.2-8-8.1 26.7-27.5h11.7v106.5h-13.3zM8462.3 5711.6c0-28.7 13.4-54.9 43.4-54.9 13.6 0 22.8 5.1 29.4 12.8l-6.7 9.9c-5.4-6.4-11.7-10.9-22.7-10.9-20.8 0-30 20.9-30 41.8v4.2c4.6-7.3 16.4-16.6 30.2-16.6 19.2 0 34.8 11.3 34.8 34 0 18.4-14 34.8-37.2 34.8-29.9-.1-41.2-26.1-41.2-55.1zm65 20.7c0-15.6-10.9-23-24.4-23-10.7 0-20.9 6.5-26.7 15.8 1.1 13.2 8.1 29.7 26.7 29.7 16.4 0 24.4-12.4 24.4-22.5z"/></g><g class="st0"><path class="st1" d="M8824.7 5764.7V5754c38.3-30 59.2-47.7 59.2-66.1 0-13.7-11.3-19.5-22.3-19.5-12.8 0-22.7 5.4-28.9 13.4l-8.1-8.5c8.1-10.9 22-16.8 37-16.8 17.7 0 35.8 10.1 35.8 31.3 0 21.7-22 41.5-51.7 65h52.2v11.8h-73.2zM8918.1 5711.6c0-26 11.5-54.9 40.7-54.9 29.1 0 40.7 28.9 40.7 54.9 0 25.9-11.7 55.1-40.7 55.1-29.2-.1-40.7-29.3-40.7-55.1zm67.8 0c0-21.2-6.9-43.1-27.1-43.1-20.3 0-27.1 21.9-27.1 43.1s6.9 43.3 27.1 43.3c20.3-.1 27.1-22.1 27.1-43.3zM9036.1 5764.7v-89.1l-17.1 18.2-8-8.1 26.7-27.5h11.7v106.5h-13.3zM9081.1 5764.7l42.9-94.7h-57.3v-11.8h72.6v9.1l-43.6 97.4h-14.6z"/></g><g class="st0"><path class="st1" d="M1643.6 5764.7V5754c38.3-30 59.2-47.7 59.2-66.1 0-13.7-11.3-19.5-22.3-19.5-12.8 0-22.7 5.4-28.9 13.4l-8.1-8.5c8.1-10.9 22-16.8 37-16.8 17.7 0 35.8 10.1 35.8 31.3 0 21.7-22 41.5-51.7 65h52.2v11.8h-73.2zM1737 5711.6c0-26 11.5-54.9 40.7-54.9 29.1 0 40.7 28.9 40.7 54.9 0 25.9-11.7 55.1-40.7 55.1-29.2-.1-40.7-29.3-40.7-55.1zm67.8 0c0-21.2-6.9-43.1-27.1-43.1-20.3 0-27.1 21.9-27.1 43.1s6.9 43.3 27.1 43.3c20.3-.1 27.1-22.1 27.1-43.3zM1834.7 5711.6c0-26 11.5-54.9 40.7-54.9 29.1 0 40.7 28.9 40.7 54.9 0 25.9-11.7 55.1-40.7 55.1-29.2-.1-40.7-29.3-40.7-55.1zm67.8 0c0-21.2-6.9-43.1-27.1-43.1-20.3 0-27.1 21.9-27.1 43.1s6.9 43.3 27.1 43.3c20.3-.1 27.1-22.1 27.1-43.3zM1934.8 5749.6l8.1-8.9c7 9.1 16.4 14.2 29.4 14.2 14.5 0 24.6-9.9 24.6-22.8 0-14-10.1-23-24.4-23-9.3 0-17.4 3-24.6 9.9l-9.7-3.4v-57.3h65.1v11.8h-51.9v37c5.3-5.1 14.2-9.6 24.9-9.6 17.9 0 34 12 34 34 0 21.6-16.6 35.1-38 35.1-17.9 0-29.5-6.5-37.5-17z"/></g><g class="st0"><path class="st1" d="M2239 5764.7V5754c38.3-30 59.2-47.7 59.2-66.1 0-13.7-11.3-19.5-22.3-19.5-12.8 0-22.7 5.4-28.9 13.4l-8.1-8.5c8.1-10.9 22-16.8 37-16.8 17.7 0 35.8 10.1 35.8 31.3 0 21.7-22 41.5-51.7 65h52.2v11.8H2239zM2332.4 5711.6c0-26 11.5-54.9 40.7-54.9 29.1 0 40.7 28.9 40.7 54.9 0 25.9-11.7 55.1-40.7 55.1-29.2-.1-40.7-29.3-40.7-55.1zm67.8 0c0-21.2-6.9-43.1-27.1-43.1s-27.1 21.9-27.1 43.1 6.9 43.3 27.1 43.3 27.1-22.1 27.1-43.3zM2430.1 5711.6c0-26 11.5-54.9 40.7-54.9 29.1 0 40.7 28.9 40.7 54.9 0 25.9-11.7 55.1-40.7 55.1-29.2-.1-40.7-29.3-40.7-55.1zm67.8 0c0-21.2-6.9-43.1-27.1-43.1s-27.1 21.9-27.1 43.1 6.9 43.3 27.1 43.3 27.1-22.1 27.1-43.3zM2527.8 5711.6c0-28.7 13.4-54.9 43.4-54.9 13.6 0 22.8 5.1 29.4 12.8l-6.7 9.9c-5.4-6.4-11.7-10.9-22.7-10.9-20.8 0-30 20.9-30 41.8v4.2c4.6-7.3 16.4-16.6 30.2-16.6 19.2 0 34.8 11.3 34.8 34 0 18.4-14 34.8-37.2 34.8-29.9-.1-41.2-26.1-41.2-55.1zm65 20.7c0-15.6-10.9-23-24.4-23-10.7 0-20.9 6.5-26.7 15.8 1.1 13.2 8.1 29.7 26.7 29.7 16.4 0 24.4-12.4 24.4-22.5z"/></g><g class="st0"><path class="st1" d="M2840.8 5764.7V5754c38.3-30 59.2-47.7 59.2-66.1 0-13.7-11.3-19.5-22.3-19.5-12.8 0-22.7 5.4-28.9 13.4l-8.1-8.5c8.1-10.9 22-16.8 37-16.8 17.7 0 35.8 10.1 35.8 31.3 0 21.7-22 41.5-51.7 65h52.2v11.8h-73.2zM2934.2 5711.6c0-26 11.5-54.9 40.7-54.9 29.1 0 40.7 28.9 40.7 54.9 0 25.9-11.7 55.1-40.7 55.1-29.2-.1-40.7-29.3-40.7-55.1zm67.8 0c0-21.2-6.9-43.1-27.1-43.1-20.3 0-27.1 21.9-27.1 43.1s6.9 43.3 27.1 43.3c20.3-.1 27.1-22.1 27.1-43.3zM3031.9 5711.6c0-26 11.5-54.9 40.7-54.9 29.1 0 40.7 28.9 40.7 54.9 0 25.9-11.7 55.1-40.7 55.1-29.2-.1-40.7-29.3-40.7-55.1zm67.8 0c0-21.2-6.9-43.1-27.1-43.1-20.3 0-27.1 21.9-27.1 43.1s6.9 43.3 27.1 43.3c20.3-.1 27.1-22.1 27.1-43.3zM3140.8 5764.7l42.9-94.7h-57.3v-11.8h72.6v9.1l-43.6 97.4h-14.6z"/></g><g class="st0"><path class="st1" d="M3430.8 5764.7V5754c38.3-30 59.2-47.7 59.2-66.1 0-13.7-11.3-19.5-22.3-19.5-12.8 0-22.7 5.4-28.9 13.4l-8.1-8.5c8.1-10.9 22-16.8 37-16.8 17.7 0 35.8 10.1 35.8 31.3 0 21.7-22 41.5-51.7 65h52.2v11.8h-73.2zM3524.2 5711.6c0-26 11.5-54.9 40.7-54.9 29.1 0 40.7 28.9 40.7 54.9 0 25.9-11.7 55.1-40.7 55.1-29.2-.1-40.7-29.3-40.7-55.1zm67.8 0c0-21.2-6.9-43.1-27.1-43.1-20.3 0-27.1 21.9-27.1 43.1s6.9 43.3 27.1 43.3c20.2-.1 27.1-22.1 27.1-43.3zM3621.9 5711.6c0-26 11.5-54.9 40.7-54.9 29.1 0 40.7 28.9 40.7 54.9 0 25.9-11.7 55.1-40.7 55.1-29.2-.1-40.7-29.3-40.7-55.1zm67.8 0c0-21.2-6.9-43.1-27.1-43.1-20.3 0-27.1 21.9-27.1 43.1s6.9 43.3 27.1 43.3c20.2-.1 27.1-22.1 27.1-43.3zM3719.7 5737.7c0-14.2 12.1-23.9 25.4-27.9-12.3-3.5-23.6-11.7-23.6-25.5 0-19.2 18.7-27.6 36.4-27.6 17.6 0 36.6 8.5 36.6 27.6 0 13.9-11.5 22-23.8 25.5 13.2 4 25.4 13.7 25.4 27.9 0 18-17.2 28.9-38.2 28.9-21.1 0-38.2-10.7-38.2-28.9zm62.9-1.4c0-13.9-18.2-19.8-24.7-20.6-6.5.8-24.7 6.7-24.7 20.6 0 11.5 11.5 18.5 24.7 18.5 13.1 0 24.7-7 24.7-18.5zm-1.6-50.3c0-11-10.4-17.6-23.1-17.6-12.9 0-23 6.5-23 17.6 0 12.9 16.6 17.2 23 18.4 6.5-1.1 23.1-5.5 23.1-18.4z"/></g><g class="st0"><path class="st1" d="M4025.5 5764.7V5754c38.3-30 59.2-47.7 59.2-66.1 0-13.7-11.3-19.5-22.3-19.5-12.8 0-22.7 5.4-28.9 13.4l-8.1-8.5c8.1-10.9 22-16.8 37-16.8 17.7 0 35.8 10.1 35.8 31.3 0 21.7-22 41.5-51.7 65h52.2v11.8h-73.2zM4118.9 5711.6c0-26 11.5-54.9 40.7-54.9 29.1 0 40.7 28.9 40.7 54.9 0 25.9-11.7 55.1-40.7 55.1-29.3-.1-40.7-29.3-40.7-55.1zm67.8 0c0-21.2-6.9-43.1-27.1-43.1-20.3 0-27.1 21.9-27.1 43.1s6.9 43.3 27.1 43.3c20.2-.1 27.1-22.1 27.1-43.3zM4216.6 5711.6c0-26 11.5-54.9 40.7-54.9 29.1 0 40.7 28.9 40.7 54.9 0 25.9-11.7 55.1-40.7 55.1-29.3-.1-40.7-29.3-40.7-55.1zm67.8 0c0-21.2-6.9-43.1-27.1-43.1-20.3 0-27.1 21.9-27.1 43.1s6.9 43.3 27.1 43.3c20.2-.1 27.1-22.1 27.1-43.3zM4319.5 5753.7l6.7-9.9c5.4 6.4 11.8 10.9 22.8 10.9 21.6 0 30-21.6 30-41.8 0-1.3 0-2.7-.2-4.2-4.6 7.3-16.4 16.6-30 16.6-19.2 0-35-11.3-35-34 0-18.4 14-34.8 37.4-34.8 29.7 0 41.2 26 41.2 55.1 0 28.7-13.6 54.9-43.4 54.9-13.5 0-22.8-5.3-29.5-12.8zm59.1-55.9c-1.3-13.1-8.3-29.5-26.8-29.5-16.3 0-24.4 12.3-24.4 22.5 0 15.6 10.9 23 24.6 23 10.5 0 20.8-6.6 26.6-16z"/></g><g class="st0"><path class="st1" d="M4642.3 5764.7V5754c38.3-30 59.2-47.7 59.2-66.1 0-13.7-11.3-19.5-22.3-19.5-12.8 0-22.7 5.4-28.9 13.4l-8.1-8.5c8.1-10.9 22-16.8 37-16.8 17.7 0 35.8 10.1 35.8 31.3 0 21.7-22 41.5-51.7 65h52.2v11.8h-73.2zM4735.7 5711.6c0-26 11.5-54.9 40.7-54.9 29.1 0 40.7 28.9 40.7 54.9 0 25.9-11.7 55.1-40.7 55.1-29.3-.1-40.7-29.3-40.7-55.1zm67.8 0c0-21.2-6.9-43.1-27.1-43.1s-27.1 21.9-27.1 43.1 6.9 43.3 27.1 43.3 27.1-22.1 27.1-43.3zM4853.6 5764.7v-89.1l-17.1 18.2-8-8.1 26.7-27.5h11.7v106.5h-13.3zM4887.5 5711.6c0-26 11.5-54.9 40.7-54.9 29.1 0 40.7 28.9 40.7 54.9 0 25.9-11.7 55.1-40.7 55.1-29.2-.1-40.7-29.3-40.7-55.1zm67.8 0c0-21.2-6.9-43.1-27.1-43.1-20.3 0-27.1 21.9-27.1 43.1s6.9 43.3 27.1 43.3c20.2-.1 27.1-22.1 27.1-43.3z"/></g><g class="st0"><path class="st1" d="M5261 5764.7V5754c38.3-30 59.2-47.7 59.2-66.1 0-13.7-11.3-19.5-22.3-19.5-12.8 0-22.7 5.4-28.9 13.4l-8.1-8.5c8.1-10.9 22-16.8 37-16.8 17.7 0 35.8 10.1 35.8 31.3 0 21.7-22 41.5-51.7 65h52.2v11.8H5261zM5354.4 5711.6c0-26 11.5-54.9 40.7-54.9 29.1 0 40.7 28.9 40.7 54.9 0 25.9-11.7 55.1-40.7 55.1-29.2-.1-40.7-29.3-40.7-55.1zm67.8 0c0-21.2-6.9-43.1-27.1-43.1-20.3 0-27.1 21.9-27.1 43.1s6.9 43.3 27.1 43.3c20.2-.1 27.1-22.1 27.1-43.3zM5472.3 5764.7v-89.1l-17.1 18.2-8-8.1 26.7-27.5h11.7v106.5h-13.3zM5526.5 5764.7v-89.1l-17.1 18.2-8-8.1 26.7-27.5h11.7v106.5h-13.3z"/></g><path class="st2" d="M1255.8 821.6h7733.5"/><path class="st3" d="M1255.8 1390.5h7733.5M1255.8 1959.4h7733.5M1255.8 2528.3h7733.5M1255.8 3097.2h7733.5M1255.8 3666h7733.5M1255.8 4234.9h7733.5M1255.8 4803.8h7733.5"/><path class="st2" d="M1255.8 5372.7h7733.5"/><path class="st4" d="M1235 5321.9v128.9M1830 5321.9v128.9M2425 5321.9v128.9M3019.9 5321.9v128.9M3614.9 5321.9v128.9M4209.9 5321.9v128.9M4804.9 5321.9v128.9M5399.9 5321.9v128.9M5994.9 5321.9v128.9M6589.9 5321.9v128.9M7184.9 5321.9v128.9M7779.8 5321.9v128.9M8374.8 5321.9v128.9M8969.8 5321.9v128.9"/><path class="st5" d="M1296.7 4725.5l51.4-14.7 51.3-44 51.3-43.9 51.3 29.3 51.3-22 51.3 22 51.3 22 51.3-36.7h51.3l51.3-44 51.3 7.4 51.3-7.4 51.3 22 51.3-43.9h51.4l51.3-36.7h51.3l51.3-14.6 51.3-22 51.3 36.6h51.3l51.3-7.3 51.3-29.3 51.3-29.4 51.3-43.9 51.3-29.3 51.3-22 51.3-14.7 51.3 22 51.4-14.7 51.3-58.6 51.3-51.3 51.3 22 51.3 44 51.3-22 51.3-51.3 51.3-22 51.3 58.6 51.3 14.7 51.3 87.9 51.3 44 51.3 7.3 51.3-65.9 51.3-14.7 51.4 117.3 51.3 14.6 51.3-22 51.3 117.3 51.3 197.9 51.3 73.3 51.3-7.3 51.3 80.6 51.3 88 51.3-66 51.3-80.6 51.3 87.9 44-139.2 51.3-73.3 51.3-36.7 51.3-44 51.3 22 51.3-65.9 51.3-22 51.4 44 51.3-36.7 51.3-73.3 51.3-14.6 51.3 95.2 51.3 66 51.3-80.6 51.3 58.6 51.3-102.6 51.3-51.3h51.3l51.3-80.6 51.3-36.7 51.3-44h51.3l51.4-43.9 51.3 14.6 51.3 29.3 51.3 29.4 51.3 73.3 51.3 95.2 51.3-139.2 51.3 7.3 51.3-14.6 51.3-66 51.3-58.7 51.3-51.3 51.3 7.4 51.3 95.3 51.4-58.7 51.3-22 51.3-36.6 51.3-36.7 51.3 29.4 51.3-14.7 51.3-14.7 51.3-80.6 51.3-22 51.3-65.9 51.3-36.7 51.3-36.6 51.3 21.9 51.3-95.2 51.3 58.6 51.4-58.6 51.3-88 51.3-66 51.3-51.3 51.3 73.3 51.3-95.3 51.3-14.6 51.3-14.7 51.3-51.3 51.3-51.3 51.3 36.7 51.3-95.3 51.3 36.6 51.3-58.6 51.3-58.6h51.4l51.3 73.3 51.3-132 51.3 36.7 51.3-22 51.3-29.3 51.3 43.9 51.3-51.3 51.3 154 51.3 58.6 51.3-197.9 51.3-7.3 51.3 58.6 51.3 117.3 51.4 7.3 51.3-161.3 51.3-21.9 51.3-51.3 51.3 7.3L8575 3135l51.3-7.4h51.3l51.3 51.3 51.3-95.2 51.3-51.3 51.3-58.7 51.3-109.9h51.3"/><path class="st6" d="M1287.2 4719.6l51.4 31.5 51.5-125.9 51.4 15.8 51.4 78.6 51.4 47.2 51.4 39.3 51.4 70.8 51.4-133.7 51.4-39.3 51.4-102.3 51.4-7.8 51.4-31.5 51.4 7.9 51.4-118 51.4 15.7 51.4-180.9h51.4l51.4-94.4 51.4 110.1 51.4 165.2 51.4-7.9 51.4 118 51.4 7.9 51.4-78.7 51.4-78.6 51.4-86.6 51.4 15.8 51.4-47.2 51.4 70.8 51.4-7.9 51.4-47.2 51.5-94.4 51.4 7.9 51.4-47.2 51.4-78.7 51.4-102.2 51.4-173.1 51.4 149.5h51.4l51.4 275.3 51.4 62.9 51.4-7.9 51.4-70.7 51.4-47.2 51.4 196.6 51.4-47.2 51.4-15.7 51.4 180.9 51.4 314.6 51.4 141.6 51.4-62.9 51.4 78.6 51.4 55.1 51.4-70.8 51.4-196.6 51.4-47.2 44.1-55.1 51.4-125.8 51.4-7.9 51.4-165.2 51.4 94.4 51.4-94.4 51.4-94.4 51.4 62.9 51.4-94.3 51.4-133.8 51.4-47.2 51.4 94.4 51.4 55.1 51.4-125.9 51.4 55.1 51.4-220.2 51.4-94.4 51.4-55.1 51.5-47.2 51.4-125.8 51.4-188.8 51.4-188.8 51.4-165.2 51.4 47.2 51.4 39.3 51.4 39.4 51.4 157.3 51.4 306.8 51.4-251.8 51.4 141.6 51.4 86.6 51.4-228.2 51.4-173 51.4-70.8h51.4l51.4 267.4 51.4-55 51.4 149.4 51.4-125.8 51.4-55.1 51.4 86.5 51.4 7.9 51.4-55.1 51.4-173 51.4 55.1 51.4-86.6 51.4-94.4 51.4-102.2 51.5 15.7 51.4-196.6 51.4-94.4 51.4-141.6 51.4 15.7 51.4-31.4 51.4-141.6 51.4 7.8 51.4-243.8 51.4 243.8 51.4 283.2 51.4-86.5 51.4-322.5 51.4 15.7 51.4-220.2 51.4 110.1 51.4-228.1 51.4-102.3 51.4 70.8 51.4 102.3 51.4-196.7 51.4 7.9 51.4-15.7h51.4l51.4 7.8 51.4-110.1 51.4 377.6 51.4 212.4 51.4-259.6 51.4-212.4 51.5 47.2 51.4 448.4 51.4 39.3 51.4-267.5 51.4 63 51.4-133.7 51.4 15.7 51.4-212.4 51.4-55.1 51.4-70.7 51.4 188.7 51.4-31.4 51.4 39.3 51.4-291 51.4-220.3 51.4-62.9"/></g><g id="Layer_3"><g class="st0"><path class="st7" d="M6943 692l16.5-22.8c11.2 12.2 29.5 23.2 52.8 23.2 24 0 33.2-11.8 33.2-23 0-35-97-13.2-97-74.5 0-27.8 24-49 60.8-49 25.8 0 47 8.5 62.2 23.5l-16.5 21.8c-13.2-13.2-31-19.2-48.5-19.2-17 0-28 8.5-28 20.8 0 31.2 97 12 97 74 0 27.8-19.8 51.8-64.5 51.8-30.8-.1-53-11.1-68-26.6zM7209 715.5c-4-3.8-9.2-8.8-14.8-14.5-12.5 10.5-27.8 17.5-46.8 17.5-29.5 0-53.5-16-53.5-47.5 0-25.8 17-39 36.2-48.8-7-12.5-11.8-25.2-11.8-36.8 0-22.2 19.2-39.2 45.2-39.2 22.5 0 41 12.2 41 34 0 25.2-20.8 36.2-41.5 46.2 5.8 8 11.8 15.2 16.5 20.8 5.5 6.8 11 13.2 16.5 19.2 8-12 13.5-25.2 16.5-35l21.2 9.8c-5.8 13.5-13.2 28.2-23 41.5 10 10.5 20.5 21.2 32.5 32.8H7209zm-29.3-29.7c-8.5-9-16.2-17.8-20.5-23.2-6.2-7.2-12.8-15.5-18.5-23.8-11 7.2-19 16-19 30 0 18.2 13.8 28.8 29.2 28.8 10.8-.1 20.3-4.8 28.8-11.8zm-26.7-74.5c15.8-7.5 28.5-15.5 28.5-29.5 0-10.2-7.2-16.2-16.8-16.2-11 0-20 8.5-20 20.8 0 7.4 3.3 16.1 8.3 24.9zM7267.5 715.5V548.8h73.5c35 0 54.2 23.8 54.2 52.2 0 28.2-19.5 52-54.2 52h-44.2v62.5h-29.3zm97.7-114.5c0-16-11.8-26.5-28.2-26.5h-40.2v52.8h40.2c16.5 0 28.2-10.5 28.2-26.3zM7484.7 692.8l16.8-20.2c11 13 26.2 20 44.8 20 21.2 0 34.2-13 34.2-29.5 0-17.8-13-29.5-33.5-29.5-14 0-25.8 4.2-36.5 14.2l-20.8-6v-93H7599v25.8h-80v48c8.2-7.8 21.8-14.2 37.8-14.2 28.2 0 53.5 19.5 53.5 53.8 0 34.5-26.5 56.5-63.8 56.5-28.5-.2-48.3-10.2-61.8-25.9zM7633 632.3c0-42 19.8-86 66.8-86 46.8 0 66.5 44 66.5 86 0 41.8-19.8 86.2-66.5 86.2-47.1 0-66.8-44.5-66.8-86.2zm103.5 0c0-32-9.5-60-36.8-60s-37 28-37 60c0 31.8 9.8 60.2 37 60.2 27 0 36.8-28.5 36.8-60.2zM7789.2 632.3c0-42 19.8-86 66.8-86 46.8 0 66.5 44 66.5 86 0 41.8-19.8 86.2-66.5 86.2-47 0-66.8-44.5-66.8-86.2zm103.5 0c0-32-9.5-60-36.8-60s-37 28-37 60c0 31.8 9.8 60.2 37 60.2 27.1 0 36.8-28.5 36.8-60.2z"/></g><g class="st0"><path class="st8" d="M6476.5 380.5l-36.8-62.2h-29.2v62.2h-29.2V213.8h73.2c33 0 54.8 21.2 54.8 52.2 0 29.5-19.5 45.8-39.8 49l41 65.5h-34zm2.8-114.7c0-16-12-26.2-28.5-26.2h-40.2v53h40.2c16.5-.1 28.5-10.6 28.5-26.8zM6621.3 380.5v-16c-8.5 9.5-23.5 19-42.5 19-26 0-39-13.8-39-38.2v-85.5h26.2v75.8c0 18.8 9.5 24.8 24.5 24.8 13.2 0 24.8-7.8 30.8-15.8v-84.8h26.2v120.8h-26.2zM6683.5 380.5V213.8h26.2v166.8h-26.2zM6738.5 320c0-35 25.5-63.2 61.2-63.2 36.2 0 59.2 27.5 59.2 65.5v6.5h-93c2 18 15.5 33.2 38.2 33.2 12 0 25.8-4.8 34.5-13.5l12 17.2c-12.2 11.5-30 17.8-49 17.8-36.3 0-63.1-25.2-63.1-63.5zm61-41.7c-22.2 0-32.8 17.2-33.8 31.8h68c-.7-14.3-10.4-31.8-34.2-31.8zM6954.3 380.5V213.8h82c30.8 0 47.5 19 47.5 42.5 0 20.8-13.5 35-29 38.2 18 2.8 32.2 20.5 32.2 40.8 0 26-17 45.2-48.5 45.2h-84.2zm99.5-119.5c0-12.2-8.5-21.5-23.2-21.5h-47v43h47c14.7 0 23.2-8.7 23.2-21.5zm3.2 70.5c0-12.5-8.8-23.2-25.2-23.2h-48.2v46.5h48.2c15.7 0 25.2-8.8 25.2-23.3zM7117.7 380.5V259.8h26.2v17.5c9.2-11.5 23.8-20.5 39.2-20.5v26c-2.2-.5-4.8-.8-8-.8-11.2 0-26 7.5-31.2 16.2v82.2h-26.2zM7199.2 320c0-35 25.5-63.2 61.2-63.2 36.2 0 59.2 27.5 59.2 65.5v6.5h-93c2 18 15.5 33.2 38.2 33.2 12 0 25.8-4.8 34.5-13.5l12 17.2c-12.2 11.5-30 17.8-49 17.8-36.3 0-63.1-25.2-63.1-63.5zm61-41.7c-22.2 0-32.8 17.2-33.8 31.8h68c-.7-14.3-10.4-31.8-34.2-31.8zM7421.7 380.5v-13.2c-9 10.5-23.2 16.2-39.2 16.2-19.5 0-41.8-13.5-41.8-40 0-28 22-39.5 41.8-39.5 16.5 0 30.2 5.2 39.2 15.5v-18c0-14-11.8-22.5-28.2-22.5-13.5 0-25.5 5-35.8 15.5l-11-18.2c14-13.5 31.5-19.5 50.8-19.5 27 0 50.5 11.2 50.5 43.5v80.2h-26.3zm0-27.5v-18.5c-6.2-8.2-17.5-12.5-28.8-12.5-14.8 0-26 8.8-26 21.8 0 13.2 11.2 21.8 26 21.8 11.3-.1 22.6-4.3 28.8-12.6zM7564 380.5l-36.8-50-17 17.5v32.5H7484V213.8h26.2V318l53.2-58.2h32.5l-50 54.8 51 66H7564zM7609.2 320c0-35 25.5-63.2 61.2-63.2 36.2 0 59.2 27.5 59.2 65.5v6.5h-93c2 18 15.5 33.2 38.2 33.2 12 0 25.8-4.8 34.5-13.5l12 17.2c-12.2 11.5-30 17.8-49 17.8-36.3 0-63.1-25.2-63.1-63.5zm61-41.7c-22.2 0-32.8 17.2-33.8 31.8h68c-.7-14.3-10.4-31.8-34.2-31.8zM7757.7 380.5V259.8h26.2v17.5c9.2-11.5 23.8-20.5 39.2-20.5v26c-2.2-.5-4.8-.8-8-.8-11.2 0-26 7.5-31.2 16.2v82.2h-26.2zM7836.2 364.5l12-18.8c8.5 8.8 25.2 16.8 40.8 16.8 15.8 0 24-6.5 24-16 0-23.8-73-6.8-73-53.2 0-19.8 17-36.5 47.5-36.5 20.5 0 36 7.2 46.8 16.8l-11 18.5c-7.2-8-20.5-14.5-35.8-14.5-13.8 0-22.2 6.5-22.2 15 0 21.2 73 5.2 73 53.2 0 21.5-17.8 37.8-50.2 37.8-20.9-.1-39.4-6.8-51.9-19.1z"/></g><path class="st9" d="M8184 311.5h792"/><path class="st10" d="M8184 646.5h792"/><g class="st0"><path class="st11" d="M7552.4 6021.9l.9-17.2-14.6 9.3-3.3-5.9 15.3-7.8-15.3-7.8 3.3-6 14.6 9.4-.9-17.2h6.9l-.9 17.2 14.4-9.4 3.5 6-15.3 7.8 15.3 7.8-3.5 5.9-14.4-9.3.9 17.2h-6.9zM7651.9 6080.3l-25.3-39.7h-20.1v39.7H7594v-100h40.2c18.3 0 31.5 11.7 31.5 30.1 0 18-12.4 27.9-26.1 29.1l27 40.8h-14.7zm.9-69.9c0-11.4-8.2-19-20.1-19h-26.2v38.2h26.2c11.8 0 20.1-8 20.1-19.2zM7677.1 6044c0-21 15-37.9 35.7-37.9 21.9 0 34.8 17.1 34.8 38.8v2.8h-58.5c.9 13.6 10.3 25 25.9 25 8.4 0 16.6-3.3 22.5-9.3l5.4 7.3c-7.3 7.2-17.1 11.2-28.8 11.2-21.6.2-37-15.3-37-37.9zm35.5-28.7c-15.4 0-23.1 13-23.7 24h47.5c-.1-10.6-7.3-24-23.8-24zM7768.9 6065.1v-47.4h-12v-9.9h12V5988h11.4v19.8h14.7v9.9h-14.7v45c0 5.4 2.4 9.3 7.2 9.3 3.3 0 6.1-1.5 7.6-3.1l3.3 8.5c-2.8 2.7-6.9 4.6-13.3 4.6-10.8.1-16.2-6.1-16.2-16.9zM7860.5 6080.3v-10.2c-5.5 6.3-15 12-25.8 12-15.1 0-23.1-7.5-23.1-23.1v-51.1h11.2v47.7c0 12.7 6.4 16.5 16.3 16.5 8.7 0 17.1-5.1 21.3-10.9V6008h11.2v72.4h-11.1zM7895.2 6080.3v-72.4h11.2v11.5c5.8-7.5 14.2-13.2 24.1-13.2v11.5c-1.3-.1-2.7-.3-4.3-.3-7 0-16.5 5.7-19.8 11.5v51.3h-11.2zM7939.4 6070.7l5.7-8.1c4.8 5.5 13.9 10.3 23.8 10.3 11.1 0 17.2-5.2 17.2-12.4 0-17.5-44.8-6.8-44.8-33.6 0-11.4 9.6-20.8 26.8-20.8 12.5 0 21.1 4.6 26.8 10.5l-5.2 7.8c-4.3-5.2-12.1-9.2-21.6-9.2-9.9 0-16 5-16 11.4 0 15.8 44.8 5.4 44.8 33.6 0 12.2-9.7 21.9-28.3 21.9-11.9 0-21.8-3.8-29.2-11.4zM8101.3 6080.3v-8.2c-5.9 6.6-14.2 10-24 10-12.2 0-25.2-8.2-25.2-24 0-16.3 12.9-23.8 25.2-23.8 9.9 0 18.1 3.1 24 9.7v-13c0-9.6-7.8-15.1-18.3-15.1-8.7 0-15.7 3-22.2 10l-5.2-7.8c7.8-8.1 17.1-12 28.9-12 15.4 0 28 6.9 28 24.4v49.8h-11.2zm0-15.3v-13.8c-4.4-5.8-12-8.8-19.8-8.8-10.6 0-18 6.6-18 15.7 0 9.3 7.4 15.9 18 15.9 7.8 0 15.4-3 19.8-9zM8129.9 6070.7l5.7-8.1c4.8 5.5 13.9 10.3 23.8 10.3 11.1 0 17.2-5.2 17.2-12.4 0-17.5-44.8-6.8-44.8-33.6 0-11.4 9.6-20.8 26.8-20.8 12.4 0 21.2 4.6 26.8 10.5l-5.2 7.8c-4.3-5.2-12.1-9.2-21.6-9.2-9.9 0-16 5-16 11.4 0 15.8 44.8 5.4 44.8 33.6 0 12.2-9.7 21.9-28.3 21.9-11.9 0-21.8-3.8-29.2-11.4zM8242.3 6044c0-21 13.8-37.9 35.8-37.9s35.8 16.9 35.8 37.9-13.8 38.1-35.8 38.1-35.8-17.1-35.8-38.1zm59.8 0c0-14.7-8.5-27.9-24-27.9s-24 13.2-24 27.9c0 14.8 8.6 28 24 28s24-13.2 24-28zM8336.3 6080.3v-62.5h-12v-9.9h12v-5.5c0-14.8 8.2-23.5 21-23.5 5.8 0 10.8 1.3 15.3 5.5l-4.7 7.2c-2.4-2.1-5.2-3.4-8.8-3.4-7.5 0-11.5 4.9-11.5 14.2v5.5h14.7v9.9h-14.7v62.5h-11.3zM8409.5 6065.6l7.3-7.8c5.8 7.8 16.1 13.2 27.9 13.2 14.5 0 23.4-7.3 23.4-18.7 0-12.4-10.2-17.7-24.9-17.7-4.2 0-8.8 0-10.3.2v-11.4c1.6.2 6.3.2 10.3.2 12.6 0 23.2-5 23.2-16.5 0-11.1-10.2-17.1-22.3-17.1-10.9 0-19 4.2-26.4 12.1l-6.9-7.8c7.2-8.8 18.7-15.4 34.3-15.4 19.2 0 33.7 9.8 33.7 26.5 0 14.5-12.1 21.7-21.4 23.2 9 .9 23.1 8.5 23.1 24.7 0 16.6-13.5 28.8-35.5 28.8-16.9 0-29.3-7.5-35.5-16.5zM8489.6 6083.3l35.5-106h8.8l-35.5 106h-8.8zM8539.3 6065.6l7.3-7.8c5.8 7.8 16 13.2 27.9 13.2 14.5 0 23.4-7.3 23.4-18.7 0-12.4-10.2-17.7-24.9-17.7-4.2 0-8.8 0-10.3.2v-11.4c1.7.2 6.3.2 10.3.2 12.6 0 23.2-5 23.2-16.5 0-11.1-10.2-17.1-22.3-17.1-10.9 0-19 4.2-26.4 12.1l-6.9-7.8c7.2-8.8 18.8-15.4 34.3-15.4 19.2 0 33.7 9.8 33.7 26.5 0 14.5-12.2 21.7-21.4 23.2 9 .9 23.1 8.5 23.1 24.7 0 16.6-13.5 28.8-35.5 28.8-16.9 0-29.4-7.5-35.5-16.5zM8646.1 6080.3v-83.7l-16.1 17.1-7.5-7.6 25.1-25.8h10.9v100h-12.4zM8671.1 6083.3l35.5-106h8.8l-35.5 106h-8.8zM8724.5 6080.3v-10c36-28.2 55.6-44.8 55.6-62.1 0-12.9-10.6-18.3-21-18.3-12 0-21.3 5.1-27.1 12.6l-7.7-8c7.7-10.2 20.7-15.7 34.8-15.7 16.6 0 33.6 9.4 33.6 29.4 0 20.4-20.7 39-48.6 61h49v11.1h-68.6zM8813.2 6030.3c0-24.4 10.8-51.6 38.2-51.6 27.3 0 38.2 27.1 38.2 51.6 0 24.3-10.9 51.7-38.2 51.7-27.4.1-38.2-27.4-38.2-51.7zm63.7 0c0-19.9-6.4-40.5-25.5-40.5s-25.5 20.5-25.5 40.5 6.4 40.6 25.5 40.6c19.1.1 25.5-20.6 25.5-40.6zM8924.9 6080.3v-83.7l-16.1 17.1-7.5-7.6 25.1-25.8h10.9v100h-12.4zM8968.1 6080.3l40.3-88.9h-53.8v-11.1h68.2v8.5l-40.9 91.5h-13.8z"/></g></g></svg>