<svg id="Layer_1" xmlns="http://www.w3.org/2000/svg" viewBox="0 0 9264 5850"><style>.st0{stroke:#000;stroke-miterlimit:10}.st0,.st1{fill:none}.st2{enable-background:new}.st3{fill:none;stroke:#000;stroke-width:10;stroke-miterlimit:10}.st4{fill:#fff;fill-opacity:0}.st5,.st6{fill:none;stroke:#3498db;stroke-width:60;stroke-miterlimit:10}.st6{stroke:#aaa}.st7{fill:#aaa}.st8{fill:#3498db}.st9{fill:none;stroke:#07a;stroke-width:25;stroke-miterlimit:10;stroke-opacity:0}.st10{display:none;enable-background:new}.st11{font-family:&amp;apos;ProximaNova-Semibold&amp;apos;}.st12{font-size:150px}.st13,.st14{fill:none;stroke:#3498db;stroke-width:30;stroke-miterlimit:10}.st14{stroke:#aaa}</style><path class="st0" d="M720.7 5633.9H9185"/><path class="st1" d="M745.5 5633.9v-119.5M795 5633.9v-119.5M844.5 5633.9v-119.5M894 5633.9v-119.5M943.5 5633.9v-119.5M993 5633.9v-119.5M1042.5 5633.9v-119.5M1092 5633.9v-119.5M1141.5 5633.9v-119.5M1191 5633.9v-119.5M1240.5 5633.9v-119.5M1290 5633.9v-119.5M1339.5 5633.9v-119.5M1389 5633.9v-119.5M1438.5 5633.9v-119.5M1488 5633.9v-119.5M1537.5 5633.9v-119.5M1587 5633.9v-119.5M1636.5 5633.9v-119.5M1686 5633.9v-119.5M1735.5 5633.9v-119.5M1784.9 5633.9v-119.5M1834.4 5633.9v-119.5M1883.9 5633.9v-119.5M1933.4 5633.9v-119.5M1982.9 5633.9v-119.5M2032.4 5633.9v-119.5M2081.9 5633.9v-119.5M2131.4 5633.9v-119.5M2180.9 5633.9v-119.5M2230.4 5633.9v-119.5M2279.9 5633.9v-119.5M2329.4 5633.9v-119.5M2378.9 5633.9v-119.5M2428.4 5633.9v-119.5M2477.9 5633.9v-119.5M2527.4 5633.9v-119.5M2576.9 5633.9v-119.5M2626.4 5633.9v-119.5M2675.9 5633.9v-119.5M2725.4 5633.9v-119.5M2774.9 5633.9v-119.5M2824.4 5633.9v-119.5M2873.9 5633.9v-119.5M2923.4 5633.9v-119.5M2972.9 5633.9v-119.5M3022.4 5633.9v-119.5M3071.9 5633.9v-119.5M3121.4 5633.9v-119.5M3170.9 5633.9v-119.5M3220.4 5633.9v-119.5M3269.9 5633.9v-119.5M3319.4 5633.9v-119.5M3368.9 5633.9v-119.5M3418.4 5633.9v-119.5M3467.9 5633.9v-119.5M3517.4 5633.9v-119.5M3566.9 5633.9v-119.5M3616.4 5633.9v-119.5M3665.9 5633.9v-119.5M3715.4 5633.9v-119.5M3764.9 5633.9v-119.5M3814.4 5633.9v-119.5M3863.9 5633.9v-119.5M3913.4 5633.9v-119.5M3962.9 5633.9v-119.5M4012.4 5633.9v-119.5M4061.9 5633.9v-119.5M4111.4 5633.9v-119.5M4160.9 5633.9v-119.5M4210.4 5633.9v-119.5M4259.9 5633.9v-119.5M4309.4 5633.9v-119.5M4358.9 5633.9v-119.5M4408.4 5633.9v-119.5M4457.9 5633.9v-119.5M4507.4 5633.9v-119.5M4556.9 5633.9v-119.5M4606.4 5633.9v-119.5M4655.9 5633.9v-119.5M4705.4 5633.9v-119.5M4754.9 5633.9v-119.5M4804.4 5633.9v-119.5M4853.9 5633.9v-119.5M4903.4 5633.9v-119.5M4952.9 5633.9v-119.5M5002.4 5633.9v-119.5M5051.9 5633.9v-119.5M5101.4 5633.9v-119.5M5150.9 5633.9v-119.5M5200.4 5633.9v-119.5M5249.9 5633.9v-119.5M5299.4 5633.9v-119.5M5348.9 5633.9v-119.5M5398.4 5633.9v-119.5M5447.9 5633.9v-119.5M5497.4 5633.9v-119.5M5546.9 5633.9v-119.5M5596.4 5633.9v-119.5M5645.9 5633.9v-119.5M5695.4 5633.9v-119.5M5744.9 5633.9v-119.5M5794.4 5633.9v-119.5M5843.9 5633.9v-119.5M5893.4 5633.9v-119.5M5942.9 5633.9v-119.5M5992.4 5633.9v-119.5M6041.9 5633.9v-119.5M6091.4 5633.9v-119.5M6140.9 5633.9v-119.5M6190.4 5633.9v-119.5M6239.8 5633.9v-119.5M6289.3 5633.9v-119.5M6338.8 5633.9v-119.5M6388.3 5633.9v-119.5M6437.8 5633.9v-119.5M6487.3 5633.9v-119.5M6536.8 5633.9v-119.5M6586.3 5633.9v-119.5M6635.8 5633.9v-119.5M6685.3 5633.9v-119.5M6734.8 5633.9v-119.5M6784.3 5633.9v-119.5M6833.8 5633.9v-119.5M6883.3 5633.9v-119.5M6932.8 5633.9v-119.5M6982.3 5633.9v-119.5M7031.8 5633.9v-119.5M7081.3 5633.9v-119.5M7130.8 5633.9v-119.5M7180.3 5633.9v-119.5M7229.8 5633.9v-119.5M7279.3 5633.9v-119.5M7328.8 5633.9v-119.5M7378.3 5633.9v-119.5M7427.8 5633.9v-119.5M7477.3 5633.9v-119.5M7526.8 5633.9v-119.5M7576.3 5633.9v-119.5M7625.8 5633.9v-119.5M7675.3 5633.9v-119.5M7724.8 5633.9v-119.5M7774.3 5633.9v-119.5M7823.8 5633.9v-119.5M7873.3 5633.9v-119.5M7922.8 5633.9v-119.5M7972.3 5633.9v-119.5M8021.8 5633.9v-119.5M8071.3 5633.9v-119.5M8120.8 5633.9v-119.5M8170.3 5633.9v-119.5M8219.8 5633.9v-119.5M8269.3 5633.9v-119.5M8318.8 5633.9v-119.5M8368.3 5633.9v-119.5M8417.8 5633.9v-119.5M8467.3 5633.9v-119.5M8516.8 5633.9v-119.5M8566.3 5633.9v-119.5M8615.8 5633.9v-119.5M8665.3 5633.9v-119.5M8714.8 5633.9v-119.5M8764.3 5633.9v-119.5M8813.8 5633.9v-119.5M8863.3 5633.9v-119.5M8912.8 5633.9v-119.5M8962.3 5633.9v-119.5M9011.8 5633.9v-119.5M9061.3 5633.9v-119.5M9110.8 5633.9v-119.5M9160.3 5633.9v-119.5"/><g><g class="st2"><path d="M102.2 5210.1c-15.4-1.2-27-7.3-34.9-15.6l9.9-13.6c5.5 6.1 14.2 11.8 25 13.5v-29.1c-15.4-3.9-31.6-9.4-31.6-28.9 0-15.3 12.3-27.4 31.6-29.1v-13.8h12v13.9c12.1 1.4 22.3 6.2 30.1 13.6l-9.9 13c-5.7-5.7-12.9-9.1-20.2-10.6v25.9c15.6 4.1 32.5 9.9 32.5 30 0 15.3-10 28.8-32.5 30.7v13.5h-12v-13.4zm0-63.9v-23.5c-8.4 1-13.6 5.7-13.6 12.3 0 5.8 5.7 8.8 13.6 11.2zm12 22.2v26.1c10.3-1.5 14.5-7.6 14.5-13.5.1-6.8-6.2-10.1-14.5-12.6zM181.4 5208.6v-77.4l-16.3 17.1-10.2-10.6 28.8-29.1H199v100h-17.6zM242.4 5158.6c0-25.2 11.8-51.6 40-51.6 28 0 39.9 26.4 39.9 51.6 0 25-11.8 51.7-39.9 51.7-28.2.1-40-26.6-40-51.7zm62.1 0c0-19.2-5.7-36-22-36s-22.2 16.8-22.2 36c0 19 5.9 36.1 22.2 36.1 16.1.1 22-17 22-36.1zM371.9 5158.6c0-25.2 11.8-51.6 40-51.6 28 0 39.9 26.4 39.9 51.6 0 25-11.8 51.7-39.9 51.7-28.1.1-40-26.6-40-51.7zm62.1 0c0-19.2-5.7-36-22-36s-22.2 16.8-22.2 36c0 19 5.8 36.1 22.2 36.1 16.2.1 22-17 22-36.1zM464.5 5158.6c0-25.2 11.8-51.6 40-51.6 28 0 39.9 26.4 39.9 51.6 0 25-11.8 51.7-39.9 51.7-28.2.1-40-26.6-40-51.7zm62.1 0c0-19.2-5.7-36-22-36s-22.2 16.8-22.2 36c0 19 5.9 36.1 22.2 36.1 16.1.1 22-17 22-36.1zM557 5158.6c0-25.2 11.8-51.6 40-51.6 28 0 39.9 26.4 39.9 51.6 0 25-11.8 51.7-39.9 51.7-28.1.1-40-26.6-40-51.7zm62.1 0c0-19.2-5.7-36-22-36s-22.2 16.8-22.2 36c0 19 5.8 36.1 22.2 36.1 16.2.1 22-17 22-36.1z"/></g><g class="st2"><path d="M100.4 4732c-15.4-1.2-27-7.3-34.9-15.6l9.9-13.6c5.5 6.1 14.2 11.8 25 13.5v-29.1c-15.4-3.9-31.6-9.4-31.6-28.9 0-15.3 12.3-27.4 31.6-29.1v-13.8h12v13.9c12.1 1.4 22.3 6.2 30.1 13.6l-9.9 13c-5.7-5.7-12.9-9.1-20.2-10.6v25.9c15.6 4.1 32.5 9.9 32.5 30 0 15.3-10 28.8-32.5 30.7v13.5h-12V4732zm0-63.9v-23.5c-8.4 1-13.6 5.7-13.6 12.3 0 5.8 5.7 8.8 13.6 11.2zm12 22.2v26.1c10.3-1.5 14.5-7.6 14.5-13.5.1-6.8-6.2-10.1-14.5-12.6zM158.3 4730.5v-13.9c38.8-29.4 54.1-42.3 54.1-56.8 0-10.5-9.1-15.1-18.3-15.1-11.7 0-20.5 4.6-27 11.8L157 4645c8.8-10.8 22.9-16 37-16 19.3 0 36.1 10.8 36.1 30.7 0 18.6-16.9 35.1-43.6 55.3h44.2v15.4h-72.4v.1z"/></g><g class="st2"><path d="M249.4 4680.5c0-25.2 11.8-51.6 40-51.6 28 0 39.9 26.4 39.9 51.6 0 25-11.8 51.7-39.9 51.7-28.2.1-40-26.6-40-51.7zm62.1 0c0-19.2-5.7-36-22-36s-22.2 16.8-22.2 36c0 19 5.9 36.1 22.2 36.1 16.1.1 22-17 22-36.1zM371.9 4680.5c0-25.2 11.8-51.6 40-51.6 28 0 39.9 26.4 39.9 51.6 0 25-11.8 51.7-39.9 51.7-28.1.1-40-26.6-40-51.7zm62.1 0c0-19.2-5.7-36-22-36s-22.2 16.8-22.2 36c0 19 5.8 36.1 22.2 36.1 16.2.1 22-17 22-36.1zM464.5 4680.5c0-25.2 11.8-51.6 40-51.6 28 0 39.9 26.4 39.9 51.6 0 25-11.8 51.7-39.9 51.7-28.2.1-40-26.6-40-51.7zm62.1 0c0-19.2-5.7-36-22-36s-22.2 16.8-22.2 36c0 19 5.9 36.1 22.2 36.1 16.1.1 22-17 22-36.1zM557 4680.5c0-25.2 11.8-51.6 40-51.6 28 0 39.9 26.4 39.9 51.6 0 25-11.8 51.7-39.9 51.7-28.1.1-40-26.6-40-51.7zm62.1 0c0-19.2-5.7-36-22-36s-22.2 16.8-22.2 36c0 19 5.8 36.1 22.2 36.1 16.2.1 22-17 22-36.1z"/></g><g class="st2"><path d="M103.6 4253.8c-15.4-1.2-27-7.3-34.9-15.6l9.9-13.6c5.5 6.1 14.2 11.8 25 13.5V4209c-15.4-3.9-31.6-9.4-31.6-28.9 0-15.3 12.3-27.4 31.6-29.1v-13.8h12v13.9c12.1 1.4 22.3 6.2 30.1 13.6l-9.9 13c-5.7-5.7-12.9-9.1-20.2-10.6v25.9c15.6 4.1 32.5 9.9 32.5 30 0 15.3-10 28.8-32.5 30.7v13.5h-12v-13.4zm0-63.8v-23.5c-8.4 1-13.6 5.7-13.6 12.3-.1 5.8 5.6 8.8 13.6 11.2zm12 22.1v26.1c10.3-1.5 14.5-7.6 14.5-13.5 0-6.7-6.3-10-14.5-12.6zM157.6 4237.9l9.6-11.5c6.4 7.5 16.9 12.1 27.6 12.1 13.2 0 20.8-6.1 20.8-15.3 0-9.9-7.8-14.2-22.2-14.2-4.2 0-9.9.2-11.4.3v-15.9c1.6.1 7.5.1 11.4.1 11.8 0 20.7-4 20.7-13.2s-9.1-13.9-20.2-13.9c-10.3 0-18.7 3.8-25.9 11.1l-9-11c7.8-9.1 19.9-15.7 36.6-15.7 21.6 0 36 10.2 36 26.8 0 13.5-11.4 21.3-21.6 22.9 9.6 1 23.2 8.8 23.2 24.3 0 17.1-14.5 29.2-37.8 29.2-17.7.1-30.9-7.1-37.8-16.1z"/></g><g class="st2"><path d="M249.3 4202.4c0-25.2 11.8-51.6 40-51.6 28 0 39.9 26.4 39.9 51.6 0 25-11.8 51.7-39.9 51.7-28.1 0-40-26.7-40-51.7zm62.1 0c0-19.2-5.7-36-22-36s-22.2 16.8-22.2 36c0 19 5.9 36.1 22.2 36.1 16.2 0 22-17.1 22-36.1zM371.9 4202.4c0-25.2 11.8-51.6 40-51.6 28 0 39.9 26.4 39.9 51.6 0 25-11.8 51.7-39.9 51.7-28.2 0-40-26.7-40-51.7zm62.1 0c0-19.2-5.7-36-22-36s-22.2 16.8-22.2 36c0 19 5.8 36.1 22.2 36.1 16.1 0 22-17.1 22-36.1zM464.4 4202.4c0-25.2 11.8-51.6 40-51.6 28 0 39.9 26.4 39.9 51.6 0 25-11.8 51.7-39.9 51.7s-40-26.7-40-51.7zm62.1 0c0-19.2-5.7-36-22-36s-22.2 16.8-22.2 36c0 19 5.9 36.1 22.2 36.1 16.2 0 22-17.1 22-36.1zM557 4202.4c0-25.2 11.8-51.6 40-51.6 28 0 39.9 26.4 39.9 51.6 0 25-11.8 51.7-39.9 51.7-28.2 0-40-26.7-40-51.7zm62.1 0c0-19.2-5.7-36-22-36s-22.2 16.8-22.2 36c0 19 5.8 36.1 22.2 36.1 16.1 0 22-17.1 22-36.1z"/></g><g class="st2"><path d="M102.7 3775.7c-15.4-1.2-27-7.3-34.9-15.6l9.9-13.6c5.5 6.1 14.2 11.8 25 13.5v-29.1c-15.4-3.9-31.6-9.4-31.6-28.9 0-15.3 12.3-27.4 31.6-29.1V3659h12v13.9c12.1 1.4 22.3 6.2 30.1 13.6l-9.9 13c-5.7-5.7-12.9-9.1-20.2-10.6v25.9c15.6 4.1 32.5 9.9 32.5 30 0 15.3-10 28.8-32.5 30.7v13.5h-12v-13.3zm0-63.9v-23.5c-8.4 1-13.6 5.7-13.6 12.3-.1 5.8 5.6 8.8 13.6 11.2zm12 22.2v26.1c10.3-1.5 14.5-7.6 14.5-13.5 0-6.7-6.3-10-14.5-12.6zM205 3774.2v-22.6h-47.7v-14.1l41.1-63.3h24.1v61.9h13.3v15.4h-13.3v22.6H205v.1zm0-84.3l-30.4 46.2H205v-46.2z"/></g><g class="st2"><path d="M249.3 3724.3c0-25.2 11.8-51.6 40-51.6 28 0 39.9 26.4 39.9 51.6 0 25-11.8 51.7-39.9 51.7-28.1 0-40-26.7-40-51.7zm62.1 0c0-19.2-5.7-36-22-36s-22.2 16.8-22.2 36c0 19 5.9 36.1 22.2 36.1 16.2 0 22-17.1 22-36.1zM371.9 3724.3c0-25.2 11.8-51.6 40-51.6 28 0 39.9 26.4 39.9 51.6 0 25-11.8 51.7-39.9 51.7-28.2 0-40-26.7-40-51.7zm62.1 0c0-19.2-5.7-36-22-36s-22.2 16.8-22.2 36c0 19 5.8 36.1 22.2 36.1 16.1 0 22-17.1 22-36.1zM464.4 3724.3c0-25.2 11.8-51.6 40-51.6 28 0 39.9 26.4 39.9 51.6 0 25-11.8 51.7-39.9 51.7s-40-26.7-40-51.7zm62.1 0c0-19.2-5.7-36-22-36s-22.2 16.8-22.2 36c0 19 5.9 36.1 22.2 36.1 16.2 0 22-17.1 22-36.1zM557 3724.3c0-25.2 11.8-51.6 40-51.6 28 0 39.9 26.4 39.9 51.6 0 25-11.8 51.7-39.9 51.7-28.2 0-40-26.7-40-51.7zm62.1 0c0-19.2-5.7-36-22-36s-22.2 16.8-22.2 36c0 19 5.8 36.1 22.2 36.1 16.1 0 22-17.1 22-36.1z"/></g><g class="st2"><path d="M99.7 3297.6c-15.4-1.2-27-7.3-34.9-15.6l9.9-13.6c5.5 6.1 14.2 11.8 25 13.5v-29.1c-15.4-3.9-31.6-9.4-31.6-28.9 0-15.3 12.3-27.4 31.6-29.1V3181h12v13.9c12.1 1.4 22.3 6.2 30.1 13.6l-9.9 13c-5.7-5.7-12.9-9.1-20.2-10.6v25.9c15.6 4.1 32.5 9.9 32.5 30 0 15.3-10 28.8-32.5 30.7v13.5h-12v-13.4zm0-63.9v-23.5c-8.4 1-13.6 5.7-13.6 12.3-.1 5.8 5.6 8.8 13.6 11.2zm12 22.2v26.1c10.3-1.5 14.5-7.6 14.5-13.5 0-6.7-6.3-10-14.5-12.6zM158.6 3282.5l10-12.1c6.6 7.8 15.7 12 26.8 12 12.7 0 20.5-7.8 20.5-17.7 0-10.6-7.8-17.7-20.1-17.7-8.4 0-15.4 2.5-21.9 8.5l-12.4-3.6v-55.8H227v15.4h-48v28.8c5-4.6 13-8.5 22.6-8.5 16.9 0 32.1 11.7 32.1 32.2 0 20.7-15.9 33.9-38.2 33.9-16.9 0-28.8-6-36.9-15.4z"/></g><g class="st2"><path d="M249.3 3246.2c0-25.2 11.8-51.6 40-51.6 28 0 39.9 26.4 39.9 51.6 0 25-11.8 51.7-39.9 51.7-28.1 0-40-26.7-40-51.7zm62.1 0c0-19.2-5.7-36-22-36s-22.2 16.8-22.2 36c0 19 5.9 36.1 22.2 36.1 16.2 0 22-17.1 22-36.1zM371.9 3246.2c0-25.2 11.8-51.6 40-51.6 28 0 39.9 26.4 39.9 51.6 0 25-11.8 51.7-39.9 51.7-28.2 0-40-26.7-40-51.7zm62.1 0c0-19.2-5.7-36-22-36s-22.2 16.8-22.2 36c0 19 5.8 36.1 22.2 36.1 16.1 0 22-17.1 22-36.1zM464.4 3246.2c0-25.2 11.8-51.6 40-51.6 28 0 39.9 26.4 39.9 51.6 0 25-11.8 51.7-39.9 51.7s-40-26.7-40-51.7zm62.1 0c0-19.2-5.7-36-22-36s-22.2 16.8-22.2 36c0 19 5.9 36.1 22.2 36.1 16.2 0 22-17.1 22-36.1zM557 3246.2c0-25.2 11.8-51.6 40-51.6 28 0 39.9 26.4 39.9 51.6 0 25-11.8 51.7-39.9 51.7-28.2 0-40-26.7-40-51.7zm62.1 0c0-19.2-5.7-36-22-36s-22.2 16.8-22.2 36c0 19 5.8 36.1 22.2 36.1 16.1 0 22-17.1 22-36.1z"/></g><g class="st2"><path d="M99.5 2819.5c-15.4-1.2-27-7.3-34.9-15.6l9.9-13.6c5.5 6.1 14.2 11.8 25 13.5v-29.1c-15.4-3.9-31.6-9.4-31.6-28.9 0-15.3 12.3-27.4 31.6-29.1v-13.8h12v13.9c12.1 1.4 22.3 6.2 30.1 13.6l-9.9 13c-5.7-5.7-12.9-9.1-20.2-10.6v25.9c15.6 4.1 32.5 9.9 32.5 30 0 15.3-10 28.8-32.5 30.7v13.5h-12v-13.4zm0-63.9v-23.5c-8.4 1-13.6 5.7-13.6 12.3 0 5.8 5.7 8.8 13.6 11.2zm12 22.2v26.1c10.3-1.5 14.5-7.6 14.5-13.5.1-6.7-6.2-10-14.5-12.6zM156.2 2768.1c0-28.8 15.1-51.6 44.1-51.6 12.3 0 21.9 4.3 28.6 11.1l-8.1 13.2c-5.2-5.4-11.1-8.7-20.5-8.7-16.8 0-26.4 15.4-26.4 33v2.9c4.6-6.8 15.1-14.1 26.8-14.1 18 0 33.6 11.1 33.6 32.4 0 18.4-14.5 33.6-36.9 33.6-29.3-.1-41.2-23.9-41.2-51.8zm60.3 18.7c0-12.3-9.6-17.8-20.4-17.8-8.5 0-16.9 4.5-21.9 11.7.9 10.8 6.9 23.5 22.2 23.5 13.2 0 20.1-9.4 20.1-17.4z"/></g><g class="st2"><path d="M249.4 2768.1c0-25.2 11.8-51.6 40-51.6 28 0 39.9 26.4 39.9 51.6 0 25-11.8 51.7-39.9 51.7-28.2 0-40-26.7-40-51.7zm62.1 0c0-19.2-5.7-36-22-36s-22.2 16.8-22.2 36c0 19 5.9 36.1 22.2 36.1 16.1 0 22-17.1 22-36.1zM371.9 2768.1c0-25.2 11.8-51.6 40-51.6 28 0 39.9 26.4 39.9 51.6 0 25-11.8 51.7-39.9 51.7s-40-26.7-40-51.7zm62.1 0c0-19.2-5.7-36-22-36s-22.2 16.8-22.2 36c0 19 5.8 36.1 22.2 36.1 16.2 0 22-17.1 22-36.1zM464.5 2768.1c0-25.2 11.8-51.6 40-51.6 28 0 39.9 26.4 39.9 51.6 0 25-11.8 51.7-39.9 51.7-28.2 0-40-26.7-40-51.7zm62.1 0c0-19.2-5.7-36-22-36s-22.2 16.8-22.2 36c0 19 5.9 36.1 22.2 36.1 16.1 0 22-17.1 22-36.1zM557 2768.1c0-25.2 11.8-51.6 40-51.6 28 0 39.9 26.4 39.9 51.6 0 25-11.8 51.7-39.9 51.7-28.1 0-40-26.7-40-51.7zm62.1 0c0-19.2-5.7-36-22-36s-22.2 16.8-22.2 36c0 19 5.8 36.1 22.2 36.1 16.2 0 22-17.1 22-36.1z"/></g><path d="M103.1 2341.4c-15.4-1.2-27-7.3-34.9-15.6l9.9-13.6c5.5 6.1 14.2 11.8 25 13.5v-29.1c-15.4-3.9-31.6-9.4-31.6-28.9 0-15.3 12.3-27.4 31.6-29.1v-13.8h12v13.9c12.1 1.4 22.3 6.2 30.1 13.6l-9.9 13c-5.7-5.7-12.9-9.1-20.2-10.6v25.9c15.6 4.1 32.5 9.9 32.5 30 0 15.3-10 28.8-32.5 30.7v13.5h-12v-13.4zm0-63.9V2254c-8.4 1-13.6 5.7-13.6 12.3 0 5.8 5.7 8.8 13.6 11.2zm12 22.2v26.1c10.3-1.5 14.5-7.6 14.5-13.5.1-6.7-6.2-10-14.5-12.6zM175.6 2339.9l37.8-84.6h-51.9v-15.4h72.1v12.1l-38.7 87.9h-19.3z" class="st2"/><g class="st2"><path d="M248.4 2290c0-25.2 11.8-51.6 40-51.6 28 0 39.9 26.4 39.9 51.6 0 25-11.8 51.7-39.9 51.7-28.2 0-40-26.7-40-51.7zm62.1 0c0-19.2-5.7-36-22-36s-22.2 16.8-22.2 36c0 19 5.9 36.1 22.2 36.1 16.1 0 22-17.1 22-36.1zM371.9 2290c0-25.2 11.8-51.6 40-51.6 28 0 39.9 26.4 39.9 51.6 0 25-11.8 51.7-39.9 51.7s-40-26.7-40-51.7zm62.1 0c0-19.2-5.7-36-22-36s-22.2 16.8-22.2 36c0 19 5.8 36.1 22.2 36.1 16.2 0 22-17.1 22-36.1zM464.5 2290c0-25.2 11.8-51.6 40-51.6 28 0 39.9 26.4 39.9 51.6 0 25-11.8 51.7-39.9 51.7-28.2 0-40-26.7-40-51.7zm62.1 0c0-19.2-5.7-36-22-36s-22.2 16.8-22.2 36c0 19 5.9 36.1 22.2 36.1 16.1 0 22-17.1 22-36.1zM557 2290c0-25.2 11.8-51.6 40-51.6 28 0 39.9 26.4 39.9 51.6 0 25-11.8 51.7-39.9 51.7-28.1 0-40-26.7-40-51.7zm62.1 0c0-19.2-5.7-36-22-36s-22.2 16.8-22.2 36c0 19 5.8 36.1 22.2 36.1 16.2 0 22-17.1 22-36.1z"/></g><g class="st2"><path d="M100.3 1863.3c-15.4-1.2-27-7.3-34.9-15.6l9.9-13.6c5.5 6.1 14.2 11.8 25 13.5v-29.1c-15.4-3.9-31.6-9.4-31.6-28.9 0-15.3 12.3-27.4 31.6-29.1v-13.8h12v13.9c12.1 1.4 22.3 6.2 30.1 13.6l-9.9 13c-5.7-5.7-12.9-9.1-20.2-10.6v25.9c15.6 4.1 32.5 9.9 32.5 30 0 15.3-10 28.8-32.5 30.7v13.5h-12v-13.4zm0-63.9v-23.5c-8.4 1-13.6 5.7-13.6 12.3-.1 5.8 5.6 8.8 13.6 11.2zm12 22.2v26.1c10.3-1.5 14.5-7.6 14.5-13.5 0-6.7-6.3-10-14.5-12.6zM157 1836c0-12.6 10.3-21.7 22.5-25.8-11.2-3.6-20.8-11.1-20.8-23.7 0-18.6 19-26.2 36.7-26.2s36.7 7.6 36.7 26.2c0 12.6-9.6 20.1-20.8 23.7 12.1 4 22.5 13.2 22.5 25.8 0 18-18 27.6-38.4 27.6-20.6 0-38.4-9.6-38.4-27.6zm58.9-2.2c0-10.3-14.4-14.8-20.5-15.7-6.3.9-20.5 5.4-20.5 15.7 0 8.8 9.1 14.2 20.5 14.2 11.1 0 20.5-5.4 20.5-14.2zm-1.6-44.6c0-8.5-8.1-13.3-18.9-13.3-10.8 0-18.9 4.8-18.9 13.3 0 9.3 12.9 12.9 18.9 13.9 6.1-1 18.9-4.6 18.9-13.9z"/></g><g class="st2"><path d="M249.3 1811.9c0-25.2 11.8-51.6 40-51.6 28 0 39.9 26.4 39.9 51.6 0 25-11.8 51.7-39.9 51.7-28.1 0-40-26.7-40-51.7zm62.1 0c0-19.2-5.7-36-22-36s-22.2 16.8-22.2 36c0 19 5.9 36.1 22.2 36.1 16.2 0 22-17.1 22-36.1zM371.9 1811.9c0-25.2 11.8-51.6 40-51.6 28 0 39.9 26.4 39.9 51.6 0 25-11.8 51.7-39.9 51.7-28.2 0-40-26.7-40-51.7zm62.1 0c0-19.2-5.7-36-22-36s-22.2 16.8-22.2 36c0 19 5.8 36.1 22.2 36.1 16.1 0 22-17.1 22-36.1zM464.4 1811.9c0-25.2 11.8-51.6 40-51.6 28 0 39.9 26.4 39.9 51.6 0 25-11.8 51.7-39.9 51.7s-40-26.7-40-51.7zm62.1 0c0-19.2-5.7-36-22-36s-22.2 16.8-22.2 36c0 19 5.9 36.1 22.2 36.1 16.2 0 22-17.1 22-36.1zM557 1811.9c0-25.2 11.8-51.6 40-51.6 28 0 39.9 26.4 39.9 51.6 0 25-11.8 51.7-39.9 51.7-28.2 0-40-26.7-40-51.7zm62.1 0c0-19.2-5.7-36-22-36s-22.2 16.8-22.2 36c0 19 5.8 36.1 22.2 36.1 16.1 0 22-17.1 22-36.1z"/></g><path d="M103.3 1385.2c-15.4-1.2-27-7.3-34.9-15.6l9.9-13.6c5.5 6.1 14.2 11.8 25 13.5v-29.1c-15.4-3.9-31.6-9.4-31.6-28.9 0-15.3 12.3-27.4 31.6-29.1v-13.8h12v13.9c12.1 1.4 22.3 6.2 30.1 13.6l-9.9 13c-5.7-5.7-12.9-9.1-20.2-10.6v25.9c15.6 4.1 32.5 9.9 32.5 30 0 15.3-10 28.8-32.5 30.7v13.5h-12v-13.4zm0-63.9v-23.5c-8.4 1-13.6 5.7-13.6 12.3-.1 5.8 5.6 8.8 13.6 11.2zm12 22.2v26.1c10.3-1.5 14.5-7.6 14.5-13.5 0-6.7-6.3-10-14.5-12.6zM164.7 1374.3l8.2-13.3c5.2 5.5 10.9 8.8 20.5 8.8 18.1 0 26.4-16.6 26.4-33 0-.9 0-2-.1-2.8-4.5 6.8-15 13.9-26.8 13.9-18 0-33.4-10.9-33.4-32.2 0-18.6 14.5-33.6 36.9-33.6 29.4 0 41.2 23.8 41.2 51.6 0 28.9-15.1 51.7-44.1 51.7-12.4 0-22-4.5-28.8-11.1zm54.9-53.3c-1-10.8-6.9-23.4-22.3-23.4-13.2 0-20.1 9.3-20.1 17.4 0 12.3 9.6 17.8 20.5 17.8 8.6.1 16.8-4.6 21.9-11.8z" class="st2"/><g class="st2"><path d="M249.4 1333.8c0-25.2 11.8-51.6 40-51.6 28 0 39.9 26.4 39.9 51.6 0 25-11.8 51.7-39.9 51.7s-40-26.7-40-51.7zm62.1 0c0-19.2-5.7-36-22-36s-22.2 16.8-22.2 36c0 19 5.9 36.1 22.2 36.1 16.2 0 22-17.1 22-36.1zM372 1333.8c0-25.2 11.8-51.6 40-51.6 28 0 39.9 26.4 39.9 51.6 0 25-11.8 51.7-39.9 51.7-28.2 0-40-26.7-40-51.7zm62.1 0c0-19.2-5.7-36-22-36s-22.2 16.8-22.2 36c0 19 5.8 36.1 22.2 36.1 16.1 0 22-17.1 22-36.1zM464.5 1333.8c0-25.2 11.8-51.6 40-51.6 28 0 39.9 26.4 39.9 51.6 0 25-11.8 51.7-39.9 51.7-28.1 0-40-26.7-40-51.7zm62.1 0c0-19.2-5.7-36-22-36s-22.2 16.8-22.2 36c0 19 5.9 36.1 22.2 36.1 16.2 0 22-17.1 22-36.1zM557.1 1333.8c0-25.2 11.8-51.6 40-51.6 28 0 39.9 26.4 39.9 51.6 0 25-11.8 51.7-39.9 51.7-28.2 0-40-26.7-40-51.7zm62.1 0c0-19.2-5.7-36-22-36s-22.2 16.8-22.2 36c0 19 5.8 36.1 22.2 36.1 16.1 0 22-17.1 22-36.1z"/></g><g class="st2"><path d="M43.9 907.1c-15.4-1.2-27-7.3-34.9-15.6l9.9-13.6c5.5 6.1 14.2 11.8 25 13.5v-29.1c-15.4-3.9-31.6-9.4-31.6-28.9 0-15.3 12.3-27.4 31.6-29.1v-13.8h12v13.9C68 805.7 78.2 810.5 86 818l-9.9 13c-5.7-5.7-12.9-9.1-20.2-10.6v25.9c15.6 4.1 32.5 9.9 32.5 30 0 15.3-10 28.8-32.5 30.7v13.5h-12v-13.4zm0-63.9v-23.5c-8.4 1-13.6 5.7-13.6 12.3-.1 5.8 5.6 8.8 13.6 11.2zm12 22.2v26.1c10.3-1.5 14.5-7.6 14.5-13.5 0-6.7-6.3-10-14.5-12.6zM123.1 905.6v-77.4l-16.3 17.1-10.2-10.6 28.8-29.1h15.3v100h-17.6z"/></g><path d="M157.5 855.7c0-25.2 11.8-51.6 40-51.6 28 0 39.9 26.4 39.9 51.6 0 25-11.8 51.7-39.9 51.7s-40-26.7-40-51.7zm62.1 0c0-19.2-5.7-36-22-36s-22.2 16.8-22.2 36c0 19 5.9 36.1 22.2 36.1 16.2 0 22-17.1 22-36.1z" class="st2"/><g class="st2"><path d="M249.3 855.7c0-25.2 11.8-51.6 40-51.6 28 0 39.9 26.4 39.9 51.6 0 25-11.8 51.7-39.9 51.7-28.1 0-40-26.7-40-51.7zm62.1 0c0-19.2-5.7-36-22-36s-22.2 16.8-22.2 36c0 19 5.9 36.1 22.2 36.1 16.2 0 22-17.1 22-36.1zM371.9 855.7c0-25.2 11.8-51.6 40-51.6 28 0 39.9 26.4 39.9 51.6 0 25-11.8 51.7-39.9 51.7-28.2 0-40-26.7-40-51.7zm62.1 0c0-19.2-5.7-36-22-36s-22.2 16.8-22.2 36c0 19 5.8 36.1 22.2 36.1 16.1 0 22-17.1 22-36.1zM464.4 855.7c0-25.2 11.8-51.6 40-51.6 28 0 39.9 26.4 39.9 51.6 0 25-11.8 51.7-39.9 51.7s-40-26.7-40-51.7zm62.1 0c0-19.2-5.7-36-22-36s-22.2 16.8-22.2 36c0 19 5.9 36.1 22.2 36.1 16.2 0 22-17.1 22-36.1zM557 855.7c0-25.2 11.8-51.6 40-51.6 28 0 39.9 26.4 39.9 51.6 0 25-11.8 51.7-39.9 51.7-28.2 0-40-26.7-40-51.7zm62.1 0c0-19.2-5.7-36-22-36s-22.2 16.8-22.2 36c0 19 5.8 36.1 22.2 36.1 16.1 0 22-17.1 22-36.1z"/></g><path class="st1" d="M720.7 5633.9V852.8"/><g><path class="st1" d="M685.4 5924.5H897"/><path class="st0" d="M720.7 5155.8H9182M720.7 4677.7H9182M720.7 4199.6H9182M720.7 3721.5H9182M720.7 3243.4H9182M720.7 2765.3H9182M720.7 2287.1H9182M720.7 1809H9182M720.7 1330.9H9182"/><path class="st3" d="M720.7 852.8H9173"/></g></g><g><path class="st4" d="M9258.7 765.4h6.2v6h-6.2zM9258.7 771.4h6.2v6h-6.2z"/><path class="st5" d="M744.4 5187.8l50.9 19.1 49.5-32.4 47.8 21 50.2 29.5 50.1-4.1 50.5 7.6 50.7-45.1 47.6-54.2 48.2 45.9 50.5-5.4 50.2 7.3 50.8-31.9 49.9-54.8 48.8-72.9 48.8-4 50.3-29.4 48.3-40 50.5 18.4 49.5-106.4 48 17.8 51.3-22.4 49.1-56.1 47.6-3.6 48.8 20.1 50.8 19.5 50.7-23.9 47-23.8 48.8 84.7 51.9 3.6 50-24.8 50.4-13.1 50-85 47.6-58.4 48.2 35.2 50.3-8.9 48.8 7.6 51.5 14.8 49.4-83.6 49.1 20 50.4-58.3 48.1-18.8 48.9 6.9 51 2 49.3-51.3 49.7 7.2 49.1-62.9 49.2 22.2 49.8-46.9 47 10.3 50.1 55.5 49.3-12.6 50.9 68.5 51.5-78.5 49.4-35.2 49.5-59.5 48.3-36.1 49.1 4.1 49.1-21.1 49.3 18.3 51.1-15.3 49.9-41.9 48-37 47.7 22.9 51 29.9 51.6-35.8 49.7-72.1 47-51.9 49 58.5 48.8-32.4 48.3 111.1 50.5 49.9 52.2 12.9 50.7-66.5 46.2-71.5 48.7 145.4 52.9-31 46.6-36.9 47.8 109.8 49.5 205.6 51.7 110.5 50.1-61 47.6 63.1 52.7 26.2 51-89.4 49-133.6 48.5-5.6 50.5-41.9 49.5-68 49.6-45.8 48.6-78.7 49.4 11.7 50.5-71.6 46.7-47.6 49.9 76.7 52.2-73.5 49.6-125.6 46.7-77 47 83.5 51.9 83.9 51.3-72.3 50.3-4.5 49.9-212.5 49.3-98.8 49.1-91.3 49.7-32.9 49.6-123.6 49.4-55.7 49.7-96.5 48.6-75.1 46.9-7.2 49 39.8 48.6 9.3 48.8 145.5 50.7 334.3 51.3-86.2 47.9 79.1 53.5-7.9 49.9-204.2 49.3-85.4 47-95.6 46.6 86.4 51 152.1 50.4-55.9 49.7 74.7 51.7-69 47.1-28.3 50.2 42.9 51-61.2 50.2-24.6 49.7-213.9 48.9-48.6 49.8-57.8 49.8-100.5 48.2-117.5 50 26.5 50.1-198.3 49.5-30.6 49.8-183.7 49.5-115.1 49.4-178 46.9-90.6 50.8 88.3L7824 2073l46.4 214.3 53.2 143.2 51.6-248.8 47.1-96.4 50.5 69.3 48.5-211.8 46.6 147.7 51.4 17.2 49.7-.9 51.3 12.3 50.9-86.1 47.9-326.4 49.2 131 51.4-279.7 49.3-148.6 49.6-61.2 47.2-328.8 46.1 220.4 53.3 190.2 51.5-354.6 46.2-141.1 46.9 186.5 50.2 542.1 54.6-74.1L9063 1322l49.1 65.4 51.1-187.6-5.8-1.6-47.9 175.8-49.9-66.6-50.6 278.9-44.5 60.3-48.7-527-52.1-207-52.8 161.3-47.5 327.1-45.7-162.7-53-253.6-51.8 360.9-49.3 60.8-49.7 150-47.6 258.8-49.8-132.5-51.1 348.3-48.1 81.3-47.7-11.6-49.3 1-47.6-15.9-52.4-165.8-50.4 220.4-48.6-66.7-51.9 106.1-47.4 229.1-45.8-123.3-52.6-243.2-50.8 275.5-48.1-83.6-52.2 100.9-49.5 178.2-49.5 115.1-49.3 181.9-49.5 30.6-48.8 193.2-49.1-26-50.7 123.4-49.3 99.6-49.2 57.1-50 49.6-49.4 212.9-48.8 23.9-47.9 57.5-48.9-41.8-51.8 31.1-47.3 63.2-49.3-74.1-48.7 54.1-47.9-142.9-52.4-97-52 105.8-49.7 86-49.1 201.1-45.5 6.7-51.1-84.2-47.7 80.3-48.3-318.2-50.2-149.3-50.4-9.7-50-40.5-52.1 7.9-50.3 77.6-49.4 96.2-49.6 55.9-49.4 122.9-49.3 32.6-49.9 92.7-49.7 99.5-49.1 209-48.7 4.4-47.7 67.1-47.1-76.1-51.9-92.3-52.3 86.2-49.5 125.4-46.7 65.7-49.2-75.6-52.2 53.3-48.5 68.7-49.6-11.8-50.5 81.8-49.4 45.6-49.4 67.9-48.6 40.2-50.4 5.8-50.1 136.7-47.9 84-46.3-23.1-51.4-67.9-48.9 59.4-47.4-101.3-49.5-205.5-51.1-117.4-52.4 41.4-46.1 27.1-50.3-150.2-52.9 81.7-48.2 63.2-46.8-11.6-48.5-47.9-50.7-116.5-50.2 33.3-50-59.6-52 57.2-49.3 71.6-47.4 33-48-28.1-51.3-24.6-51 39.4-49 41.1-48 14.4-49.7-18.5-49.9 21.5-49.9-4.2-50.7 37.9-49.4 59.5-49.7 35.4-47.4 72.2-48.2-64.8-49.7 12.7-48.9-54.3-52-11.4-49.2 46.4-49.8-22.5-49.9 63.9-49.3-7.2-49.6 51.6-48-1.9-50.1-7-51 19.9-48.5 56.1-49.9-20.4-49.7 84.1-47.4-13.6-50.2-7.8-48.7 8.7-50.8-37.1-51.4 63.2-49 83.2-48.6 12.6-49.1 24.4-47.1-3.3-50.1-86.8-52 26.3-48.3 22.8-48.2-18.5-50.2-20.7-51.4 3.9-49.9 56.9-47.7 21-51-19-49.5 106.5-48.5-17.7-50.7 41.9-48.7 28.4-50.2 4.1-50.2 75-49.1 53.9-48.2 30.3-48.8-7.1-48.5 5.2-50.7-48.4-51.5 58.6-48.3 43-48.4-7.2-48.9 4-48.9-28.8-51.1-22.4-49.6 32.5-48.1-18z"/><g><path class="st4" d="M9258.7 759.4h6.2v6h-6.2z"/><path class="st1" d="M3952.4 649.9h1058.1l-546.4-178h-1058z"/><path class="st6" d="M744 5165.1l50.1 28.9 49.4 3.2 48.9 30.9 50.3 32.3 49.2-2.4 50.3 41.7 51.1-30.7 48.1-21 48.6 22.5 50 9.6 49.9 5.4 50.5-3.4 49.9-29.5 48.9-20 49.1-5.1 49.6-7.2 49.2-8.1 49.9 4.6 49.7-23.9 49.5-3.9 49.7-23.5 49-8.6 49-6.6 49.1 7.3 49.9 7.6 50-6.6 48.8-9.1 49.3 16 50.2-1.9 49.6-5.1 49.9-7.4 49.8-19.8 48.6-16.8 49.3 12.7 49.6-10.8 48.9 9.1 50.2 9.8 49.8-16 49.6-.7 49.3-19.2 49.1 4.8 49.4-4.3 49.9 9 49.8-20 49.4-.2 49.5-14.5 49.3-1.6 49.7-7 48.8-7.6 49.2 16.6 50.1-.7 49.9-3.5 49.8-13.6 49.7-15 49.4-19.3 49.2-11.6 49.5-8.8 48.8-9.5 49.4 12.6 50.7-7.2 49.9-28.5 48.4-22.8 48.3 11.2 50.1 21.3 50.8-10.2 49.5-24.9 48-10.7 49 29.1 49.3 4.7 49.1 39.8 50.4 20.8 50.9 2.8 49.8-29.7 47.4-7.9 49.1 53.9 51.1 5.1 48.3-8.2 48.1 51.4 49.7 91 51 33.2 49.4-4.4 48.5 34.8 51.1 42.5 51.4-31.4 47.8-34.7 50.1 41.3 51.1-66.7 48.7-32.4 49.2-16.8 48.7-17.8 49.8 9.4 50.1-29.9 48.1-9.9 49.7 19.3 50.9-16.4 49.3-31.9 47.4-8.5 48.7 44.9 51.5 28.5 49.5-34.9 49.8 24.2 50.6-46.5 48.5-20.6 49.9-.1 49.8-38.7 49.2-14.4 49.1-21.4 49.4-.2 49.3-19.2 48.6 7.5 49.3 10.9 49 13.1 48.9 34.3 51.7 44.2 50.5-62.4 48.3 1.3 50.3-6.5 50-28.3 49.4-28.3 48.7-22.1 47.7 4.3 50.4 42.9 50.9-28 49.2-9.4 49.7-15.8 48.7-18 49.1 13.3 50.1-4.2 50.3-6.7 49.6-37.7 49.3-10.3 49.6-29.1 49.3-15.5 48.8-18.8 50 11.4 49.1-41.8 49.2 25 51.1-27.4 49.5-40 49.2-27.6 47.9-23 49.9 33.6 50.6-43.4 48.7-8.1 49.9-7.3 49.8-23.3 48.5-20.4 50 14.3 49.5-40.6 49.1 14.7 50.6-26.1 48.8-28.3 47.8 2.7 51.1 33.9 49.9-61.4 48.3 17.3 50.4-10.8 48.6-14.1 49.7 22 48.5-22.7 48.5 66.7 52.7 28 50.1-88.5 47.7-3.6 48.1 2 49.5 55.8 52.4 1.5 49.3-72.1 48.5 11.4 50.4-21.8-2.4-5.5-48.6 21-50.5-11.9-49.8 72.9-46.5-1.4-49.5-55.8-51-2.2-51.2 3.9-48.9 86.3-46.3-24.6-50.5-69.7-50.5 23.7-49.3-21.8-50.4 14.7-48.6 10.3-50.7-18.1-49.1 60.5-47.9-31.8-51.2-2.9-50.2 29.2-48.4 24.9-49.9-15-49.5 40.7-49-14.1-50.5 21.3-49.2 23-49 7.2-50.4 8.3-48.4 41.6-49-33-51.2 24.6-49.8 27.9-49.4 40-47.9 25.6-49.9-25.4-49.9 42.4-48.9-11.1-50.3 19.5-49.7 15.5-49.4 29-49.7 10.4-49.4 37.6-48.6 6.5-48.9 4.1-49.9-13.6-50.3 18.7-49.3 15.6-49.8 9.5-48.1 26.4-48.6-41.4-51.3-4.6-50.3 22.9-49.6 28.4-49 27.7-48.7 6.3-50.8-1.4-48.4 60-47.3-40.5-50.1-35-50-13.4-49.7-11-50.4-7.8-49.7 19.4-49.6.2-49.9 21.7-49.8 14.7-49.2 38.1-49.1.1-50.5 21.5-48.4 44.4-49.2-23.9-49.4 34.8-47.6-26.4-50.3-46.4-51.6 9.3-49.6 32.1-48.1 15.4-49.4-19.1-50.8 10.4-49 29.3-49.2-9.3-50.2 18.4-49.9 17-50.2 33.4-47.9 62.5-48.9-40.3-51.3 37.3-47.6 29-47.9-39.8-50.5-36.3-49.5 4.5-48-31.3-49.4-90.4-50.8-54.3-50.7 8.7-48-4.8-49.8-54.7-51.7 8.6-49.2 29.4-48-2.6-48.7-20.1-49.8-40.4-49.7-4.7-50-29.7-51 11.4-49.5 24.9-48.2 9.6-48.9-20.8-50.7-11.7-50.6 23.7-49.1 28.1-48.3 6.9-49.6-12.6-50.1 9.7-49.6 8.8-49.8 11.7-49.6 19.4-49.3 14.9-49.2 13.4-49.1 3.5-48.9.7-49.7-16.7-50.2 7.8-49.3 7-49.8 1.5-49.4 14.5-49.7.2-49.2 19.8-49-8.8-49.7 4.3-49.9-5-49.7 19.4-49.4.7-49.2 15.9-48.7-9.6-50.1-9.3-49.4 10.7-49.7-12.8-50.4 17.5-49.2 19.6-49.1 7.2-49.4 5.1-48.8 1.9-49.8-16.2-50.1 9.4-49 6.4-49.1-7.4-49.9-7.4-50 6.7-50 8.7-49.3 23.4-49.5 3.9-49.3 23.7-49.1-4.5-49.8 8.2-49.4 7.2-49.9 5.2-50.1 20.4-49.1 29-48.5 3.3-49.1-5.3-49-9.5-50.4-23.2-50.9 22.2-47.9 28.7-48.7-40.5-49.7 2.4-48.7-31.3-50.2-31.7-49.5-3.2-48.9-28.2z"/></g></g><g id="_x22__1_"><path d="M348.5 5228.5l-7.2-5.8c4.8-2.8 9.9-9 10.8-14.1-.3.2-1.5.5-2.5.5-4.9 0-8.8-4-8.8-9.6s4.5-10.2 10.2-10.2c6.1 0 11.5 5 11.5 13.6-.1 10.3-5.8 19.8-14 25.6z"/><path d="M348.9 4750.4l-7.2-5.8c4.8-2.8 9.9-9 10.8-14.1-.3.2-1.5.5-2.5.5-4.9 0-8.8-4-8.8-9.6s4.5-10.2 10.2-10.2c6.1 0 11.5 5 11.5 13.6 0 10.3-5.7 19.8-14 25.6zM348.9 4272.3l-7.2-5.8c4.8-2.8 9.9-9 10.8-14.1-.3.2-1.5.5-2.5.5-4.9 0-8.8-4-8.8-9.6s4.5-10.2 10.2-10.2c6.1 0 11.5 5 11.5 13.6-.1 10.3-5.8 19.7-14 25.6zM348.9 3794.2l-7.2-5.8c4.8-2.8 9.9-9 10.8-14.1-.3.2-1.5.5-2.5.5-4.9 0-8.8-4-8.8-9.6s4.5-10.2 10.2-10.2c6.1 0 11.5 5 11.5 13.6-.1 10.3-5.8 19.7-14 25.6zM348.9 3316.1l-7.2-5.8c4.8-2.8 9.9-9 10.8-14.1-.3.2-1.5.5-2.5.5-4.9 0-8.8-4-8.8-9.6s4.5-10.2 10.2-10.2c6.1 0 11.5 5 11.5 13.6-.1 10.3-5.8 19.7-14 25.6zM348.9 2838l-7.2-5.8c4.8-2.8 9.9-9 10.8-14.1-.3.2-1.5.5-2.5.5-4.9 0-8.8-4-8.8-9.6s4.5-10.2 10.2-10.2c6.1 0 11.5 5 11.5 13.6 0 10.3-5.7 19.7-14 25.6zM348.9 2359.9l-7.2-5.8c4.8-2.8 9.9-9 10.8-14.1-.3.2-1.5.5-2.5.5-4.9 0-8.8-4-8.8-9.6s4.5-10.2 10.2-10.2c6.1 0 11.5 5 11.5 13.6 0 10.3-5.7 19.7-14 25.6zM348.9 1881.8l-7.2-5.8c4.8-2.8 9.9-9 10.8-14.1-.3.2-1.5.5-2.5.5-4.9 0-8.8-4-8.8-9.6s4.5-10.2 10.2-10.2c6.1 0 11.5 5 11.5 13.6-.1 10.3-5.8 19.7-14 25.6z" class="st2"/><path d="M345.9 1403.7l-7.2-5.8c4.8-2.8 9.9-9 10.8-14.1-.3.2-1.5.5-2.5.5-4.9 0-8.8-4-8.8-9.6s4.5-10.2 10.2-10.2c6.1 0 11.5 5 11.5 13.6-.1 10.3-5.8 19.7-14 25.6zM345.9 925.6l-7.2-5.8c4.8-2.8 9.9-9 10.8-14.1-.3.2-1.5.5-2.5.5-4.9 0-8.8-4-8.8-9.6s4.5-10.2 10.2-10.2c6.1 0 11.5 5 11.5 13.6-.1 10.3-5.8 19.7-14 25.6z"/></g><g><g class="st2"><path d="M8321.5 5789.9V5776c38.8-29.4 54.1-42.3 54.1-56.8 0-10.5-9.1-15.2-18.3-15.2-11.7 0-20.5 4.7-27 11.8l-10.2-11.4c8.8-10.8 22.9-16.1 37-16.1 19.3 0 36.1 10.8 36.1 30.8 0 18.6-16.9 35.1-43.6 55.3h44.2v15.4h-72.3v.1zM8409.6 5739.9c0-25.2 11.8-51.6 40-51.6 28 0 39.9 26.4 39.9 51.6 0 25-11.8 51.7-39.9 51.7-28.2.1-40-26.6-40-51.7zm62.1 0c0-19.2-5.7-36-22-36s-22.2 16.8-22.2 36c0 19.1 5.9 36.1 22.2 36.1 16.1.1 22-17 22-36.1zM8524.6 5789.9v-77.4l-16.3 17.1-10.2-10.6 28.8-29.1h15.3v100h-17.6zM8561.4 5776.2l10-12.1c6.6 7.8 15.7 12 26.8 12 12.7 0 20.5-7.8 20.5-17.7 0-10.6-7.8-17.7-20.1-17.7-8.4 0-15.4 2.6-21.9 8.6l-12.5-3.6v-55.8h65.5v15.4h-48v28.8c5-4.6 13-8.5 22.6-8.5 16.9 0 32.1 11.7 32.1 32.2 0 20.7-15.9 33.9-38.2 33.9-16.9 0-28.7-6-36.8-15.5z"/></g><g class="st2"><path d="M8915.5 5789.9V5776c38.8-29.4 54.1-42.3 54.1-56.8 0-10.5-9.1-15.2-18.3-15.2-11.7 0-20.5 4.7-27 11.8l-10.2-11.4c8.8-10.8 22.9-16.1 37-16.1 19.3 0 36.1 10.8 36.1 30.8 0 18.6-16.9 35.1-43.6 55.3h44.2v15.4h-72.3v.1zM9003.6 5739.9c0-25.2 11.8-51.6 40-51.6 28 0 39.9 26.4 39.9 51.6 0 25-11.8 51.7-39.9 51.7-28.2.1-40-26.6-40-51.7zm62.1 0c0-19.2-5.7-36-22-36s-22.2 16.8-22.2 36c0 19.1 5.9 36.1 22.2 36.1 16.1.1 22-17 22-36.1zM9118.6 5789.9v-77.4l-16.3 17.1-10.2-10.6 28.8-29.1h15.3v100h-17.6zM9153.1 5739.9c0-28.8 15.1-51.6 44.1-51.6 12.3 0 21.9 4.3 28.6 11.1l-8.1 13.2c-5.2-5.4-11.1-8.7-20.5-8.7-16.8 0-26.4 15.4-26.4 33v2.9c4.6-6.8 15.1-14.1 26.8-14.1 18 0 33.6 11.1 33.6 32.4 0 18.4-14.6 33.6-36.9 33.6-29.3 0-41.2-23.9-41.2-51.8zm60.3 18.8c0-12.3-9.6-17.8-20.4-17.8-8.5 0-16.9 4.5-21.9 11.7.9 10.8 6.9 23.5 22.2 23.5 13.2 0 20.1-9.5 20.1-17.4z"/></g><g class="st2"><path d="M7133.5 5789.9V5776c38.8-29.4 54.1-42.3 54.1-56.8 0-10.5-9.1-15.2-18.3-15.2-11.7 0-20.5 4.7-27 11.8l-10.2-11.4c8.8-10.8 22.9-16.1 37-16.1 19.3 0 36.1 10.8 36.1 30.8 0 18.6-16.9 35.1-43.6 55.3h44.2v15.4h-72.3v.1zM7221.6 5739.9c0-25.2 11.8-51.6 40-51.6 28 0 39.9 26.4 39.9 51.6 0 25-11.8 51.7-39.9 51.7-28.2.1-40-26.6-40-51.7zm62.1 0c0-19.2-5.7-36-22-36s-22.2 16.8-22.2 36c0 19.1 5.9 36.1 22.2 36.1 16.1.1 22-17 22-36.1zM7336.6 5789.9v-77.4l-16.3 17.1-10.2-10.6 28.8-29.1h15.3v100h-17.6zM7368.4 5775.5l9.6-11.5c6.5 7.5 16.9 12.1 27.6 12.1 13.2 0 20.8-6.1 20.8-15.3 0-9.9-7.8-14.2-22.2-14.2-4.2 0-9.9.2-11.4.3V5731c1.7.1 7.5.1 11.4.1 11.8 0 20.7-4 20.7-13.2 0-9.1-9.1-13.9-20.2-13.9-10.3 0-18.8 3.8-25.9 11.1l-9-10.9c7.8-9.2 19.9-15.8 36.6-15.8 21.6 0 36 10.2 36 26.8 0 13.5-11.4 21.3-21.6 22.9 9.6 1 23.2 8.8 23.2 24.3 0 17.1-14.5 29.2-37.8 29.2-17.7.1-30.9-7.1-37.8-16.1z"/></g><g class="st2"><path d="M7727.5 5789.9V5776c38.8-29.4 54.1-42.3 54.1-56.8 0-10.5-9.1-15.2-18.3-15.2-11.7 0-20.5 4.7-27 11.8l-10.2-11.4c8.8-10.8 22.9-16.1 37-16.1 19.3 0 36.1 10.8 36.1 30.8 0 18.6-16.9 35.1-43.6 55.3h44.2v15.4h-72.3v.1zM7815.6 5739.9c0-25.2 11.8-51.6 40-51.6 28 0 39.9 26.4 39.9 51.6 0 25-11.8 51.7-39.9 51.7-28.2.1-40-26.6-40-51.7zm62.1 0c0-19.2-5.7-36-22-36s-22.2 16.8-22.2 36c0 19.1 5.9 36.1 22.2 36.1 16.1.1 22-17 22-36.1zM7930.6 5789.9v-77.4l-16.3 17.1-10.2-10.6 28.8-29.1h15.3v100h-17.6zM8010.7 5789.9v-22.7H7963v-14.1l41.1-63.3h24.1v61.9h13.3v15.4h-13.3v22.7h-17.5v.1zm0-84.3l-30.4 46.2h30.4v-46.2z"/></g><g class="st2"><path d="M5945.5 5789.9V5776c38.8-29.4 54.1-42.3 54.1-56.8 0-10.5-9.1-15.2-18.3-15.2-11.7 0-20.5 4.7-27 11.8l-10.2-11.4c8.8-10.8 22.9-16.1 37-16.1 19.3 0 36.1 10.8 36.1 30.8 0 18.6-16.9 35.1-43.6 55.3h44.2v15.4h-72.3v.1zM6033.6 5739.9c0-25.2 11.8-51.6 40-51.6 28 0 39.9 26.4 39.9 51.6 0 25-11.8 51.7-39.9 51.7-28.2.1-40-26.6-40-51.7zm62.1 0c0-19.2-5.7-36-22-36s-22.2 16.8-22.2 36c0 19.1 5.9 36.1 22.2 36.1 16.1.1 22-17 22-36.1zM6148.6 5789.9v-77.4l-16.3 17.1-10.2-10.6 28.8-29.1h15.3v100h-17.6zM6205.6 5789.9v-77.4l-16.3 17.1-10.2-10.6 28.8-29.1h15.3v100h-17.6z"/></g><g class="st2"><path d="M6539.5 5789.9V5776c38.8-29.4 54.1-42.3 54.1-56.8 0-10.5-9.1-15.2-18.3-15.2-11.7 0-20.5 4.7-27 11.8l-10.2-11.4c8.8-10.8 22.9-16.1 37-16.1 19.3 0 36.1 10.8 36.1 30.8 0 18.6-16.9 35.1-43.6 55.3h44.2v15.4h-72.3v.1zM6627.6 5739.9c0-25.2 11.8-51.6 40-51.6 28 0 39.9 26.4 39.9 51.6 0 25-11.8 51.7-39.9 51.7-28.2.1-40-26.6-40-51.7zm62.1 0c0-19.2-5.7-36-22-36s-22.2 16.8-22.2 36c0 19.1 5.9 36.1 22.2 36.1 16.1.1 22-17 22-36.1zM6742.6 5789.9v-77.4l-16.3 17.1-10.2-10.6 28.8-29.1h15.3v100h-17.6zM6778.3 5789.9V5776c38.8-29.4 54.1-42.3 54.1-56.8 0-10.5-9.1-15.2-18.3-15.2-11.7 0-20.5 4.7-27 11.8l-10.2-11.4c8.8-10.8 22.9-16.1 37-16.1 19.3 0 36.1 10.8 36.1 30.8 0 18.6-16.9 35.1-43.6 55.3h44.2v15.4h-72.3v.1z"/></g><g class="st2"><path d="M4757.5 5789.9V5776c38.8-29.4 54.1-42.3 54.1-56.8 0-10.5-9.1-15.2-18.3-15.2-11.7 0-20.5 4.7-27 11.8l-10.2-11.4c8.8-10.8 22.9-16.1 37-16.1 19.3 0 36.1 10.8 36.1 30.8 0 18.6-16.9 35.1-43.6 55.3h44.2v15.4h-72.3v.1zM4845.6 5739.9c0-25.2 11.8-51.6 40-51.6 28 0 39.9 26.4 39.9 51.6 0 25-11.8 51.7-39.9 51.7-28.2.1-40-26.6-40-51.7zm62.1 0c0-19.2-5.7-36-22-36s-22.2 16.8-22.2 36c0 19.1 5.9 36.1 22.2 36.1 16.1.1 22-17 22-36.1zM4938.1 5739.9c0-25.2 11.8-51.6 40-51.6 28 0 39.9 26.4 39.9 51.6 0 25-11.8 51.7-39.9 51.7-28.1.1-40-26.6-40-51.7zm62.1 0c0-19.2-5.7-36-22-36s-22.2 16.8-22.2 36c0 19.1 5.8 36.1 22.2 36.1 16.2.1 22-17 22-36.1zM5035.5 5780.4l8.2-13.3c5.2 5.5 11 8.8 20.5 8.8 18.1 0 26.4-16.7 26.4-33 0-.9 0-1.9-.2-2.8-4.5 6.8-15 13.9-26.8 13.9-18 0-33.4-10.9-33.4-32.2 0-18.6 14.5-33.6 36.9-33.6 29.4 0 41.2 23.8 41.2 51.6 0 28.9-15.2 51.7-44.1 51.7-12.4 0-22-4.5-28.7-11.1zm54.9-53.2c-1-10.8-6.9-23.4-22.3-23.4-13.2 0-20.1 9.3-20.1 17.4 0 12.3 9.6 17.8 20.5 17.8 8.5 0 16.8-4.6 21.9-11.8z"/></g><g class="st2"><path d="M5351.5 5789.9V5776c38.8-29.4 54.1-42.3 54.1-56.8 0-10.5-9.1-15.2-18.3-15.2-11.7 0-20.5 4.7-27 11.8l-10.2-11.4c8.8-10.8 22.9-16.1 37-16.1 19.3 0 36.1 10.8 36.1 30.8 0 18.6-16.9 35.1-43.6 55.3h44.2v15.4h-72.3v.1zM5439.6 5739.9c0-25.2 11.8-51.6 40-51.6 28 0 39.9 26.4 39.9 51.6 0 25-11.8 51.7-39.9 51.7-28.2.1-40-26.6-40-51.7zm62.1 0c0-19.2-5.7-36-22-36s-22.2 16.8-22.2 36c0 19.1 5.9 36.1 22.2 36.1 16.1.1 22-17 22-36.1zM5554.6 5789.9v-77.4l-16.3 17.1-10.2-10.6 28.8-29.1h15.3v100h-17.6zM5589.1 5739.9c0-25.2 11.8-51.6 40-51.6 28 0 39.9 26.4 39.9 51.6 0 25-11.8 51.7-39.9 51.7-28.1.1-40-26.6-40-51.7zm62.1 0c0-19.2-5.7-36-22-36s-22.2 16.8-22.2 36c0 19.1 5.9 36.1 22.2 36.1 16.2.1 22-17 22-36.1z"/></g><g class="st2"><path d="M3569.5 5789.9V5776c38.8-29.4 54.1-42.3 54.1-56.8 0-10.5-9.1-15.2-18.3-15.2-11.7 0-20.5 4.7-27 11.8l-10.2-11.4c8.8-10.8 22.9-16.1 37-16.1 19.3 0 36.1 10.8 36.1 30.8 0 18.6-16.9 35.1-43.6 55.3h44.2v15.4h-72.3v.1zM3657.6 5739.9c0-25.2 11.8-51.6 40-51.6 28 0 39.9 26.4 39.9 51.6 0 25-11.8 51.7-39.9 51.7-28.2.1-40-26.6-40-51.7zm62.1 0c0-19.2-5.7-36-22-36s-22.2 16.8-22.2 36c0 19.1 5.9 36.1 22.2 36.1 16.1.1 22-17 22-36.1zM3750.1 5739.9c0-25.2 11.8-51.6 40-51.6 28 0 39.9 26.4 39.9 51.6 0 25-11.8 51.7-39.9 51.7-28.1.1-40-26.6-40-51.7zm62.1 0c0-19.2-5.7-36-22-36s-22.2 16.8-22.2 36c0 19.1 5.8 36.1 22.2 36.1 16.2.1 22-17 22-36.1zM3854.5 5789.9l37.8-84.6h-51.9v-15.4h72.1v12.2l-38.7 87.9h-19.3v-.1z"/></g><g class="st2"><path d="M4163.5 5789.9V5776c38.8-29.4 54.1-42.3 54.1-56.8 0-10.5-9.1-15.2-18.3-15.2-11.7 0-20.5 4.7-27 11.8l-10.2-11.4c8.8-10.8 22.9-16.1 37-16.1 19.3 0 36.1 10.8 36.1 30.8 0 18.6-16.9 35.1-43.6 55.3h44.2v15.4h-72.3v.1zM4251.6 5739.9c0-25.2 11.8-51.6 40-51.6 28 0 39.9 26.4 39.9 51.6 0 25-11.8 51.7-39.9 51.7-28.2.1-40-26.6-40-51.7zm62.1 0c0-19.2-5.7-36-22-36s-22.2 16.8-22.2 36c0 19.1 5.9 36.1 22.2 36.1 16.1.1 22-17 22-36.1zM4344.1 5739.9c0-25.2 11.8-51.6 40-51.6 28 0 39.9 26.4 39.9 51.6 0 25-11.8 51.7-39.9 51.7-28.1.1-40-26.6-40-51.7zm62.1 0c0-19.2-5.7-36-22-36s-22.2 16.8-22.2 36c0 19.1 5.8 36.1 22.2 36.1 16.2.1 22-17 22-36.1zM4436.7 5764.1c0-12.6 10.3-21.8 22.5-25.8-11.2-3.6-20.8-11.1-20.8-23.7 0-18.6 19-26.2 36.7-26.2s36.7 7.7 36.7 26.2c0 12.6-9.6 20.1-20.8 23.7 12.1 4 22.5 13.2 22.5 25.8 0 18-18 27.6-38.4 27.6-20.6 0-38.4-9.6-38.4-27.6zm58.9-2.3c0-10.3-14.4-14.8-20.5-15.8-6.3.9-20.5 5.4-20.5 15.8 0 8.8 9.1 14.2 20.5 14.2 11.1.1 20.5-5.3 20.5-14.2zm-1.6-44.5c0-8.5-8.1-13.3-18.9-13.3s-18.9 4.8-18.9 13.3c0 9.3 12.9 12.9 18.9 13.9 6.1-1 18.9-4.6 18.9-13.9z"/></g><g class="st2"><path d="M2381.5 5789.9V5776c38.8-29.4 54.1-42.3 54.1-56.8 0-10.5-9.1-15.2-18.3-15.2-11.7 0-20.5 4.7-27 11.8l-10.2-11.4c8.8-10.8 22.9-16.1 37-16.1 19.3 0 36.1 10.8 36.1 30.8 0 18.6-16.9 35.1-43.6 55.3h44.2v15.4h-72.3v.1zM2469.6 5739.9c0-25.2 11.8-51.6 40-51.6 28 0 39.9 26.4 39.9 51.6 0 25-11.8 51.7-39.9 51.7-28.2.1-40-26.6-40-51.7zm62.1 0c0-19.2-5.7-36-22-36s-22.2 16.8-22.2 36c0 19.1 5.9 36.1 22.2 36.1 16.1.1 22-17 22-36.1zM2562.1 5739.9c0-25.2 11.8-51.6 40-51.6 28 0 39.9 26.4 39.9 51.6 0 25-11.8 51.7-39.9 51.7-28.1.1-40-26.6-40-51.7zm62.1 0c0-19.2-5.7-36-22-36s-22.2 16.8-22.2 36c0 19.1 5.8 36.1 22.2 36.1 16.2.1 22-17 22-36.1zM2656.9 5776.2l10-12.1c6.6 7.8 15.7 12 26.8 12 12.7 0 20.5-7.8 20.5-17.7 0-10.6-7.8-17.7-20.1-17.7-8.4 0-15.4 2.6-21.9 8.6l-12.4-3.6v-55.8h65.5v15.4h-48v28.8c5-4.6 13-8.5 22.6-8.5 16.9 0 32.1 11.7 32.1 32.2 0 20.7-15.9 33.9-38.2 33.9-16.9 0-28.8-6-36.9-15.5z"/></g><g class="st2"><path d="M2975.5 5789.9V5776c38.8-29.4 54.1-42.3 54.1-56.8 0-10.5-9.1-15.2-18.3-15.2-11.7 0-20.5 4.7-27 11.8l-10.2-11.4c8.8-10.8 22.9-16.1 37-16.1 19.3 0 36.1 10.8 36.1 30.8 0 18.6-16.9 35.1-43.6 55.3h44.2v15.4h-72.3v.1zM3063.6 5739.9c0-25.2 11.8-51.6 40-51.6 28 0 39.9 26.4 39.9 51.6 0 25-11.8 51.7-39.9 51.7-28.2.1-40-26.6-40-51.7zm62.1 0c0-19.2-5.7-36-22-36s-22.2 16.8-22.2 36c0 19.1 5.9 36.1 22.2 36.1 16.1.1 22-17 22-36.1zM3156.1 5739.9c0-25.2 11.8-51.6 40-51.6 28 0 39.9 26.4 39.9 51.6 0 25-11.8 51.7-39.9 51.7-28.1.1-40-26.6-40-51.7zm62.1 0c0-19.2-5.7-36-22-36s-22.2 16.8-22.2 36c0 19.1 5.8 36.1 22.2 36.1 16.2.1 22-17 22-36.1zM3248.7 5739.9c0-28.8 15.1-51.6 44.1-51.6 12.3 0 21.9 4.3 28.6 11.1l-8.1 13.2c-5.2-5.4-11.1-8.7-20.5-8.7-16.8 0-26.4 15.4-26.4 33v2.9c4.6-6.8 15.1-14.1 26.8-14.1 18 0 33.6 11.1 33.6 32.4 0 18.4-14.5 33.6-36.9 33.6-29.4 0-41.2-23.9-41.2-51.8zm60.3 18.8c0-12.3-9.6-17.8-20.4-17.8-8.5 0-16.9 4.5-21.9 11.7.9 10.8 6.9 23.5 22.2 23.5 13.2 0 20.1-9.5 20.1-17.4z"/></g><g class="st2"><path d="M1193.5 5789.9V5776c38.8-29.4 54.1-42.3 54.1-56.8 0-10.5-9.1-15.2-18.3-15.2-11.7 0-20.5 4.7-27 11.8l-10.2-11.4c8.8-10.8 22.9-16.1 37-16.1 19.3 0 36.1 10.8 36.1 30.8 0 18.6-16.9 35.1-43.6 55.3h44.2v15.4h-72.3v.1zM1281.6 5739.9c0-25.2 11.8-51.6 40-51.6 28 0 39.9 26.4 39.9 51.6 0 25-11.8 51.7-39.9 51.7-28.2.1-40-26.6-40-51.7zm62.1 0c0-19.2-5.7-36-22-36s-22.2 16.8-22.2 36c0 19.1 5.9 36.1 22.2 36.1 16.1.1 22-17 22-36.1zM1374.1 5739.9c0-25.2 11.8-51.6 40-51.6 28 0 39.9 26.4 39.9 51.6 0 25-11.8 51.7-39.9 51.7-28.1.1-40-26.6-40-51.7zm62.1 0c0-19.2-5.7-36-22-36s-22.2 16.8-22.2 36c0 19.1 5.8 36.1 22.2 36.1 16.2.1 22-17 22-36.1zM1464 5775.5l9.6-11.5c6.5 7.5 16.9 12.1 27.6 12.1 13.2 0 20.8-6.1 20.8-15.3 0-9.9-7.8-14.2-22.2-14.2-4.2 0-9.9.2-11.4.3V5731c1.6.1 7.5.1 11.4.1 11.8 0 20.7-4 20.7-13.2 0-9.1-9.1-13.9-20.2-13.9-10.3 0-18.7 3.8-25.9 11.1l-9-10.9c7.8-9.2 19.9-15.8 36.6-15.8 21.6 0 36 10.2 36 26.8 0 13.5-11.4 21.3-21.6 22.9 9.6 1 23.2 8.8 23.2 24.3 0 17.1-14.5 29.2-37.8 29.2-17.7.1-30.9-7.1-37.8-16.1z"/></g><g class="st2"><path d="M1787.5 5789.9V5776c38.8-29.4 54.1-42.3 54.1-56.8 0-10.5-9.1-15.2-18.3-15.2-11.7 0-20.5 4.7-27 11.8l-10.2-11.4c8.8-10.8 22.9-16.1 37-16.1 19.3 0 36.1 10.8 36.1 30.8 0 18.6-16.9 35.1-43.6 55.3h44.2v15.4h-72.3v.1zM1875.6 5739.9c0-25.2 11.8-51.6 40-51.6 28 0 39.9 26.4 39.9 51.6 0 25-11.8 51.7-39.9 51.7-28.2.1-40-26.6-40-51.7zm62.1 0c0-19.2-5.7-36-22-36s-22.2 16.8-22.2 36c0 19.1 5.9 36.1 22.2 36.1 16.1.1 22-17 22-36.1zM1968.1 5739.9c0-25.2 11.8-51.6 40-51.6 28 0 39.9 26.4 39.9 51.6 0 25-11.8 51.7-39.9 51.7-28.1.1-40-26.6-40-51.7zm62.1 0c0-19.2-5.7-36-22-36s-22.2 16.8-22.2 36c0 19.1 5.8 36.1 22.2 36.1 16.2.1 22-17 22-36.1zM2106.3 5789.9v-22.7h-47.7v-14.1l41.1-63.3h24.1v61.9h13.3v15.4h-13.3v22.7h-17.5v.1zm0-84.3l-30.4 46.2h30.4v-46.2z"/></g><g class="st2"><path d="M599.5 5789.9V5776c38.8-29.4 54.1-42.3 54.1-56.8 0-10.5-9.1-15.2-18.3-15.2-11.7 0-20.5 4.7-27 11.8l-10.2-11.4c8.8-10.8 22.9-16.1 37-16.1 19.3 0 36.1 10.8 36.1 30.8 0 18.6-16.9 35.1-43.6 55.3H672v15.4h-72.5v.1zM687.6 5739.9c0-25.2 11.8-51.6 40-51.6 28 0 39.9 26.4 39.9 51.6 0 25-11.8 51.7-39.9 51.7-28.2.1-40-26.6-40-51.7zm62.1 0c0-19.2-5.7-36-22-36s-22.2 16.8-22.2 36c0 19.1 5.9 36.1 22.2 36.1 16.1.1 22-17 22-36.1zM780.1 5739.9c0-25.2 11.8-51.6 40-51.6 28 0 39.9 26.4 39.9 51.6 0 25-11.8 51.7-39.9 51.7-28.1.1-40-26.6-40-51.7zm62.1 0c0-19.2-5.7-36-22-36s-22.2 16.8-22.2 36c0 19.1 5.8 36.1 22.2 36.1 16.2.1 22-17 22-36.1zM873.9 5789.9V5776c38.8-29.4 54.1-42.3 54.1-56.8 0-10.5-9.1-15.2-18.3-15.2-11.7 0-20.5 4.7-27 11.8l-10.2-11.4c8.8-10.8 22.9-16.1 37-16.1 19.3 0 36.1 10.8 36.1 30.8 0 18.6-16.9 35.1-43.6 55.3h44.2v15.4h-72.3v.1z"/></g></g><g><path class="st0" d="M745.5 5634.1v-119.5M1339.5 5634.1v-119.5M1933.4 5634.1v-119.5M2527.4 5634.1v-119.5M3121.4 5634.1v-119.5M3715.4 5634.1v-119.5M4309.4 5634.1v-119.5M4903.4 5634.1v-119.5M5497.6 5634.1v-119.5M6091.6 5634.1v-119.5M6685.6 5634.1v-119.5M7279.6 5634.1v-119.5M7873.6 5634.1v-119.5M8467.6 5634.1v-119.5M9061.5 5634.1v-119.5"/><g class="st2"><path d="M8321.5 5790.1v-13.9c38.8-29.4 54.1-42.3 54.1-56.8 0-10.5-9.1-15.2-18.3-15.2-11.7 0-20.5 4.7-27 11.8l-10.2-11.4c8.8-10.8 22.9-16.1 37-16.1 19.3 0 36.1 10.8 36.1 30.8 0 18.6-16.9 35.1-43.6 55.3h44.2v15.4h-72.3v.1zM8409.6 5740.2c0-25.2 11.8-51.6 40-51.6 28 0 39.9 26.4 39.9 51.6 0 25-11.8 51.7-39.9 51.7-28.2 0-40-26.7-40-51.7zm62.1 0c0-19.2-5.7-36-22-36s-22.2 16.8-22.2 36c0 19.1 5.9 36.1 22.2 36.1 16.1 0 22-17.1 22-36.1zM8524.6 5790.1v-77.4l-16.3 17.1-10.2-10.6 28.8-29.1h15.3v100h-17.6zM8561.4 5776.5l10-12.1c6.6 7.8 15.7 12 26.8 12 12.7 0 20.5-7.8 20.5-17.7 0-10.6-7.8-17.7-20.1-17.7-8.4 0-15.4 2.6-21.9 8.6l-12.5-3.6v-55.8h65.5v15.4h-48v28.8c5-4.6 13-8.5 22.6-8.5 16.9 0 32.1 11.7 32.1 32.2 0 20.7-15.9 33.9-38.2 33.9-16.9-.1-28.7-6.1-36.8-15.5z"/></g><g class="st2"><path d="M7133.5 5790.1v-13.9c38.8-29.4 54.1-42.3 54.1-56.8 0-10.5-9.1-15.2-18.3-15.2-11.7 0-20.5 4.7-27 11.8l-10.2-11.4c8.8-10.8 22.9-16.1 37-16.1 19.3 0 36.1 10.8 36.1 30.8 0 18.6-16.9 35.1-43.6 55.3h44.2v15.4h-72.3v.1zM7221.6 5740.2c0-25.2 11.8-51.6 40-51.6 28 0 39.9 26.4 39.9 51.6 0 25-11.8 51.7-39.9 51.7-28.2 0-40-26.7-40-51.7zm62.1 0c0-19.2-5.7-36-22-36s-22.2 16.8-22.2 36c0 19.1 5.9 36.1 22.2 36.1 16.1 0 22-17.1 22-36.1zM7336.6 5790.1v-77.4l-16.3 17.1-10.2-10.6 28.8-29.1h15.3v100h-17.6zM7368.4 5775.7l9.6-11.5c6.5 7.5 16.9 12.1 27.6 12.1 13.2 0 20.8-6.1 20.8-15.3 0-9.9-7.8-14.2-22.2-14.2-4.2 0-9.9.2-11.4.3v-15.9c1.7.1 7.5.1 11.4.1 11.8 0 20.7-4 20.7-13.2 0-9.1-9.1-13.9-20.2-13.9-10.3 0-18.8 3.8-25.9 11.1l-9-10.9c7.8-9.2 19.9-15.8 36.6-15.8 21.6 0 36 10.2 36 26.8 0 13.5-11.4 21.3-21.6 22.9 9.6 1 23.2 8.8 23.2 24.3 0 17.1-14.5 29.2-37.8 29.2-17.7.1-30.9-7.1-37.8-16.1z"/></g><g class="st2"><path d="M7727.5 5790.1v-13.9c38.8-29.4 54.1-42.3 54.1-56.8 0-10.5-9.1-15.2-18.3-15.2-11.7 0-20.5 4.7-27 11.8l-10.2-11.4c8.8-10.8 22.9-16.1 37-16.1 19.3 0 36.1 10.8 36.1 30.8 0 18.6-16.9 35.1-43.6 55.3h44.2v15.4h-72.3v.1zM7815.6 5740.2c0-25.2 11.8-51.6 40-51.6 28 0 39.9 26.4 39.9 51.6 0 25-11.8 51.7-39.9 51.7-28.2 0-40-26.7-40-51.7zm62.1 0c0-19.2-5.7-36-22-36s-22.2 16.8-22.2 36c0 19.1 5.9 36.1 22.2 36.1 16.1 0 22-17.1 22-36.1zM7930.6 5790.1v-77.4l-16.3 17.1-10.2-10.6 28.8-29.1h15.3v100h-17.6zM8010.7 5790.1v-22.7H7963v-14.1l41.1-63.3h24.1v61.9h13.3v15.4h-13.3v22.7h-17.5v.1zm0-84.3l-30.4 46.2h30.4v-46.2z"/></g><g class="st2"><path d="M5945.5 5790.1v-13.9c38.8-29.4 54.1-42.3 54.1-56.8 0-10.5-9.1-15.2-18.3-15.2-11.7 0-20.5 4.7-27 11.8l-10.2-11.4c8.8-10.8 22.9-16.1 37-16.1 19.3 0 36.1 10.8 36.1 30.8 0 18.6-16.9 35.1-43.6 55.3h44.2v15.4h-72.3v.1zM6033.6 5740.2c0-25.2 11.8-51.6 40-51.6 28 0 39.9 26.4 39.9 51.6 0 25-11.8 51.7-39.9 51.7-28.2 0-40-26.7-40-51.7zm62.1 0c0-19.2-5.7-36-22-36s-22.2 16.8-22.2 36c0 19.1 5.9 36.1 22.2 36.1 16.1 0 22-17.1 22-36.1zM6148.6 5790.1v-77.4l-16.3 17.1-10.2-10.6 28.8-29.1h15.3v100h-17.6zM6205.6 5790.1v-77.4l-16.3 17.1-10.2-10.6 28.8-29.1h15.3v100h-17.6z"/></g><g class="st2"><path d="M6539.5 5790.1v-13.9c38.8-29.4 54.1-42.3 54.1-56.8 0-10.5-9.1-15.2-18.3-15.2-11.7 0-20.5 4.7-27 11.8l-10.2-11.4c8.8-10.8 22.9-16.1 37-16.1 19.3 0 36.1 10.8 36.1 30.8 0 18.6-16.9 35.1-43.6 55.3h44.2v15.4h-72.3v.1zM6627.6 5740.2c0-25.2 11.8-51.6 40-51.6 28 0 39.9 26.4 39.9 51.6 0 25-11.8 51.7-39.9 51.7-28.2 0-40-26.7-40-51.7zm62.1 0c0-19.2-5.7-36-22-36s-22.2 16.8-22.2 36c0 19.1 5.9 36.1 22.2 36.1 16.1 0 22-17.1 22-36.1zM6742.6 5790.1v-77.4l-16.3 17.1-10.2-10.6 28.8-29.1h15.3v100h-17.6zM6778.3 5790.1v-13.9c38.8-29.4 54.1-42.3 54.1-56.8 0-10.5-9.1-15.2-18.3-15.2-11.7 0-20.5 4.7-27 11.8l-10.2-11.4c8.8-10.8 22.9-16.1 37-16.1 19.3 0 36.1 10.8 36.1 30.8 0 18.6-16.9 35.1-43.6 55.3h44.2v15.4h-72.3v.1z"/></g><g class="st2"><path d="M4757.5 5790.1v-13.9c38.8-29.4 54.1-42.3 54.1-56.8 0-10.5-9.1-15.2-18.3-15.2-11.7 0-20.5 4.7-27 11.8l-10.2-11.4c8.8-10.8 22.9-16.1 37-16.1 19.3 0 36.1 10.8 36.1 30.8 0 18.6-16.9 35.1-43.6 55.3h44.2v15.4h-72.3v.1zM4845.6 5740.2c0-25.2 11.8-51.6 40-51.6 28 0 39.9 26.4 39.9 51.6 0 25-11.8 51.7-39.9 51.7-28.2 0-40-26.7-40-51.7zm62.1 0c0-19.2-5.7-36-22-36s-22.2 16.8-22.2 36c0 19.1 5.9 36.1 22.2 36.1 16.1 0 22-17.1 22-36.1zM4938.1 5740.2c0-25.2 11.8-51.6 40-51.6 28 0 39.9 26.4 39.9 51.6 0 25-11.8 51.7-39.9 51.7-28.1 0-40-26.7-40-51.7zm62.1 0c0-19.2-5.7-36-22-36s-22.2 16.8-22.2 36c0 19.1 5.8 36.1 22.2 36.1 16.2 0 22-17.1 22-36.1zM5035.5 5780.7l8.2-13.3c5.2 5.5 11 8.8 20.5 8.8 18.1 0 26.4-16.7 26.4-33 0-.9 0-1.9-.2-2.8-4.5 6.8-15 13.9-26.8 13.9-18 0-33.4-10.9-33.4-32.2 0-18.6 14.5-33.6 36.9-33.6 29.4 0 41.2 23.8 41.2 51.6 0 28.9-15.2 51.7-44.1 51.7-12.4 0-22-4.5-28.7-11.1zm54.9-53.3c-1-10.8-6.9-23.4-22.3-23.4-13.2 0-20.1 9.3-20.1 17.4 0 12.3 9.6 17.8 20.5 17.8 8.5.1 16.8-4.6 21.9-11.8z"/></g><g class="st2"><path d="M5351.5 5790.1v-13.9c38.8-29.4 54.1-42.3 54.1-56.8 0-10.5-9.1-15.2-18.3-15.2-11.7 0-20.5 4.7-27 11.8l-10.2-11.4c8.8-10.8 22.9-16.1 37-16.1 19.3 0 36.1 10.8 36.1 30.8 0 18.6-16.9 35.1-43.6 55.3h44.2v15.4h-72.3v.1zM5439.6 5740.2c0-25.2 11.8-51.6 40-51.6 28 0 39.9 26.4 39.9 51.6 0 25-11.8 51.7-39.9 51.7-28.2 0-40-26.7-40-51.7zm62.1 0c0-19.2-5.7-36-22-36s-22.2 16.8-22.2 36c0 19.1 5.9 36.1 22.2 36.1 16.1 0 22-17.1 22-36.1zM5554.6 5790.1v-77.4l-16.3 17.1-10.2-10.6 28.8-29.1h15.3v100h-17.6zM5589.1 5740.2c0-25.2 11.8-51.6 40-51.6 28 0 39.9 26.4 39.9 51.6 0 25-11.8 51.7-39.9 51.7-28.1 0-40-26.7-40-51.7zm62.1 0c0-19.2-5.7-36-22-36s-22.2 16.8-22.2 36c0 19.1 5.9 36.1 22.2 36.1 16.2 0 22-17.1 22-36.1z"/></g><g class="st2"><path d="M3569.5 5790.1v-13.9c38.8-29.4 54.1-42.3 54.1-56.8 0-10.5-9.1-15.2-18.3-15.2-11.7 0-20.5 4.7-27 11.8l-10.2-11.4c8.8-10.8 22.9-16.1 37-16.1 19.3 0 36.1 10.8 36.1 30.8 0 18.6-16.9 35.1-43.6 55.3h44.2v15.4h-72.3v.1zM3657.6 5740.2c0-25.2 11.8-51.6 40-51.6 28 0 39.9 26.4 39.9 51.6 0 25-11.8 51.7-39.9 51.7-28.2 0-40-26.7-40-51.7zm62.1 0c0-19.2-5.7-36-22-36s-22.2 16.8-22.2 36c0 19.1 5.9 36.1 22.2 36.1 16.1 0 22-17.1 22-36.1zM3750.1 5740.2c0-25.2 11.8-51.6 40-51.6 28 0 39.9 26.4 39.9 51.6 0 25-11.8 51.7-39.9 51.7-28.1 0-40-26.7-40-51.7zm62.1 0c0-19.2-5.7-36-22-36s-22.2 16.8-22.2 36c0 19.1 5.8 36.1 22.2 36.1 16.2 0 22-17.1 22-36.1zM3854.5 5790.1l37.8-84.6h-51.9v-15.4h72.1v12.2l-38.7 87.9h-19.3v-.1z"/></g><g class="st2"><path d="M4163.5 5790.1v-13.9c38.8-29.4 54.1-42.3 54.1-56.8 0-10.5-9.1-15.2-18.3-15.2-11.7 0-20.5 4.7-27 11.8l-10.2-11.4c8.8-10.8 22.9-16.1 37-16.1 19.3 0 36.1 10.8 36.1 30.8 0 18.6-16.9 35.1-43.6 55.3h44.2v15.4h-72.3v.1zM4251.6 5740.2c0-25.2 11.8-51.6 40-51.6 28 0 39.9 26.4 39.9 51.6 0 25-11.8 51.7-39.9 51.7-28.2 0-40-26.7-40-51.7zm62.1 0c0-19.2-5.7-36-22-36s-22.2 16.8-22.2 36c0 19.1 5.9 36.1 22.2 36.1 16.1 0 22-17.1 22-36.1zM4344.1 5740.2c0-25.2 11.8-51.6 40-51.6 28 0 39.9 26.4 39.9 51.6 0 25-11.8 51.7-39.9 51.7-28.1 0-40-26.7-40-51.7zm62.1 0c0-19.2-5.7-36-22-36s-22.2 16.8-22.2 36c0 19.1 5.8 36.1 22.2 36.1 16.2 0 22-17.1 22-36.1zM4436.7 5764.3c0-12.6 10.3-21.8 22.5-25.8-11.2-3.6-20.8-11.1-20.8-23.7 0-18.6 19-26.2 36.7-26.2s36.7 7.7 36.7 26.2c0 12.6-9.6 20.1-20.8 23.7 12.1 4 22.5 13.2 22.5 25.8 0 18-18 27.6-38.4 27.6-20.6 0-38.4-9.6-38.4-27.6zm58.9-2.2c0-10.3-14.4-14.8-20.5-15.8-6.3.9-20.5 5.4-20.5 15.8 0 8.8 9.1 14.2 20.5 14.2 11.1 0 20.5-5.4 20.5-14.2zm-1.6-44.6c0-8.5-8.1-13.3-18.9-13.3s-18.9 4.8-18.9 13.3c0 9.3 12.9 12.9 18.9 13.9 6.1-1 18.9-4.6 18.9-13.9z"/></g><g class="st2"><path d="M2381.5 5790.1v-13.9c38.8-29.4 54.1-42.3 54.1-56.8 0-10.5-9.1-15.2-18.3-15.2-11.7 0-20.5 4.7-27 11.8l-10.2-11.4c8.8-10.8 22.9-16.1 37-16.1 19.3 0 36.1 10.8 36.1 30.8 0 18.6-16.9 35.1-43.6 55.3h44.2v15.4h-72.3v.1zM2469.6 5740.2c0-25.2 11.8-51.6 40-51.6 28 0 39.9 26.4 39.9 51.6 0 25-11.8 51.7-39.9 51.7-28.2 0-40-26.7-40-51.7zm62.1 0c0-19.2-5.7-36-22-36s-22.2 16.8-22.2 36c0 19.1 5.9 36.1 22.2 36.1 16.1 0 22-17.1 22-36.1zM2562.1 5740.2c0-25.2 11.8-51.6 40-51.6 28 0 39.9 26.4 39.9 51.6 0 25-11.8 51.7-39.9 51.7-28.1 0-40-26.7-40-51.7zm62.1 0c0-19.2-5.7-36-22-36s-22.2 16.8-22.2 36c0 19.1 5.8 36.1 22.2 36.1 16.2 0 22-17.1 22-36.1zM2656.9 5776.5l10-12.1c6.6 7.8 15.7 12 26.8 12 12.7 0 20.5-7.8 20.5-17.7 0-10.6-7.8-17.7-20.1-17.7-8.4 0-15.4 2.6-21.9 8.6l-12.4-3.6v-55.8h65.5v15.4h-48v28.8c5-4.6 13-8.5 22.6-8.5 16.9 0 32.1 11.7 32.1 32.2 0 20.7-15.9 33.9-38.2 33.9-16.9-.1-28.8-6.1-36.9-15.5z"/></g><g class="st2"><path d="M2975.5 5790.1v-13.9c38.8-29.4 54.1-42.3 54.1-56.8 0-10.5-9.1-15.2-18.3-15.2-11.7 0-20.5 4.7-27 11.8l-10.2-11.4c8.8-10.8 22.9-16.1 37-16.1 19.3 0 36.1 10.8 36.1 30.8 0 18.6-16.9 35.1-43.6 55.3h44.2v15.4h-72.3v.1zM3063.6 5740.2c0-25.2 11.8-51.6 40-51.6 28 0 39.9 26.4 39.9 51.6 0 25-11.8 51.7-39.9 51.7-28.2 0-40-26.7-40-51.7zm62.1 0c0-19.2-5.7-36-22-36s-22.2 16.8-22.2 36c0 19.1 5.9 36.1 22.2 36.1 16.1 0 22-17.1 22-36.1zM3156.1 5740.2c0-25.2 11.8-51.6 40-51.6 28 0 39.9 26.4 39.9 51.6 0 25-11.8 51.7-39.9 51.7-28.1 0-40-26.7-40-51.7zm62.1 0c0-19.2-5.7-36-22-36s-22.2 16.8-22.2 36c0 19.1 5.8 36.1 22.2 36.1 16.2 0 22-17.1 22-36.1zM3248.7 5740.2c0-28.8 15.1-51.6 44.1-51.6 12.3 0 21.9 4.3 28.6 11.1l-8.1 13.2c-5.2-5.4-11.1-8.7-20.5-8.7-16.8 0-26.4 15.4-26.4 33v2.9c4.6-6.8 15.1-14.1 26.8-14.1 18 0 33.6 11.1 33.6 32.4 0 18.4-14.5 33.6-36.9 33.6-29.4-.1-41.2-23.9-41.2-51.8zm60.3 18.7c0-12.3-9.6-17.8-20.4-17.8-8.5 0-16.9 4.5-21.9 11.7.9 10.8 6.9 23.5 22.2 23.5 13.2 0 20.1-9.4 20.1-17.4z"/></g><g class="st2"><path d="M1193.5 5790.1v-13.9c38.8-29.4 54.1-42.3 54.1-56.8 0-10.5-9.1-15.2-18.3-15.2-11.7 0-20.5 4.7-27 11.8l-10.2-11.4c8.8-10.8 22.9-16.1 37-16.1 19.3 0 36.1 10.8 36.1 30.8 0 18.6-16.9 35.1-43.6 55.3h44.2v15.4h-72.3v.1zM1281.6 5740.2c0-25.2 11.8-51.6 40-51.6 28 0 39.9 26.4 39.9 51.6 0 25-11.8 51.7-39.9 51.7-28.2 0-40-26.7-40-51.7zm62.1 0c0-19.2-5.7-36-22-36s-22.2 16.8-22.2 36c0 19.1 5.9 36.1 22.2 36.1 16.1 0 22-17.1 22-36.1zM1374.1 5740.2c0-25.2 11.8-51.6 40-51.6 28 0 39.9 26.4 39.9 51.6 0 25-11.8 51.7-39.9 51.7-28.1 0-40-26.7-40-51.7zm62.1 0c0-19.2-5.7-36-22-36s-22.2 16.8-22.2 36c0 19.1 5.8 36.1 22.2 36.1 16.2 0 22-17.1 22-36.1zM1464 5775.7l9.6-11.5c6.5 7.5 16.9 12.1 27.6 12.1 13.2 0 20.8-6.1 20.8-15.3 0-9.9-7.8-14.2-22.2-14.2-4.2 0-9.9.2-11.4.3v-15.9c1.6.1 7.5.1 11.4.1 11.8 0 20.7-4 20.7-13.2 0-9.1-9.1-13.9-20.2-13.9-10.3 0-18.7 3.8-25.9 11.1l-9-10.9c7.8-9.2 19.9-15.8 36.6-15.8 21.6 0 36 10.2 36 26.8 0 13.5-11.4 21.3-21.6 22.9 9.6 1 23.2 8.8 23.2 24.3 0 17.1-14.5 29.2-37.8 29.2-17.7.1-30.9-7.1-37.8-16.1z"/></g><g class="st2"><path d="M1787.5 5790.1v-13.9c38.8-29.4 54.1-42.3 54.1-56.8 0-10.5-9.1-15.2-18.3-15.2-11.7 0-20.5 4.7-27 11.8l-10.2-11.4c8.8-10.8 22.9-16.1 37-16.1 19.3 0 36.1 10.8 36.1 30.8 0 18.6-16.9 35.1-43.6 55.3h44.2v15.4h-72.3v.1zM1875.6 5740.2c0-25.2 11.8-51.6 40-51.6 28 0 39.9 26.4 39.9 51.6 0 25-11.8 51.7-39.9 51.7-28.2 0-40-26.7-40-51.7zm62.1 0c0-19.2-5.7-36-22-36s-22.2 16.8-22.2 36c0 19.1 5.9 36.1 22.2 36.1 16.1 0 22-17.1 22-36.1zM1968.1 5740.2c0-25.2 11.8-51.6 40-51.6 28 0 39.9 26.4 39.9 51.6 0 25-11.8 51.7-39.9 51.7-28.1 0-40-26.7-40-51.7zm62.1 0c0-19.2-5.7-36-22-36s-22.2 16.8-22.2 36c0 19.1 5.8 36.1 22.2 36.1 16.2 0 22-17.1 22-36.1zM2106.3 5790.1v-22.7h-47.7v-14.1l41.1-63.3h24.1v61.9h13.3v15.4h-13.3v22.7h-17.5v.1zm0-84.3l-30.4 46.2h30.4v-46.2z"/></g><g class="st2"><path d="M599.5 5790.1v-13.9c38.8-29.4 54.1-42.3 54.1-56.8 0-10.5-9.1-15.2-18.3-15.2-11.7 0-20.5 4.7-27 11.8l-10.2-11.4c8.8-10.8 22.9-16.1 37-16.1 19.3 0 36.1 10.8 36.1 30.8 0 18.6-16.9 35.1-43.6 55.3H672v15.4h-72.5v.1zM687.6 5740.2c0-25.2 11.8-51.6 40-51.6 28 0 39.9 26.4 39.9 51.6 0 25-11.8 51.7-39.9 51.7-28.2 0-40-26.7-40-51.7zm62.1 0c0-19.2-5.7-36-22-36s-22.2 16.8-22.2 36c0 19.1 5.9 36.1 22.2 36.1 16.1 0 22-17.1 22-36.1zM780.1 5740.2c0-25.2 11.8-51.6 40-51.6 28 0 39.9 26.4 39.9 51.6 0 25-11.8 51.7-39.9 51.7-28.1 0-40-26.7-40-51.7zm62.1 0c0-19.2-5.7-36-22-36s-22.2 16.8-22.2 36c0 19.1 5.8 36.1 22.2 36.1 16.2 0 22-17.1 22-36.1zM873.9 5790.1v-13.9c38.8-29.4 54.1-42.3 54.1-56.8 0-10.5-9.1-15.2-18.3-15.2-11.7 0-20.5 4.7-27 11.8l-10.2-11.4c8.8-10.8 22.9-16.1 37-16.1 19.3 0 36.1 10.8 36.1 30.8 0 18.6-16.9 35.1-43.6 55.3h44.2v15.4h-72.3v.1z"/></g></g><g class="st2"><path class="st7" d="M7098.1 541.9l16.5-22.8c11.2 12.2 29.5 23.2 52.8 23.2 24 0 33.2-11.8 33.2-23 0-35-97-13.2-97-74.5 0-27.8 24-49 60.8-49 25.8 0 47 8.5 62.2 23.5l-16.5 21.8c-13.2-13.2-31-19.2-48.5-19.2-17 0-28 8.5-28 20.8 0 31.2 97 12 97 74 0 27.8-19.8 51.8-64.5 51.8-30.7-.1-53-11.1-68-26.6zM7364.1 565.4c-4-3.8-9.2-8.8-14.8-14.5-12.5 10.5-27.8 17.5-46.8 17.5-29.5 0-53.5-16-53.5-47.5 0-25.8 17-39 36.2-48.8-7-12.5-11.8-25.2-11.8-36.8 0-22.2 19.2-39.2 45.2-39.2 22.5 0 41 12.2 41 34 0 25.2-20.8 36.2-41.5 46.2 5.8 8 11.8 15.2 16.5 20.8 5.5 6.8 11 13.2 16.5 19.2 8-12 13.5-25.2 16.5-35l21.2 9.8c-5.8 13.5-13.2 28.2-23 41.5 10 10.5 20.5 21.2 32.5 32.8h-34.2zm-29.2-29.7c-8.5-9-16.2-17.8-20.5-23.2-6.2-7.2-12.8-15.5-18.5-23.8-11 7.2-19 16-19 30 0 18.2 13.8 28.8 29.2 28.8 10.8-.1 20.3-4.8 28.8-11.8zm-26.8-74.5c15.8-7.5 28.5-15.5 28.5-29.5 0-10.2-7.2-16.2-16.8-16.2-11 0-20 8.5-20 20.8.1 7.4 3.3 16.1 8.3 24.9zM7422.6 565.4V398.7h73.5c35 0 54.2 23.8 54.2 52.2 0 28.2-19.5 52-54.2 52h-44.2v62.5h-29.3zm97.8-114.5c0-16-11.8-26.5-28.2-26.5H7452v52.8h40.2c16.4 0 28.2-10.5 28.2-26.3zM7639.9 542.7l16.8-20.2c11 13 26.2 20 44.8 20 21.2 0 34.2-13 34.2-29.5 0-17.8-13-29.5-33.5-29.5-14 0-25.8 4.2-36.5 14.2l-20.8-6v-93h109.2v25.8h-80v48c8.2-7.8 21.8-14.2 37.8-14.2 28.2 0 53.5 19.5 53.5 53.8 0 34.5-26.5 56.5-63.8 56.5-28.5-.2-48.2-10.2-61.7-25.9zM7788.1 482.2c0-42 19.8-86 66.8-86 46.8 0 66.5 44 66.5 86 0 41.8-19.8 86.2-66.5 86.2-47 0-66.8-44.5-66.8-86.2zm103.5 0c0-32-9.5-60-36.8-60s-37 28-37 60c0 31.8 9.8 60.2 37 60.2 27.1 0 36.8-28.5 36.8-60.2zM7944.4 482.2c0-42 19.8-86 66.8-86 46.8 0 66.5 44 66.5 86 0 41.8-19.8 86.2-66.5 86.2-47.1 0-66.8-44.5-66.8-86.2zm103.5 0c0-32-9.5-60-36.8-60s-37 28-37 60c0 31.8 9.8 60.2 37 60.2 27 0 36.8-28.5 36.8-60.2z"/></g><g class="st2"><path class="st8" d="M6531.7 206.9l16.5-22.8c11.2 12.2 29.5 23.2 52.8 23.2 24 0 33.2-11.8 33.2-23 0-35-97-13.2-97-74.5 0-27.8 24-49 60.8-49 25.8 0 47 8.5 62.2 23.5l-16.5 21.8c-13.2-13.2-31-19.2-48.5-19.2-17 0-28 8.5-28 20.8 0 31.2 97 12 97 74 0 27.8-19.8 51.8-64.5 51.8-30.8-.1-53-11.1-68-26.6zM6693.9 202.2v-69.8h-20v-22.8h20v-33h26.2v33h24.5v22.8h-24.5v63.2c0 8.2 4 14.5 11.5 14.5 5 0 9.5-2.2 11.5-4.5l6.2 20c-4.8 4.2-12.5 7.8-24.5 7.8-20.4 0-30.9-11-30.9-31.2zM6762.9 169.9c0-34.8 23.5-63.2 62-63.2s62 28.5 62 63.2c0 34.5-23.5 63.5-62 63.5s-62-29-62-63.5zm96.8 0c0-21.2-12.2-40-34.8-40-22.2 0-34.8 18.8-34.8 40 0 21.5 12.5 40.2 34.8 40.2 22.5.1 34.8-18.7 34.8-40.2zM6908.4 169.9c0-36.5 25.8-63.2 62.2-63.2 23.8 0 37.8 10 46.2 21.5l-17.2 15.8c-6.8-9.5-16-14-27.8-14-21.8 0-36.5 16.5-36.5 40s14.8 40.2 36.5 40.2c11.8 0 21-5 27.8-14.5l17.2 16.2c-8.5 11.2-22.5 21.5-46.2 21.5-36.4 0-62.2-27-62.2-63.5zM7122.2 230.4l-36.8-50-17 17.5v32.5h-26.2V63.7h26.2v104.2l53.2-58.2h32.5l-50 54.8 51 66h-32.9v-.1zM7360.2 230.4l-12.2-32.2h-76.5l-12.2 32.2h-33.2l65.5-166.8h36.5l65.5 166.8h-33.4zm-50.5-137.5l-30 79.5h60l-30-79.5zM7497.6 230.4v-16.5c-9.2 12-23 19.5-38.8 19.5-30.8 0-53.5-23.5-53.5-63.5 0-39 22.5-63.2 53.5-63.2 15.2 0 29.2 6.8 38.8 19.8V63.7h26.2v166.8h-26.2v-.1zm0-36.5v-47.8c-5.8-9-18.8-16.2-31-16.2-21 0-34.2 16.8-34.2 40 0 23.5 13.2 40.2 34.2 40.2 12.3.1 25.3-7.2 31-16.2zM7591.6 230.4l-49.2-120.8h28.2l35.2 90.5 35.2-90.5h28l-49.2 120.8h-28.2zM7684.6 78.7c0-9 7.2-16.2 16.2-16.2s16.2 7.2 16.2 16.2-7.2 16.2-16.2 16.2-16.2-7.2-16.2-16.2zm3 151.7V109.7h26.2v120.8h-26.2v-.1zM7739.6 214.4l12-18.8c8.5 8.8 25.2 16.8 40.8 16.8 15.8 0 24-6.5 24-16 0-23.8-73-6.8-73-53.2 0-19.8 17-36.5 47.5-36.5 20.5 0 36 7.2 46.8 16.8l-11 18.5c-7.2-8-20.5-14.5-35.8-14.5-13.8 0-22.2 6.5-22.2 15 0 21.2 73 5.2 73 53.2 0 21.5-17.8 37.8-50.2 37.8-20.9-.1-39.4-6.8-51.9-19.1zM7862.6 169.9c0-34.8 23.5-63.2 62-63.2s62 28.5 62 63.2c0 34.5-23.5 63.5-62 63.5s-62-29-62-63.5zm96.8 0c0-21.2-12.2-40-34.8-40-22.2 0-34.8 18.8-34.8 40 0 21.5 12.5 40.2 34.8 40.2 22.5.1 34.8-18.7 34.8-40.2zM8015.4 230.4V109.7h26.2v17.5c9.2-11.5 23.8-20.5 39.2-20.5v26c-2.2-.5-4.8-.8-8-.8-11.2 0-26 7.5-31.2 16.2v82.2h-26.2v.1z"/></g><path class="st9" d="M5041 2993.9h-808"/><text transform="translate(133 840)" class="st10 st11 st12">Calculated by Time-Weighted Return</text><path class="st13" d="M8339.2 161.3h792"/><path class="st14" d="M8339.2 496.3h792"/></svg>